<svg xmlns="http://www.w3.org/2000/svg" viewBox="0 0 536.97 230.47"><defs><style>.a{fill:#0071ae;}.a,.b,.c,.d{fill-rule:evenodd;}.b{fill:#81b9d9;}.c{fill:#b1d6a0;}.d{fill:#00a439;}</style></defs><title>SC</title><path class="a" d="M125.74,131.77h-5.27c-3.53,0-5-2.24-5-5.48V103h10.27V96.45H115.48V84.07h-7.39v42.12c0,8.87,4.46,12.65,12.37,12.65h5.29v-7.06h0Z" transform="translate(-26.47 -75.25)"/><path class="a" d="M54.64,118.8v0.3c0,15.09,12.31,20.49,23.84,20.49,11.25,0,22.59-5.39,22.59-17.32,0-11.59-9.51-14.72-18.44-16.76l-3.11-.67c-8-1.75-14.93-3.21-14.93-9.17,0-8.48,8.72-9.45,12.45-9.45,8.25,0,13,4,13.84,11.39l0,0.27H98.7V97.55c-0.45-11.67-8.23-18.34-21.33-18.34-10.44,0-21,5.24-21,17,0,10.49,8.77,13.26,18.53,15.39L76.83,112c8.26,1.76,16,3.43,16,10.47,0,8.74-8.87,10.05-14.15,10.05a19.54,19.54,0,0,1-11.35-3.21,12.06,12.06,0,0,1-4.94-10.24v-0.3H54.64Z" transform="translate(-26.47 -75.25)"/><path class="a" d="M170.21,132l-0.42.15a5.1,5.1,0,0,1-2,.4c-1.78,0-1.86-1-1.86-4.31V107c0-7.87-5.16-11.66-15.79-11.66-6.44,0-17.31,1.82-17.78,14.11v0.32h7.37l0-.29c0.27-5.14,3.46-7.56,10-7.56,6,0,8.89,2.07,8.89,6.59,0,3.73-3.81,4.28-9,5-1.49.21-3,.43-4.62,0.73-7.19,1.38-14.23,3.52-14.23,13,0,7.42,5.22,11.9,14,11.9a18.72,18.72,0,0,0,14.29-6c0.28,4.86,3.35,6,6,6a9.42,9.42,0,0,0,5-1.22l0.16-.09V132h0Zm-23.94.55c-2.3,0-7.68-.57-7.68-5.75,0-5,4.07-6.44,8-7.15,1.2-.2,2.5-0.38,3.73-0.54,3.18-.41,6.18-0.81,8.22-2h0v6.42c0,3.49-3.36,9-12.33,9h0Z" transform="translate(-26.47 -75.25)"/><path class="a" d="M176.74,96.45v41.86h7.41V114.72c0-7.88,4.43-12.64,11.89-12.64,5,0,8.07,3.1,8.07,8v28.21h7.42V110.89c0-10.37-4.76-15.4-14.52-15.4-5.95,0-10.39,2.32-13.27,7v-6h-7Z" transform="translate(-26.47 -75.25)"/><path class="a" d="M250.8,80.72v20.83c-3.12-4.43-8.8-6.05-13.16-6.05-11.66,0-19.19,8.52-19.19,21.77,0,6.08,1.76,11.55,4.84,15.44a17.86,17.86,0,0,0,14.5,6.63c6,0,10.74-2.24,13-6v5h7.39V80.72H250.8Zm-12.06,52c-8.62,0-12.48-7.5-12.48-15,0-4.68,1.17-15.65,12.09-15.65,11.77,0,12.69,11.76,12.69,15.33,0,7.41-3.21,15.28-12.3,15.28h0Z" transform="translate(-26.47 -75.25)"/><path class="a" d="M305.08,132.15l-0.4.15a5.22,5.22,0,0,1-2,.4c-1.81,0-1.89-1-1.89-4.31V107.16c0-7.86-5.17-11.67-15.77-11.67-6.45,0-17.32,1.82-17.8,14.11v0.32h7.41l0-.29c0.27-5.13,3.43-7.55,10-7.55,6.07,0,8.87,2.12,8.87,6.58,0,3.74-3.77,4.29-9,5-1.5.21-3,.43-4.62,0.73-7.19,1.38-14.2,3.52-14.2,13,0,7.41,5.18,11.9,13.94,11.9a18.62,18.62,0,0,0,14.27-6c0.29,4.86,3.35,6,6,6a9.4,9.4,0,0,0,5-1.22l0.14-.09v-5.88h0Zm-24,.55c-2.3,0-7.63-.57-7.63-5.74,0-5,4-6.45,8-7.15,1.21-.21,2.47-0.38,3.74-0.53,3.2-.43,6.2-0.82,8.2-2h0v6.42c0,3.49-3.32,9-12.3,9h0Z" transform="translate(-26.47 -75.25)"/><path class="a" d="M333.84,95.5h-0.29c-6.89-.22-11.56,2.54-15,9V96.45h-7v41.86h7.39V119.66c0-11.15,4.67-16.39,14.62-16.39h0.31V95.5h0Z" transform="translate(-26.47 -75.25)"/><path class="a" d="M367.21,80.72v20.83c-3.16-4.43-8.79-6.05-13.21-6.05-11.6,0-19.16,8.52-19.16,21.77,0,6.08,1.7,11.55,4.87,15.44a17.8,17.8,0,0,0,14.48,6.63c6.06,0,10.72-2.25,13-6v5h7.4V80.72h-7.4Zm-12,52c-8.64,0-12.48-7.5-12.48-15,0-4.68,1.16-15.65,12.09-15.65,11.75,0,12.66,11.76,12.66,15.33,0,7.41-3.25,15.28-12.27,15.28h0Z" transform="translate(-26.47 -75.25)"/><path class="a" d="M69.91,196.51l0,0.28C69.13,206.74,63,213,53.78,213c-6.35,0-11.27-2.32-14.58-7-3-4.07-4.55-9.82-4.55-16.64,0-6.21,1.63-11.81,4.53-15.82,3.31-4.54,8.34-6.93,14.51-6.93,8.33,0,14.17,4.42,15.64,11.88l0,0.26h8.2l-0.06-.35a20.66,20.66,0,0,0-8.05-14,26,26,0,0,0-15.7-4.75c-8.41,0-15.43,3.07-20.33,8.89-4.49,5.36-7,13-7,21.39,0,18.52,10.22,30,26.67,30,7.07,0,13.09-2.14,17.38-6.15s6.85-9.87,7.57-17l0-.33H69.91Z" transform="translate(-26.47 -75.25)"/><path class="a" d="M85.22,160.94v57.71h7.4V195c0-7.93,4.46-12.64,11.9-12.64,5,0,8.08,3.06,8.08,8v28.32H120V191.11c0-10.32-4.74-15.35-14.5-15.35-4.4,0-10.25,1.66-12.88,6.35V160.94h-7.4Z" transform="translate(-26.47 -75.25)"/><path class="a" d="M135.48,190.15v-0.29c0.27-5.13,3.45-7.51,10-7.51,6.07,0,8.87,2.07,8.87,6.55,0,3.8-3.77,4.33-9,5.07-1.48.2-3,.43-4.6,0.74-7.2,1.38-14.23,3.51-14.23,13,0,7.46,5.23,11.9,14,11.9a18.59,18.59,0,0,0,14.27-6c0.29,4.86,3.39,6,6,6a9.35,9.35,0,0,0,5-1.17l0.15-.09v-5.85l-0.41.14a5.23,5.23,0,0,1-2,.38c-1.77,0-1.85-1-1.85-4.35V187.38c0-7.81-5.17-11.62-15.8-11.62-6.44,0-17.32,1.82-17.8,14.07v0.32h7.4ZM142,213c-2.31,0-7.68-.55-7.68-5.79,0-5,4.06-6.39,8.05-7.1,1.2-.21,2.48-0.37,3.7-0.53,3.21-.41,6.22-0.81,8.23-2h0v6.38c0,3.5-3.32,9.06-12.3,9.06h0Z" transform="translate(-26.47 -75.25)"/><path class="a" d="M374.61,218.61V161h-7.4v20.83c-3.16-4.44-8.79-6.06-13.21-6.06-11.6,0-19.16,8.52-19.16,21.77,0,6,1.7,11.54,4.87,15.44,3.42,4.29,8.4,6.59,14.48,6.59s10.72-2.2,13-6v5.06h7.4ZM355.17,213c-8.64,0-12.48-7.52-12.48-14.95,0-4.69,1.16-15.66,12.09-15.66,11.75,0,12.66,11.77,12.66,15.34,0,7.36-3.25,15.28-12.27,15.28h0Z" transform="translate(-26.47 -75.25)"/><path class="a" d="M252.86,205.61C251.59,210.35,248,213,242.6,213a12.37,12.37,0,0,1-9.17-3.46,13.18,13.18,0,0,1-3.36-9.5H261l0-.3c0.3-7.44-2-14.53-6.14-18.81A17.09,17.09,0,0,0,242,175.76c-11.42,0-19.69,9.13-19.69,21.77,0.44,14,7.76,22,20.09,22,9.45,0,15.92-5.07,17.88-13.94h-7.39Zm-11.29-23.26a11.58,11.58,0,0,1,11.55,11.06h-23c0.54-5.59,4.27-11.06,11.46-11.06h0Z" transform="translate(-26.47 -75.25)"/><path class="a" d="M321.9,205.71c-1.28,4.68-4.9,7.25-10.25,7.25a12.32,12.32,0,0,1-9.15-3.46,13.14,13.14,0,0,1-3.41-9.5H330l0-.3c0.29-7.44-2-14.53-6.14-18.81A17.08,17.08,0,0,0,311,175.76c-11.41,0-19.68,9.13-19.68,21.77,0.43,14,7.73,22,20.08,22,9.44,0,15.9-5,17.86-13.85H321.9Zm-11.28-23.36a11.61,11.61,0,0,1,11.57,11.06H299.13c0.58-5.59,4.33-11.06,11.49-11.06h0Z" transform="translate(-26.47 -75.25)"/><path class="a" d="M179.82,218.64V199.93c0-11.2,4.66-16.39,14.63-16.39h0.31v-7.77h-0.29c-6.94-.23-11.62,2.53-15,9v-8.08h-7v42h7.39Z" transform="translate(-26.47 -75.25)"/><path class="a" d="M275.66,218.61V199.93c0-11.2,4.62-16.39,14.62-16.39h0.31v-7.77H290.3c-7-.23-11.62,2.53-15,9v-8.06h-7v41.92h7.42Z" transform="translate(-26.47 -75.25)"/><path class="a" d="M218.53,212.07h-5.24c-3.54,0-5-2.27-5-5.56V183.29h10.23v-6.57H208.3V164.35h-7.41v42.06c0,8.92,4.46,12.72,12.39,12.72h5.25v-7.06h0Z" transform="translate(-26.47 -75.25)"/><path class="b" d="M459.17,297.83c-6.08,3.58-11.53,5.73-17.32,5.73-14.88,0-27.29-12.18-28-26.85l29-17.26,45.1,20.16-28.74,18.22h0Z" transform="translate(-26.47 -75.25)"/><path class="c" d="M476.4,223.61l-21.57-9.5c-9.58-4.28-18.69-7.88-18.69-18.47,0-5.48,1.65-8.36,4.27-11.21L486,204.5,474.72,211c-3.13,1.9-5.31,3.57-5.31,6,0,2.58,3,4.77,7,6.6h0Z" transform="translate(-26.47 -75.25)"/><path class="b" d="M497.52,124.23l-22,13.41c-2,1.18-4.6,3.07-4.6,6,0,3.35,5.11,5.92,9.62,8.06l-27.63-12.18c-8.1-3.58-16.25-7.65-16.25-17.46a18.07,18.07,0,0,1,3.09-10.33l59.74-36.48c7.17,4,14.11,12.24,14.11,23.27,0,11.77-6,19.66-16,25.71h0Z" transform="translate(-26.47 -75.25)"/><path class="c" d="M544.51,167.36l-5.45,3.13-45.65-20.15,53-31.92c7.16,4.14,14.17,12.27,14.17,23.25,0,11.79-5.77,19.91-16.09,25.7h0Z" transform="translate(-26.47 -75.25)"/><path class="b" d="M506,206.1L533,218c10.13,4.5,13.22,9.83,13.22,16.54,0,3.82-2.14,7.65-5.23,10.29l-45.4-20.14,7.67-4.32c6.5-3.56,8.68-5.75,8.68-8.12s-1.54-4.11-5.94-6.11h0Z" transform="translate(-26.47 -75.25)"/><path class="d" d="M554.12,305.72c-11.5-8.85-23.75-14.82-38.64-21.58l-68.79-30.46c-17.31-7.7-28.76-18-28.76-35.25,0-16.81,8.1-24.93,18.69-31.62l3.8-2.38c-2.62,2.85-4.27,5.73-4.27,11.21,0,10.59,9.11,14.19,18.69,18.47l80,35.28c13.93,6,26.68,16.27,26.68,33.77,0,9.64-3.64,18.24-7.44,22.55h0Z" transform="translate(-26.47 -75.25)"/><path class="a" d="M546,241.68l-5,3.12c3.08-2.63,5.23-6.47,5.23-10.29,0-6.71-3.1-12-13.22-16.54L447.4,180.28c-17.3-7.64-28.05-17.49-28.05-34.71,0-15.83,7.9-26.21,20.36-33.84a18.07,18.07,0,0,0-3.09,10.33c0,9.81,8.15,13.88,16.25,17.46l83.19,36.72c15.13,6.68,27.39,16.79,27.39,35.26,0,14.41-6.7,23.48-17.48,30.18h0Z" transform="translate(-26.47 -75.25)"/><path class="a" d="M151.55,247.34l-2.6,0-3-.05v0.33l0.29,5.26v2.22h-8.89a51.3,51.3,0,0,1-5.49-.35l-0.34,0,0.12,2.89s-0.12,2.77-.12,2.77l0.34,0a49.16,49.16,0,0,1,5.48-.34h3.92a22.62,22.62,0,0,1-11.85,9.79l-0.37.14,0.23,0.31a23.86,23.86,0,0,1,2.55,4.44L132,275l0.27-.12a31,31,0,0,0,13.9-14.16c0,1.54,0,11.85,0,11.85l0.32,0a34.49,34.49,0,0,1,4.86,0l0.31,0V260.81a38,38,0,0,0,7,9.52c2.42,2.43,7.65,5.31,7.87,5.43l0.31,0.17,0.11-.34a16.66,16.66,0,0,1,2.49-4.29l0.25-.33-0.38-.13a24.44,24.44,0,0,1-6.79-4.22,32.33,32.33,0,0,1-6.07-6.63l5.66,0a61.58,61.58,0,0,1,6.15.36l0.33,0-0.08-2.93,0.08-2.73-0.33,0c-2.44.23-4.55,0.35-6.26,0.35H151.56v-2.22c0-1.51.09-3.26,0.29-5.25l0-.34h-0.33Zm-30.3,2.05-1.69,2.23L117.44,254l0.29,0.19c0.57,0.34,2.89,1.94,4.57,3.22s3.41,2.88,4.09,3.54l0.24,0.23,0.2-.27a29.28,29.28,0,0,1,2.37-3.12l1.71-2.1-9.49-6.57-0.17.22h0Zm-3.61,14.2c-0.32.53-2.51,4-3.13,4.76l-0.22.27,5.9,3.4a46.07,46.07,0,0,1,4.29,2.89l0.24,0.17,3.9-5.68-0.28-.16-10.55-5.89-0.15.23h0Zm30.85,10.34h-12a2.08,2.08,0,0,0-2.29,2.32v15.13a2.06,2.06,0,0,0,2.25,2.25h24.45a2.09,2.09,0,0,0,2.29-2.31V276.27a2.09,2.09,0,0,0-2.33-2.34H148.49Zm-9.25,4.55a0.59,0.59,0,0,1,.69-0.72h17.21a0.65,0.65,0,0,1,.75.72v3H139.24v-3h0Zm18.66,7.13v3a0.71,0.71,0,0,1-.84.86H140a0.65,0.65,0,0,1-.78-0.8v-3h18.66Zm-36.6-8.43c-0.23,1.08-1.42,6.48-2.71,11s-3,9.67-3.37,10.65l-0.09.23,0.21,0.13a56.63,56.63,0,0,1,5.83,4.2l0.38,0.33,0.1-.5c0.26-1.38,2.61-11.08,2.8-11.86l2.86-11.64-0.24-.09a45.43,45.43,0,0,1-5.35-2.65l-0.35-.2-0.08.39h0Zm6.56,19.67,0.07,2.6-0.08,2.84h0.32c3.08-.16,36.92-0.23,40,0l0.33,0-0.13-2.85,0.13-2.88-0.33,0c-3,.24-37,0.24-40,0l-0.33,0v0.33h0Z" transform="translate(-26.47 -75.25)"/><path class="a" d="M344,250.65l0.09,2.72-0.09,3,0.33,0c2.9-.22,22.9-0.27,26,0l0.34,0-0.14-3.11,0.13-2.91-0.33,0c-4,.23-22,0.27-26,0l-0.32,0v0.33h0Z" transform="translate(-26.47 -75.25)"/><path class="a" d="M331.89,246a124.64,124.64,0,0,1-15.09,15.7l-0.23.2,0.21,0.22a43.13,43.13,0,0,1,3.75,4.39l0.18,0.25,0.24-.19a122.6,122.6,0,0,0,16.1-16.22l0.2-.24-0.25-.19c-0.71-.53-3.23-2.59-4.68-3.92l-0.23-.22-0.2.24h0Z" transform="translate(-26.47 -75.25)"/><path class="a" d="M334,259.13a161.6,161.6,0,0,1-17.43,20.44l-0.21.2,0.21,0.21c0.81,0.81,2.86,3.16,3.75,4.27l0.21,0.27,1-1c1.92-1.92,3.17-3.23,3.81-4,0,0,.79-0.89,1.28-1.46,0,1.42-.06,18.74-0.06,18.74a54.07,54.07,0,0,1-.34,6.14l0,0.34,3.22-.12,3.29,0.12,0-.3s-0.52-31.11-.52-31.32c4.19-4.92,6.58-7.68,7.07-8.2l0.22-.23-0.25-.2c-2.21-1.71-3.8-3-4.74-3.92l-0.24-.23-0.19.28h0Z" transform="translate(-26.47 -75.25)"/><path class="a" d="M340.35,266.35l0.06,3.07-0.06,3.1,0.31,0c4.1-.25,14.88-0.45,16.5-0.47,0,0.58,0,21.06,0,21.06,0,2.6-1.24,4-3.58,4h-4.23v5.84h4.23c6.49,0,9.66-3.24,9.66-9.89,0,0,0-18.45,0-21l11.55,0.47-0.12-3.14,0.12-3.32h-0.32c-3.25.22-30.2,0.29-33.77,0l-0.32,0v0.32h0Z" transform="translate(-26.47 -75.25)"/><path class="a" d="M205.48,252.32l0.06,2.65-0.08,3h0.31s15.31-.29,15.88-0.29c0,0.59,0,34.76,0,34.76,0,2.6-1.23,4-3.59,4h-4.22v5.83h4.22c6.51,0,9.66-3.24,9.66-9.9,0,0,0-31.62,0-34.67l9.54,0.3,0-.33L237.12,255l0.15-3H237c-2.77.15-28.22,0.2-31.16,0l-0.32,0,0,0.32h0Z" transform="translate(-26.47 -75.25)"/><path class="a" d="M190.89,247h-0.3s0.29,11.94.29,12.37c-1.88,0-7.54-.15-9.24-0.35l-0.34,0,0.11,2.85L181.31,265l0.32,0c1.12-.09,4.3-0.21,9.22-0.36h0v12.25A74.13,74.13,0,0,1,182,279l-0.27.06,0.31,3.25s0.14,2.48.14,2.48l0,0.37,0.35-.1,8.37-2.5c0,0.73,0,11.18,0,11.18,0,2.54-1.21,3.89-3.51,3.89h-3.44v5.93h3.44c6.37,0,9.47-3.17,9.47-9.71v-13c1.13-.37,5.84-1.95,10.59-3.9l0.2-.07,0-.26-0.2-2.39c-0.16-2-.21-2.58-0.25-2.69l-0.09-.34-0.31.14a74.77,74.77,0,0,1-8.75,3.43l-1.17.4V264.58c3.09,0,6.67.29,7.43,0.39l0.33,0-0.09-2.92,0.09-3-0.33,0a56.71,56.71,0,0,1-7.48.31c0-.42.36-12.37,0.36-12.37h-6.28Z" transform="translate(-26.47 -75.25)"/><path class="a" d="M280.57,249.94a2.05,2.05,0,0,0-2.22,2.25l-0.06,48.67a2,2,0,0,0,1.09,1.88,2.59,2.59,0,0,0,2.66-.3c1-.7,9-6.81,9.41-7.09l0.14-.1s-0.62-4.39-.68-4.79a37.85,37.85,0,0,0,5.1,6.92c2.14,2.13,3.84,3.72,5.08,4.72l1.05,0.75,0.2,0.15,0.16-.2,0.76-.78,4.28-4.24-0.37-.19L307,297.5l-0.42-.19a25,25,0,0,1-10.48-8.49L305.4,281l-4.86-3.19-0.17.18s-5.92,6.24-6.35,6.71a36,36,0,0,1-2-7.44h8.47a2.09,2.09,0,0,0,2.33-2.28V252.2a2.1,2.1,0,0,0-2.31-2.26H280.57Zm3.22,5.69a0.65,0.65,0,0,1,.73-0.72h11.94a0.66,0.66,0,0,1,.76.75v5.47H283.78v-5.49h0Zm13.43,10.1v6a0.65,0.65,0,0,1-.78.8H284.55a0.65,0.65,0,0,1-.77-0.77v-6h13.43Zm-10.55,11.48a57.12,57.12,0,0,0,2.65,9.93,23.45,23.45,0,0,0,1.28,2.77l-6.81,5.43c0-1.11,0-17.57,0-18.13h2.88Z" transform="translate(-26.47 -75.25)"/><path class="a" d="M254.66,281.37a18.36,18.36,0,0,1-3.84,1.63l-0.27.08,0.53,2c0.51,1.92,1.05,4.73,1.66,8.53,0,0,.29,2.07.29,2.07l0.06,0.41,0.37-.21a21.61,21.61,0,0,1,4-1.64l0.25-.09-2.73-13-0.35.21h0Z" transform="translate(-26.47 -75.25)"/><path class="a" d="M268.07,281.45c0,0.39-.44,2.83-3.16,11.22l-0.09.31,1.24,0.25,3.52,0.73,0.1-.26,1.76-5.46c0.39-1.28,1.45-4.31,1.86-5.25l0.15-.35-0.37-.06a42.81,42.81,0,0,1-4.58-1.36l-0.36-.15-0.06.38h0Z" transform="translate(-26.47 -75.25)"/><path class="a" d="M260.86,247.3A141.52,141.52,0,0,1,247,266.89l-0.21.26,0.28,0.18a24.85,24.85,0,0,1,4.18,3.15l0.23,0.23,2.41-2.91c0,0.71-.1,2.14-0.1,2.14h0.32l4.8-.21v5.73h-5c-1,0-2.78-.11-5.12-0.34l-0.33,0,0.07,2.86-0.07,2.86,0.33,0,5.13-.4h5v16.31l-3.51.62c-2.63.45-5.3,0.78-7.92,1l-0.35,0,1.61,6.39,0.31-.12c1.42-.55,15.22-3.75,23.15-5.55l0.23,0v-2.93l0.12-3-0.41.14-3.92,1.33-4,1.05v-15.2h3.88c1,0,2.74.14,5.31,0.4l0.34,0,0-.48-0.07-2.38,0.07-2.39,0-.47-3.69.32-5.77,0v-5.74c1.22,0,3.26,0,6.16.22l0.32,0-0.07-3.44s0.06-1.71.06-1.82c0.39,0.45.61,0.73,0.69,0.84l0.2,0.29,2.19-2.25,1.49-1.33,0.87-.77-11.53-8.6c0.25-.39,1.76-2.61,1.76-2.61L261,247l-0.14.27h0Zm1.25,9.47a85.58,85.58,0,0,1,8.27,7.55c-1.79.19-11.22,0-13.83,0,2.76-3.54,5-6.74,5.56-7.55h0Z" transform="translate(-26.47 -75.25)"/></svg>