<svg xmlns="http://www.w3.org/2000/svg" viewBox="0 0 537.43 104.08"><defs><style>.a{fill:#231815;}.b{fill:#004187;}</style></defs><title>Industrial Bank Co.,Ltd.</title><rect class="a" x="188.41" y="77.64" width="348.31" height="1.32"/><path class="b" d="M189,194.08c0-20.83-28.23-37.72-63.05-37.72-27.87,0-51.52,10.83-59.83,25.83v0a9.27,9.27,0,0,0-1.2,4.5c0,3.74,2.36,7.07,6,9.24l32,18.45a12,12,0,0,0,5.75,1.44,12.15,12.15,0,0,0,5.76-1.43l30.32-17.52a5.53,5.53,0,0,0,.18-10.08l-11.26-6.52-25,14.43-18.9-10.93c7.31-6.58,20.91-11,36.49-11,23.3,0,42.18,9.89,42.18,22.1-0.5,18.9-28.21,33.52-61.89,32.65s-60.6-16.95-60.1-35.84h0c0.24-24.93,32.92-44.83,73-44.44q5.36,0.06,10.49.57A87.22,87.22,0,0,0,100.22,143a92.28,92.28,0,0,0-24.46,3.16h0c-29,8-49.29,26.43-49.29,47.95,0,28.81,36.37,52.17,81.25,52.17S189,222.9,189,194.08h0Z" transform="translate(-26.47 -142.98)"/><path class="b" d="M214.77,181.09l5.73,0.47h41.92c1.09-3.06,2.07-5.88,2.94-8.45s1.64-5.27,2.34-8.07,1.37-5.8,2-9,1-5.27,1.13-6.26l0.46-3.73v-0.58c0.17-.35.67-0.35,1.55,0,0,0.06,1,.4,2.83,1a41,41,0,0,1,6,2.69c2.11,1.16,3.25,1.95,3.41,2.39a1.32,1.32,0,0,1-.07,1.17c-0.19.29-1.2,0.68-3.07,1.22q-1.9,3.5-3.9,7T265.2,181.55h8.93c1.74-2.35,3.06-4.12,4-5.31s1.66-1.81,2.16-1.88a3.84,3.84,0,0,1,2.28,1.08,32.84,32.84,0,0,1,5.1,4.83c1,1.32,1.47,2.14,1.31,2.4a1,1,0,0,1-.93.44H221.41l-4.9.24Zm20.69,25.45a73.26,73.26,0,0,1-15.09,7.74l-3,1.21a0.82,0.82,0,0,1-1.1-.15c-0.21-.31,0-0.67.5-1.06l2.83-1.92a32.45,32.45,0,0,0,3.07-2.51c1.37-1.23,3.13-2.93,5.27-5.11a42.32,42.32,0,0,0,5.69-7.26c1.63-2.65,2.72-4.53,3.24-5.62l1.14-2.39a3.16,3.16,0,0,1,.63-1,0.86,0.86,0,0,1,.82.06q3.17,1.46,7.18,3.74c2.65,1.53,4,2.64,3.92,3.32a1.3,1.3,0,0,1-.71,1l-1.17.24-1.42.23A122.19,122.19,0,0,1,235.46,206.54ZM259,191.27c2.33,0.46,4.59,1,6.79,1.48a52.94,52.94,0,0,1,8.36,3,20.39,20.39,0,0,1,7.8,5.52,11.38,11.38,0,0,1,2.93,6.31,8,8,0,0,1-1.2,5.12,5,5,0,0,1-4.57,2,5.09,5.09,0,0,1-3.91-1.55,22.73,22.73,0,0,1-3-5.09,29.19,29.19,0,0,0-4-6.44,39.68,39.68,0,0,0-4.21-4.53,23.92,23.92,0,0,0-4.34-3.09c-1.65-1-2.66-1.51-3-1.67a1.43,1.43,0,0,1-.66-0.48,0.87,0.87,0,0,1-.07-0.67c0.07-.28.4-0.38,1-0.3Zm-13.4-43.77q7,6.18,9.68,10a19.49,19.49,0,0,1,3.26,8.24q0.62,4.4-.47,6.69a7,7,0,0,1-2.57,2.83,6.46,6.46,0,0,1-4.34.83,3.9,3.9,0,0,1-3.48-2.49,8.13,8.13,0,0,1-.7-4c0-.19.12-0.94,0.34-2.3a28.13,28.13,0,0,0,.36-4.09,33.69,33.69,0,0,0-.26-4.23,22.27,22.27,0,0,0-1.74-6.65c-0.76-1.44-1.37-2.61-1.87-3.51s-0.83-1.49-1-1.77a1.35,1.35,0,0,1-.28-0.68,0.68,0.68,0,0,1,.23-0.55c0.17-.17.46-0.14,0.87,0.15Zm-19,3,4.24,3.15a41.61,41.61,0,0,1,6.26,6.19,14,14,0,0,1,3.55,9.32c0,3.43-.7,5.77-2.06,7a5.77,5.77,0,0,1-4.6,1.59,5.33,5.33,0,0,1-3.89-1.94,5,5,0,0,1-1.27-3.17c0-1,.15-2.43.38-4.3a25.66,25.66,0,0,0,0-6.09,19.88,19.88,0,0,0-1.17-4.93,21.26,21.26,0,0,0-2.35-4.23c-1-1.44-1.65-2.3-1.9-2.59a2.19,2.19,0,0,1-.4-0.7,0.65,0.65,0,0,1,.16-0.57c0.14-.2.44-0.18,0.88,0.06Z" transform="translate(-26.47 -142.98)"/><path class="b" d="M306.87,212l5.47,0.46h18V156.07l-0.6-10.89q0.44-.83,2.14-0.59a76,76,0,0,1,8.43,1.57c1.52,0.44,2.19,1,1.94,1.63s-1.17,1.48-2.83,2.53v62.18h7.76l0-55.24-0.57-10.89c0.28-.52,1-0.72,2.11-0.59a69.22,69.22,0,0,1,7.9,1.42,4.37,4.37,0,0,1,2.1,1,1.07,1.07,0,0,1,.19,1,9.79,9.79,0,0,1-2.7,2.24v43.46c0.78-1.67,1.38-3,1.79-3.91s1.1-2.76,2.1-5.43,1.86-5.05,2.55-7.11,1.31-4.29,1.94-6.67,1-4.07,1.25-5.09l0.56-2.94,0.35-2.23q0.51-.66,2,0l4.57,1.88a43.51,43.51,0,0,1,3.93,2c1.32,0.75,2,1.29,2,1.65a1.43,1.43,0,0,1-.22.84c-0.33.45-1.25,0.79-2.76,1.07-3.87,7-7.07,12.64-9.66,16.89s-4.52,7.25-5.86,9.09l-4.57,6.47v11.08h8.68c1.79-2.22,3.1-3.92,4-5.1s1.52-1.84,2-1.91,1.25,0.38,2.41,1.38l2.57,2.23c0.5,0.46,1.3,1.23,2.37,2.32s1.58,1.77,1.5,2.11-0.54.51-1.35,0.51H314.11l-4.86.24ZM314,165.08a56.85,56.85,0,0,1,7.56,9.33A49.29,49.29,0,0,1,325.8,183a20.72,20.72,0,0,1,1.53,7.84,8.5,8.5,0,0,1-1.85,5.55,5.45,5.45,0,0,1-4.6,1.88,4.61,4.61,0,0,1-3.89-1.78,7.41,7.41,0,0,1-.88-4.42l0.4-4.32a48.74,48.74,0,0,0-.16-7.52,45.45,45.45,0,0,0-.95-5.56,34,34,0,0,0-1.31-4.43c-0.51-1.33-1-2.44-1.43-3.32a19.23,19.23,0,0,0-1-1.85,4.85,4.85,0,0,1-.49-0.94,0.67,0.67,0,0,1,.16-0.75c0.2-.23.6-0.08,1.2,0.44Z" transform="translate(-26.47 -142.98)"/><path class="b" d="M439.73,179.58h7c0.28,2.88.43,4.59,0.5,5.12s0.29,1.93.61,4.19,0.57,3.76.73,4.53,0.63,2.43,1.43,5q-5,2.25-10.3,4.44V179.58ZM432,147.34a1.12,1.12,0,0,0-.75-0.09,6.22,6.22,0,0,0,0,2.35c0.16,1.5.26,3.82,0.26,7V204a4.31,4.31,0,0,1-.28,1.67,2.56,2.56,0,0,1-.74,1,2.1,2.1,0,0,0-.71.62,3.78,3.78,0,0,0,.23.52l3.47,8.12a4.76,4.76,0,0,0,.65,1.29,0.58,0.58,0,0,0,.43.25,2.65,2.65,0,0,0,.82-0.73l2.34-2.71c1-1.22,1.9-2.23,2.59-3l3.3-4q1.11-1.35,6.76-7.52l1.13,3.16a57.27,57.27,0,0,0,2.76,6,20.69,20.69,0,0,0,5.12,6.75,15.86,15.86,0,0,0,3.2,2.33,1.51,1.51,0,0,0,.91-0.94,16.56,16.56,0,0,1,1.49-2.22,11.11,11.11,0,0,1,2.49-2.28,10.13,10.13,0,0,1,2.27-1.23l2.24-.67a0.69,0.69,0,0,0,.6-0.53,0.81,0.81,0,0,0-.6-0.64l-1.18-.46c-0.36-.14-1.86-0.88-4.47-2.23a21.55,21.55,0,0,1-6.62-5.23,81.16,81.16,0,0,1-5.28-7.13l3.7-1.45,6.34-2.75c0.67-.28,1.72-0.72,3.15-1.29l2.6-.47c2.68-.47,2.37-1.5-0.94-3.07s-5.5-2.57-6.58-3a1.73,1.73,0,0,0-.88-0.11,2,2,0,0,0-.74.81l-1.3,1.88a62.51,62.51,0,0,1-6.35,7.61L452,190a29.33,29.33,0,0,1-1.4-3.29c-0.64-1.73-1.13-3-1.4-4s-0.56-2-.83-3.15h7.76v0.86c0,1,.86,1.56,2.62,1.57a10.64,10.64,0,0,0,4.14-.56,7,7,0,0,0,1.92-1,3.43,3.43,0,0,0,.52-0.92L465,171.2v-16.8c1.52-.65,2.25-1.35,2.22-2.08s-1.5-1.77-4.35-2.94a23.31,23.31,0,0,0-4.71-1.69,2.59,2.59,0,0,0-1.34,1l-1.72,2.14H440.21Zm7.74,18.52h16.41v12.2H439.73v-12.2Zm0-13.47h16.41v11.95H439.73V152.4Zm-21.59-4.12a1.18,1.18,0,0,0,.8-0.92c0-.35-0.48-0.75-1.47-1.19a33.89,33.89,0,0,0-4.82-1.53c-2.2-.57-3.49-0.93-3.92-1.05a4.12,4.12,0,0,0-1.14-.24,0.51,0.51,0,0,0-.46.1,0.37,0.37,0,0,0,0,.23c0,0.09-.08.49-0.22,1.2L406,148.75c-0.26,1.1-.73,2.93-1.4,5.51s-1.33,4.82-2,6.76-1.4,3.76-2.13,5.5-1.29,3-1.7,3.9l-1.13,2.42a1.16,1.16,0,0,0-.13,1.08c0.14,0.17.41,0.08,0.8-.26l1.49-1.26,1.46-1.44,1.83,1.8,3.61-.28h3v10.82h-6.21l-5.29-.47,2.34,2.23,3.4-.28h5.76v17a6.72,6.72,0,0,1-.16,1.19,7.44,7.44,0,0,1-.33,1.27,2.14,2.14,0,0,1-.77.95,1.64,1.64,0,0,0-.59.56,2.54,2.54,0,0,0,.38.88l4.35,8.7a3.52,3.52,0,0,0,.43.78,0.28,0.28,0,0,0,.27,0l0.47-.59,3.6-4.36q1.29-1.57,11-12.84l2.43-2.82a0.7,0.7,0,0,0,.21-0.84c-0.19-.23-0.47-0.23-0.92,0l-3.8,2c-2,1.08-4.84,2.47-8.58,4.2V184.79h12.08a0.81,0.81,0,0,0,.65-0.51c0.19-.34-0.92-1.56-3.29-3.67l-2.35-2a1.7,1.7,0,0,0-.94-0.52,1.07,1.07,0,0,0-.59.43l-4.09,4.74h-1.49v-8.89l1.19-1a2.62,2.62,0,0,0,.34-1h7.57a1,1,0,0,0,.7-0.61q0.34-.6-5.52-5.22a2.09,2.09,0,0,0-.93-0.46,9.33,9.33,0,0,0-1.94,1.68C418,169,417,170,416.22,171H406l-4.3-.43A91.94,91.94,0,0,0,409.92,160H430a0.55,0.55,0,0,0,.48-0.53q0.1-.53-3.06-3.35L424.8,154a2.1,2.1,0,0,0-1.11-.57c-0.24,0-1.81,1.68-4.69,5h-8.35c1.47-2.45,3.2-5.42,5.13-8.89Z" transform="translate(-26.47 -142.98)"/><path class="b" d="M512.68,155.72L505.85,160a87.47,87.47,0,0,1-11.38,5.87l-2.78,1.17a1,1,0,0,1-1.22,0c-0.22-.28,0-0.7.53-1.28l1.76-1.64,2.67-2.46q2.47-2.36,5.75-6.17a69.3,69.3,0,0,0,5.84-7.79l1.4-2.2,0.83-1.52a1.13,1.13,0,0,1,.7-0.11,4.26,4.26,0,0,1,1.79,1.17l3.51,2.55q0.7,0.55,2.66,2.22c1.31,1.1,1.94,1.89,1.89,2.36a1.07,1.07,0,0,1-1.3,1.06l-2,.11C514.78,154.41,513.49,155.2,512.68,155.72Zm-0.33,18.17c1.75,0.92,2.67,1.53,2.77,1.85,0.2,0.73-.31,1.39-1.51,2v27.48l0.36,8.22a3.52,3.52,0,0,1-.71,1.32,5.4,5.4,0,0,1-2.35,1,16.56,16.56,0,0,1-4,.48,3.14,3.14,0,0,1-1.74-.29,2.65,2.65,0,0,1-.84-1.11l0.4-9V180.79q-7.07,5.22-10.94,7.72l-2,1.29c-0.57.34-.92,0.31-1-0.09a1.1,1.1,0,0,1,.12-1.07l1.75-2c1.35-1.57,2.52-3,3.53-4.19s2.76-3.67,5.27-7.35a103.28,103.28,0,0,0,6-9.66l1.42-2.7a13.25,13.25,0,0,1,1.16-2.1,1.91,1.91,0,0,1,.37,0c0.67,0.09,2.55,1.15,5.66,3.19s4.56,3.37,4.4,4-1.21,1.07-3,1.18C515.93,170.4,514.24,172,512.35,173.9Zm36.87-1a60.85,60.85,0,0,1,3.73-5.42,4.6,4.6,0,0,1,2-1.71c0.51-.13,1.44.38,2.81,1.53,2.88,2.56,4.63,4.18,5.26,4.9a2.29,2.29,0,0,1,.87,1.64,0.82,0.82,0,0,1-1,.6H552.22a6.28,6.28,0,0,1-1.36,1.8v32.49a9.13,9.13,0,0,1-.54,3.69,5.4,5.4,0,0,1-2.22,2.05,14.69,14.69,0,0,1-4.52,1.49,15,15,0,0,1-4.08.36,1.87,1.87,0,0,1-1.37-.44,3,3,0,0,1-.3-1.54,6.34,6.34,0,0,0-.31-2,4.84,4.84,0,0,0-1.47-1.87,9.23,9.23,0,0,0-3-1.7l-2.69-.94c-0.8-.26-1.08-0.57-0.87-0.94a1.14,1.14,0,0,1,1.21-.48l2,0.24,5.14,0.36a5.4,5.4,0,0,0,2.2-.17,2,2,0,0,0,1.1-1,7.39,7.39,0,0,0,.3-2.56l-0.08-28.8H523.91l-4.51.23-2.11-2.23,5.47,0.47h26.46Zm-4.58-20.73c1.89-2.43,3.23-4.13,3.94-5.09a3.32,3.32,0,0,1,1.76-1.56,3.26,3.26,0,0,1,2,.92c0.74,0.59,1.78,1.46,3.05,2.61a38.9,38.9,0,0,1,2.87,2.74c0.64,0.69.88,1.19,0.73,1.48a1.33,1.33,0,0,1-1.24.42h-29l-4.52.2-2.11-2.23,5.47,0.51h17.06Z" transform="translate(-26.47 -142.98)"/><path class="b" d="M215.44,243.24c2,0,2.31-.45,2.31-2.15V230.52c0-1.76-.34-2.05-2.31-2.15v-0.45h7.08v0.45c-1.74.07-2.34,0.24-2.34,2.15V241.1c0,1.86.57,2.1,2.34,2.15v0.46h-7.08v-0.46Z" transform="translate(-26.47 -142.98)"/><path class="b" d="M241.23,228.37c-1.5.16-2.26,0.26-2.26,3V244h-0.4l-10.49-13.07H228v9.3c0,2.45.5,3,2.24,3.05v0.46h-5.6v-0.46c1.82-.12,2.31-0.48,2.31-3.05V229.68c-1-1.2-1.36-1.31-2.31-1.31v-0.45h4.08l9.13,11.46h0v-8c0-2.74-.67-2.93-2.29-3v-0.45h5.6v0.45Z" transform="translate(-26.47 -142.98)"/><path class="b" d="M247.93,229.73c0-.48,0-0.94,1.13-0.94,3,0,4.34.65,5.48,1.67a6.94,6.94,0,0,1,2.22,5.41c0,6.94-5.86,6.94-7.39,6.94-1.15,0-1.43-.17-1.43-1V229.73Zm-4.53,14h6.77c7.29,0,9.18-4.68,9.18-7.85,0-5.34-3.79-7.94-9.51-7.94H243.4v0.45c1.83,0.14,2.1.38,2.1,2.15V241.1c0,1.67-.29,2.05-2.1,2.15v0.46Z" transform="translate(-26.47 -142.98)"/><path class="b" d="M278.48,228.37c-1.83.19-2.24,0.55-2.24,3v6.22c0,1.91,0,6.39-6.17,6.39-5.92,0-5.92-4.65-5.92-6.07v-7.44c0-1.76-.33-2-2.15-2.15v-0.45h6.75v0.45c-1.89.14-2.17,0.45-2.17,2.15v7.63c0,1.52,0,4.84,4.15,4.84a4.41,4.41,0,0,0,3.91-1.89,6.21,6.21,0,0,0,.55-3.24v-6.44c0-2.55-.57-3-2.24-3v-0.45h5.53v0.45Z" transform="translate(-26.47 -142.98)"/><path class="b" d="M291.49,232.66H290.9c-0.41-2-1.93-4.1-4.44-4.1a2.24,2.24,0,0,0-2.4,2.22c0,3.58,8,4.05,8,8.94,0,2-1.62,4.31-5,4.31-1.81,0-3-.81-3.7-0.81a0.74,0.74,0,0,0-.74.79H282L281.32,239h0.54c0.46,1.12,1.67,4.22,4.89,4.22a2.66,2.66,0,0,0,2.86-2.65c0-1.36-.38-2.17-3.88-4.22C283.53,235,282,234,282,231.63a4,4,0,0,1,4.32-4.05c1.43,0,2.72.81,3.31,0.81a0.83,0.83,0,0,0,.84-0.81H291Z" transform="translate(-26.47 -142.98)"/><path class="b" d="M305.78,243.7h-7v-0.46c2.17-.09,2.24-0.64,2.24-2.41V228.91h-1.28c-2.62,0-3.27.45-3.8,3.06H295.4l0.15-4.05H309l0.14,4.05h-0.57c-0.5-2.63-1.17-3.06-3.79-3.06h-1.29V241.1c0,1.63.29,2.08,2.29,2.15v0.46Z" transform="translate(-26.47 -142.98)"/><path class="b" d="M326.71,243.7h-3.84l-5.67-7.35-1.34.05v4.7c0,1.6.24,2.05,2.15,2.15v0.46h-6.61v-0.46c1.93-.12,2-0.62,2-2.41V230.52c0-1.76-.35-2-2-2.15v-0.45H318c2.12,0,6.06.5,6.06,4.17,0,3.19-3.1,3.77-4.32,4l4.91,6a2.63,2.63,0,0,0,2.08,1.12v0.46Zm-10.85-8.19c2,0,5.58-.07,5.58-3.48,0-3.17-3.12-3.25-4.1-3.25-1.26,0-1.48.17-1.48,0.86v5.86Z" transform="translate(-26.47 -142.98)"/><path class="b" d="M328.76,243.24c2,0,2.31-.45,2.31-2.15V230.52c0-1.76-.34-2.05-2.31-2.15v-0.45h7.08v0.45c-1.74.07-2.33,0.24-2.33,2.15V241.1c0,1.86.58,2.1,2.33,2.15v0.46h-7.08v-0.46Z" transform="translate(-26.47 -142.98)"/><path class="b" d="M342.85,237.57l2.74-6.56,2.77,6.56h-5.51Zm11.68,5.67c-1-.07-1.38-0.33-2.15-2.07l-5.94-13.54H346l-5,11.71a16.73,16.73,0,0,1-1.74,3.39,1.61,1.61,0,0,1-1.22.52v0.46h4.72v-0.46c-0.5,0-1.62,0-1.62-1a2.78,2.78,0,0,1,.19-0.9l1.1-2.79h6.25l1,2.29a5.49,5.49,0,0,1,.45,1.5c0,0.88-.79.91-1.67,0.91v0.46h6.08v-0.46Z" transform="translate(-26.47 -142.98)"/><path class="b" d="M363.36,228.37c-1.62.09-2.22,0.26-2.22,2.15v11.27c0,1,.43,1,2.41,1,3.58,0,5.11-.09,6.46-3.22h0.6l-1.15,4.15H356.63v-0.46c1.53-.09,2.07-0.31,2.07-2.15V230.52c0-1.89-.57-2-2.07-2.15v-0.45h6.72v0.45Z" transform="translate(-26.47 -142.98)"/><path class="b" d="M384.86,235.92a12.21,12.21,0,0,1,3.87.36,3,3,0,0,1,2.4,3.12c0,3.19-2.88,3.41-4.46,3.41-1.38,0-1.81-.09-1.81-1v-5.92Zm-4.72-7.55c2,0.09,2.29.38,2.29,2.15V241.1c0,1.69-.29,2.1-2.29,2.15v0.46h8c5.29,0,5.77-3.3,5.77-4.2,0-2.51-1.9-3.65-4-4.08v0c1.07-.27,3.17-0.79,3.17-3.43,0-3.7-4.17-4-6.25-4h-6.68v0.45Zm4.72,1.14c0-.35.05-0.69,0.52-0.69,0.24,0,.57,0,1.07,0,1.7,0,4.18.46,4.18,3.3S387.8,235,387.13,235l-2.27,0v-5.49Z" transform="translate(-26.47 -142.98)"/><path class="b" d="M413.07,243.7H407v-0.46c0.88,0,1.67,0,1.67-.91a5.38,5.38,0,0,0-.46-1.5l-1-2.29H401l-1.09,2.79a2.69,2.69,0,0,0-.19.9c0,1,1.11,1,1.62,1v0.46h-4.72v-0.46a1.61,1.61,0,0,0,1.22-.52,16.37,16.37,0,0,0,1.74-3.39l5-11.71H405l5.94,13.54c0.76,1.74,1.09,2,2.14,2.07v0.46Zm-6.18-6.13L404.13,231l-2.75,6.56h5.51Z" transform="translate(-26.47 -142.98)"/><path class="b" d="M431.73,228.37c-1.5.16-2.26,0.26-2.26,3V244h-0.4l-10.49-13.07h0v9.3c0,2.45.5,3,2.24,3.05v0.46h-5.61v-0.46c1.81-.12,2.31-0.48,2.31-3.05V229.68c-1-1.2-1.36-1.31-2.31-1.31v-0.45h4.08l9.13,11.46h0.05v-8c0-2.74-.67-2.93-2.29-3v-0.45h5.6v0.45Z" transform="translate(-26.47 -142.98)"/><path class="b" d="M443.37,227.92h6.24v0.45c-1.43.12-1.93,0.19-3.62,1.86l-4.53,4.48,5.56,6c1.55,1.71,2.38,2.62,3.74,2.57v0.46h-7.27v-0.46c1.27,0,1.67-.07,1.67-0.6,0-.74-2.29-3.19-3.1-4l-2.53-2.5-0.62.5v4.46c0,1.67.29,2.05,2.15,2.15v0.46h-6.72v-0.46c1.86-.09,2.15-0.45,2.15-2.41V230.52c0-1.86-.53-2-2.15-2.15v-0.45h6.77v0.45c-1.86.12-2.19,0.38-2.19,2.15v4.89c5.39-4.84,6.08-5.48,6.08-6.29,0-.64-0.45-0.69-1.62-0.74v-0.45Z" transform="translate(-26.47 -142.98)"/><path class="b" d="M473.79,232.95c-0.59-2.51-2.31-4.42-5.25-4.42A5.24,5.24,0,0,0,465,230c-0.93.9-2,2.43-2,5.86,0,5.06,2.84,7.13,5.84,7.13a7.48,7.48,0,0,0,5.39-2.41l0.43,0.43a7.92,7.92,0,0,1-6.46,3c-3.84,0-8-2.28-8-8.22a7.9,7.9,0,0,1,8.1-8.23,19,19,0,0,1,4.2.79,1.07,1.07,0,0,0,1.1-.79h0.5l0.21,5.37h-0.55Z" transform="translate(-26.47 -142.98)"/><path class="b" d="M485.5,243.17c-2.65,0-5.09-2.12-5.09-7.37,0-5.43,2.66-7.37,5.09-7.37s5.07,1.93,5.07,7.37C490.58,241.06,488.15,243.17,485.5,243.17Zm0,0.85c4.31,0,7.79-3.11,7.79-8.2,0-5.48-3.88-8.25-7.79-8.25s-7.8,2.76-7.8,8.25C477.7,240.91,481.18,244,485.5,244Z" transform="translate(-26.47 -142.98)"/><path class="b" d="M498.52,244a1.34,1.34,0,0,0,1.34-1.29,1.37,1.37,0,0,0-1.34-1.36,1.33,1.33,0,0,0-1.31,1.36A1.31,1.31,0,0,0,498.52,244Z" transform="translate(-26.47 -142.98)"/><path class="b" d="M504.9,247.06c0.72-.24,2.67-1.81,2.67-3.51a2,2,0,0,0-1.93-2.29,1.31,1.31,0,0,0-1.38,1.38,1.27,1.27,0,0,0,1.48,1.2,1.11,1.11,0,0,0,.36-0.05l0.21,0a0.32,0.32,0,0,1,.33.34c0,0.45-.38,1.52-2,2.52Z" transform="translate(-26.47 -142.98)"/><path class="b" d="M517.33,228.37c-1.62.09-2.22,0.26-2.22,2.15v11.27c0,1,.43,1,2.41,1,3.58,0,5.1-.09,6.47-3.22h0.59l-1.15,4.15H510.61v-0.46c1.53-.09,2.08-0.31,2.08-2.15V230.52c0-1.89-.57-2-2.08-2.15v-0.45h6.72v0.45Z" transform="translate(-26.47 -142.98)"/><path class="b" d="M534.91,243.7h-7v-0.46c2.17-.09,2.24-0.64,2.24-2.41V228.91H528.9c-2.62,0-3.26.45-3.79,3.06h-0.57l0.14-4.05h13.45l0.14,4.05h-0.58c-0.5-2.63-1.16-3.06-3.79-3.06h-1.29V241.1c0,1.63.29,2.08,2.29,2.15v0.46Z" transform="translate(-26.47 -142.98)"/><path class="b" d="M545,229.73c0-.48,0-0.94,1.12-0.94,3,0,4.34.65,5.48,1.67a7,7,0,0,1,2.22,5.41c0,6.94-5.86,6.94-7.4,6.94-1.14,0-1.43-.17-1.43-1V229.73Zm-4.53,14h6.77c7.3,0,9.17-4.68,9.17-7.85,0-5.34-3.79-7.94-9.51-7.94h-6.43v0.45c1.83,0.14,2.1.38,2.1,2.15V241.1c0,1.67-.29,2.05-2.1,2.15v0.46Z" transform="translate(-26.47 -142.98)"/><path class="b" d="M561.75,244a1.34,1.34,0,0,0,1.33-1.29,1.37,1.37,0,0,0-1.33-1.36,1.33,1.33,0,0,0-1.31,1.36A1.31,1.31,0,0,0,561.75,244Z" transform="translate(-26.47 -142.98)"/></svg>