<svg xmlns="http://www.w3.org/2000/svg" viewBox="0 0 555.3 262.24"><defs><style>.a{fill:#1f66a6;}.b{fill:#e50012;}.c{fill:none;stroke:#1f66a6;stroke-width:0.5px;}</style></defs><title>Citibank</title><path class="a" d="M137.47,295.31a91.67,91.67,0,0,0,13.63-6.17V273.52c0-2-.07-3.8-0.19-5.51l-0.37-5.5a36.88,36.88,0,0,0,4.45.42l4.86-.42c-0.26,2.48-.4,4.38-0.48,5.64s-0.09,2.42-.09,3.56v12.65a65.41,65.41,0,0,0,14.25-14l3.42-4.88a23.22,23.22,0,0,0,2.45,2.72,44.72,44.72,0,0,0,5.09,3.46l-3.3,3.27c-0.16.2-1.71,1.59-4.59,4.24l-5.43,5c-2.22,2-6.17,5-11.88,9.1v12a22,22,0,0,0,.14,2.83,2.22,2.22,0,0,0,1,1.66c0.54,0.3,3.2.51,7.95,0.53s7.33,0,7.68,0a6.08,6.08,0,0,0,3.56-.9,5.14,5.14,0,0,0,1.79-3,18.79,18.79,0,0,0,.63-3.63l0.29-3.88a41.1,41.1,0,0,0,4.41,3.74,23.64,23.64,0,0,0,4.86,2c-1.59,4.82-2.74,8.08-3.47,9.74a6.63,6.63,0,0,1-4.5,3.49c-2.29.65-9.71,0.85-22.28,0.54-3.46-.07-5.85-0.47-7.23-1.23a5,5,0,0,1-2.53-3.1,13.4,13.4,0,0,1-.46-3.11V297.39L140.24,304a43.83,43.83,0,0,0-3.68-4.7l-3-2.55ZM129.84,261c0.18-1.36.31-2.41,0.35-3.17s0.1-1.76.1-3V253h-7c-4.13,0-9.67.22-16.68,0.64,0.15-1.15.24-2.11,0.3-2.76a11.29,11.29,0,0,0,0-1.59c0-.42-0.15-2-0.35-4.57,7.07,0.42,12.74.65,17,.65h6.62v-3.41c0-2.15,0-3.52-.1-4.14l-0.35-3.94a39,39,0,0,0,4.55.26l1.54-.1,2.94-.17c-0.19,1.71-.29,3.11-0.33,4.14s0,2.3,0,3.75v3.59h18v-4.6c0-.18,0-0.72,0-1.57s-0.06-1.56-.06-2.12L156,233.23l4.7,0.42c0.55,0,2-.14,4.42-0.42a38.41,38.41,0,0,0-.4,3.94c0,0.9,0,2.18,0,3.77v4.42h9.48c4.3,0,10-.24,17.18-0.65-0.17,1.36-.28,2.38-0.32,3s0,1.23-.09,1.7,0.12,1.87.41,4.17c-7.06-.42-12.62-0.64-16.74-0.64H164.7v0.93c0,1.89,0,3.08.1,3.49l0.35,3.31a57.67,57.67,0,0,0-9.12,0c0.2-1.42.32-2.5,0.37-3.27s0.09-1.88.09-3.34V253h-18v1.12c0,1.69,0,2.88.07,3.51l0.29,3.38a37.87,37.87,0,0,0-4.38-.32c-0.52,0-2.08.12-4.66,0.32m10.78,5.09-2.45,2.84-3.8,3.87L132,275.6v32.26c0,3.78,0,6.06.1,6.81l0.46,6.71c-2.7-.21-4.28-0.32-4.82-0.33a42.88,42.88,0,0,0-4.52.33c0.14-3,.25-5.57.37-7.68s0.19-4.14.19-6.12V283.73c-2.21,2.2-3.86,3.84-5,4.85l-5.31,4.7-2.87,2.55a40.74,40.74,0,0,0-3.3-4.67l-3-2.86,4.12-2.47a58.85,58.85,0,0,0,14.05-11.36,90.93,90.93,0,0,0,8.18-10.31l2.17-3.48a62.57,62.57,0,0,0,7.82,5.41" transform="translate(-26.43 -59.7)"/><path class="a" d="M275.78,308.09a27.58,27.58,0,0,0,5.79-4.59l18.31,11.74c-1.3.86-2.2,1.5-2.73,1.93L295,319.09l-2.4,2-1.84-1.83a75.66,75.66,0,0,0-7-5.7l-4.73-3.22Zm-11.42-25H280.5v-5.78h-16Zm0.1-11.42h16v-5.79H264.36Zm-0.11,24.07H280.5v-7H264.35v7ZM247.6,314.52a57.64,57.64,0,0,0,7.68-4.42c2.69-1.83,4.52-3.12,5.42-3.85l2.3-1.83a27.88,27.88,0,0,0,6.4,4l-3,2.1c-2.19,1.54-4.74,3.31-7.64,5.25s-4.78,3.24-5.6,3.85l-3,2.3c-0.65-.82-1.14-1.39-1.45-1.74l-2.33-1.84-2.62-2Zm-37.35.68,2.3-3.3a50.76,50.76,0,0,0,3-4.71,46.43,46.43,0,0,0,2.82-7.9c1.07-3.78,1.76-6.37,2-7.77s0.51-3.69.82-6.8,0.47-5.49.57-7.08,0.24-3.74.35-6.41l0.17-7.14,0.19-6h-1.36c-3,0-6,.15-9.08.46,0.13-1,.21-1.76.24-2.3s0.08-1.05.1-1.51A23,23,0,0,0,212,251a74.91,74.91,0,0,0,9.39.57h8.89l-1-2-1.82-4.12c-0.47-.86-1.32-2.23-2.54-4.14l-2.32-3.48a35.51,35.51,0,0,0,7.56-3.67l8,14.4a38.07,38.07,0,0,0-6.86,3H236a82.61,82.61,0,0,0,8.49-.47,20.68,20.68,0,0,0-.37,3.67v2.38a35.82,35.82,0,0,0,2.31-3.12c0.37-.62,1.29-2.22,2.73-4.8s2.38-4.42,3-5.51,1.62-3.76,3.19-8l1-2.65a32.42,32.42,0,0,0,8.33,2.74L263,238.71l-1.44,2.38L260.06,244h26.32c4.17,0,8.76-.15,13.73-0.44a20.63,20.63,0,0,0-.33,2.31c0,0.49-.06,1-0.11,1.57a2.76,2.76,0,0,0,.05,1l0.39,2.47c-5-.3-9.63-0.46-14-0.46H256.78l-5.63,9.21a25.06,25.06,0,0,0,5.43.56h0.76v-2a23.8,23.8,0,0,0-.1-2.67l-0.37-2.37a28.15,28.15,0,0,0,3.85.4c0.46,0,1.82-.15,4.09-0.4-0.32,3.17-.47,5.07-0.47,5.68v1.39h16l0.1-2.09a2.7,2.7,0,0,0,0-.44c-0.06-.15-0.08-0.89-0.17-2.25L280,252.55a25,25,0,0,0,8,0,32.4,32.4,0,0,0-.47,3.52c0,0.83,0,1.76,0,2.8v1.39h3.6a62.61,62.61,0,0,0,7-.47c-0.18.9-.32,1.58-0.37,2.08a5.26,5.26,0,0,0-.07,1.18c0,0.32.19,1.42,0.44,3.36a59.82,59.82,0,0,0-7.34-.47h-3.3v29.86h3.6c3.06,0,6.3-.12,9.67-0.44a21.79,21.79,0,0,0-.39,2.33,4.58,4.58,0,0,0-.06,1.26c0,0.29.15,1.54,0.44,3.77-3.63-.32-6.92-0.47-9.88-0.47H258c-3.1,0-6.39.15-9.89,0.47,0.08-1.12.15-2,.22-2.48s0.1-1,.14-1.39a24.62,24.62,0,0,0-.36-3.49,87.85,87.85,0,0,0,8.94.44h0.26V265.92h-0.67a33.69,33.69,0,0,0-5.72.47c0.14-.93.21-1.64,0.3-2.16a7.17,7.17,0,0,0,0-1.15c0-.24-0.15-1.4-0.35-3.48-0.71,1-1.21,1.69-1.52,2.2l-2.25,3.66L246,267.29a39.69,39.69,0,0,0-7.94-4l1.66-1.63,2.12-2,0.78-1.11a60.85,60.85,0,0,0-7.28-.46h-5.21l-0.4,11.89h8.43c2.31,0,5.16-.14,8.51-0.37-0.14,2.06-.19,3.63-0.19,4.58l-0.29,4.6-0.94,22.12c-0.15,1.86-.31,3.73-0.51,5.61a12.51,12.51,0,0,1-1.33,4.78,7,7,0,0,1-3.64,3c-1.72.69-4.89,1.26-9.62,1.68a14.75,14.75,0,0,1-.52-2.63,10.76,10.76,0,0,0-.26-1.64c-0.07-.22-0.83-1.91-2.33-5.09a25.8,25.8,0,0,0,6.3.83c2.37,0,3.69-.91,3.92-2.52s0.42-3.57.53-5.82l1.08-22.68h-9.3c-0.27,2.24-.48,4.45-0.67,6.57s-0.35,3.65-.43,4.64-0.39,2.72-.83,5.36-1,5.15-1.57,7.69a57,57,0,0,1-2.81,8.69c-1.25,3.23-2.38,5.82-3.28,7.74l-1.17,2.28c-0.83-.46-1.43-0.79-1.84-1L214.77,317c-0.57-.24-2.07-0.85-4.52-1.76" transform="translate(-26.43 -59.7)"/><path class="a" d="M369.44,270h23v-8h-23v8Zm0-14.43h23v-8.8h-23v8.8Zm-0.11-16.45h23a77.56,77.56,0,0,0,8.72-.49c-0.26,2.18-.4,3.85-0.43,5s0,2.66,0,4.53v20.67c0,2.54,0,4.12.07,4.71l0.39,4.55c-3.08-.29-6-0.47-8.7-0.47h-9.45c0.15,0.91.25,1.71,0.4,2.34s0.58,2.09,1.25,4.32a38.84,38.84,0,0,0,2,5.54c3-2.8,5-4.77,6.12-5.86a36.89,36.89,0,0,0,4-5.24,21.72,21.72,0,0,0,7.25,6l-5.06,3.3a77.3,77.3,0,0,0-9.62,7.7,39.52,39.52,0,0,0,17.79,13.89l1.57,0.62a37,37,0,0,0-5.25,4,14.74,14.74,0,0,0-2.83,4.49l-1.29-1a74.59,74.59,0,0,1-7.61-6.8,78.74,78.74,0,0,1-7.51-8.68,39.07,39.07,0,0,1-5.65-12.08,110,110,0,0,1-3-12.49h-6.06v30.49l4.35-2.86,3.12-2.37,4.31-3.2a25.8,25.8,0,0,0,1.29,6.32l0.73,2.11-4.13,2.19a68.89,68.89,0,0,0-14,9.92l-1.76,1.66q-2.27-4.22-3.53-5l-2-1.36a12.15,12.15,0,0,0,2.48-3.15,12.59,12.59,0,0,0,.76-3.87c0.11-1.77.14-3.81,0.14-6.11V248.79c0-2.34,0-3.91-.08-4.71l-0.36-5.46a82.86,82.86,0,0,0,8.55.49m-49.8,22.49,2.38-2.23c1.15-1.05,2.78-2.77,4.88-5.14a32,32,0,0,0,5.47-10q2.33-6.4,2.9-8.51l0.82-3.2a23.29,23.29,0,0,0,3.06,2.65c1.12,0.8,3,1.39,5.79,1.76l-2.26,4-1.41,2.41L338.75,248h10.06c0.86,0,3.33-.17,7.46-0.46a24.35,24.35,0,0,0-.37,2.79,10.93,10.93,0,0,0-.06,1.71c0.06,0.43.19,1.77,0.43,4.1-3.94-.33-6.4-0.47-7.46-0.47h-14l-5.34,7.65,5.78,0.44H347.6c0.94,0,3.1-.14,6.54-0.44-0.14,1.22-.19,2.12-0.28,2.76a6.25,6.25,0,0,0,0,1.29l0.1,1.36,0.18,2.43c-1.83-.24-4-0.39-6.54-0.47l-4.67-.08v9.72h7.62a44,44,0,0,0,6.35-.46c-0.14,1.19-.19,2.15-0.22,2.83s-0.05,1.16-.1,1.54,0.11,1.73.42,4.24a47.65,47.65,0,0,0-6.44-.47h-7.62v17l4.67-3.41c1.23-.94,3.48-2.87,6.73-5.82a38,38,0,0,0,.64,4,12.53,12.53,0,0,0,1.76,3.88l-5.72,4-5.81,4.16c-1.39,1.08-3,2.48-4.88,4.21l-3.85,3.66a28,28,0,0,0-1.43-3.24A19.45,19.45,0,0,0,331.2,312c2.08-1.08,3.33-2.26,3.78-3.51a19,19,0,0,0,.65-5.86V288h-6.18a34.47,34.47,0,0,0-5.45.47c0.14-1.21.19-2.16,0.25-2.81s0.07-1.23.1-1.68a37.63,37.63,0,0,0-.35-4.12,32.61,32.61,0,0,0,5.36.46h6.26v-10l-1.12.08-2.84.08-3.3.37a42.25,42.25,0,0,0,.35-4.55v-2.56L324,270.48c-0.42-1.5-.87-2.81-1.33-4.07a17.86,17.86,0,0,0-3.15-4.81" transform="translate(-26.43 -59.7)"/><path class="a" d="M507.44,240.21a25.69,25.69,0,0,0-.54,4.49,5.14,5.14,0,0,0,.08,1.74l0.46,2.83a102.74,102.74,0,0,0-11-.73H478.09a100.21,100.21,0,0,0-11.21.73c0.13-1.19.26-2.27,0.37-3.24a12.37,12.37,0,0,0,0-2.86l-0.37-3c4.66,0.46,8.41.67,11.21,0.67h18.33c2.49,0,6.17-.21,11-0.67m-34.53,25.32h27.8c3.31,0,7.55-.22,12.69-0.65-0.17,1.28-.29,2.23-0.37,2.94a13.27,13.27,0,0,0,0,1.58q0.06,0.58.42,4.53c-7.36-.48-11.59-0.72-12.6-0.72h-5.14V310c0,3.27-.3,5.5-0.86,6.76a4.94,4.94,0,0,1-3.41,2.56,117.31,117.31,0,0,1-12.76,1.79c-0.12-1.22-.33-2.42-0.55-3.64a36.82,36.82,0,0,0-3-6.83,45.56,45.56,0,0,0,8.72,1c1.68,0,2.7-.4,3.09-1.21a13.16,13.16,0,0,0,.61-4.92V273.21H472.91c-0.33,0-4.24.24-11.79,0.72,0.12-1.14.22-2,.25-2.6s0.07-1.27.07-2,0.06-1.19.06-1.37l-0.37-3c5.28,0.43,9.2.65,11.79,0.65m-47.62-7.64,2.11-1.32a54.64,54.64,0,0,0,10.57-8.9,70.27,70.27,0,0,0,9.29-11.46l1.66-2.67a77,77,0,0,0,7.36,6.25l-2.74,2.68c-1.07,1.05-3.72,3.82-8,8.38s-8.67,8.88-13.15,13l-1.11,1a28.25,28.25,0,0,0-2.05-3.12,42.79,42.79,0,0,0-3.91-3.85m-0.15,27.65,1.58-1.2a89.08,89.08,0,0,0,13.34-13,112.72,112.72,0,0,0,11-15.15l1.36-2.4c2,1.77,4.5,3.88,7.58,6.25l-4.42,5.14-3.77,4.32L449,272.86v34.95c0,2.55.08,4.53,0.18,6l0.57,7.41a42.4,42.4,0,0,0-9.59,0c0.18-3.35.3-6.05,0.44-8.06s0.19-3.82.19-5.36V282c-1.76,2-3.1,3.4-4,4.31L432.23,291,431,292.32a21,21,0,0,0-5.89-6.78" transform="translate(-26.43 -59.7)"/><path class="b" d="M242.07,96.27a85.95,85.95,0,0,0-140.7,0l-0.83,1.16h20.37l0.24-.25C135,82.9,153.09,75.35,171.7,75.35s36.7,7.55,50.58,21.84l0.22,0.25h20.37Z" transform="translate(-26.43 -59.7)"/><path class="a" d="M92.48,172.48l-0.39.37c-6.26,6.36-13.5,9.74-21,9.74-15.56,0-26.86-11.67-26.86-27.8S55.58,127,71.14,127c7.46,0,14.7,3.4,21,9.77l0.39,0.4,10-12.11-0.27-.33c-8.31-9.84-18.33-14.62-30.61-14.62S48,114.28,39.93,121.75c-8.83,8.11-13.5,19.54-13.5,33.05s4.67,25,13.5,33.08C48,195.4,59.3,199.52,71.62,199.52s22.29-4.8,30.61-14.63l0.27-.3Z" transform="translate(-26.43 -59.7)"/><rect class="a" x="86.16" y="51.83" width="17.69" height="86.32"/><path class="a" d="M199.56,179.1c-4.72,2.87-9.1,4.31-13,4.31-5.72,0-8.31-3-8.31-9.73V127.87h18V111.62h-18V84.75L160.88,94v17.59H145.94v16.26h14.94v48.74c0,13.26,7.86,22.34,19.61,22.57a27.67,27.67,0,0,0,15.69-4l0.17-.12,4.27-16.64Z" transform="translate(-26.43 -59.7)"/><rect class="a" x="187.78" y="51.83" width="17.7" height="86.32"/><path class="a" d="M514,78.69V161l5.5-8.57s24.75-35.82,27.92-40.38h11.06c-2.37,3.16-21.83,29.92-21.83,29.92s25.35,52.86,26.82,55.85H552.61c-0.6-1.22-22.38-47.33-22.38-47.33L514,173.3v24.56H503.88V84.45c0.87-.51,7.72-4.42,10.09-5.77m-82.91,43.63A26.77,26.77,0,0,1,454,110.23c19,0,29.13,12.14,29.13,35.1v52.52H473V147.51c0-19.52-6.79-28.6-21.48-28.6-14.07,0-22.46,10.7-22.46,28.6v50.35H418.92V112.09H429v13.3Zm-62-12.08c19.57,0,29.1,9,29.1,27.4v60.23H388v-12.5l-2,2.16c-7.44,8.21-16,12.21-26.12,12.21-7.94,0-26.45-2.63-26.45-27.08,0-19.94,16.48-27,31.93-27,7.73,0,15.41,1.79,20.94,4.9l1.68,0.9V139.12c0-13.65-6.67-20.58-19.86-20.58a45.37,45.37,0,0,0-23,6.29c-0.65-1.51-3-6.68-3.63-8.13A59.39,59.39,0,0,1,369,110.23m-25.64,61.6c0,12.83,6.65,19.9,18.71,19.9,10.28,0,19.4-4.86,25.75-13.69l0.19-.3V158.93l-0.57-.33c-6.44-3.66-13-5.16-22.75-5.16-13.35,0-21.33,6.87-21.33,18.39M265.45,78.69v45.87l1.94-2.13c7.43-8.21,15.67-12.2,25.14-12.2,18.92,0,29.79,15.78,29.79,43.31,0,28-12.35,46.19-31.46,46.19-9.3,0-16.75-3.62-23.46-11.36l-2-2.26v11.75H255.37V84.45c0.85-.51,7.7-4.42,10.07-5.77M265.68,132l-0.24.32V177l0.17,0.28c5.57,8.6,14.65,13.75,24.31,13.75,14.91,0,22.46-12.57,22.46-37.33,0-22.14-8.37-34.83-23-34.83-8.84,0-16.82,4.42-23.72,13.14" transform="translate(-26.43 -59.7)"/><path class="c" d="M581.48,108.78a8.89,8.89,0,1,1-8.89-8.89A8.88,8.88,0,0,1,581.48,108.78Z" transform="translate(-26.43 -59.7)"/><path class="a" d="M575.15,108.28a2.5,2.5,0,0,1-1.42.78l1.82,3.57h-1.06l-1.77-3.5h-1.94v3.5h-0.93V104.4h3.26a3.76,3.76,0,0,1,1,.14,2.1,2.1,0,0,1,.81.44,1.87,1.87,0,0,1,.54.72,2.27,2.27,0,0,1,.21,1A2.21,2.21,0,0,1,575.15,108.28Zm-0.82-2.65a1.85,1.85,0,0,0-1.26-.39h-2.3v3.06H573a2,2,0,0,0,1.36-.38,1.43,1.43,0,0,0,.44-1.15A1.41,1.41,0,0,0,574.33,105.62Z" transform="translate(-26.43 -59.7)"/></svg>