<svg xmlns="http://www.w3.org/2000/svg" viewBox="0 0 536.97 118.77"><defs><style>.a{fill:#e20113;fill-rule:evenodd;}</style></defs><title>Bank of Beijing</title><path class="a" d="M199.93,234.36a6.21,6.21,0,0,1,2.77,5.24c0,3.61-3.21,7.53-12.25,7.68H176.61l-0.16-1.15c2.48-.4,3.76-0.52,3.76-2.89V223.63c0-2.52-1.56-2.6-3.55-2.73l-0.21-1.17,13.44-.14c7.32,0,11.33,2.35,11.33,6.64s-4.24,5.5-6.34,6.09a12.28,12.28,0,0,1,5,2h0Zm-12.49-1v10c0,1.69.64,2.34,2.41,2.34,3.46,0,5.13-2,5.13-5.95,0-5.38-3.23-6.24-6.42-6.39h-1.12Zm0-10.41v8.91c5.42-.05,6.39-1.55,6.39-5.7,0-3.44-1.4-5.09-4.27-5.09C187.5,221.09,187.49,222,187.43,223Z" transform="translate(-26.47 -132.41)"/><path class="a" d="M232.4,246l0.17,1.15-14.09.15-0.18-1.15c2.94-.36,3.46-0.42,3.46-1.6s-1.4-4.11-1.94-5.23h-9.43c-1.18,2.78-1.85,4.47-1.85,5.08,0,1.41,2,1.52,3.38,1.6l0.13,1.15-8.89.15L203,246.13c2.37-.46,2.95-1.83,4.21-4.79l9.55-22.23,1.35-.08,9.74,21.4c2,4.37,2.6,5.63,4.55,5.55h0Zm-17.47-17.86-3.81,9.3h7.94Z" transform="translate(-26.47 -132.41)"/><path class="a" d="M264.51,219.59h-9.4v1.29l0.15,0c3.28,0.24,3.85,1.38,3.85,3.86v12l-14.73-17.09-0.06-.05H235v1.31h0.15c0.45,0,1.05,0,3.5,2.82v19.16c0,2.58-1.11,2.83-3.65,3.1h-0.14v1.3H245V246h-0.15c-3.18-.32-3.94-1.09-3.94-3.85v-15.9L259.83,248l0,0h1.45V224c0-1.85.14-2.74,3.2-3.11l0.14,0v-1.29h-0.16Z" transform="translate(-26.47 -132.41)"/><path class="a" d="M298.91,246a2.49,2.49,0,0,1-2-.81l-13-15.2c7.19-6.94,9.16-8.83,13.61-9.06h0.15v-1.31H284.89v1.31H285c3.22,0.17,3.49.43,3.49,1.2s-0.35,1-1.5,2.11c0,0-7.54,7.13-9.06,8.59v-8.34c0-3.32,1.29-3.41,3.64-3.56h0l0.13,0v-1.29H267v1.31h0.21c2,0.13,3.51.21,3.51,2.73v19.61c0,2.37-1.27,2.5-3.6,2.74H267v1.3h14.79V246l-0.14,0h-0.06c-2.23-.3-3.58-0.46-3.58-2.74v-7.86l1-.88,7.72,9.07a3,3,0,0,1,1,1.7c0,0.5-.62.62-3.24,0.71h-0.17v1.3h14.78V246h-0.15Z" transform="translate(-26.47 -132.41)"/><path class="a" d="M328.56,219c8.93,0,15.39,6.11,15.39,14.55A14.1,14.1,0,0,1,339.58,244a17,17,0,0,1-22,0,14.06,14.06,0,0,1-4.37-10.48c0-8.43,6.48-14.55,15.37-14.55h0Zm0,1.64c-6.71,0-7.44,9-7.44,12.91,0,8.56,2.51,12.9,7.44,12.9s7.45-4.35,7.45-12.9C336,229.63,335.3,220.62,328.56,220.62Z" transform="translate(-26.47 -132.41)"/><path class="a" d="M370.37,219.59H345.83v1.31H346c2,0.14,3.57.21,3.57,2.73v19.61c0,2.37-1.18,2.5-3.59,2.74h-0.17v1.3h15.79V246h-0.14c-3-.13-4.57-0.18-4.57-2.74V234c5,0,5.76,2.71,6.25,6.14v0.13h1.38v-14h-1.37l0,0.12c-0.57,3-1.12,5.94-6.25,5.9V223c0-1.59.58-1.77,2.92-1.77,7.33,0,8.43,2.52,9.37,6.65V228h1.33v-8.46h-0.16Z" transform="translate(-26.47 -132.41)"/><path class="a" d="M408.13,234.36a6.25,6.25,0,0,1,2.79,5.24c0,3.61-3.24,7.53-12.25,7.68H384.8l-0.15-1.15c2.48-.4,3.79-0.52,3.79-2.89V223.63c0-2.52-1.6-2.6-3.58-2.73l-0.21-1.17,13.46-.14c7.3,0,11.33,2.35,11.33,6.64s-4.25,5.5-6.34,6.09a12.3,12.3,0,0,1,5,2h0Zm-12.49-1v10c0,1.69.63,2.34,2.41,2.34,3.46,0,5.11-2,5.11-5.95,0-5.38-3.22-6.24-6.4-6.39h-1.12Zm0-1.5c5.42-.05,6.41-1.55,6.41-5.7,0-3.44-1.42-5.09-4.27-5.09-2.06,0-2.12.9-2.14,1.88v8.91Z" transform="translate(-26.47 -132.41)"/><path class="a" d="M438.73,238.56h-0.11l0,0.1c-2.74,6.23-7.2,7.09-11.16,7.09-2.73,0-3.44-.44-3.44-2.12V234c3.91,0,6.13,1.05,6.65,6.14v0.13h1.41v-14h-1.41v0.13c-0.62,5-2.84,5.92-6.65,5.91V223c0-1.6.59-1.77,3-1.77,5.8,0,8.72,1,9.71,6.65V228h1.39v-8.45H412.91v1.31h0.21c2,0.13,3.56.21,3.56,2.73v19.61c0,2.37-1.2,2.5-3.59,2.74h-0.18v1.3h25.43l0-.13,1.71-8.42,0-.18h-1.41Z" transform="translate(-26.47 -132.41)"/><path class="a" d="M442.27,219.59h-0.16v1.31h0.24c1.94,0.14,3.77.24,3.77,2.73v19.61c0,2.39-1.55,2.55-3.86,2.74h-0.15v1.3h15.37V246h-0.15c-2.38-.16-4-0.27-4-2.74V223.63c0-2.58,1.86-2.64,3.84-2.73h0.26v-1.31H442.27Z" transform="translate(-26.47 -132.41)"/><path class="a" d="M465,219.59h-0.15v1.31H465c2.4,0.09,4.15.14,4.15,2.73v22.55c0,1.24,0,3.38-2.66,3.38-1,0-1.73-.45-1.73-1.12a1.27,1.27,0,0,1,.48-1,2.22,2.22,0,0,0,.68-1.66,3.29,3.29,0,0,0-3.23-3.19,3.18,3.18,0,0,0-3.22,3.27s0.32,5.3,7.4,5.3a10.86,10.86,0,0,0,6.46-1.71c2-1.5,3.09-4,3.09-7.31v-17.7c0-3.32,1.19-3.42,3.57-3.56h0.11l0.16,0v-1.29H465Z" transform="translate(-26.47 -132.41)"/><path class="a" d="M482.43,219.59h-0.15v1.31h0.25c1.92,0.14,3.75.24,3.75,2.73v19.61c0,2.39-1.53,2.55-3.85,2.74h-0.15v1.3h15.37V246h-0.14c-2.37-.16-3.94-0.27-3.94-2.74V223.63c0-2.58,1.88-2.64,3.83-2.73h0.25v-1.31H482.43Z" transform="translate(-26.47 -132.41)"/><path class="a" d="M520,219.59h-0.16v1.29l0.16,0c3.29,0.24,3.84,1.38,3.84,3.86v12l-14.74-17.09,0-.05h-9.34v1.31h0.19c0.46,0,1.06,0,3.48,2.82v19.16c0,2.58-1.1,2.83-3.63,3.1h-0.13v1.3h10.06V246h-0.14c-3.18-.32-3.94-1.09-3.94-3.85v-15.9L524.6,248l0.05,0h1.43V224c0-1.85.14-2.74,3.22-3.11l0.12,0v-1.29H520Z" transform="translate(-26.47 -132.41)"/><path class="a" d="M562.45,235.36H547.57v1.31h0.15c3,0.17,4.19.22,4.19,2.68v4.27c0,1.73-.71,2.81-4.31,2.81-7.16,0-8.23-8-8.23-12.83,0-8.61,2.62-13,7.8-13s8.57,5.14,9.89,8.17l0,0.1h1.34V219.1H557l0,0.08c-0.47,1.1-.82,1.79-1.83,1.79a7.84,7.84,0,0,1-1.85-.55,18.52,18.52,0,0,0-6.44-1.44c-8.92,0-15.38,6.18-15.38,14.69,0,7.18,4.86,14.38,15.72,14.38,3.65,0,9.55-1.11,11.7-2.53l0.07,0v-5.23c0-3.2.89-3.28,3.55-3.57h0.15v-1.3h-0.18Z" transform="translate(-26.47 -132.41)"/><path class="a" d="M243.92,201.86a65.18,65.18,0,0,0,10.63-.52,9.75,9.75,0,0,0,7.66-7.2l0.32-1.78s1-6,1-6l0.06-.89a17.65,17.65,0,0,0-.84-6c-0.39-1.05-.6-4-1.85-5-1-.75-1.34,1.27-1.42,1.67a6,6,0,0,1-.28.93,15.36,15.36,0,0,1-.74,1.64c-0.68,1.2-.46,1.53-2.32,2.34a13.53,13.53,0,0,0-4.23,2.83c-1.53,1.38-3.13,1.58-5.35,1.79-1.52.17-2.37,0.4-3.77,0.48a6.41,6.41,0,0,1-2.93-.08l-0.55-.2-3.16-.79c-3.84-.73-4.87-4.72-5.22-6.26s0-3.82.13-5.53a7.07,7.07,0,0,0-.32-2.84s-0.26-1.66-.27-1.71a7.93,7.93,0,0,1,.68-3.62c0.43-.82.59-1.22,1-2,0.57-1.07.6-1.33,2-1.59,0.58-.1,2.44.76,4.44,0.47,1.16-.15,2.16-0.46,2.89-0.5a6,6,0,0,1,.91-0.09h0a20,20,0,0,1,4.41-.05,9.19,9.19,0,0,0,3.59-.3l1.06-.27c2.07-.72,4-3.48,4.62-6.18l0.08-.87c0-2.39-.54-4.61-1.95-5.73a10.63,10.63,0,0,0-4.9-1c-1.55,0-2.8-.84-5.26-0.9a40.3,40.3,0,0,0-6.11.22c-4.57.48-6.11-1.37-7.42-3-0.62-.71-1.31-1.61-1.31-1.61a7.46,7.46,0,0,1-2.35-5.38c-0.13-1.67-.91-2.77-1.85-2.77a1.76,1.76,0,0,0-1.23.64,5.45,5.45,0,0,0-1.81,3.4c-0.14,1.65-.19,3.88-0.19,3.88,0,9.11.86,24.42,1,26.22l0.06,1.3c0,2.42-.58,9.3-1.3,10.55-1,1.58-2.1,1.38-3.21,1.19a4.85,4.85,0,0,0-2.56.29,6.6,6.6,0,0,1-3,.55,3,3,0,0,1-2.28-.94c-0.49-.54-0.72-1.64-0.72-3.29l0.14-2.4,0.09-1,0.18-1.73a8.28,8.28,0,0,0,.13-0.88l0-.78,0.27-2.2c0.16-1,.22-1.55.3-1.83l0,0.05,0.15-4.18,0-4.63c0-2.55-1-11.63-1.29-13.76a6.91,6.91,0,0,0-3.15-5.53c-2.13-1.65-2.58-1.21-3.81,0a5.7,5.7,0,0,0-1.32,3.67c0,0.16,0,.32,0,0.44s0,0.4,0,.59c0,2-1.25,2.45-2.72,3a4.79,4.79,0,0,1-.72.25l0,0a10.56,10.56,0,0,1-5.21.16l-2.23-.21-1.47,0a20.12,20.12,0,0,0-6.73.89,2.83,2.83,0,0,0-1.81,2.95,7.23,7.23,0,0,0,.17,1.51,13.89,13.89,0,0,1,.24,2.51,32.5,32.5,0,0,1-.44,4.56c0,0.27-.09.5-0.09,0.7,0,1.33.72,1.85,1.81,3a24.81,24.81,0,0,0,2.87,2.94c1.11,0.81,5.07,3.41,7,3.69a6.69,6.69,0,0,0,2.39-.3,5.1,5.1,0,0,1,3.86.07c2.54,1.29,2.84,4.34,2.21,6.75-0.65,2.62-2.65,4.2-5.92,4.69a17.65,17.65,0,0,1-3.61.06l-3,0c-1.95.3-2.08,0.44-3.11,1.29a3,3,0,0,1-2.71.71,2.42,2.42,0,0,0-1.52.16c-1.74.66-3.45,1.68-3.57,6.48v1c0,3.86.85,5,4.13,7.89,1.48,1.27,4.83,2.63,12.73,1.74,5-.55,8.55-1.63,10.29-3.07a22.63,22.63,0,0,1,5.55-3.08,17.1,17.1,0,0,1,2.29-1,0.11,0.11,0,0,1-.08,0c3.63-2,6.33-3,8.17-3,2.23,0,2.5,2.83,2.6,4.19,0,0.07,0,.15,0,0.2s0.26,1.83.24,1.77a6.65,6.65,0,0,0,3,3.77,7.53,7.53,0,0,1,2.12,1.47,8.35,8.35,0,0,0,1.83,1.1,4.38,4.38,0,0,0,2.25.44,9.92,9.92,0,0,1,1.41,0l-0.06,0h0.31a45.45,45.45,0,0,1,5.61-.62Z" transform="translate(-26.47 -132.41)"/><path class="a" d="M358.69,151.41a8.3,8.3,0,0,0-1.83,1.59,3.72,3.72,0,0,1-1.94,1.35,8.52,8.52,0,0,1-2.86-.74c-1.47-.48-1.3-0.6-2.31-0.21a2.58,2.58,0,0,0-1.65,2.74c0.11,0.64,1.88,3.47,1.71,4.91s-0.79,1.77-1.8,2.65c-0.71.64-3.85,3.57-4.17,7.75a11.24,11.24,0,0,0,2,8l0.53,0.88c0.9,1.36,1,1.61.57,2.15a2.77,2.77,0,0,1-2.86,1.13s-1.76-.43-1.76-0.43a50.21,50.21,0,0,0-5.77-.91,8.59,8.59,0,0,1-2.58-.62,6.57,6.57,0,0,0-2.66-.88c-3.54-.31-9.6-0.26-10.27,3.31a25.21,25.21,0,0,0,.41,9.33c0.9,2.67,1.43,6.13.31,7.83-1.54,2.3-3.13,4.66-4.77,4.93-0.9,0-2.65-3-3.63-7-0.6-2.49,0-5.92.66-8.63l0.29-1.18a12.87,12.87,0,0,0,.52-4.44c-0.17-2.09-.62-4.1-4.55-3.91-3,.14-4,0.2-6.22,1.11-1.93.83-2,.84-4.79,1-2.59.16-4.49,0.27-5.48,1.42a2.74,2.74,0,0,0,.84,4,3.72,3.72,0,0,0,3.38-.26,3.62,3.62,0,0,1,3.56-.1c0.2,0.13.64,0.41,1.8,1.09a4.2,4.2,0,0,0,2.56,1c1,0,2.27.47,2.34,1.12l-0.33,1.26a3.1,3.1,0,0,0-.53,1.69,2.74,2.74,0,0,1-1.49,2.78c-2,1.28-8.57,3.65-12.59,3.49s-7.94-.3-10.42-5.6a7.85,7.85,0,0,1-.86-3l0.12-.66a2.31,2.31,0,0,1,1.43-1.12s0.65-.3.65-0.3l0.73-.25c1.19-.29,2.32-0.81,2.93-3.69l0.32-1.38a25,25,0,0,0,.73-4.84,8.41,8.41,0,0,0-.11-1.41l-0.25-1a2.23,2.23,0,0,1,.7-2.35c0.73-.78,1.17-2.54,1.17-4.49a22.63,22.63,0,0,0-.27-3.4L290,164.92c-0.17-2.61-.38-5.29-1.64-6.86a6.36,6.36,0,0,0-.41-0.58c-1.11-1.52-2.42-3.26-7.88-3.07-4.17.1-4.25-.43-4.7-1.34a12.37,12.37,0,0,1-.75-2.54,6,6,0,0,1,.94-6.64c2.14-2.6,3.7-2.52,6.29-2.48H283l10.47-.14,4.13,0.2c2.08,0.14,5.74.2,5.74,0.2l1.7,0.08c1.77,0,1.83-.82,2.33-2a5.93,5.93,0,0,1,1.69-2.44,7.22,7.22,0,0,0,1.42-1.73,4.67,4.67,0,0,1,2.41-2.66,9.15,9.15,0,0,1,3.36-.56c2.43,0,5,.7,6.16,1.86s1.47,3,3,4.1a11.23,11.23,0,0,1,2.77,2.41c1.29,1.58,5.38,1,6,.7a18.9,18.9,0,0,1,7.18-1.06c0.12,0,.63.06,2.48,0.27l4.08,0.49a4.46,4.46,0,0,0,2.61-.44,5.44,5.44,0,0,1,2.1-.49,5.16,5.16,0,0,1,2.85,1.06l1.13,0.66,3.15,1.41a3,3,0,0,1,1.39,2.52,3.76,3.76,0,0,1-.42,1.63l-1,2.32a2.6,2.6,0,0,1-1,1.58h0ZM342,156.07a2.28,2.28,0,0,0,.25-1.3,1.81,1.81,0,0,0-.72-1.56c-0.69-.57-0.79-0.57-5.26-3.15-1.34-.76-2.88-0.6-4.64-0.42l-1.05.1a9.19,9.19,0,0,1-2.58-.29,4.39,4.39,0,0,0-2-.22,13.79,13.79,0,0,1-4.8.06c-1.59-.58-3.9-0.58-6.57-0.58a14.89,14.89,0,0,0-3.91.41l-1.46.28a39.74,39.74,0,0,1-7.51-.18,4.15,4.15,0,0,0-3.34.79,2.39,2.39,0,0,0-.58,2l0,0.37c0.16,1.37.57,1.72,1.91,2.28,1,0.48,3.69.19,4.8,0.11l2.49,0,6.57,0c2.18-.17,8.61-0.51,10.52-0.21,0,0,3.58.14,3.58,0.14a34.48,34.48,0,0,1,7.31.38,21.14,21.14,0,0,1,4.23,1.3c0.78,0.3,2,.8,2.65-0.29l0.06,0h0Zm-6.81,14.32a3,3,0,0,0,.42-1.58l-0.34-1.7c-0.34-.8-1.53-2.54-5.89-2a28.83,28.83,0,0,1-6.44.2,79.12,79.12,0,0,0-8.86,0,13.2,13.2,0,0,1-3.18-.29,15.79,15.79,0,0,0-4.68.27s-1.75.25-1.75,0.25c-1.58.37-3.79,1.06-4.67,3.13a2.2,2.2,0,0,0,.08,2,4.54,4.54,0,0,0,3.68,1.7,19.38,19.38,0,0,0,3.16-.22,16.74,16.74,0,0,1,4.06-.19,72.2,72.2,0,0,0,9,.19l1.36-.06,2.42,0.06a69.31,69.31,0,0,0,8.64-.06A3.68,3.68,0,0,0,335.2,170.39Z" transform="translate(-26.47 -132.41)"/><path class="a" d="M354.42,189.77c-0.75-1.41-2.6-2.11-5.55-2.1h-0.08a6,6,0,0,1-2-.55s-1.75-.35-1.75-0.35a6.51,6.51,0,0,0-2.69.32l-1.27.58a6,6,0,0,1-2.92.29l-1.47,0a18.8,18.8,0,0,1-4.33-.13,14.19,14.19,0,0,0-3.41-.6c-1.34,0-2.2,1.76-2.2,4.41,0,1.66.87,2.53,2,3.6,0,0,1.85,2.08,1.85,2.08a7.81,7.81,0,0,0,6.17,3.55,16,16,0,0,1,4.43.84l2.21,0.73a5.18,5.18,0,0,0,3.06.89,9.67,9.67,0,0,0,3.44-.64c2.08-.62,3.25-2.73,4-3.94l0.26-.44a2.32,2.32,0,0,0,.28-1.58,2.94,2.94,0,0,1,.41-2C355.78,193.56,355.62,192,354.42,189.77Z" transform="translate(-26.47 -132.41)"/><path class="a" d="M440.61,195.2a3.46,3.46,0,0,1-1.88.91,45.84,45.84,0,0,1-4.79,0c-4.27-.07-6.08-0.07-7,0.42a9.35,9.35,0,0,0-2.32,1.89,11.17,11.17,0,0,1-2.71,2.24,9.18,9.18,0,0,0-2.47,1.74l-1.11.67c-1.33.44-4.43,0.35-5.08-.22l-0.57-.46a7,7,0,0,1-2.88-5c-0.13-1.17.08-2.48,0.13-4.74a2.26,2.26,0,0,0-2-2.68c-1.94-.37-5,1.28-6.63,2.38l-1,.54a63.08,63.08,0,0,0-8.33,6.35l-0.53.5c-1.67,1.63-2.57,2.35-3.4,2.08-1.32-.42-3.15-1.63-3.15-3.09a15.87,15.87,0,0,1,.27-2.17,7.39,7.39,0,0,0,0-1.7,8.66,8.66,0,0,0-.06-0.89,9.83,9.83,0,0,0-.26-1.68,1.88,1.88,0,0,1-.11-1.2,1.51,1.51,0,0,1,.6-1,5.8,5.8,0,0,1,.78-0.57,8.47,8.47,0,0,0,2.59-2.16,8.94,8.94,0,0,0,.67-3.67,4.5,4.5,0,0,0-.67-2.75c-0.7-.81-1.77-0.73-3.37-0.61-1.41.09-3.31,0.2-4.2-.28-1.73-1-2.63-2.94-2.63-5.66V173.8c0.12-2.52.58-2.58,1.32-2.69l1.93,0.08c2.35,0.15,4,.23,5-0.36a3,3,0,0,0,1.87-2.66,2.42,2.42,0,0,0-1.67-2.07,6.81,6.81,0,0,0-2.78-.35,3.15,3.15,0,0,1-1.5-.17,1.94,1.94,0,0,1-.55-0.37,2.77,2.77,0,0,1-.49-0.61c-0.58-1,.49-2-0.92-3a2.54,2.54,0,0,0-2.13-.47l-1.42.45a4,4,0,0,1-2.84.37c-1-.37-2.78-1.68-2.78-6.47,0-4.09,4.16-7.28,6.64-8.52l1.83-.84a36.23,36.23,0,0,0,6.14-3.48c1.13-.91.82-0.6,2-1.54,2.1-1.53,3.92-2.86,4.73-4.82s1-1.95,1.51-2.41a1.45,1.45,0,0,1,1.31-.24,5.63,5.63,0,0,1,1.41,1.14,12.43,12.43,0,0,0,2.14,2.54l1.44,0.95a7,7,0,0,1,1.67,1.21c0.94,1.25,2.47.87,3,.84a3.55,3.55,0,0,1,1.81.29,9.93,9.93,0,0,0,3.38,1.06,6.37,6.37,0,0,0,3.07-1.26,9.18,9.18,0,0,1,.89-0.77,4.16,4.16,0,0,0,1.36-1.56,1.55,1.55,0,0,1,.39-0.49,3.07,3.07,0,0,1,2-.75c1-.11,4.21,1.15,5.46.86,0.71-.19,2.62-0.32,7.5.19l7.33,0.26s2.21,0.1,3.17.08,3.12-.32,3.12-0.32a14.78,14.78,0,0,1,1.9-.16,3.71,3.71,0,0,1,1.39.3,3.59,3.59,0,0,0,1.65.39,3.76,3.76,0,0,1,2.16.85c1,0.86,1.94,1.06,3.7,1.06a3.26,3.26,0,0,1,2.82,1.82,2.91,2.91,0,0,1,.61,1.54,2.77,2.77,0,0,1-.44,1.28,11.53,11.53,0,0,1-2.91,3.09,5.56,5.56,0,0,0-2.33,5l0,3.17,0,1.13a15.25,15.25,0,0,1-.19,1.85,16.59,16.59,0,0,0-.41,2.8l0.16,2.54,0.25,2.27a10.6,10.6,0,0,1,.13,1.75,7.07,7.07,0,0,1-.47,1.71,1.84,1.84,0,0,1-1.25,1.39,8.68,8.68,0,0,1-1.74.34l-1.83.38a3.58,3.58,0,0,0-2.49,3l0,0.49a3,3,0,0,0,1.4,2.64,17,17,0,0,1,2.82,2.91l0.65,0.77c1.7,2,4.18,4.75,6.2,5.61a7,7,0,0,1,1.88,1.39,5.84,5.84,0,0,0,2.77,1.75,9.91,9.91,0,0,0,3.29.32c0.89-.11,1.15-0.36,1.4.39,0.58,1.62-.64,3.8-1.38,4.55s-0.94,1-1.75,1.83-2.38,3-4.2,3.92c-1.41.68-2.24,1.07-4.81-.3-2.38-1.25-3.31-2-4.55-3.93-1.6-2.61-3.81-3.9-6.18-3.69a5,5,0,0,0-2.49,1.18h0Zm-4.06-9.56a2,2,0,0,0,1.33,1.83,5.46,5.46,0,0,0,5.53-1.1,1.41,1.41,0,0,0,.5-1.16,2.75,2.75,0,0,0-.92-1.71,1,1,0,0,1-.39-0.42,4.39,4.39,0,0,1-.57-1.19,2,2,0,0,0-1.19-1.57A2.54,2.54,0,0,0,438,180c-0.88.55-1.31,0.75-1.21,2.37s-0.28,2-.22,3.23h0Zm-4.12-18.25a26.28,26.28,0,0,1,4.94.16,3.94,3.94,0,0,0,3.79-1.63,5.9,5.9,0,0,1,1.38-.92,4,4,0,0,0,2-1.59l0.11-.52-0.19-.68c-0.53-.77-1.61-0.71-3.41-0.58l-1.72,0-1.78.06a8.35,8.35,0,0,1-2.47,0,6.54,6.54,0,0,0-3.12.25l-1.74.33a4.73,4.73,0,0,0-3.38,1.79,2.49,2.49,0,0,0-.4,1.33,1.76,1.76,0,0,0,.1.65c0.57,2,3.54,1.62,5.53,1.39l0.38,0h0Zm-1.93,13.1a9.25,9.25,0,0,0,0-4.16,2.76,2.76,0,0,0-3-2,3.13,3.13,0,0,0-3.14,2.33,7.39,7.39,0,0,0,.08,3,8.7,8.7,0,0,1-.22,2.22,9.37,9.37,0,0,0-.49,2.51,2.63,2.63,0,0,0,1,2.11,3.87,3.87,0,0,0,3.14.35,2.84,2.84,0,0,0,1.82-1.34,4.27,4.27,0,0,0,.49-2.69c0-.51.1-1.31,0.1-1.31s0.27-1,.27-1h0Zm-4.59-29.65a1.72,1.72,0,0,0,.46,1.66c1.18,1.22,4.08.66,4.64,0.56a10.24,10.24,0,0,1,2.49,0l3,0a41.26,41.26,0,0,1,6.14.25,5.16,5.16,0,0,0,4-1,2,2,0,0,0,.6-2c-0.35-1.34-2.14-2.78-3.93-3.12-0.08,0-3.09-.12-3.09-0.12a31.09,31.09,0,0,1-4.33-.18,16.42,16.42,0,0,0-6.22.68c-2.11.73-3.49,1.89-3.8,3.32h0ZM418,177.72a21.59,21.59,0,0,0,.38-4.64,17.48,17.48,0,0,0-.41-4.39c-0.21-.71-0.47-3.76-0.47-10.16,0-.62-0.08-6.05-3.34-6.62l-2-.6a5.21,5.21,0,0,0-3.22-.44,6.63,6.63,0,0,1-3.52.12,12.26,12.26,0,0,0-6.67.36c-1.92.66-3.12,2.07-2.83,3.36,0.16,0.73.86,1.57,2.65,1.4a28.24,28.24,0,0,1,6-.12,5.6,5.6,0,0,1,2.28.88l2.26,1a7.91,7.91,0,0,1,1.54.58,2,2,0,0,1,1.15,1.06,5.49,5.49,0,0,1-.11,3c-0.29.77-.43,1.8-1,1.85a3.51,3.51,0,0,1-1.47-.31l-1.62-.53c-0.49-.16-6.63-1-7.89,1.12l-0.28.51L398.72,167a3.51,3.51,0,0,0-.08.69,2.34,2.34,0,0,0,.56,1.57c0.62,0.73,1.58,1,3.23,1a61.35,61.35,0,0,1,6.83.48c1.94,0.2,2.65,1,2.65,2.85a2.29,2.29,0,0,1-2,2.26c-1.17.3-.73,1-1.5,1.4a2.72,2.72,0,0,1-1.53.66c-0.74,0-2.5-.06-3.32-0.14,0.08,0-1-.08-1-0.08a3.82,3.82,0,0,0-3,.83,3.59,3.59,0,0,0-1,2.75,2.35,2.35,0,0,0,2.57,2.67,3.36,3.36,0,0,0,.44.07,5.48,5.48,0,0,0,4-.89,3.47,3.47,0,0,1,1.43-.67,1,1,0,0,1,1.24.92,7,7,0,0,0,.48,1.58c0.32,0.51.36,0.71,2.14,1.16a3.76,3.76,0,0,0,3.87-.94l1-.71c1.65-1.13,1.94-3.57,2.14-5.41Z" transform="translate(-26.47 -132.41)"/><path class="a" d="M556.49,149.47l0.32-.92c0.46-1.21.46-1.21-.15-2.72l-0.45-1.24c-0.33-1-.44-1.28-2-2.2l-2-1.4c-0.88-.73-1.44-1.2-4.48-1.85s-3.13-.63-4.18-0.51l-3,.24-4.09.26a9.66,9.66,0,0,1-3.72-.12s-0.91-.29-0.93-0.32c-0.84-.31-1.77-0.66-5.17-0.66a18.22,18.22,0,0,0-6.91,1.49l-2.11.66a10.39,10.39,0,0,0-4.85,2.76c-1.12,1.25-1.49,1.88-1.38,2.47a1.26,1.26,0,0,1-.53,1.48c-0.9.47-2.27-.31-3-1.32,0,0-.68-0.87-0.71-0.87a5,5,0,0,1-1.09-1.86l-0.21-.51a2.63,2.63,0,0,0-1.37-1.8l-2.5-1.15a10.18,10.18,0,0,1-2.64-1.32c-0.42-.38-0.88-0.41-2.22-0.47l-1.32-.07a21.48,21.48,0,0,1-4.26-1l-4-1.06c-3.37-.6-7.66-0.58-9.68,1.39-1.65,1.62-1.54,2-1.54,2.79,0,1.06.32,4.25,0.94,5.14l0.24,0.37a11.53,11.53,0,0,0,5.59,4.46,21.52,21.52,0,0,0,4.86,1.6l1.24,0.32a12.45,12.45,0,0,0,6.42-.55l0.44-.23c1.64-.85,3.16-1.66,4.69-1.5l1.25-.16a2.41,2.41,0,0,1,1.94.32,1.15,1.15,0,0,0,1.42.15,2.58,2.58,0,0,1,2-.32l0.35,0a2,2,0,0,1,1.64.82l0.29,0.32a1.31,1.31,0,0,0,1,.14,2.87,2.87,0,0,1,2.08.58s0.61,0.68.64,0.74a2.3,2.3,0,0,0,2.53,1.05,7,7,0,0,0,2.61-.85,6.12,6.12,0,0,1,3.21-.89l1.47-.43a4.9,4.9,0,0,1,3.16-.45,5.66,5.66,0,0,0,2.7.32l1.9,0,2.74,0.08,2.43,0.06s3.46-.1,3.61-0.12l4-.12a60,60,0,0,0,7.08-.05,5.1,5.1,0,0,1,2.12.25s1.21,0.27,1.32.28C555.43,151.1,555.86,151.17,556.49,149.47Z" transform="translate(-26.47 -132.41)"/><path class="a" d="M562.45,167.12l0.08-.57a16,16,0,0,1,.86-4.19,1.44,1.44,0,0,0,.05-0.22,0.6,0.6,0,0,0-.05-0.24,3,3,0,0,0-1.85-1,17.11,17.11,0,0,0-6.23,0,20.61,20.61,0,0,1-4.09,0l-2.61,0H548.4a12.8,12.8,0,0,1-6.19-.67,18.48,18.48,0,0,0-6-.91,33.54,33.54,0,0,1-7.29.15,23.85,23.85,0,0,0-5.3,0l-0.72,0-3.52.57-1.58.37-1.77.21a5.17,5.17,0,0,0-2.33.6,5.72,5.72,0,0,1-3.09,1.71c-1.47.38-3.33-.48-5.56-2.47-1.42-1.33-2.59-1.24-4.13-1.13l-1,0a39,39,0,0,1-7.16,0l-1.7-.36a10.48,10.48,0,0,0-4.78-.25l-1.51.25c-0.89.12-1.38,0.2-5,1.53a4.11,4.11,0,0,0-2.73,2.21,4.49,4.49,0,0,0,.66,3.71,11.55,11.55,0,0,1,1.26,5.22,2.82,2.82,0,0,0,2.28,2.43,5.06,5.06,0,0,0,3.5-.75A2.57,2.57,0,0,1,487,173l0.87,0.15a4.39,4.39,0,0,0,3.2-.79,10.05,10.05,0,0,1,6.22-1.72,2.92,2.92,0,0,1,2.19,1c0.82,1,.57,2.46.38,3.61l-0.05.34a12.8,12.8,0,0,1-2,4.74,19.29,19.29,0,0,1-4.15,4.27,8.41,8.41,0,0,1-4.31,1.58l-1,.16-0.75.14a17.52,17.52,0,0,0-4.49,1.37c-1.57.79-2.89,0.43-3.48,4.36a8.48,8.48,0,0,0-.39,2.76l0.24,1.93c0,1.94,1.46,3.38,2.7,4.39,1.05,0.83,4,.54,5.74.39l1.07-.09a5.49,5.49,0,0,0,2.41-1,17.3,17.3,0,0,1,4.16-2.51c4.42-2.14,5-3,6-4.25a11.26,11.26,0,0,0,.72-1.15,3.72,3.72,0,0,0,.73-1.76,6.47,6.47,0,0,1,1-2.95,9.48,9.48,0,0,0,.93-2.68l0.88-2.31a12.51,12.51,0,0,0,.43-4.21c0-.67,0-1.3,0-1.86a9.31,9.31,0,0,1,.23-2.81c0.5-1.65,1.83-1.83,3.35-2.07l0.77-.11a6.74,6.74,0,0,1,4.16.2,13,13,0,0,0,5.66-.29A19.85,19.85,0,0,1,527,171a5.12,5.12,0,0,1,4.93,2.75,5.36,5.36,0,0,0,.36.5c1.15,1.31,1.23,6,1.23,6l0.1,1.6,0,2.57a16.44,16.44,0,0,0,.6,4.69,11.27,11.27,0,0,1,.23,5.12,6.29,6.29,0,0,0,.68,4.1,6.28,6.28,0,0,1,1.12,3.37,6.74,6.74,0,0,0,.78,2.89s0.49,1.73.53,1.75a5.08,5.08,0,0,0,1.91,1.67,0.88,0.88,0,0,0,.26,0,1.5,1.5,0,0,0,1.17-1.05s0.24-.64.24-0.66,0.24-.49.26-0.5a9.05,9.05,0,0,0,.89-2.52s0.47-2.68.47-2.64v-1.46c0-.16.07-0.94,0.07-1.12a8,8,0,0,0-.56-3.21,5,5,0,0,1-.47-2.06,7.53,7.53,0,0,1,.14-1.39l-0.16-1.67a17.49,17.49,0,0,1-.19-3,36.06,36.06,0,0,1,.1-5,6.29,6.29,0,0,0,.09-1.25c0-1.55.16-1.86-.3-3.09a19.82,19.82,0,0,1-.44-3.7,4,4,0,0,1,.34-1.4l0.21-.4a3.44,3.44,0,0,1,3.25-2.11c1.09,0,2.56,1,3.94,2l0.66,0.46c1.14,0.79,5.33.79,6.92,0.79,1.19,0,2.35-1,3.36-1.86l0.75-.61A6.45,6.45,0,0,0,562.45,167.12Z" transform="translate(-26.47 -132.41)"/><path class="a" d="M85.84,132.41a59.39,59.39,0,0,0,0,118.77c15.8,0,26.36-5.51,30.72-8.18,11.37-7,18-17,16.14-26.71-1.57-8.24-8.9-14.49-19.17-17.63-0.82-.26-1.79-0.53-2.87-0.79,4.6-2.68,7.66-6.48,8.34-11.06,1.58-10.54-10.35-21.08-26.61-23.48a124.44,124.44,0,0,0-31.24-.51v18.72a110.33,110.33,0,0,1,28.64.18c7.46,1.06,12.7,3.93,13,7.74a5.08,5.08,0,0,1-.83,3.14c-1.84,3-5.5,2.48-8.46,2.11a125.23,125.23,0,0,0-32.38,0v19.12c10.33-1.23,28.18-1.31,36.87.31,7.69,1.51,13,4.81,13.42,9.12a7.35,7.35,0,0,1-2.19,5.57c-3.08,3.47-11,7-23.32,7a43.95,43.95,0,1,1,43.94-43.94,42.82,42.82,0,0,1-.26,4.84A41.77,41.77,0,0,1,143,208,59.49,59.49,0,0,0,85.84,132.41Z" transform="translate(-26.47 -132.41)"/></svg>