<svg xmlns="http://www.w3.org/2000/svg" viewBox="0 0 537.56 173.75"><defs><style>.a{fill:#1583be;}.a,.b,.c,.d,.e,.f{fill-rule:evenodd;}.b{fill:#a92d81;}.c{fill:#1b2b79;}.d{fill:#85167b;}.e{fill:#07569f;}.f,.g{fill:#1d2974;}</style></defs><title>GLB</title><path class="a" d="M135.86,218.34c-0.38,2.69-4.87,29.84-34.69,46.94-15.85,9.08-30.74-1.41-44.51-14.42-9.25-8.73-23.38-21.06-28.14-32.57C16,193.17,50.92,161.94,76.15,158.8h0v59.56h59.68Z" transform="translate(-25.89 -102.68)"/><path class="a" d="M76.2,218.34c0.38,2.69,4.87,29.84,34.69,46.94,15.85,9.08,30.74-1.41,44.51-14.42,9.25-8.73,23.38-21.06,28.14-32.57,12.52-25.13-22.4-56.35-47.63-59.49h0v59.56H76.2Z" transform="translate(-25.89 -102.68)"/><path class="b" d="M135.86,158.78c-0.38-2.69-4.87-29.84-34.69-46.93-15.85-9.09-30.74,1.41-44.51,14.42C47.4,135,33.28,147.32,28.51,158.83,16,184,50.92,215.18,76.15,218.32h0V158.78h59.68Z" transform="translate(-25.89 -102.68)"/><path class="b" d="M76.2,158.78c0.38-2.69,4.87-29.84,34.69-46.93,15.85-9.09,30.74,1.41,44.51,14.42,9.25,8.73,23.38,21.06,28.14,32.57,12.52,25.13-22.4,56.35-47.63,59.49h0V158.78H76.2Z" transform="translate(-25.89 -102.68)"/><path class="c" d="M31.87,188.56c9.55,15.25,28.75,27.83,44.28,29.76h0V158.79h0c-15.53,1.93-34.74,14.51-44.28,29.76h0Z" transform="translate(-25.89 -102.68)"/><path class="d" d="M135.86,158.78c-0.35-2.54-4.37-26.81-29.83-43.91C80.58,132,76.56,156.24,76.2,158.78h59.66Z" transform="translate(-25.89 -102.68)"/><path class="c" d="M180.2,188.56c-9.55-15.25-28.75-27.83-44.28-29.76h0v59.55h0c15.53-1.93,34.73-14.52,44.28-29.76h0Z" transform="translate(-25.89 -102.68)"/><path class="e" d="M135.86,218.34c-0.35,2.54-4.37,26.81-29.83,43.91-25.45-17.1-29.47-41.37-29.83-43.91h59.66Z" transform="translate(-25.89 -102.68)"/><path class="f" d="M227.16,112.28l8.78-.08v-8.94h7.29v8.86l7.62,0.08v6.54l-7.62.12,0,9.94,1.22-1,8.32,8.51-4.92,4.83-4.54-6.78-0.07,27.28-7.29.07-0.06-23.38a136.73,136.73,0,0,1-8.68,11.13l-2.53-5.17s8.16-13.3,10.07-25.56h-7.54Z" transform="translate(-25.89 -102.68)"/><polygon class="f" points="227.4 7.84 239.54 7.84 239.54 0.56 247.43 0.56 247.43 7.76 259.62 7.76 259.62 13.86 247.37 13.86 247.43 22.26 261.89 22.28 261.89 28.93 225.73 28.93 225.73 22.28 239.58 22.28 239.58 13.9 227.41 13.9 227.4 7.84"/><polygon class="f" points="239.6 35.65 239.6 31.16 247.39 31.16 247.39 35.62 260.13 35.62 260.13 41.7 247.35 41.7 247.35 51.74 262.94 51.74 262.94 57.87 223.43 57.87 223.43 51.76 239.62 51.76 239.62 41.74 226.81 41.74 226.81 35.6 239.6 35.65"/><path class="f" d="M294.41,118.83v-6.1H306.1V103.8h7.21v8.84h9.36v6.18h-9.29v6.06l1.2-1.2s9.26,7.71,9.71,9.58l-4.6,4.6-6.28-7v30.79h-7.25V137.87s-5.53,9.86-10.91,13.33l-2.35-6.32s12.12-16.73,12.66-26.12l-11.14.06h0Z" transform="translate(-25.89 -102.68)"/><path class="f" d="M324,118.8v-6.12h10v-9.42h7.19v9.42h13.37v6.12H342.47s4.16,15.83,14.89,25l-5.1,6.82s-10.24-12.1-11.16-19l0.06,30H334V136.56s-2.92,6.82-12.32,15L319,146.23s11.86-15.74,13.18-27.42H324Z" transform="translate(-25.89 -102.68)"/><path class="f" d="M370.13,103.89h9.82l-3.26,5.6h8.52v5.4h-12.7s-1,2.62-9.63,8.38l-3.14-4.66s5.52-3.74,10.38-14.72h0Z" transform="translate(-25.89 -102.68)"/><path class="f" d="M383,121.62H365.13v5.52l4.47,0v6.12h-7.76v5.57h7.7v15a7.68,7.68,0,0,1-3.77.56l2.45,6.09s13.11-1.7,16.82-5.14v-5.22a26.18,26.18,0,0,1-7.71,2.6V138.81h7.28v-5.45h-7.25V127H383v-5.42Z" transform="translate(-25.89 -102.68)"/><path class="f" d="M386.31,104.92v56.21s9.11-1.18,16.49-6.21v-5.47a39.22,39.22,0,0,1-8.71,3.45V133.32h4.46s2.64,18.6,17.22,27.74l5.35-6.72s-6.69-3.89-10.23-8.62a25.12,25.12,0,0,0,9.79-5.75l-4.37-4.27s-5.69,4.46-8.7,5.82c-2.56-1.09-3.21-8.3-3.21-8.3H417.9V108.75s0.38-3.84-4.42-3.84H386.31Zm8.19,17h15.94V128H394.39v-6.08h0.11Zm-0.2-11.48h15.94v6.08H394.19V110.4h0.11Z" transform="translate(-25.89 -102.68)"/><path class="f" d="M440.75,102.68s-8.28,11.08-14.7,15.73l3.44,4.32s6.87-2.24,17.81-14.65l-6.54-5.4h0Z" transform="translate(-25.89 -102.68)"/><path class="f" d="M442.07,117.12s-5,8.61-17,18.19l2.9,4.14,5.3-3.32V161h8.53V129.12l6.55-7.18Z" transform="translate(-25.89 -102.68)"/><polygon class="f" points="425.05 3.23 458.84 3.23 458.84 9.92 425.08 9.92 425.05 3.23"/><path class="f" d="M449.24,123.82h37.28v6.08h-8.39v25.64s0.31,5.64-6.28,5.64-13.17-.12-13.17-0.12,0.45-3.76-1.13-5.91l9.74-.1s2.28-.21,2.28-2V130H449.2Z" transform="translate(-25.89 -102.68)"/><path class="g" d="M249.76,205.28V213c-0.37.13-.5,0.13-0.37,0a30.93,30.93,0,0,1-6.46.8q-9.42-.21-9.61-13.34,0.18-13.34,9.61-13.54,6.83,0,6.83,6.17h7.76q0.19-12-15.89-12-15.7,1.2-16.07,19.32,0.38,17.71,16.07,18.71a60.86,60.86,0,0,0,7.76-.4,24.5,24.5,0,0,0,7.57-1.2V199.11H243.11v6.17h6.65Z" transform="translate(-25.89 -102.68)"/><path class="g" d="M285.38,182v20.11c0.13,4.38-.37,7.36-1.47,9q-1.67,2.79-5.91,2.79c-2.84,0-4.86-.93-6.1-2.79q-1.65-2.4-1.47-9V182H263v23.1q0.38,13.73,15,14.13,14.22-.4,14.77-14.13V182h-7.39Z" transform="translate(-25.89 -102.68)"/><rect class="g" x="275.7" y="79.7" width="7.39" height="36.83"/><polygon class="g" points="315.89 116.53 315.89 110.36 301.12 110.36 301.12 79.7 293.92 79.7 293.92 116.53 315.89 116.53"/><rect class="g" x="323.55" y="79.7" width="7.39" height="36.83"/><polygon class="g" points="368.58 116.53 368.58 79.7 362.17 79.7 362.17 108.57 362 108.77 349.89 79.7 339.68 79.7 339.68 116.53 346.08 116.53 346.08 86.07 346.26 85.88 358.72 116.53 368.58 116.53"/><path class="g" d="M430.53,213v-9.75h6.32q6.72-.4,6.52,5,0.2,5.17-6.52,4.77h-6.32Zm0-15.93v-8.55h6.32q5.3,0,5.3,4.38,0,4.18-5.3,4.18h-6.32Zm6.11,22.1q14.68-.6,15.29-9.56-0.21-7.57-8.36-9.56v-0.19q6.52-2.19,6.72-8-0.6-9.56-13.65-9.56H422.37v36.83h14.27Z" transform="translate(-25.89 -102.68)"/><path class="g" d="M461.91,219.22l2.85-7.76h14.88l2.85,7.76h8.16L477.4,182.38h-9.57l-13.66,36.83h7.75Zm4.89-13.94,5.5-15.73h0.21l5.1,15.73H466.8Z" transform="translate(-25.89 -102.68)"/><polygon class="g" points="498.3 116.53 498.3 79.7 491.86 79.7 491.86 108.57 491.68 108.77 479.5 79.7 469.22 79.7 469.22 116.53 475.67 116.53 475.67 86.07 475.84 85.88 488.38 116.53 498.3 116.53"/><polygon class="g" points="514.32 79.7 506.17 79.7 506.17 116.53 514.32 116.53 514.32 97.82 514.32 97.82 527.57 116.53 537.56 116.53 522.47 96.22 536.33 79.7 526.96 79.7 514.32 95.63 514.32 95.63 514.32 79.7"/><path class="g" d="M238.67,252c-0.57,6-1.77,10.77-3.57,14.47a29.2,29.2,0,0,1,3.9,3.87l-1.51,1.87a25,25,0,0,0-3.54-3.7,18.36,18.36,0,0,1-7,6.7,7,7,0,0,0-1.4-1.74,16.74,16.74,0,0,0,6.74-6.4,52.35,52.35,0,0,0-5.4-4,95.05,95.05,0,0,0,2.4-9.27h-3.23V251.7h3.63c0.47-2.37.87-4.77,1.14-6.84L233,245c-0.27,2.07-.67,4.4-1.14,6.7h5.08l0.4-.07Zm-7.28,1.8c-0.64,3-1.37,6-2,8.4,1.33,0.87,2.7,1.84,4,2.87a35,35,0,0,0,3-11.27H231.4Zm25,7.33h-7.47V272.5c0,1.37-.37,2-1.37,2.37a17.45,17.45,0,0,1-5.11.37,9.17,9.17,0,0,0-.86-2.1c2,0,3.84,0,4.33,0s0.73-.2.73-0.67V261.1h-7.84V259h7.84v-3.93a28,28,0,0,0,5-5.63H240.37v-2h12.88l0.53-.14,1.53,1.11a36.65,36.65,0,0,1-6.36,7.27V259h7.47v2.1Z" transform="translate(-25.89 -102.68)"/><path class="g" d="M297.6,251.63v23.45h-2.26v-2.47H271.79V251.66h2.26v18.67h9.47V245.23h2.3v25.11h9.51V251.63h2.26Z" transform="translate(-25.89 -102.68)"/><path class="g" d="M325,255c-1.64,8.64-5.57,14.75-10.27,18a8.32,8.32,0,0,0-1.77-1.7c4.27-2.77,7.77-7.8,9.38-14.57H314v-2.2h9.14l0.43-.1Zm15.71-1.3a83.39,83.39,0,0,1-7.41,7.61,28.26,28.26,0,0,0,10.54,9.51,9.41,9.41,0,0,0-1.67,2c-5.23-2.77-9.77-8.24-12.84-14.44v14.87c0,1.57-.4,2.24-1.3,2.67s-2.57.46-5.08,0.46a8.63,8.63,0,0,0-.86-2.4c1.93,0,3.67,0,4.14,0a0.66,0.66,0,0,0,.77-0.77V246.08h2.33v8a42.54,42.54,0,0,0,2.87,5.67,53.06,53.06,0,0,0,6.51-7.41Z" transform="translate(-25.89 -102.68)"/><path class="g" d="M410.08,252c-0.57,6-1.77,10.77-3.57,14.47a29.2,29.2,0,0,1,3.9,3.87l-1.51,1.87a25,25,0,0,0-3.54-3.7,18.36,18.36,0,0,1-7,6.7,7,7,0,0,0-1.4-1.74,16.74,16.74,0,0,0,6.74-6.4,52.35,52.35,0,0,0-5.4-4,95.05,95.05,0,0,0,2.4-9.27h-3.23V251.7h3.63c0.47-2.37.87-4.77,1.14-6.84l2.13,0.13c-0.27,2.07-.67,4.4-1.14,6.7h5.08l0.4-.07Zm-7.28,1.8c-0.64,3-1.37,6-2,8.4a49,49,0,0,1,4,2.87,35,35,0,0,0,3-11.27h-4.94Zm25,7.33h-7.47V272.5c0,1.37-.37,2-1.37,2.37a17.45,17.45,0,0,1-5.11.37,9.17,9.17,0,0,0-.86-2.1c2,0,3.84,0,4.33,0s0.73-.2.73-0.67V261.1h-7.84V259h7.84v-3.93a28,28,0,0,0,5-5.63H411.78v-2h12.88l0.53-.14,1.53,1.11a36.65,36.65,0,0,1-6.36,7.27V259h7.47v2.1Z" transform="translate(-25.89 -102.68)"/><path class="g" d="M445.17,250.9a22.53,22.53,0,0,1-3.17,4.2,12.13,12.13,0,0,0-1.17-2.06A20.47,20.47,0,0,0,445.6,245l2,0.54a21.52,21.52,0,0,1-1.34,3.27h6.77v2.13h-7.9Zm8.17,17.87a9.8,9.8,0,0,0,.4,1.87c-6.24,3.27-7.1,3.74-7.67,4.3a7.16,7.16,0,0,0-.9-1.93,2.08,2.08,0,0,0,1.17-2.07v-7.57H441.6v-2h4.73v-4.73h-3.07v-2h9.31v2h-4.11v4.73h4.87v2h-4.87v7.77Zm17.78-5.24a46.7,46.7,0,0,1-5.87,4.11,14.09,14.09,0,0,0,6.5,5.4,9.59,9.59,0,0,0-1.5,1.93c-5.1-2.43-8.2-7.6-9.83-14.24h-3.24v11.34l6.08-1.5a12.41,12.41,0,0,0,.13,2c-6.94,1.9-7.9,2.23-8.54,2.66a7.4,7.4,0,0,0-1-1.87,2.38,2.38,0,0,0,1.17-2.23V246.33h14.38v14.4h-7.14a26.54,26.54,0,0,0,2.07,5.34,42.64,42.64,0,0,0,5.4-4.07Zm-13.95-15.24v4.27h10.14v-4.27H457.17Zm0,10.48h10.14v-4.33H457.17v4.33Z" transform="translate(-25.89 -102.68)"/><path class="g" d="M496.37,252.7a47,47,0,0,1-3.74,5.07v17.57h-2.2V260.2a40.35,40.35,0,0,1-4.07,3.73,16.62,16.62,0,0,0-1.64-1.8,36.73,36.73,0,0,0,9.54-10.2Zm-1.34-7a39.34,39.34,0,0,1-8.47,8.17,19.14,19.14,0,0,0-1.36-1.7,31.94,31.94,0,0,0,7.73-7.3Zm20.58,12.51h-5.1v14.14c0,1.4-.37,2-1.43,2.4a30.48,30.48,0,0,1-6.14.29,7.06,7.06,0,0,0-.8-2c2.44,0.07,4.67.07,5.3,0s0.83-.2.83-0.77V258.17H496.9V256h18.71v2.13ZM514.68,249H498.34v-2.1h16.33V249Z" transform="translate(-25.89 -102.68)"/></svg>