<svg xmlns="http://www.w3.org/2000/svg" viewBox="0 0 537.38 67.85"><defs><style>.a{fill:#007140;fill-rule:evenodd;}</style></defs><title>CDRCB</title><path class="a" d="M53.23,204.41a34.84,34.84,0,0,1-3.8,2,11.2,11.2,0,0,1-8.59.21,9.63,9.63,0,0,1-3.55-2.36,12.13,12.13,0,0,1-2.55-4.17,17.19,17.19,0,0,1-1-6.16,19.13,19.13,0,0,1,1-6.44,13.25,13.25,0,0,1,2.5-4.42,10.19,10.19,0,0,1,3.44-2.57,9.13,9.13,0,0,1,3.77-.85c1.69,0,6.63.74,8.57,3.14h0.24v-4.46l-0.46-.18c-0.77-.28-2.08-0.53-2.92-0.73a25.53,25.53,0,0,0-2.62-.5,18.88,18.88,0,0,0-2.57-.19,25.28,25.28,0,0,0-7.08,1,16.21,16.21,0,0,0-5.92,3.12,15.07,15.07,0,0,0-4.07,5.52,20.1,20.1,0,0,0-1.52,8.26,16.14,16.14,0,0,0,1.17,6.18,13.75,13.75,0,0,0,3.4,4.94A15.39,15.39,0,0,0,36.06,209a21.7,21.7,0,0,0,7.27,1.14,23.69,23.69,0,0,0,9.89-1.83v-3.87Z" transform="translate(-26.06 -159.38)"/><path class="a" d="M150.47,204.41a29.24,29.24,0,0,1-3.8,2,10.46,10.46,0,0,1-2.29.7,11,11,0,0,1-2.29.26,11.13,11.13,0,0,1-4-.76,9.63,9.63,0,0,1-3.55-2.36,12.13,12.13,0,0,1-2.55-4.17,17.19,17.19,0,0,1-1-6.16,19.41,19.41,0,0,1,1-6.44,13.45,13.45,0,0,1,2.51-4.42,10.19,10.19,0,0,1,3.44-2.57,9.1,9.1,0,0,1,3.77-.85c4,0,7.38,1.65,8.56,3.14h0.25v-4.46l-0.46-.18c-0.77-.28-2.08-0.53-2.92-0.73a25.53,25.53,0,0,0-2.62-.5,18.91,18.91,0,0,0-2.58-.19,25.26,25.26,0,0,0-7.07,1,16.13,16.13,0,0,0-5.92,3.12,15.07,15.07,0,0,0-4.07,5.52,20.1,20.1,0,0,0-1.52,8.26,16.14,16.14,0,0,0,1.17,6.18,13.86,13.86,0,0,0,3.39,4.94A15.48,15.48,0,0,0,133.3,209a21.81,21.81,0,0,0,7.29,1.14,23.72,23.72,0,0,0,9.89-1.83v-3.87Z" transform="translate(-26.06 -159.38)"/><path class="a" d="M78.36,203.37A10.46,10.46,0,0,1,70,207c-1,0-1.78,0-2.44-.05l-1.69-.09c0-.22,0-0.7,0-1.45s0-1.58,0-2.48V184.22c0-.93,0-1.78,0-2.53s0-1.23,0-1.45l2.13-.17q1-.06,2.74-0.06a10.81,10.81,0,0,1,4.4.86,9.61,9.61,0,0,1,3.37,2.49,11.41,11.41,0,0,1,2.18,3.91,16.09,16.09,0,0,1,.77,5.19q0,7.31-3.09,10.91h0Zm9.18-18.19a11.53,11.53,0,0,0-3.7-4.66,15.25,15.25,0,0,0-5.69-2.46,28.11,28.11,0,0,0-3.27-.52H58.52v31.59H76.23a16.78,16.78,0,0,0,2.66-.8,15.33,15.33,0,0,0,5.15-3.4,16.15,16.15,0,0,0,3.51-5.36,18.33,18.33,0,0,0,1.29-7,18.11,18.11,0,0,0-1.31-7.37h0Z" transform="translate(-26.06 -159.38)"/><path class="a" d="M170.4,203.32a6.17,6.17,0,0,1-1.13,2,4.62,4.62,0,0,1-1.64,1.24,4.74,4.74,0,0,1-2,.42c-0.53,0-1,0-1.36,0l-1.07-.05V194.15l0.69,0c0.31,0,.69,0,1.13,0a5.51,5.51,0,0,1,4.28,1.62,7,7,0,0,1,1.47,4.89,8,8,0,0,1-.41,2.72h0ZM165.48,180a5.53,5.53,0,0,1,2.34.44,4.65,4.65,0,0,1,1.54,1.17,4.45,4.45,0,0,1,.87,1.74,8.77,8.77,0,0,1,.26,2.12,6.81,6.81,0,0,1-.47,2.62A5.57,5.57,0,0,1,168.8,190a5,5,0,0,1-1.71,1.11,5.32,5.32,0,0,1-1.94.37h-1.92V180.13a6.4,6.4,0,0,1,.82-0.09c0.26,0,.74,0,1.42,0h0Zm11.78,16.68a8.43,8.43,0,0,0-2.22-2.41,9.82,9.82,0,0,0-2.76-1.38,10.21,10.21,0,0,0-2.53-.49v-0.09a13,13,0,0,0,2.42-.7,9.34,9.34,0,0,0,2.49-1.43,7.94,7.94,0,0,0,1.95-2.29,6.43,6.43,0,0,0,.8-3.31,7.51,7.51,0,0,0-.67-3.3,5.76,5.76,0,0,0-1.95-2.25,8.85,8.85,0,0,0-3-1.29c-0.35-.09-0.73-0.16-1.11-0.22h-15a1,1,0,0,1,0,.18v31.41H171l0.38-.07a9.06,9.06,0,0,0,3.48-1.58,8.14,8.14,0,0,0,2.44-2.9,9.42,9.42,0,0,0,.91-4.3,6.75,6.75,0,0,0-.91-3.59h0Z" transform="translate(-26.06 -159.38)"/><path class="a" d="M102.33,192.84a3.91,3.91,0,0,1-.49,0l-0.22,0V180a22.61,22.61,0,0,1,3.12.19A4.83,4.83,0,0,1,107,181a3.71,3.71,0,0,1,1.29,1.84,10.32,10.32,0,0,1,.42,3.27,6.89,6.89,0,0,1-1.65,5,6.33,6.33,0,0,1-4.73,1.66h0Zm11.1,8.83q-2.58-4-4.82-7.94a10.24,10.24,0,0,0,5.38-3,8.18,8.18,0,0,0,1.88-5.58,7.62,7.62,0,0,0-.82-3.63,7.52,7.52,0,0,0-2.23-2.55,6.82,6.82,0,0,0-1.29-.73,7.43,7.43,0,0,0-1.6-.5c-0.31-.06-0.66-0.12-1-0.17H94v31.59h7.65l0-.56V194.76h0.1l8.17,14.37h8.44c-1.63-2.47-3.26-5-4.9-7.47h0Z" transform="translate(-26.06 -159.38)"/><path class="a" d="M237.41,197.91h-9.07v-9h9.07v9Zm27.76-16.57h-10a24.86,24.86,0,1,1-21.79-12.89,25.28,25.28,0,0,1,4,.32v12.57H220.69v24.15h24.36V161.44a33.87,33.87,0,1,0,20.11,19.91h0Z" transform="translate(-26.06 -159.38)"/><path class="a" d="M307.94,176.32a0.29,0.29,0,0,1-.05-0.27,0.41,0.41,0,0,1,.23-0.11l1.14-.12,2.4-.4,0.63,0.05,0.88-.05a1.32,1.32,0,0,1,.56.12l0.49,0.53,0.48,0.38a6.49,6.49,0,0,1,.5.61,8.65,8.65,0,0,0,.7.84,2.25,2.25,0,0,1,.46.61,1.49,1.49,0,0,1,.06.47c-0.05,1.12-.7,1.67-2,1.67a2.81,2.81,0,0,1-2.31-.93l-0.4-.51-3.39-2.28a1.7,1.7,0,0,1-.4-0.6h0Zm-13.16,22a1.15,1.15,0,0,0,.34.75,10,10,0,0,0,2.32,2.49,2.6,2.6,0,0,0,1.36.56,1.34,1.34,0,0,0,.63-0.28,2.77,2.77,0,0,0,.47-1.65,9.57,9.57,0,0,1,.29-1.82l0.4-1.16c0.11-.48.07-0.72-0.16-0.72l-0.09.05-0.56.58c-0.1.1-.39,0.34-0.86,0.7a3.49,3.49,0,0,1-1.38.68,4.31,4.31,0,0,1-1.23.08l-1.42-.56a0.4,0.4,0,0,0-.11.29h0Zm8.45,3.21a1.26,1.26,0,0,0,.46.24c0.3,0.12.85-.24,1.65-1.11a17.9,17.9,0,0,0,1.3-1.49l0.4-.76a8.19,8.19,0,0,0,.83-1.72,3.56,3.56,0,0,0-.39-1c-0.24-.49-0.74-1.72-1.47-3.69A28.61,28.61,0,0,1,304.7,188a2,2,0,0,0-.39-1.14,1.08,1.08,0,0,0-.58-0.21l-3,2.05a1.81,1.81,0,0,1-.51.21,2.85,2.85,0,0,1-2-.56,4,4,0,0,0-1.59-.7l-0.58.15-0.7,0a1.76,1.76,0,0,0-.88.3,1.49,1.49,0,0,0-.49.44l0.28,2.48-0.05.08-0.4.53-0.36.84-0.4.55a2.63,2.63,0,0,0-.19,1.07,2,2,0,0,0,.29,1.19,0.8,0.8,0,0,0,.81.4,3.09,3.09,0,0,0,1-.23,5.15,5.15,0,0,0,1.73-1.54,6.72,6.72,0,0,1,1.88-1.71,1.6,1.6,0,0,0,.85-0.67l0.05-.3a0.86,0.86,0,0,1,.7-0.56c0.42-.11.67-0.19,0.77-0.2a6.87,6.87,0,0,1,1.48.68,7.71,7.71,0,0,1,1.39.83,4.14,4.14,0,0,1,.31,1,3.51,3.51,0,0,0,.56,1.26,2.74,2.74,0,0,0,.38.46l-0.66,1.85-0.18,1.14c0,0.09-.12.36-0.29,0.78a18.74,18.74,0,0,0-.53,1.83c-0.2.81-.28,1.21-0.27,1.21h0Zm-12.68,1.81a0.45,0.45,0,0,0,.23-0.07,1.24,1.24,0,0,0,.16-0.76l0.25-1.54c0-.12,0-0.29,0-0.52a5.19,5.19,0,0,0-.17-1.18c-0.09-.42-0.17-0.77-0.21-1s-0.06-.46-0.06-0.52l-0.16-.46a0.8,0.8,0,0,0-.33-0.61l-0.08,0a4.43,4.43,0,0,0-.25,1l-0.25.6a1.64,1.64,0,0,0,0,.49l-0.2,1a6,6,0,0,0-.06.76,5.27,5.27,0,0,0,0,.84,3.63,3.63,0,0,0,.37,1.5,0.76,0.76,0,0,0,.75.52h0Zm24.77,2a7.77,7.77,0,0,0,.79,1.35l0.67,0.81,0.89,1.29,1.19,1.17a1.29,1.29,0,0,0,.74.56,1,1,0,0,0,.62-0.49,5.35,5.35,0,0,0,.61-2.07L321.3,205c0-.27.06-0.4,0.2-0.4l0.1,0.08a0.4,0.4,0,0,1,.11.25c0,0.13.05,0.42,0.09,0.88l0.12,1.29c0,0.37,0,.88,0,1.52a8.64,8.64,0,0,0,.06,1.3l0.2,1.32,0.18,3.46,0.36,1.6a1.57,1.57,0,0,1,0,.25,0.22,0.22,0,0,1-.12.2,1.44,1.44,0,0,1-.66-0.45l-0.6-.15a2.58,2.58,0,0,1-1-.46l-0.84-.61-1.11-.7a16.1,16.1,0,0,1-3.45-3.8q-1.34-2.1-2.75-4.82c-0.93-1.81-1.59-3.16-1.95-4s-0.64-1.27-.85-1.22a1.38,1.38,0,0,0-.55.62,3.66,3.66,0,0,1-.44.61l-0.7.31-0.54.25-1,0-1.19.42a0.52,0.52,0,0,1-.38-0.07l-0.21-.16-0.63.21-0.68,0a0.57,0.57,0,0,0-.3.26l-0.18.76-0.38.58-0.23.74-0.48.76-0.18.46L300,207.81a1,1,0,0,1-.58.44,1.23,1.23,0,0,1-.54-0.3,6.21,6.21,0,0,1-1-1.39,15.94,15.94,0,0,1-1.36-3,11.79,11.79,0,0,0-1.09-2.47,4.59,4.59,0,0,1-.46-0.72L294.26,198a1.1,1.1,0,0,0-.47-0.13c-0.16,0-.1.76,0.17,2.29l0.05,1.72,0.1,1.37-0.16.66-0.21,1.41-0.42,1.09a13.11,13.11,0,0,1-.56,1.33l-1.07.78a8,8,0,0,1-.93,1,1,1,0,0,1-.58-0.29,1.94,1.94,0,0,1-.58-0.92L289,205.76a14.09,14.09,0,0,1-.58-2.18l0.1-.63-0.05-1.46,0.25-1.19,0.12-1.09,1.09-3.55v-0.4L289.45,194a4.59,4.59,0,0,1-.07-1L289,190.25a11.23,11.23,0,0,1,.4-1.65l1-3.88a2.58,2.58,0,0,0,.35-1.35,1.15,1.15,0,0,1,0-.6c0.05-.13.17-0.15,0.35,0a1.5,1.5,0,0,1,.4.54l0.4,1,1.37,2.41a4.1,4.1,0,0,0,.76,1.21c0.16,0.11.75-.4,1.78-1.58l2.86-1.92,0.81-.84,1.7-.76a1.4,1.4,0,0,0,.9-0.77,4.08,4.08,0,0,0-.39-1.56l-0.23-.58a6.49,6.49,0,0,0-.72-0.74l-1.32-1.4-3.19-2.48-0.78-1.16a0.72,0.72,0,0,0-.36-0.26l-0.68,0a0.11,0.11,0,0,1,0-.1v-0.63a2.69,2.69,0,0,1,0-.84,0.61,0.61,0,0,1,.49-0.2,1.43,1.43,0,0,1,.51.12l1.67,0.93,1.44,0.1,0.63,0.21,0.94,0.23a6.51,6.51,0,0,1,1.2.58,8.1,8.1,0,0,1,1.21.81,10.16,10.16,0,0,1,1.42,2.77c0.66,1.62,1.15,2.44,1.45,2.45a1.27,1.27,0,0,0,.57-0.17,2.08,2.08,0,0,0,.82-0.58,5.66,5.66,0,0,1,.41-0.45l1.37,0.79,0.56,0.21a5.18,5.18,0,0,1,1.22.92,3.72,3.72,0,0,1,.6.74,1.67,1.67,0,0,1,.07.67,1.78,1.78,0,0,1-.18.63,2.17,2.17,0,0,1-.52.53,4.44,4.44,0,0,1-.57.38l-0.63.27-0.36.23-0.78.13a3.88,3.88,0,0,0-.6.6,3.51,3.51,0,0,0-.53.68,1.67,1.67,0,0,0,.06.46l0.16,0.84a2.28,2.28,0,0,0,.22.53c0.12,0.27.47,1.27,1,3l0.82,2.21a0.93,0.93,0,0,0,.37.63,1.79,1.79,0,0,0,.54-1.09l0.37-.66c0-.06.12-0.32,0.28-0.76l0.4-1.12c0-.1,0-0.19.05-0.28a4,4,0,0,0-.22-0.91,2.63,2.63,0,0,1-.17-1,0.73,0.73,0,0,1,.84-0.58,2.76,2.76,0,0,1,1.42.3,6.66,6.66,0,0,1,1.36,1.54,3.09,3.09,0,0,1,.72,2.21,6,6,0,0,1-.25.77,5.09,5.09,0,0,1-.72,1.23l-0.58.79-1.29,2.3a9.23,9.23,0,0,0-.62.9,2.34,2.34,0,0,0-.12.47,2.7,2.7,0,0,0,.57,1.39l1.37,3Z" transform="translate(-26.06 -159.38)"/><path class="a" d="M360.12,201.71a0.89,0.89,0,0,0,.08.19,0.57,0.57,0,0,0,.25.25,0.77,0.77,0,0,0,.33.12h0.3a0.16,0.16,0,0,0,.09.05l0.08,0a1.11,1.11,0,0,0,.4,0c0.39,0,.56-0.16.51-0.32l-0.34-.24a0.86,0.86,0,0,0-.52-0.2,0.37,0.37,0,0,1-.23,0,1.6,1.6,0,0,1-.34-0.18,0.55,0.55,0,0,0-.52-0.07,0.22,0.22,0,0,0-.1.12,0.61,0.61,0,0,1-.06.12s0,0,.06.07h0Zm3.65-18.15-0.2.53-0.44.3-0.28.51-0.46.3-0.28.84a3,3,0,0,1-.35.54,3.79,3.79,0,0,1-1,.84,1.73,1.73,0,0,0-.76.67l0,0.65-0.1.41,0.05,0.48-0.18.86,0.12,0.76-0.31.91a4.5,4.5,0,0,0,.16.79l-0.1,1.84a1,1,0,0,0,0,.26,4.4,4.4,0,0,0,0,.65l0.2,1.4-0.09.68a1.63,1.63,0,0,0,0,.56,1.61,1.61,0,0,0,.1.61,0.66,0.66,0,0,0,.12.27l-0.16.91a1.74,1.74,0,0,0,1,.48l1.24,0.21a12.18,12.18,0,0,0,2.07.28c0.77-.1,1.37-0.17,1.82-0.19a1.43,1.43,0,0,0,1-.34,1.05,1.05,0,0,0,.3-0.66l0-.56,0.07-.51s0-.24-0.1-0.68L367,196.75a2,2,0,0,0-.11-0.26,4.2,4.2,0,0,0-.67-0.63l-0.74-.58a4.56,4.56,0,0,0-1.29-.4h-0.84a2,2,0,0,1-.9-0.35,2.61,2.61,0,0,1-.57-0.46l-0.28-.74-0.25-.46,0.12-.86-0.12-1.12,0.2-.63,0.08-.44,0.3-.5,0.38-.79s0.22-.19.59-0.51,0.74-1.36,1.06-3.12l0.37-1.72c-0.17-.15-0.36,0-0.58.36h0ZM357,182.11l-0.38,3a3.13,3.13,0,0,0-.05.7c0,0.35.15,0.42,0.44,0.23a0.73,0.73,0,0,0,.25-0.35l0.08-.44,0.32-.65-0.05-1.09,0-.44V183a1.49,1.49,0,0,0-.12-0.56,0.87,0.87,0,0,0-.27-0.28,0.26,0.26,0,0,0-.24-0.05h0Zm-5.65,5.17a0.84,0.84,0,0,0,.86.25l0.65-.18a1.33,1.33,0,0,0,.39-0.13,0.34,0.34,0,0,0,.1-0.27,1.23,1.23,0,0,0-.28-0.64,0.72,0.72,0,0,0-.47-0.42,1.12,1.12,0,0,0-.35.33l-0.4.4-0.37.45a0.53,0.53,0,0,0-.13.22h0Zm-3.72-2.51a21,21,0,0,1-1,2.69,1.54,1.54,0,0,0-.26,1,0.39,0.39,0,0,0,.41.33,0.31,0.31,0,0,0,.2-0.1l0.16-.35,0.4-.31,0.35-.73,0.61-.56,0.09-.46,0.54-.44,0.15-.4,0.72-.63,0.1-.48,0.48-.26,0.3-.63,0.33-.35,0.12-.44,0.38-.7a1.5,1.5,0,0,0,.11-0.57,0.3,0.3,0,0,0-.29-0.36,0.22,0.22,0,0,0-.12,0l-0.49.25-0.35.05-0.46.36-0.58.12L348.68,183l-0.44.46a3.53,3.53,0,0,0-.65,1.35h0Zm1.34,11.73a2.34,2.34,0,0,0-.5.32,3.34,3.34,0,0,1-1.22.48c-0.61.16-1.1,0.3-1.48,0.44a2.87,2.87,0,0,1-.87.2,0.06,0.06,0,0,1-.08,0l-0.78-.15a0.79,0.79,0,0,0-.37.6c-0.09.36-.18,0.66-0.26,0.9a1.07,1.07,0,0,0-.1.52,1,1,0,0,0,.08.37,0.62,0.62,0,0,0,.22.26l1.17-.25,0.48,0,1.11-.5a1,1,0,0,1,1,.09,0.25,0.25,0,0,0,.1.1l0.53,0.72,0.54,0.5a1.72,1.72,0,0,1,.09.56,1,1,0,0,1,0,.49,1.31,1.31,0,0,1-.44.15l-0.81.26-0.74-.1-1.6,1-1.42.31a0.5,0.5,0,0,0-.1.12l0.21,1-0.05.89a0.71,0.71,0,0,0,.81.81,1,1,0,0,0,.62-0.17,1.55,1.55,0,0,1,.27-0.19l0.76,0.2a0.39,0.39,0,0,0,.12-0.18c0.05-.1,0-0.24-0.25-0.41a0.79,0.79,0,0,1-.35-0.48c0-.13.16-0.08,0.53,0.13a1.82,1.82,0,0,0,.44.23,3.82,3.82,0,0,1,.81.51,1,1,0,0,0,.68.3,0.59,0.59,0,0,0,.35-0.18l0.4-.44c0.22-.22.34-0.35,0.38-0.4l0-1,0.38-.84a7,7,0,0,0,.18-3.92l-0.18-.64a0.52,0.52,0,0,1,0-.25,2.55,2.55,0,0,1,.07-0.45,3.36,3.36,0,0,0,.06-0.44l-0.28-.72-0.12-.68a0.32,0.32,0,0,0-.26,0h0Zm-11.75-4,0.66-.48,0.58-.1a1.44,1.44,0,0,0,.38-0.26l0.83-.46c0.29-.17.4-0.28,0.33-0.32l-0.2-.05a0.13,0.13,0,0,1-.08-0.13l1.3-.58a1.25,1.25,0,0,0,.25-0.18l0.44-.37,0.76-.59a3.31,3.31,0,0,0,.38-0.55l0.42-.94a1.59,1.59,0,0,0,.18-0.58,0.79,0.79,0,0,0-.23-0.38l-1.11-.35-0.86-.58-0.74-.44-0.53-.76-0.38-.4-0.28-.46-0.42-.66-0.16-.53a5.32,5.32,0,0,1-.39-0.68c-0.25-.46-0.3-0.67-0.17-0.65a1.77,1.77,0,0,1,.4.35,1.66,1.66,0,0,0,.44.36,1,1,0,0,0,.42,0l1.58-.65,0.84-.28,1.14-.61,1-.46a1.64,1.64,0,0,0,.65-0.47,8.14,8.14,0,0,0,.44-1.68l0.26-1,0.07-.72a6.65,6.65,0,0,0,.1-0.7,1.87,1.87,0,0,0-.22-0.48,0.6,0.6,0,0,0-.59-0.29l-0.1,0-0.3.4c-0.09.1-.18,0.09-0.26,0a1.93,1.93,0,0,1-.2-0.52,1.13,1.13,0,0,1-.1-0.57s0.08-.12.2-0.29a3.74,3.74,0,0,0,.34-0.52,1.15,1.15,0,0,1,.26-0.33,4.53,4.53,0,0,1,.72-0.16c0.42-.08.65-0.11,0.68-0.11l0.38,0.18,0.81,0.37a4.08,4.08,0,0,1,.8,1,9.39,9.39,0,0,1,.77,1.35,3.89,3.89,0,0,1,.31,1.32,2.72,2.72,0,0,0,.1.76l1,0.76,0.46,0.59L351,179l0,0.74,0.44,0.46a1.72,1.72,0,0,0,.48.5,0.45,0.45,0,0,0,.16-0.15l0.56-1.09a0.8,0.8,0,0,1,.51-0.38,4.64,4.64,0,0,1,1.29.46,1.9,1.9,0,0,1,1.14,1.91,3.73,3.73,0,0,1-.3,1.94,4.34,4.34,0,0,1-1,.88,4.13,4.13,0,0,0-1,.87,1.26,1.26,0,0,0-.13.45,0.51,0.51,0,0,0,.13.36,0.61,0.61,0,0,0,.31.26l1.19,0.55a1.38,1.38,0,0,0,.88.33,0.41,0.41,0,0,0,.33-0.31,4.06,4.06,0,0,0,.07-0.53l0.38-4.09V182a3.61,3.61,0,0,0-.28-0.93,2.41,2.41,0,0,1-.23-0.65,1.05,1.05,0,0,1,.13-0.44l0.37-.78a1.27,1.27,0,0,1,.4-0.57l0.48,0.05,0.46,0a3,3,0,0,1,.4.18l0.38,0.19a5.15,5.15,0,0,1,.35.5l0.4,0.48a4.25,4.25,0,0,1,.61,1.25c0.21,0.58.44,0.78,0.72,0.57l0.5-.48,0.54-.38,0.65-.86,0.4-.23a7.46,7.46,0,0,0,1.32-1.79c0.68-1.09,1.11-1.61,1.3-1.58a5.32,5.32,0,0,0,.51.26,2.43,2.43,0,0,0,.6.23l0.66-.05a9.88,9.88,0,0,1,.79.65,1.75,1.75,0,0,1,.7.84l-0.07.23L369,179.2a1,1,0,0,1,.1.38v0.1l-0.05.58,0,0.42a2.11,2.11,0,0,1-.28.84l-0.86,1.16a14.69,14.69,0,0,0-.74,1.37l-0.51,1-2.07,4.63a1.58,1.58,0,0,0-.33.91,0.63,0.63,0,0,0,.42.56l0.77,0.33,0.37,0.3,0.36,0.07,1,0.82,0.37,0.15a1.23,1.23,0,0,1,.28.38l0.82,1.32c0.06,0.19.17,0.59,0.3,1.21l0.58,2.81c0,0.23,0,.42,0,0.61s0,0.41-.07.94a10,10,0,0,1-.15,1.26l-0.79,2.2c-0.24.86-.38,1.35-0.44,1.45l-0.42.63a4.27,4.27,0,0,1-.48.87,0.26,0.26,0,0,1-.11,0,0.3,0.3,0,0,1-.23-0.05L366.3,206a2.65,2.65,0,0,1-1.09-.69,0.26,0.26,0,0,0,.08-0.15,1.83,1.83,0,0,0-.4-0.37l-0.59-.54-2.55-.63a4.73,4.73,0,0,0-1.75-.64,0.5,0.5,0,0,0-.27.23,1.5,1.5,0,0,0,0,.64l0,0.84,0.1,1-0.21,1.12-0.05,1-0.07.54,0.07,2.07-0.2.68,0.05,1-0.16,1.14v0.58L359,214.91s-0.06.44-.12,1.22a2.64,2.64,0,0,1-.34,1.39,0.36,0.36,0,0,1-.5,0,2.19,2.19,0,0,1-.63-1.82c0-1-.11-2.18-0.24-3.59s-0.19-2.22-.19-2.44v-2.46l-0.21-1.4c-0.05-.38-0.08-1.27-0.1-2.65a1.52,1.52,0,0,1,0-.31l0.13-1.6a3.33,3.33,0,0,0-.16-0.64,2.63,2.63,0,0,0-.57-0.85,8.25,8.25,0,0,1-.84-1.08c-0.26-.39-0.31-0.59-0.15-0.6a0.67,0.67,0,0,1,.39.08,1.6,1.6,0,0,1,.19.33,4.78,4.78,0,0,0,.5.79c0.25,0.35.4,0.47,0.47,0.35a0.78,0.78,0,0,0,.08-0.3,1.93,1.93,0,0,0-.05-0.28l-0.58-.84,0-.37-0.23-.49,0.1-.07,0.63,0.65c0.06,0.07.15,0.06,0.25,0a0.42,0.42,0,0,0,.18-0.28,3.56,3.56,0,0,0-.07-0.79v-2.2a0.79,0.79,0,0,1-.07-0.4l0.18-.46-0.05-.31a1.08,1.08,0,0,1,.05-0.4L357,191.33c0.22-.58.33-0.87,0.33-0.89A0.69,0.69,0,0,0,357,190l-0.63-.13-0.31-.05a0.54,0.54,0,0,0-.35.23l-0.4,1.93c-0.13.19-.23,0.12-0.28-0.2l0.23-1.35s-0.09-.18-0.23-0.41a0.6,0.6,0,0,0-.53-0.37l-0.39.09a4.77,4.77,0,0,1-.74.07,9.46,9.46,0,0,0-1.41.24l-0.83-.18-0.26.21a1.32,1.32,0,0,1-.53,0l-0.68.1a1.38,1.38,0,0,0-.79.21,2,2,0,0,0-.32.74l-0.61.32-0.48.49-0.41.33-0.25.6-0.81,1a0.51,0.51,0,0,0-.11.33,0.28,0.28,0,0,0,.25.22,0.65,0.65,0,0,0,.57-0.39,4.07,4.07,0,0,1,.9-1,1.66,1.66,0,0,1,.41-0.11,11.61,11.61,0,0,1,1.25.23,5.77,5.77,0,0,1,1.36.38l0.84,1,0.53,0.46a4.72,4.72,0,0,1,.52,2.3c0.09,1.25.18,2.41,0.25,3.49a19.11,19.11,0,0,1,0,2.74L352,207.67a10.49,10.49,0,0,1-.46,1.71,4.25,4.25,0,0,0-.23.59l-0.1.51-0.53.84L350,212.68a0.3,0.3,0,0,1-.23.07,0.25,0.25,0,0,1-.23-0.12l-0.18-.56-0.46-.58-0.2-.84-1-1.42a2.41,2.41,0,0,0-.46-0.68,2,2,0,0,0-.53.05l-1.26.16a4.41,4.41,0,0,1-1,.12,2.17,2.17,0,0,1-.66-0.23c-0.34-.16-0.46.13-0.35,0.86a2.47,2.47,0,0,1,.06,1.1,0.29,0.29,0,0,1-.24-0.11,1.46,1.46,0,0,1-.38-0.81l-1-1.56a4,4,0,0,1-.6-1.77l-0.16-2.56a4.51,4.51,0,0,1,0-1.49,2.73,2.73,0,0,0,.06-0.84,0.43,0.43,0,0,0-.22-0.27,4.28,4.28,0,0,0-1.22,1.53,0.71,0.71,0,0,1-.36.33l-0.42.1a0.52,0.52,0,0,0-.19.11,1.29,1.29,0,0,0-.2.46,5.4,5.4,0,0,1-.85,1.32c-0.48.61-.73,0.92-0.75,0.92l-0.48.33-1,1.24-1.09.45c-0.24.26-.39,0.35-0.46,0.28A0.62,0.62,0,0,1,334,208l-0.07-.2,0.07-.7-0.07-.59s0,0,0-.05,0-.23.07-0.58a2.17,2.17,0,0,1,.18-0.68l0.38-.55,0.15-.68,0.13,0h0.12l-0.07.26c-0.09.38,0,.52,0.18,0.4a1.11,1.11,0,0,1,.44-0.66,2.69,2.69,0,0,0,.66-0.73,2.82,2.82,0,0,1,.84-0.8,1.09,1.09,0,0,0,.54-0.53v-0.33l0.63-.78-0.07-.28a1.07,1.07,0,0,1,.79-0.4c0.33-.08.88-0.79,1.64-2.1s1.15-2,1.17-2.08l0.1-.88a1.31,1.31,0,0,1,.06-0.29,2.6,2.6,0,0,0,.08-0.34,1,1,0,0,0-.28-0.53,0.71,0.71,0,0,0-.25-0.23l-0.68.65-0.27-.06a2.09,2.09,0,0,0-1,.47,3.55,3.55,0,0,1-1,.45c-0.37.12-.54,0.24-0.49,0.34l0.12,0.23a0.53,0.53,0,0,1-.26.35,0.89,0.89,0,0,1-.53.26,1,1,0,0,1-.31-0.11,0.92,0.92,0,0,0-.3-0.11,2.79,2.79,0,0,0-.35.28l-0.18.3a1.8,1.8,0,0,1-.33.08,1.88,1.88,0,0,0-.8.59,2.42,2.42,0,0,1-1,.68c-0.35.1-.56,0.18-0.63,0.21l-0.76.54-0.76.2-0.51.23a1.15,1.15,0,0,1-.46.1,1.45,1.45,0,0,1-.82-0.24,1.55,1.55,0,0,1-.64-0.58,1.73,1.73,0,0,1-.16-0.76,0.18,0.18,0,0,1,0-.15l0.12-1.49-0.28-.82a0.17,0.17,0,0,1,0-.08,4.22,4.22,0,0,1,.61-0.52l0.48-.4,0.66,0.3a0.09,0.09,0,0,0,.1,0l0.46-.05a1.66,1.66,0,0,0,.56-0.05l0.35-.2,0.3,0.07,1.14-.61,0.3-.05,0.28-.09,0.38,0.23a1.36,1.36,0,0,0,.42-0.16,3.31,3.31,0,0,0,.46-0.23l0.31-.23,1-.3,0.15-.46Z" transform="translate(-26.06 -159.38)"/><path class="a" d="M397.69,187.74a2.49,2.49,0,0,0,1-.18l0.42-.05a0.73,0.73,0,0,0,.51-0.31l0.35-.78,0.72-.13,0.17-.7a0.57,0.57,0,0,1,.37-0.19,5.68,5.68,0,0,1,.58-0.1l0.32-.06-0.12-.56,0.65-.44,0.05-.6a0.53,0.53,0,0,1,.22-0.34,0.87,0.87,0,0,1,.52-0.2,1.26,1.26,0,0,0,.41-0.06,0.3,0.3,0,0,0,.16-0.15,2.28,2.28,0,0,0,.12-0.57,2,2,0,0,1,.33-0.85,4.31,4.31,0,0,0,.31-0.5l0.1-.42a3.36,3.36,0,0,1,.25-0.46c0.16-.29,0-0.5-0.47-0.63s-1.22.15-2.29,0.86l-1.23.68a3.51,3.51,0,0,0-1,.76,14,14,0,0,0-.91,1.72l-0.86,1.7-0.4,1.24-0.4,1a0.27,0.27,0,0,0,.08.28h0Zm-12.06,12.35-0.7,1.24-0.28.7-0.26.58a7.23,7.23,0,0,1-.48,1.07,0.86,0.86,0,0,0-.17.61,0.32,0.32,0,0,0,.18.24,0.84,0.84,0,0,0,.5-0.24l0.51-.33,0.28-.44-0.26-.4a1.21,1.21,0,0,1,.21-0.2l0.63-.35,0-.51a0.77,0.77,0,0,1,.34-0.29,1.78,1.78,0,0,0,.37-0.27v-0.58a1.43,1.43,0,0,1,.64-0.73,2.48,2.48,0,0,0,.67-0.62l0.12-.91,0.63-.53,0.12-.23,0.33-.35,0.08-1.21,0.45-.66,0.05-.23h-0.2a0.21,0.21,0,0,0-.16,0l-0.53.4c-0.24-.17-0.22-0.32.07-0.47a5.49,5.49,0,0,0,1.1-.8,2.81,2.81,0,0,0,.69-0.7l0.1-.46,0.46-.05a1.39,1.39,0,0,1-.08-0.33,2.84,2.84,0,0,1,.26-0.81c0.07-.17.12-0.28,0.16-0.33l0.93-.88v-0.54l0.41-.5,0.05-.77,0.2-.35,0.25-.46a1.19,1.19,0,0,0,.36-0.86c0-.25-0.28-0.13-0.74.35l-2.21,1.9-0.4.66-0.83.86-0.38.46-1.6,1-1.79,1.85a1.75,1.75,0,0,1-1,.3,1,1,0,0,1-1-.51l-0.28-.81-0.5-.79-0.05-1.54-0.16-.4,0-1.21-0.05-.46a0.77,0.77,0,0,1,.25-0.56l1.54-.7,0.58-.91,1.24-1.35,0.16-.58,0.23-.38,0.33-.83,0.37-.4,0.12-.38,0.36-.76c0-.07,0-0.33.07-0.79L388,181v-0.23c0-.13-0.09-0.48-0.23-1a2.25,2.25,0,0,1-.13-1,0.45,0.45,0,0,1,.24-0.24c0.11-.06.32,0.33,0.6,1.18l1.3,2a5.05,5.05,0,0,1,.34.89,2,2,0,0,0,.29.69,0.29,0.29,0,0,0,.2.09,0.39,0.39,0,0,0,.24-0.05l1.46-1.14,0.49-.26,3.74-2a1.37,1.37,0,0,0,.44-0.33l0.15-.63,0.24-.38-0.05-.7,0.5-.33,0-.6,0.2-.31,0.16-.68,0.3-.42,0.21-.66a3.2,3.2,0,0,0,.2-0.56,0.85,0.85,0,0,0-1-.55,3.29,3.29,0,0,0-.48,0l-1.07.35-0.81.23-0.63.81a0.24,0.24,0,0,1-.2.11,0.2,0.2,0,0,1-.15-0.15,0.66,0.66,0,0,1,.29-0.52l0.44-.59,0.86-.78,0.56-.56,1.13-.51,1-.61a1.83,1.83,0,0,1,.65-0.07l1.75,0.58a4.29,4.29,0,0,1,.69.23,1,1,0,0,1,.29.31,4.9,4.9,0,0,1,.37,1.34,7.48,7.48,0,0,1,.19,1.42,6.61,6.61,0,0,1-.38,1,2.06,2.06,0,0,0-.28.81,0.53,0.53,0,0,0,.26.17,7.21,7.21,0,0,0,.79-0.2,5.24,5.24,0,0,1,1.14-.21,6.36,6.36,0,0,1,2.11.3,7.83,7.83,0,0,1,1.88,1.21,9.91,9.91,0,0,1,1.38,1.26l0.4,0.86a8.08,8.08,0,0,1,.44.93,3.42,3.42,0,0,1,0,.62l0,0.93a1.86,1.86,0,0,1-.21.75,10.35,10.35,0,0,1-1.23.9l-1.14.4-0.18.46-0.89.58-0.37.51-1,.56,0.12,0.55a0.67,0.67,0,0,1-.05.16l-0.63-.1a5.69,5.69,0,0,0-.68.72,2.13,2.13,0,0,1-.58.35l-1.6,1-0.44.16-0.68.4a4.72,4.72,0,0,1-2.05.28,0.74,0.74,0,0,1-.46-0.1l-0.27-.4-0.56-.49a1.35,1.35,0,0,0-.56-0.4,0.92,0.92,0,0,0-.28.2,2.87,2.87,0,0,0-.45.76,9.06,9.06,0,0,1-.58,1.14,1.36,1.36,0,0,0-.26.85,0.64,0.64,0,0,0,.15.4l0.44,0.42a1.52,1.52,0,0,1,.32.87l0,1.92c0.05,0.42.07,0.66,0.07,0.72l-0.1.63-0.07.79-0.78,5.06V204l-0.08.48,0,1.85,0,0.74a0.73,0.73,0,0,0,.09.46,0.66,0.66,0,0,0,.47.18,3.17,3.17,0,0,0,2.1-1l0.7-.63,0.84-.66,1.14-1.26,0.48-.35,0.61-.81a4.58,4.58,0,0,0,.42-0.36l0.13-.27,0.3-.26c0.19-.22,0-0.4-0.51-0.56l-2.79,0a1.57,1.57,0,0,1-1.33-.56,2.92,2.92,0,0,1-.41-1.54,2.58,2.58,0,0,1,.15-1.34l0.23-.36,0.05-.37a0.6,0.6,0,0,1,.28-0.38l0.76-.46,0.46-.35,0.84-.23,1.16-.94,1.32-.55a1,1,0,0,1-.18-0.59,0.47,0.47,0,0,1,.31-0.37l0.55-.1a0.25,0.25,0,0,0,.15-0.12,4.06,4.06,0,0,0,.13-0.38l0.33-.83a1.57,1.57,0,0,0,0-.55c0-.25-0.06-0.45-0.08-0.61a1,1,0,0,1,.2-0.59,2.25,2.25,0,0,1,.48-0.52,1.26,1.26,0,0,1,.75-0.39,5.38,5.38,0,0,1,.76.23l1.12,0.3a2.57,2.57,0,0,1,.8.74c0.26,0.35.42,0.57,0.49,0.64l0.16,0.17,0.07,0.79a1.17,1.17,0,0,0,.24.51l0.27,0.33-1.65,1.6-1.95,2.35-0.38.38V198l-0.27.36a1.34,1.34,0,0,0,.65.37l0.58,0,3.14,1.09,3.37,1.29,1,0.23L414.7,202l0.49,0.33c0.08,0.08.3,0.33,0.65,0.76l0.46,0.53a4.67,4.67,0,0,1,.68,1l0.36,1.39,0.17,0.63c0,0.08,0,.4.07,1s0.06,0.85.06,0.92a0.79,0.79,0,0,1-.24.63c-0.15.08-.61-0.25-1.38-1l-2.16-.91-0.31-.26-0.81-.56-0.4-.5-0.35-.19a1.62,1.62,0,0,1-.4-0.31,14.88,14.88,0,0,0-2-1.2,14.13,14.13,0,0,0-2.11-1l-1-.23-2.16-.89a1.61,1.61,0,0,0-.51,1.07c-0.11.57-.2,0.92-0.23,1.06l-0.4,1a3.53,3.53,0,0,1-.28.74l-2.12,3.09-2.3,2.94-0.77,1L397,214.4a0.77,0.77,0,0,1-.46.18,0.74,0.74,0,0,1-.41-0.09,2.68,2.68,0,0,1-.75-0.77,10.5,10.5,0,0,0-1-1.15,6.38,6.38,0,0,1-.7-0.79,12,12,0,0,1-.83-1.63,8,8,0,0,1-.63-1.64,1,1,0,0,1,0-.37l0.44-4.42,0-.28,0.28-.68-0.1-.68,0.19-.74,0.3-2.77s0-.2,0-0.55a0.9,0.9,0,0,0-.11-0.63,0.21,0.21,0,0,0-.3.05l-0.61,1.23-0.68.86-0.12.51-0.33.51-0.25.53-0.66.33a0.57,0.57,0,0,0-.23.3l-0.12.49a0.47,0.47,0,0,1-.3.28l-0.33.07-0.31.63-2.25,2.77a10.79,10.79,0,0,1-1.15,1.21,3.76,3.76,0,0,0-.65.65l-0.2.38a1.27,1.27,0,0,1-.23.28l-0.51.38a8.81,8.81,0,0,1-.91.7l-0.76-.1a1.54,1.54,0,0,1-.52-0.06,0.54,0.54,0,0,1-.17-0.54,4.78,4.78,0,0,1,.07-0.89,9.46,9.46,0,0,1,.51-1.62l0.93-1.93a22,22,0,0,1,1.24-2.72,11,11,0,0,0,.67-1.15,4.51,4.51,0,0,1,.36-0.62l0.33-.2a2.68,2.68,0,0,1-.05.35h0Z" transform="translate(-26.06 -159.38)"/><path class="a" d="M453.42,191.91a5,5,0,0,0,.22-0.84,2.08,2.08,0,0,0-.48-1.21,2.62,2.62,0,0,0-2.08-1.31c-0.84,0-1.26.11-1.27,0.46a2.54,2.54,0,0,0,0,.6l0.07,0.9a6,6,0,0,0,.06.8,0.66,0.66,0,0,0,.17.34l2.51-.37c0.47,0.57.74,0.79,0.81,0.63h0Zm-3.72,4.91,0.46,0a2,2,0,0,1,.37.36l0.91,0.7a2.61,2.61,0,0,0,.31.4l0.58,0.81a2.31,2.31,0,0,1,.18.44,4.26,4.26,0,0,1-.07.84,2.08,2.08,0,0,1-.12.48l-0.29.33v0.33a1.54,1.54,0,0,1-.45.41,0.89,0.89,0,0,0-.45.57,0.76,0.76,0,0,0,0,.3,7.13,7.13,0,0,0,.18,1.2,7.87,7.87,0,0,1,.19,1,0.47,0.47,0,0,1-.26.38,2,2,0,0,1-1.36.11,1.75,1.75,0,0,0-1.38.19c-0.24.22-.31,0.36-0.23,0.44l0.23,0.25,2.91,1.42,2.53,0.88a0.8,0.8,0,0,0,.45.15,0.61,0.61,0,0,0,.39-0.34l-0.12-1.7,0.07-1-0.05-3-0.1-1.24-0.12-4.81-0.12-.53-0.05-1a1.11,1.11,0,0,0-1.07-.3,1.68,1.68,0,0,0-.48.09,1,1,0,0,0-.3.21l-0.41.4-1,0a1.66,1.66,0,0,0-.36.16l-0.53.38-0.76.12-0.25.21a1,1,0,0,0,.58.3h0Zm-5.12-5.52,0.93,1.12,0.16,0.58,0.36,0.81c0,0.12,0,.22,0,0.29a3.57,3.57,0,0,1,0,.45,3.21,3.21,0,0,1-.46,1.54,1,1,0,0,0-.25.85c0.06,0.25.44,0.11,1.11-.39l1-.66a0.62,0.62,0,0,0,.28-0.53,2.17,2.17,0,0,0-.18-0.63l-0.56-.88-0.48-1.24a3.36,3.36,0,0,1-.26-0.49l-0.18-1.26c-0.09-.17-0.21-0.19-0.33-0.05l-0.2.33-0.21.07c-0.32-.33-0.59-0.3-0.81.1h0Zm-0.35-2.91c0.59-.49,1.14-0.9,1.65-1.25s0.82-.57.93-0.66l0.56-.59,1.24-1.26,0.56-1a2.89,2.89,0,0,0,.5-1.4,0.57,0.57,0,0,0-.46-0.53,1,1,0,0,0-.3.07l-0.74.49-1,.61-0.6.63-0.51.4c-0.08.08-.27,0.32-0.56,0.7l-0.81,1.09-0.61,2.1c-0.13.34-.15,0.52,0,0.53Zm0.49,15.4,0.78-.44a5.79,5.79,0,0,0,1.82-1.26l0.33-.48a1.53,1.53,0,0,0,.46-1,0.5,0.5,0,0,0-.28-0.35,1.15,1.15,0,0,0-.79.46,10.31,10.31,0,0,1-1.06.61l-0.82.46a9,9,0,0,0-1.21.42,1.49,1.49,0,0,0,.08.51,2.28,2.28,0,0,0,.22.84,0.46,0.46,0,0,0,.47.23h0Zm-2-4a1.37,1.37,0,0,0,.39-0.1,14.18,14.18,0,0,0,1.2-.87,7.87,7.87,0,0,0,1.33-1.14c0.17-.21-0.05-0.31-0.64-0.31a1.16,1.16,0,0,0-.39.09,1.06,1.06,0,0,0-.24.19l-0.46.58-0.76.63a1,1,0,0,0-.44.93h0Zm-1.28-15.35,0.76-.48a9.61,9.61,0,0,0,2-1.38,0.83,0.83,0,0,0,.2-0.5c0-.11-0.19-0.15-0.54-0.07l-0.63.05a8.64,8.64,0,0,0-1.92.64c-0.74.33-1.07,0.6-1,.83a1,1,0,0,0,.58.69,1.59,1.59,0,0,0,.51.21h0ZM441.3,192l-0.08-.68a1.45,1.45,0,0,0-.63.28l-0.3.37-0.54.49a1,1,0,0,0-.15.28l-0.56,1a2.68,2.68,0,0,0-.12.68l-0.1.74a3.8,3.8,0,0,0,.19,1.6,2.59,2.59,0,0,1,.22.94l-0.06.18a1.38,1.38,0,0,0,0,.31,0.31,0.31,0,0,0,.17.31,0.69,0.69,0,0,0,.38-0.37l0.63-.65s0.23-.33.62-1l0.62-1,0.3-.76,0.61-1.24a1.31,1.31,0,0,0-.13-0.68,2.34,2.34,0,0,0-1.08-.81h0Zm-8.89-9.65,1.06-.18a1.06,1.06,0,0,0,.65-0.34,1.63,1.63,0,0,1,.29-0.32l0.61,0.16,0.74-.28,3-.93,3-1,1.88-.53,0.83-.72a1.14,1.14,0,0,0,.51-0.48l-0.05-.46,0-.16a0.82,0.82,0,0,0-.08-0.32l-0.3-.4-0.3-.51-0.38-.31L443,173.86a3.28,3.28,0,0,1-.68-1.58,1,1,0,0,1,.76-0.56l1.7,0.23,1.34-.07a6.24,6.24,0,0,1,2.16.47,3.79,3.79,0,0,1,2.07,1.66,4.49,4.49,0,0,1,.72,2,2,2,0,0,0,.17,1,0.57,0.57,0,0,0,.49.15l1.91-.44,4.27-.65c0.72-.1,1.08-0.17,1.09-0.18l0.51-.31,0.72,0.38a2.67,2.67,0,0,0,.63.07,2.05,2.05,0,0,1,.93.26,6,6,0,0,1,.9.83,6.75,6.75,0,0,1,.84,1.06,2.34,2.34,0,0,1,.25,1.09,1.7,1.7,0,0,1-.17.94,0.85,0.85,0,0,1-.79.4,0.47,0.47,0,0,1-.27,0l-0.49-.1-1.14-.12-1.56-.46h-0.94l-0.42-.16a9.17,9.17,0,0,0-1.37.19l-1.75,0c-0.17,0-.42.07-0.79,0.16a5.09,5.09,0,0,1-.82.15,0.85,0.85,0,0,0-.42.08,0.47,0.47,0,0,0-.21.24,1,1,0,0,0,.57.65,3.43,3.43,0,0,1,.82,1.06,2.82,2.82,0,0,1,.32,1.37,2.48,2.48,0,0,1-.28,1.09,2.78,2.78,0,0,1-.37.58l-0.84.64a0.27,0.27,0,0,0-.09.13,0.24,0.24,0,0,0,.15.17,1.18,1.18,0,0,0,.35.12,5.15,5.15,0,0,1,.88.38l1.42,0.6s0.25,0.18.7,0.46a6.4,6.4,0,0,1,.82.59,3.86,3.86,0,0,1,.46,1c0.2,0.55.31,0.85,0.33,0.92l-0.19,1.24,0.08,1.69,0.28,8.51,0.46,2.61,0.05,1.79,0.09,0.56,0,2.21c0.08,0.47.12,0.73,0.12,0.76l-0.3,1.09a4.62,4.62,0,0,0,0,.73,3,3,0,0,1-.31,1.25l-0.79,1.32a4.08,4.08,0,0,1-.45.81,0.61,0.61,0,0,1-.55.18,0.88,0.88,0,0,1-.53-0.18l-0.58-.61-1.17-.76-0.37-.46-0.35-.33-0.49-.68-0.33-.35a2.48,2.48,0,0,1-.18-0.41,2.07,2.07,0,0,0-.46-0.75l-0.88-.86-1.19-1.63-1.07-.88-1-1.26a2.2,2.2,0,0,0-.81-0.1l-0.72,0a2.49,2.49,0,0,0-1.32.27,0.69,0.69,0,0,0-.22.39l-0.19,1a0.34,0.34,0,0,1-.23.12,0.33,0.33,0,0,1-.22-0.05,10.09,10.09,0,0,1-1.1-1.08,3,3,0,0,0-1.24-1l-0.67,0a0.39,0.39,0,0,1,0-.12h0.38a0.51,0.51,0,0,0,.06-0.15,9.3,9.3,0,0,0-.27-1.55L441,201.53a0.65,0.65,0,0,0-.4-0.4l-0.82.4-0.4.05-0.42.21a2.47,2.47,0,0,0-.48.25,0.59,0.59,0,0,0-.1.35v1.07a4.51,4.51,0,0,0-.08.49c0,0.27,0,.42,0,0.48a16.89,16.89,0,0,0,.31,2.41,11.56,11.56,0,0,1,.22,3c0,0.16-.06.27-0.08,0.36l-0.23.53c-0.17.49-.41,0.58-0.76,0.28a6.22,6.22,0,0,1-.44-0.61l-0.53-.65-0.32-.72L436,208.4l-0.08-.51-0.15-.35,0.05-.46,0.28-5.24a9.78,9.78,0,0,1,.15-1.54l0.33-1.45,0-.7s0.05-.34.16-0.91l0.16-1.42a6.94,6.94,0,0,1,.57-1.83,5.88,5.88,0,0,1,1.15-1.78l1.6-1.47a1.73,1.73,0,0,0,.17-0.25,2.68,2.68,0,0,0-.87-1,2.62,2.62,0,0,1-.76-1.38,11.45,11.45,0,0,0-.42-1.42,3.15,3.15,0,0,1-.21-0.63,4,4,0,0,1,.54-1.11c0.36-.62.33-1-0.1-1a1.84,1.84,0,0,0-1.18.21,13,13,0,0,1-1.62.86l-1,.46-1.26,1-1.14.61a2.49,2.49,0,0,1-1.52.48,1.77,1.77,0,0,1-.36-0.16,2.36,2.36,0,0,1-.61-0.57,5.51,5.51,0,0,0-.58-0.63,1.23,1.23,0,0,1-.27-0.28,7.69,7.69,0,0,1-.05-1.31v-0.42a1.28,1.28,0,0,1,.21-0.65,8.3,8.3,0,0,1,.8-0.91,1.89,1.89,0,0,1,1-.66,0.46,0.46,0,0,1,.25.07l0.35,0.63,0.4,0.21a1.91,1.91,0,0,1,.49-0.51h0Z" transform="translate(-26.06 -159.38)"/><path class="a" d="M498.43,190.83l0,0.05V191h0.28l0.18-.18,0.07-.16,0.05-.07,0.21-.21,0-.05,0.1-.15,0.07-.13,0-.07v-0.1l-0.05-.05-0.05-.07,0-.05-0.07,0,0,0-0.1,0H499l-0.07,0-0.08.05-0.18.16-0.1.2v0.31l-0.12.28v0.09Zm2.63,1.65a0.42,0.42,0,0,0,.15-0.13l0.31-.46,1-.07a3.79,3.79,0,0,0,.91-1.7l0.84-2.12,0.2-.38-0.29-.07a2,2,0,0,0-.75.74l-0.55.61-1.68,2a0.81,0.81,0,0,1-.35.28l-0.63.23-0.94,1.3a1.92,1.92,0,0,1-.41.21,0.51,0.51,0,0,0-.36.32l-0.1.46Zm-2.89-6.87,0.3,0.13a0.62,0.62,0,0,0,.57-0.34,3.91,3.91,0,0,1,.88-0.74c0.32-.2.78-0.5,1.37-0.91a2.87,2.87,0,0,1,1.6-.62,0.85,0.85,0,0,0,.25,0l1.84,0.49a0.6,0.6,0,0,0,.34-0.05,0.91,0.91,0,0,0,.22-0.61l0.35-2a2.49,2.49,0,0,0,0-.38,1,1,0,0,0-.28-0.85,2.72,2.72,0,0,0-1.44.8l-1.07.46-1.84.89a2.79,2.79,0,0,1-1,.33l-1.24-.08c-0.37.16-.56,0.69-0.56,1.63a0.56,0.56,0,0,0,0,.2,1.35,1.35,0,0,1,0,.18,2.07,2.07,0,0,1-.28,1c-0.17.31-.19,0.49-0.07,0.52h0Zm2.23,21.1,2.18-1.88a1.47,1.47,0,0,0,.89-0.91,0.48,0.48,0,0,0-.54-0.4l-2-.12a2.53,2.53,0,0,1-1.71-.58,1.69,1.69,0,0,1-.51-0.85,3.61,3.61,0,0,1,.36-1.34,4,4,0,0,1,.59-1.09,1.51,1.51,0,0,1,.93-0.37l1.49-.16,1-.65,1.12-.44,0.79-.84,0.76-.58,0.66-.81a2.13,2.13,0,0,0,.7-1.35,0.77,0.77,0,0,0-.21-0.4l-0.5.36-2.66.42-1.75.63L498.4,198l-1,.6-0.74,2.74,0.05,1.12-0.3,2.68,0.16,2.35a2.24,2.24,0,0,0,.2,1.12l0.4,0.46Zm-27.7-13.12,0.07-.58a1.12,1.12,0,0,1,.32-0.67,4.55,4.55,0,0,1,.85-0.56,3.25,3.25,0,0,0,1-.92l1.52-2.1,0.85-.68,0.1-.53,0.51-.79,4.31-6.76,0.18-.25,1.41-2.08a8,8,0,0,0,1.36-2.42,2.82,2.82,0,0,1,0-.54l0.2-.53v-0.46l0.1-.33v-0.42l0-.54-0.26-.63,0.33,0.08,1.26,0.86,0.63,0.2,0.23,0.26,0.36,0.28,0.76,0.76a3.85,3.85,0,0,0,.48.37l0.16,0.77,0.44,1.09a6.21,6.21,0,0,1-.13.77,5.92,5.92,0,0,1-.35,1.17,2.81,2.81,0,0,1-1,1.11,3.15,3.15,0,0,0-.89.78,0.73,0.73,0,0,0,0,.35v0.25l2.93-1.18,1-.46a3.64,3.64,0,0,1,.61-0.08,2.64,2.64,0,0,1,1.24.26l1.06,1c0.12,0.09.24,0.06,0.35-.1a0.85,0.85,0,0,1,.41.08,1.21,1.21,0,0,1,.22.37l0.31,0.76a3.83,3.83,0,0,1,.53-0.21l0.84-.15,0.63-.63,1.79-1.37,0.91-.74,1.72-.84,1.27-1.06,0.91-.38a2.06,2.06,0,0,1,.32-0.12l0.68,0.05L506,176a1.65,1.65,0,0,1,.4.1l0.74,0.91,0.48,0.33,0.55,0.63,2.13,1.49a2.59,2.59,0,0,1,.86,1.82,3.33,3.33,0,0,1-.49,1.84l-0.85,1.37-0.33,1.27a5.34,5.34,0,0,1-.56.8,3.11,3.11,0,0,0-.56.92l-1.52,4.05-0.11.76c0.61,0.49.89,0.83,0.8,1l-0.17.48a9.84,9.84,0,0,1,1.83.46,2.58,2.58,0,0,1,1.17.9,2,2,0,0,1,.46,1.18,2.06,2.06,0,0,1-1.21,1.62l-1.56,1.37a4.54,4.54,0,0,1-1,.65l-1.16.54a1.79,1.79,0,0,0-.79.68l4.28,1.34,2.74,0.79,0.76,0.44,1,0.4a3.28,3.28,0,0,1,.41.3l0.6,0.81,0.49,0.38a1,1,0,0,1,.12.2l0,0.56a0.61,0.61,0,0,0,.16.35l0.83,1.17a2.05,2.05,0,0,1,.21.91,1.15,1.15,0,0,1-.36.8,0.61,0.61,0,0,1-.8,0L512.66,208a1.36,1.36,0,0,1-.27.16,3.13,3.13,0,0,1-.72-0.86l-1.61-1c-0.36-.26-0.55-0.39-0.55-0.4l-3.17-1.4a0.77,0.77,0,0,0-.93.46l-0.28.49-1.49,2-0.66.84-0.15.51-1.7,2.16-0.56.9-0.68.87-0.83,1.64a1.6,1.6,0,0,1-1.11.78,2.09,2.09,0,0,1-1.4-.87,9.74,9.74,0,0,1-2.26-3.42,15.27,15.27,0,0,1-.23-2l-0.25-3v-2.23l0.42-5.79,1.17-7.54,0.18-3.24a3.29,3.29,0,0,0-.18-1.77l-1.12-.86-0.16-.91-0.25-.38-2.28,1.37-0.56.35-0.4.44-0.76.4-0.42.65,2.42,1.58a1,1,0,0,1,.22,1,1.72,1.72,0,0,1-.5,1.14l-0.79.49a4.37,4.37,0,0,0-.78.74l-1.37,1.54a3.28,3.28,0,0,0-.62.78,1.8,1.8,0,0,0,.68.31,4,4,0,0,1,.85.35l0.37,0.3,0.54,0.33,0.1,0.38,0.55,0.53a1,1,0,0,1,.05.35,1.17,1.17,0,0,1-.68,1.09l-2.68,1.37a0.58,0.58,0,0,0-.28.38l-0.15.91-0.49,1.14-0.18.74a4,4,0,0,0-.16.5l0.1,0.94-0.46.81-0.1.51a2.09,2.09,0,0,0,1.07-.56l2.35-1.93c0.64-.74,1-1.12,1-1.13l0.46-.28a1.29,1.29,0,0,0-.1.35l0.16,1.54s-0.17.33-.44,0.88l-1.14,2.31a1.83,1.83,0,0,0-.09.51,2.14,2.14,0,0,1-.47,1l-1.21,1.56a5.77,5.77,0,0,0-.88,1.35l-0.28,1.54a1.06,1.06,0,0,1-.56.82,1.37,1.37,0,0,1-.91-0.32,6,6,0,0,1-1-.67l-0.35-.61-0.26-.26a5.6,5.6,0,0,1-.07-0.73L483,208.53l0.15-1.4L483,205.84l0.28-.72a2.66,2.66,0,0,0,0-.47,1.56,1.56,0,0,1,0-.54l0.53-3.37-2.68,1.49a5.16,5.16,0,0,1-2.4.68,2.38,2.38,0,0,1-1.54-.23,1,1,0,0,1-.27-0.64,2.74,2.74,0,0,1,.09-0.8l0.5-2.38,2.1-1a11,11,0,0,0,1.64-1.27c0.82-.73,1.37-1.23,1.66-1.53a2.3,2.3,0,0,0,.57-0.9c0.09-.29-0.59-0.85-2-1.66a2.71,2.71,0,0,1-1-1,1.77,1.77,0,0,1-.44-1.13,0.51,0.51,0,0,1,.26-0.4h0.51a2.28,2.28,0,0,0,.65-0.26l1-.37,1.07-.84,1-.58,1.8-1.63c0.49-.44.74-0.67,0.76-0.7l0.16-.53a6.51,6.51,0,0,0-1.62-.46,5.86,5.86,0,0,1-.89-0.16,1.46,1.46,0,0,0-.38-0.07,0.92,0.92,0,0,0-.37.11,1.71,1.71,0,0,0-.51.7,3.61,3.61,0,0,1-.51.78l-0.38.35-0.32.65-1.12,1.19-0.28.61-1,.63a4.26,4.26,0,0,0-.5.9,3.9,3.9,0,0,1-.59,1l-1,.6-1.26,1.3a2,2,0,0,0-.51.25l-0.18.38a2.27,2.27,0,0,1-.23.23l-0.66.66-0.81.32-0.39.28a0.39,0.39,0,0,1-.59-0.12,1.34,1.34,0,0,1-.31-0.35l-0.12-.66-0.18-.23a3.59,3.59,0,0,0,.1-0.35h0Z" transform="translate(-26.06 -159.38)"/><path class="a" d="M546,210.09l0.84,0.33a0.3,0.3,0,0,0,.12-0.28,0.49,0.49,0,0,0-.25-0.28l-1.6-.81-0.4-.83-1.17-.87-0.25-.27-0.93-.64-0.21-.25h0.53l3.32,1.7a6.66,6.66,0,0,0,2.94.69c1.13,0,1.81-.15,2-0.52a3,3,0,0,0,.42-0.91l0.05-.53,0.1-.82,0-3.14,0-1.87-0.35-2.08a4.77,4.77,0,0,1,0-.68l-0.08-2.56a4.59,4.59,0,0,0-.27-2.4,4.74,4.74,0,0,0-1.32-.7,6.4,6.4,0,0,0-1.63-.5,3.27,3.27,0,0,0-1.7.8L544,194.21l-0.74.35a5.05,5.05,0,0,1-.81.38H541.9l-0.48.12a1.37,1.37,0,0,1-1.42-.42,2.1,2.1,0,0,1-.48-1.63,2.67,2.67,0,0,1,.05-0.46,3.54,3.54,0,0,0,0-.42l-0.15-1s0.15-.24.42-0.65a4.79,4.79,0,0,1,.64-0.82l1.39-.6,0.39-.31c0.23-.18.6-0.46,1.14-0.83a6.23,6.23,0,0,0,1.18-1c0.27-.31.52-0.63,0.77-1a2.7,2.7,0,0,1,.64-0.67l0.61-.33,1.11-1.69,0.54-.49a1.52,1.52,0,0,0,.53-1.06,1.36,1.36,0,0,0-.09-0.29,2.06,2.06,0,0,0-.42-0.51l-0.45-.45-0.74-.35-0.74-.86a1.3,1.3,0,0,0-.65-0.36,2,2,0,0,0-.8.25,3.39,3.39,0,0,0-1.14,1c-0.41.54-.66,0.68-0.75,0.41a0.66,0.66,0,0,1,.18-0.69l2.35-2.42,0.51-.77a0.79,0.79,0,0,1,.46-0.2l0.65,0.07,0.51-.23,0.51,0.21a5.88,5.88,0,0,0,1.42-.61l1-.3,0.84-.33a4.53,4.53,0,0,1,1-.07,2.74,2.74,0,0,1,1.2.47,12.2,12.2,0,0,1,1.1.72,1.81,1.81,0,0,1,.72,1.47,2,2,0,0,1-.49,1.32l-4.07,4.61-2.35,2.33a4.68,4.68,0,0,0-1.25,1.51,0.45,0.45,0,0,0,.13.36l0.93-.26,0.44-.1,0.4-.42,0.38,0,0.58-.28h0.53l0.54-.4,0.53,0,1.16-.49,1.73-.27,3.44-1.1a1.32,1.32,0,0,1,.36,0,11.39,11.39,0,0,0,1.3.06,2.73,2.73,0,0,1,1.71.56,4.43,4.43,0,0,1,.86.82l0.28,0.53,0.83,1c0,0.06,0,.28,0,0.64a1.32,1.32,0,0,1-.3.9,1.66,1.66,0,0,1-.7.53l-1.19-.1-0.46.05-0.63-.15-2,.3-0.59-.16-0.78,0-1.54-.38a1.16,1.16,0,0,0-.74.24,0.52,0.52,0,0,0-.28.37l0.81,0.7,0,0.23,0,3.63,0,1.95-0.26,1.84,0.23,2.21-0.07.7,0.16,3.75-0.19.42,0.19,0.61,0,4.56a6.38,6.38,0,0,1-.24,1.14,6,6,0,0,1-.44,1.16,1.72,1.72,0,0,1-.44.58l-0.56.38-0.26,1a0.68,0.68,0,0,1-.68.32,1.31,1.31,0,0,1-.91-0.32l-2.67-2.38-1-.66-1-.81a5.65,5.65,0,0,1-.81-0.46l-0.21-.37,0.1-.08h0Zm-21.54-13,0.1,0.61a0.19,0.19,0,0,0,.2.12,1.5,1.5,0,0,0,.66-0.48,13.38,13.38,0,0,0,1.21-1.4l0.89-1.09,0.45-.74,1.37-1.19,0.24-.73a4,4,0,0,1,.52-0.65,1.36,1.36,0,0,0,.44-0.75l0.08-.83a2,2,0,0,0,1-.37,5.31,5.31,0,0,0,.51-1.08,3.75,3.75,0,0,1,1-1.44,2.86,2.86,0,0,0,.65-0.7l-0.05-.54,0.46-.58a0.61,0.61,0,0,0,0-.11,3,3,0,0,1,0-.46,1.31,1.31,0,0,0-.11-0.62,1.11,1.11,0,0,0-1-.48,2.47,2.47,0,0,0-1,.2l-1.24.68c-0.57.19-1,.31-1.17,0.36a0.54,0.54,0,0,1-.57-0.31,1.69,1.69,0,0,1-.21-0.78l-0.18-1v-1l0-.58a2.45,2.45,0,0,1,.41-1.47l0.27-.38a3.81,3.81,0,0,1,.37-0.5,3,3,0,0,1,.75-0.2,7.53,7.53,0,0,0,2.33-1.36,5,5,0,0,0,1.9-2l0.05-1.32a0.84,0.84,0,0,1,.68-0.86l0.3,0.05,1,0.05,0.81,0.58,0.51,0.07a5.33,5.33,0,0,0,.46.51l0.68,0.61,0.23,0.42,0.44,0.44a5.66,5.66,0,0,1,.27.74l0.59,1.72a2.65,2.65,0,0,1-.38,1.21,1.21,1.21,0,0,1-.68.63l-1.3.21-0.63.23-0.68.25a2.32,2.32,0,0,0-1.15.75c-0.1.23,0.23,0.83,1,1.79l0.66,1.32,0.51,0.7a5.12,5.12,0,0,1,.3,2.1,1.57,1.57,0,0,1-.44,1.21l-1.09.74a8.45,8.45,0,0,0-1.11,1.21,15.92,15.92,0,0,0-1.24,1.69,5.32,5.32,0,0,0-.52.93,8.89,8.89,0,0,0-.06,1.46v3.37l-0.38,1.51-0.53,4a0.16,0.16,0,0,0,0,.08,1.2,1.2,0,0,0,.06.37l0.08,0.58,0.46,0.44,0.09-.1,1.15-5.14a9.35,9.35,0,0,1,.55-2.16h0.33L535,201.18l-0.2,1.09,0.2,1.09-0.23,2-0.2,2.44-0.31,1.65,0.05,1.49-0.1.76a1.63,1.63,0,0,1-.09.54,0.42,0.42,0,0,1-.36.21,0.85,0.85,0,0,1-.65-0.31,4.94,4.94,0,0,1-1.07-1.54c-0.35-.73-0.6-1.29-0.76-1.68a8.2,8.2,0,0,1-.4-1.4,9.92,9.92,0,0,0-.27-1.06,0.62,0.62,0,0,1-.06-0.32l0.38-4.56,0.07-.35,0.35-4.41-0.42-.2-3.12,3.09L526.53,201a12.91,12.91,0,0,1-1.39.84l-1.6.42a1.54,1.54,0,0,1-.68.31,0.47,0.47,0,0,1-.23-0.48,6,6,0,0,1,.18-1.63L523,199.3l0.23-.65a2,2,0,0,1,.23-0.56l0.49-.46,0.15-.53a0.59,0.59,0,0,1,.33,0h0Z" transform="translate(-26.06 -159.38)"/></svg>