<svg xmlns="http://www.w3.org/2000/svg" viewBox="0 0 536.97 153.99"><defs><style>.a{fill:#231815;}.b{fill:#fccf00;}.b,.c{fill-rule:evenodd;}.c{fill:#00449a;}</style></defs><title>Bank of Shanghai</title><path class="a" d="M286.8,202.69h-74l-1.47,1-2.45-2.93h30.85V168.41c-0.11-1.8-.19-3.64-0.25-5.51s-0.18-6.76-.4-14.65-0.33-13.74-.33-17.55h0.49a13.09,13.09,0,0,0,1.47-.08,21.62,21.62,0,0,1,6.16.78,15.44,15.44,0,0,1,4.61,2.24l-2.45,3.43v24.49h15.18l6.86-7.84,9.8,8.33v1H249.09v37.72h21.55l6.85-7.35,9.31,8.33v1Z" transform="translate(-26.47 -113.7)"/><path class="a" d="M315.37,174.28a13.61,13.61,0,0,0-.16,1.88c-0.17,2-.24,3.59-0.24,4.74a50.29,50.29,0,0,0,.28,5.55,24.32,24.32,0,0,0,1.1,5,10,10,0,0,1,2.12,6,7.38,7.38,0,0,1-1.59,4.86,5.39,5.39,0,0,1-4.37,1.91,4.81,4.81,0,0,1-1.06-.08,6.73,6.73,0,0,1-4.2-2.86,8.55,8.55,0,0,1-1.59-5,6,6,0,0,1,.41-2.45q0.08-.49.12-1.1c0-.41,0-0.72,0-0.94a12.4,12.4,0,0,0-1.06-5.23,11.59,11.59,0,0,0-5.47-5.46,21.14,21.14,0,0,0,3.42-.74,9.53,9.53,0,0,0,5.39-4.16L323.2,142Zm-2.45-15.18a3.37,3.37,0,0,1-1.43,2.36,4.43,4.43,0,0,1-2.57.82,4.51,4.51,0,0,1-3-1.14,3.84,3.84,0,0,1-1.3-3,15.44,15.44,0,0,0-.24-3.11,9.9,9.9,0,0,0-3.19-5.71,31.17,31.17,0,0,1,7.76,2.12c2.77,1.36,4.16,3.32,4.16,5.88A7.72,7.72,0,0,1,312.92,159.11Zm7.84-19.59a5,5,0,0,1-1.88,2.73,4.9,4.9,0,0,1-2.95,1,4.48,4.48,0,0,1-3.18-1.22,4.57,4.57,0,0,1-1.31-3.51c-0.11-.65-0.22-1.19-0.33-1.63A11.37,11.37,0,0,0,307,130.7a36.31,36.31,0,0,1,8.82,1.63q5,1.88,5,6.12A6,6,0,0,1,320.76,139.52ZM380,172.82h-14.2l-2,17.63h1l5.88-5.87,6.36,6.85v1H363.36a24.73,24.73,0,0,1-2.61,6.36q-4.25,6.36-12.57,6.37c-0.39-.82-0.71-1.47-1-2a15.41,15.41,0,0,0-6.86-6.37,11.07,11.07,0,0,0,1.84.33c0.62,0.05,1.18.08,1.68,0.08a15.38,15.38,0,0,0,5.31-.82,11.77,11.77,0,0,0,5.38-4H331l-2.45,2.45L321.74,188l2.44-2.45,2.94-12.73H323.2l-1.47.5-2.94-2.46h8.82L331,149.8l8.32,2.94H356l3.43-3.92,9.3,4.9-2.45,3.43c-0.11,1.69-.22,3.67-0.33,6s-0.17,4.87-.17,7.75h1l5.38-5.87,7.84,6.86v1Zm-2.94-29.38H335q-2.44,3-4.16,4.9a87,87,0,0,1-10,9.8,32.16,32.16,0,0,0,2.36-4.08,97.06,97.06,0,0,0,5-10.78,82.27,82.27,0,0,0,4.41-15l12.24,3.92L335.94,142h26l6.86-6.85,8.32,7.34v1ZM358,172.82H335.45L332,190.45h23.51q0.49-3.26.82-5.47Q357.48,177.39,358,172.82Zm0.49-19.1H338.87l-2.94,17.14h22q0.16-3.26.32-7.55T358.46,153.72Zm-8.82,30.86a3.83,3.83,0,0,1-1.75,2.41,5.5,5.5,0,0,1-3.06.93,3.72,3.72,0,0,1-2.49-.85,3.05,3.05,0,0,1-1-2.49c0.11-.33.22-0.72,0.33-1.18a8.29,8.29,0,0,0,.16-1.84,9.74,9.74,0,0,0-.56-3.14,9.3,9.3,0,0,0-1.88-3.14,19.61,19.61,0,0,1,5.15,1.15Q349.65,178.69,349.64,184.58Zm2-18.61a5,5,0,0,1-2,2.41,5.48,5.48,0,0,1-3.06.94c-2.28,0-3.54-1.11-3.75-3.35a7.85,7.85,0,0,0,.28-1.34,11.7,11.7,0,0,0,.12-1.68,14.24,14.24,0,0,0-.37-3.39,11.93,11.93,0,0,0-1.51-3.39,22.76,22.76,0,0,1,6.86,2.45q3.59,2.2,3.59,5.63A7,7,0,0,1,351.61,166Z" transform="translate(-26.47 -113.7)"/><path class="a" d="M425.72,145.88H404.17c-1.19,2.07-2.23,3.73-3.1,5a35.75,35.75,0,0,1-8.65,8.73,28.41,28.41,0,0,0,2-4.25,96.4,96.4,0,0,0,4.17-11.26,79.94,79.94,0,0,0,3.1-15.84c1.68,0.27,3,.55,4.08.81a37.79,37.79,0,0,1,8.17,3.11l-2.94,2q-1.06,2-1.79,3.27-2,3.5-4.08,7h10.28l5.39-5.39,4.9,5.88v1Zm1,37.87L410,203.92l-4.9-7.18a4.14,4.14,0,0,0,.33-0.82,13.21,13.21,0,0,0,.74-4.41v-18.7h-7.84l-1.47.5-2.94-2.46h12.25V159.6h-4.41l-1.47,1-2.94-2.45H413l4.89-5.39,5.39,5.88v1h-8.33l-2,2v9.3h2.44l5.39-4.89,4.9,5.38v1.47H413V191.1Zm45.54,13.55c-1.46.65-2.66,1.22-3.58,1.71a47.81,47.81,0,0,0-7.67,5.14,37.06,37.06,0,0,1-6.94-7.67,92.58,92.58,0,0,1-5.15-9.13l-16.65,17.79-5-7.35a5.46,5.46,0,0,0,.41-1.22,11.4,11.4,0,0,0,.49-3.1V137.55l-0.49-5.87c1,0.49,1.93.9,2.7,1.23,2.22,0.92,4.76,1.82,7.58,2.69h14.2l3.43-3.42,8.81,4.4-2,2.45,1,26.93c-0.54.33-1,.57-1.3,0.73a8,8,0,0,1-3.26.81,5.09,5.09,0,0,1-3.75-1.55H445.8q0.82,2.69,1.39,4.48a75.85,75.85,0,0,0,4,9.72L460,168.41c0.93,0.33,1.67.6,2.21,0.81a24.69,24.69,0,0,1,8.07,5.06l-18.61,6.86,2.46,3.26a46.64,46.64,0,0,0,7.1,6.94A33.7,33.7,0,0,0,472.24,197.31Zm-17.13-47V137.07H438l-2,2v11.26h19.1Zm0,13.72V152.25H436V164h19.1Zm-10.28,2H436v27.1l12.41-6.21q-1.23-3.75-1.8-6.28A64.32,64.32,0,0,1,444.82,166Z" transform="translate(-26.47 -113.7)"/><path class="a" d="M515.51,137.55l-4.41,2.61q-5,2.86-11.1,6-8,4.08-14.37,6.61,1.71-1.62,3.43-3.35,4.65-4.57,8.16-8.4,5.63-6.2,9.46-11.26c1.31,0.87,2.34,1.61,3.1,2.2A33.61,33.61,0,0,1,515.51,137.55Zm1,16.16-1.79,1a22.19,22.19,0,0,0-7,6.37l3.43,2-1.47,2,0.49,38.69a8.51,8.51,0,0,1-1.63.66,13,13,0,0,1-3.92.65,10.27,10.27,0,0,1-2.49-.28,7.7,7.7,0,0,1-2.24-1l1-37.22q-2.45,2.29-4.17,3.67a54,54,0,0,1-10.52,6.61,47.42,47.42,0,0,0,3.51-4.09,132,132,0,0,0,8.08-10.77,106.43,106.43,0,0,0,8.49-15c1.52,0.65,2.74,1.23,3.67,1.71A24.71,24.71,0,0,1,516.48,153.72Zm46,6.86H551.25L548.81,163l1,37.23a19.93,19.93,0,0,1-2.93,2,16,16,0,0,1-7.76,2,17.25,17.25,0,0,1-2-.17,26.86,26.86,0,0,0-2-3.51,17.13,17.13,0,0,0-6.85-5.79c0.65,0.22,1.19.38,1.63,0.49a17.84,17.84,0,0,0,4.16.49,17.16,17.16,0,0,0,3.3-.28,12,12,0,0,0,3.15-1.19V160.58H518.93l-2,1-2.45-2.94h32.81l6.86-6.37,8.33,7.34v1ZM556.64,139H523.83l-1.46,1-2.45-2.94h23l6.37-5.38,7.34,6.37v1Z" transform="translate(-26.47 -113.7)"/><path class="a" d="M230.63,242.63a10,10,0,0,1-.4,2.89,8.44,8.44,0,0,1-1.12,2.38,8.11,8.11,0,0,1-1.74,1.85,9.84,9.84,0,0,1-2.29,1.34,13.27,13.27,0,0,1-2.73.81,18.15,18.15,0,0,1-3.34.27H210.3a1.83,1.83,0,0,1-1.12-.4,1.65,1.65,0,0,1-.53-1.4V220.64a1.65,1.65,0,0,1,.53-1.4,1.81,1.81,0,0,1,1.12-.4h7.56a17.33,17.33,0,0,1,4.88.57,8.5,8.5,0,0,1,3.18,1.65,6.85,6.85,0,0,1,1.91,2.66,9.31,9.31,0,0,1,.65,3.56,9,9,0,0,1-.28,2.28,7.73,7.73,0,0,1-.84,2,6.69,6.69,0,0,1-1.39,1.63,7.24,7.24,0,0,1-1.92,1.18,8.44,8.44,0,0,1,2.56.95,7.71,7.71,0,0,1,2.08,1.74,8.05,8.05,0,0,1,1.41,2.47A9,9,0,0,1,230.63,242.63Zm-6.72-14.93a6.93,6.93,0,0,0-.34-2.21,4.16,4.16,0,0,0-1.05-1.67,4.75,4.75,0,0,0-1.87-1.05,10.43,10.43,0,0,0-3-.36h-4.56v10.86h5a7.06,7.06,0,0,0,2.77-.45,4.9,4.9,0,0,0,1.74-1.22,4.78,4.78,0,0,0,1-1.79A7.12,7.12,0,0,0,223.91,227.7ZM226,242.89a6.69,6.69,0,0,0-.48-2.63,5,5,0,0,0-1.39-1.91,6.22,6.22,0,0,0-2.3-1.17,12.48,12.48,0,0,0-3.47-.4h-5.3v11.74h6.44a8.66,8.66,0,0,0,2.65-.36,5.89,5.89,0,0,0,2-1.06,5,5,0,0,0,1.36-1.76A5.83,5.83,0,0,0,226,242.89Z" transform="translate(-26.47 -113.7)"/><path class="a" d="M253.53,251.53a0.54,0.54,0,0,1-.2.46,1.46,1.46,0,0,1-.56.23,5.4,5.4,0,0,1-1.05.08,5.94,5.94,0,0,1-1.06-.08,1.25,1.25,0,0,1-.57-0.23,0.56,0.56,0,0,1-.18-0.46V249.2a11.86,11.86,0,0,1-3.39,2.55,8.83,8.83,0,0,1-4,.92,10.77,10.77,0,0,1-3.31-.48,7.08,7.08,0,0,1-2.53-1.38,6.16,6.16,0,0,1-1.62-2.21,7.28,7.28,0,0,1-.58-3,6.87,6.87,0,0,1,.81-3.4,6.6,6.6,0,0,1,2.28-2.39,11.48,11.48,0,0,1,3.66-1.43,22.8,22.8,0,0,1,4.87-.48h3.2v-1.8a9.25,9.25,0,0,0-.28-2.38,4.09,4.09,0,0,0-.91-1.72,4,4,0,0,0-1.64-1,7.69,7.69,0,0,0-2.47-.34,9.89,9.89,0,0,0-2.82.38,15,15,0,0,0-2.19.82c-0.62.3-1.15,0.57-1.57,0.82a2.21,2.21,0,0,1-.94.37,0.68,0.68,0,0,1-.36-0.1,1,1,0,0,1-.27-0.31,1.63,1.63,0,0,1-.17-0.52,4.33,4.33,0,0,1-.05-0.71,4.84,4.84,0,0,1,.09-1,1.48,1.48,0,0,1,.44-0.71,5.46,5.46,0,0,1,1.2-.78,13.3,13.3,0,0,1,2-.82,17.59,17.59,0,0,1,2.42-.62,14.66,14.66,0,0,1,2.65-.25,13.93,13.93,0,0,1,4.25.57,6.86,6.86,0,0,1,2.83,1.66,6.44,6.44,0,0,1,1.57,2.71,13.2,13.2,0,0,1,.49,3.79v15.62ZM249.33,241h-3.64a13.73,13.73,0,0,0-3,.29,6.23,6.23,0,0,0-2.15.88,3.61,3.61,0,0,0-1.25,1.39,4.08,4.08,0,0,0-.4,1.86,3.72,3.72,0,0,0,1.15,2.86,4.53,4.53,0,0,0,3.22,1.07,6,6,0,0,0,3.11-.85,13.38,13.38,0,0,0,3-2.59V241Z" transform="translate(-26.47 -113.7)"/><path class="a" d="M280.55,251.5a0.58,0.58,0,0,1-.11.35,0.86,0.86,0,0,1-.34.24,2.47,2.47,0,0,1-.65.16,9.08,9.08,0,0,1-1,.05,9.38,9.38,0,0,1-1.06-.05,2.64,2.64,0,0,1-.65-0.15,0.86,0.86,0,0,1-.34-0.25,0.57,0.57,0,0,1-.1-0.35V238a13.52,13.52,0,0,0-.31-3.19,6.83,6.83,0,0,0-.9-2.08,3.87,3.87,0,0,0-1.53-1.34,4.85,4.85,0,0,0-2.17-.46,5.44,5.44,0,0,0-3.19,1.13,17.33,17.33,0,0,0-3.34,3.31V251.5a0.54,0.54,0,0,1-.11.35,0.86,0.86,0,0,1-.34.25,2.65,2.65,0,0,1-.64.15,9.5,9.5,0,0,1-1.06.05,9.17,9.17,0,0,1-1-.05,2.55,2.55,0,0,1-.66-0.16,0.69,0.69,0,0,1-.34-0.24,0.58,0.58,0,0,1-.09-0.35V228.3a0.73,0.73,0,0,1,.07-0.35,0.69,0.69,0,0,1,.31-0.26,1.85,1.85,0,0,1,.6-0.15,10.94,10.94,0,0,1,1.9,0,1.6,1.6,0,0,1,.59.15,0.87,0.87,0,0,1,.29.26,0.6,0.6,0,0,1,.09.35v3.07a14.36,14.36,0,0,1,3.91-3.18,8.52,8.52,0,0,1,3.92-1,8.73,8.73,0,0,1,3.9.79,7,7,0,0,1,2.56,2.1,8.36,8.36,0,0,1,1.4,3.08,18.18,18.18,0,0,1,.43,4.23V251.5Z" transform="translate(-26.47 -113.7)"/><path class="a" d="M306.56,251.47a0.62,0.62,0,0,1-.11.36,0.75,0.75,0,0,1-.34.26,2.66,2.66,0,0,1-.68.16,10.36,10.36,0,0,1-1.11.05q-0.69,0-1.14,0a3.4,3.4,0,0,1-.76-0.13,1.34,1.34,0,0,1-.5-0.26,2.24,2.24,0,0,1-.34-0.4l-9.76-12.84v12.86a0.56,0.56,0,0,1-.11.35,0.9,0.9,0,0,1-.34.24,2.52,2.52,0,0,1-.65.16,9.56,9.56,0,0,1-1.07.05,9.11,9.11,0,0,1-1-.05,2.64,2.64,0,0,1-.66-0.16,0.74,0.74,0,0,1-.34-0.24,0.65,0.65,0,0,1-.09-0.35V217.09a0.71,0.71,0,0,1,.09-0.36,0.69,0.69,0,0,1,.34-0.26,2.86,2.86,0,0,1,.66-0.16,9.11,9.11,0,0,1,1-.05,9.56,9.56,0,0,1,1.07.05,2.73,2.73,0,0,1,.65.16,0.83,0.83,0,0,1,.34.26,0.6,0.6,0,0,1,.11.36v21l8.73-9.64A2.12,2.12,0,0,1,301,228a2.3,2.3,0,0,1,.55-0.28,3.11,3.11,0,0,1,.76-0.15c0.29,0,.64,0,1.06,0s0.78,0,1.08,0a2.58,2.58,0,0,1,.7.13,0.79,0.79,0,0,1,.39.22,0.59,0.59,0,0,1,.12.38,1.37,1.37,0,0,1-.17.62,4,4,0,0,1-.56.73l-8.32,8.4,9.36,12.24a5,5,0,0,1,.48.71A1.11,1.11,0,0,1,306.56,251.47Z" transform="translate(-26.47 -113.7)"/><path class="a" d="M343.49,239.69a17.45,17.45,0,0,1-.75,5.21,11.6,11.6,0,0,1-2.24,4.11,10.16,10.16,0,0,1-3.71,2.69,13.07,13.07,0,0,1-5.18,1,13.39,13.39,0,0,1-5-.85,9.07,9.07,0,0,1-3.54-2.47A10.5,10.5,0,0,1,321,245.4a18.26,18.26,0,0,1-.7-5.26,17.59,17.59,0,0,1,.74-5.22,11.39,11.39,0,0,1,2.21-4.11,10,10,0,0,1,3.71-2.68,13,13,0,0,1,5.19-1,13.46,13.46,0,0,1,5,.85,9.17,9.17,0,0,1,3.55,2.47,10.61,10.61,0,0,1,2.13,3.95A17.88,17.88,0,0,1,343.49,239.69Zm-4.4.29a16.67,16.67,0,0,0-.36-3.55,8.6,8.6,0,0,0-1.16-2.93,5.68,5.68,0,0,0-2.19-2,8.41,8.41,0,0,0-6.72-.06,5.93,5.93,0,0,0-2.25,1.89,8.41,8.41,0,0,0-1.32,2.89,14.81,14.81,0,0,0-.43,3.66,17.41,17.41,0,0,0,.35,3.58,8.47,8.47,0,0,0,1.18,2.92,6,6,0,0,0,2.21,2,7.33,7.33,0,0,0,3.45.73,7.44,7.44,0,0,0,3.26-.67,6,6,0,0,0,2.27-1.88,8.27,8.27,0,0,0,1.31-2.88A15.35,15.35,0,0,0,339.09,240Z" transform="translate(-26.47 -113.7)"/><path class="a" d="M361.63,218.77a4.83,4.83,0,0,1-.05.78,3,3,0,0,1-.11.48,0.48,0.48,0,0,1-.17.24,0.53,0.53,0,0,1-.26.06,1.16,1.16,0,0,1-.45-0.12l-0.66-.26a8.13,8.13,0,0,0-.92-0.25,6,6,0,0,0-1.23-.11,3.9,3.9,0,0,0-1.63.31,2.56,2.56,0,0,0-1.08,1,4.61,4.61,0,0,0-.6,1.7,15.28,15.28,0,0,0-.18,2.54v2.52h5.17a0.59,0.59,0,0,1,.35.09,0.74,0.74,0,0,1,.26.31,1.94,1.94,0,0,1,.18.55,4.1,4.1,0,0,1,.07.82,2.8,2.8,0,0,1-.24,1.33,0.68,0.68,0,0,1-.62.41h-5.17v20.35a0.57,0.57,0,0,1-.11.35,0.76,0.76,0,0,1-.34.24,2.7,2.7,0,0,1-.66.16,10.53,10.53,0,0,1-2.06,0,2.7,2.7,0,0,1-.66-0.16,0.83,0.83,0,0,1-.34-0.24,0.56,0.56,0,0,1-.1-0.35V231.14h-3.26a0.66,0.66,0,0,1-.62-0.41,3.15,3.15,0,0,1-.2-1.33,5.21,5.21,0,0,1,.05-0.82,2,2,0,0,1,.15-0.55,0.63,0.63,0,0,1,.26-0.31,0.68,0.68,0,0,1,.36-0.09H350v-2.39a16.83,16.83,0,0,1,.45-4.16,7.13,7.13,0,0,1,1.38-2.84,5.58,5.58,0,0,1,2.33-1.64,9.66,9.66,0,0,1,3.32-.52,9.2,9.2,0,0,1,1.75.17,8.08,8.08,0,0,1,1.32.36,2.24,2.24,0,0,1,.62.35,1.23,1.23,0,0,1,.26.4,2.35,2.35,0,0,1,.14.59C361.62,218.16,361.63,218.45,361.63,218.77Z" transform="translate(-26.47 -113.7)"/><path class="a" d="M399.68,242.82a9.69,9.69,0,0,1-.86,4.18,9,9,0,0,1-2.4,3.11A10.45,10.45,0,0,1,392.8,252a15.07,15.07,0,0,1-4.48.64,16.1,16.1,0,0,1-3.11-.28,17.2,17.2,0,0,1-2.56-.69,13,13,0,0,1-1.88-.85,5,5,0,0,1-1.06-.75,1.84,1.84,0,0,1-.44-0.78,4.51,4.51,0,0,1-.14-1.27,7.56,7.56,0,0,1,.05-0.94,2.14,2.14,0,0,1,.16-0.6,0.6,0.6,0,0,1,.25-0.32,0.68,0.68,0,0,1,.36-0.09,2.1,2.1,0,0,1,1,.44,15.38,15.38,0,0,0,1.68,1,16.39,16.39,0,0,0,2.5,1,11.11,11.11,0,0,0,3.36.45,8.81,8.81,0,0,0,2.65-.39,6.26,6.26,0,0,0,2.06-1.1,4.8,4.8,0,0,0,1.33-1.74,5.76,5.76,0,0,0,.46-2.36,4.43,4.43,0,0,0-.64-2.42,6.63,6.63,0,0,0-1.71-1.77,15.24,15.24,0,0,0-2.41-1.39l-2.77-1.29a31.09,31.09,0,0,1-2.76-1.45,11.6,11.6,0,0,1-2.39-1.89,8.57,8.57,0,0,1-1.72-2.53,8.41,8.41,0,0,1-.66-3.49,8.86,8.86,0,0,1,.76-3.73,7.75,7.75,0,0,1,2.12-2.75,9.57,9.57,0,0,1,3.22-1.69,13.78,13.78,0,0,1,4-.58,13.19,13.19,0,0,1,2.24.2,15,15,0,0,1,2.11.51,12.17,12.17,0,0,1,1.77.72,5.27,5.27,0,0,1,1,.64,2.19,2.19,0,0,1,.32.39,1.65,1.65,0,0,1,.13.36,3.61,3.61,0,0,1,.07.53,7.84,7.84,0,0,1,0,.8,7.68,7.68,0,0,1,0,.84,3.09,3.09,0,0,1-.11.61,0.77,0.77,0,0,1-.22.37,0.51,0.51,0,0,1-.32.11,2,2,0,0,1-.89-0.36c-0.4-.24-0.89-0.51-1.49-0.81a12.21,12.21,0,0,0-2.07-.83A9,9,0,0,0,390,222a7.13,7.13,0,0,0-2.42.38,4.88,4.88,0,0,0-1.7,1,4,4,0,0,0-1,1.46,4.93,4.93,0,0,0-.34,1.8,4.33,4.33,0,0,0,.64,2.4,6.77,6.77,0,0,0,1.72,1.78,14.78,14.78,0,0,0,2.44,1.41l2.79,1.3q1.42,0.66,2.79,1.45a11.63,11.63,0,0,1,2.44,1.85A8.08,8.08,0,0,1,399.68,242.82Z" transform="translate(-26.47 -113.7)"/><path class="a" d="M424.72,251.5a0.55,0.55,0,0,1-.11.35,0.79,0.79,0,0,1-.34.24,2.48,2.48,0,0,1-.64.16,9.23,9.23,0,0,1-1,.05,9.32,9.32,0,0,1-1.06-.05,2.69,2.69,0,0,1-.65-0.15,0.91,0.91,0,0,1-.34-0.25,0.57,0.57,0,0,1-.1-0.35V238a13.25,13.25,0,0,0-.31-3.19,6.61,6.61,0,0,0-.9-2.08,3.9,3.9,0,0,0-1.53-1.34,4.87,4.87,0,0,0-2.17-.46,5.47,5.47,0,0,0-3.19,1.13,17.32,17.32,0,0,0-3.33,3.31V251.5a0.55,0.55,0,0,1-.11.35,0.84,0.84,0,0,1-.34.25,2.65,2.65,0,0,1-.64.15,9.48,9.48,0,0,1-1.07.05,8.88,8.88,0,0,1-1-.05,2.78,2.78,0,0,1-.67-0.16,0.75,0.75,0,0,1-.33-0.24,0.65,0.65,0,0,1-.09-0.35V217.09a0.71,0.71,0,0,1,.09-0.36,0.7,0.7,0,0,1,.33-0.26,3,3,0,0,1,.67-0.16,8.88,8.88,0,0,1,1-.05,9.48,9.48,0,0,1,1.07.05,2.63,2.63,0,0,1,.64.16,0.74,0.74,0,0,1,.34.26,0.62,0.62,0,0,1,.11.36V231a13.8,13.8,0,0,1,3.67-2.86,8.2,8.2,0,0,1,3.73-.95,8.71,8.71,0,0,1,3.9.79,7.07,7.07,0,0,1,2.56,2.1,8.29,8.29,0,0,1,1.4,3.08,18.57,18.57,0,0,1,.43,4.25v14.1Z" transform="translate(-26.47 -113.7)"/><path class="a" d="M449.16,251.53a0.56,0.56,0,0,1-.21.46,1.46,1.46,0,0,1-.57.23,5.38,5.38,0,0,1-1,.08,5.91,5.91,0,0,1-1.06-.08,1.25,1.25,0,0,1-.57-0.23,0.58,0.58,0,0,1-.19-0.46V249.2a11.77,11.77,0,0,1-3.38,2.55,8.82,8.82,0,0,1-4,.92,10.85,10.85,0,0,1-3.32-.48,7.18,7.18,0,0,1-2.52-1.38,6.27,6.27,0,0,1-1.62-2.21,7.43,7.43,0,0,1-.57-3,6.91,6.91,0,0,1,.79-3.4,6.68,6.68,0,0,1,2.3-2.39,11.41,11.41,0,0,1,3.66-1.43,22.8,22.8,0,0,1,4.87-.48H445v-1.8a9,9,0,0,0-.29-2.38,3.8,3.8,0,0,0-2.55-2.75,7.76,7.76,0,0,0-2.48-.34,9.94,9.94,0,0,0-2.82.38,14.91,14.91,0,0,0-2.19.82c-0.63.3-1.15,0.57-1.57,0.82a2.15,2.15,0,0,1-.94.37,0.67,0.67,0,0,1-.36-0.1,1,1,0,0,1-.27-0.31,1.52,1.52,0,0,1-.17-0.52,4.33,4.33,0,0,1-.05-0.71,4.25,4.25,0,0,1,.09-1,1.43,1.43,0,0,1,.43-0.71,5.59,5.59,0,0,1,1.2-.78,13.35,13.35,0,0,1,2-.82,17.6,17.6,0,0,1,2.42-.62,14.6,14.6,0,0,1,2.64-.25,14,14,0,0,1,4.25.57,6.86,6.86,0,0,1,2.83,1.66,6.43,6.43,0,0,1,1.57,2.71,13.18,13.18,0,0,1,.49,3.79v15.62ZM445,241h-3.64a13.8,13.8,0,0,0-3,.29,6.18,6.18,0,0,0-2.14.88,3.52,3.52,0,0,0-1.25,1.39,4.14,4.14,0,0,0-.4,1.86,3.72,3.72,0,0,0,1.15,2.86,4.53,4.53,0,0,0,3.22,1.07,6,6,0,0,0,3.11-.85,13.38,13.38,0,0,0,3-2.59V241Z" transform="translate(-26.47 -113.7)"/><path class="a" d="M476.17,251.5a0.58,0.58,0,0,1-.1.35,0.84,0.84,0,0,1-.34.24,2.38,2.38,0,0,1-.64.16,9.11,9.11,0,0,1-1,.05,9.38,9.38,0,0,1-1.06-.05,2.7,2.7,0,0,1-.65-0.15,0.91,0.91,0,0,1-.34-0.25,0.57,0.57,0,0,1-.11-0.35V238a13.55,13.55,0,0,0-.3-3.19,6.72,6.72,0,0,0-.9-2.08,3.91,3.91,0,0,0-1.53-1.34,4.82,4.82,0,0,0-2.17-.46,5.44,5.44,0,0,0-3.18,1.13,17.34,17.34,0,0,0-3.34,3.31V251.5a0.6,0.6,0,0,1-.1.35,0.93,0.93,0,0,1-.34.25,2.7,2.7,0,0,1-.65.15,9.26,9.26,0,0,1-1.06.05,9.08,9.08,0,0,1-1-.05,2.65,2.65,0,0,1-.66-0.16,0.77,0.77,0,0,1-.34-0.24,0.7,0.7,0,0,1-.09-0.35V228.3a0.79,0.79,0,0,1,.08-0.35,0.68,0.68,0,0,1,.31-0.26,1.73,1.73,0,0,1,.59-0.15,11,11,0,0,1,1.9,0,1.55,1.55,0,0,1,.58.15,0.81,0.81,0,0,1,.3.26,0.6,0.6,0,0,1,.1.35v3.07a14.19,14.19,0,0,1,3.89-3.18,8.53,8.53,0,0,1,3.92-1,8.69,8.69,0,0,1,3.9.79,7,7,0,0,1,2.56,2.1,8.29,8.29,0,0,1,1.4,3.08,18.46,18.46,0,0,1,.42,4.23V251.5Z" transform="translate(-26.47 -113.7)"/><path class="a" d="M502.56,229.36a2.66,2.66,0,0,1-.24,1.31,0.73,0.73,0,0,1-.63.4h-3.33a5.21,5.21,0,0,1,1.27,2,7.56,7.56,0,0,1,.36,2.32,9.18,9.18,0,0,1-.65,3.56,7.21,7.21,0,0,1-1.85,2.62,8.38,8.38,0,0,1-2.86,1.64,11.13,11.13,0,0,1-3.66.57,9.53,9.53,0,0,1-2.69-.38,5.88,5.88,0,0,1-2-.94,3.9,3.9,0,0,0-.77,1.06,3,3,0,0,0-.3,1.37,1.78,1.78,0,0,0,.84,1.5,4.06,4.06,0,0,0,2.24.64l6.07,0.26a12.63,12.63,0,0,1,3.18.48,7.79,7.79,0,0,1,2.5,1.21,5.52,5.52,0,0,1,1.66,1.94,5.81,5.81,0,0,1,.59,2.67,7.13,7.13,0,0,1-.67,3,7,7,0,0,1-2.05,2.54,10.25,10.25,0,0,1-3.52,1.73,17.91,17.91,0,0,1-5.05.63,20.64,20.64,0,0,1-4.78-.48,10.52,10.52,0,0,1-3.24-1.3,5.08,5.08,0,0,1-1.83-2,5.58,5.58,0,0,1-.57-2.49,6.6,6.6,0,0,1,.21-1.65,6,6,0,0,1,.63-1.52,7.71,7.71,0,0,1,1.06-1.38,13.33,13.33,0,0,1,1.45-1.3,4.62,4.62,0,0,1-1.87-1.62,4,4,0,0,1-.6-2.12,6,6,0,0,1,.64-2.81,9,9,0,0,1,1.6-2.23,7.35,7.35,0,0,1-1.27-2.15,8,8,0,0,1-.46-2.9,9,9,0,0,1,.67-3.56,7.53,7.53,0,0,1,1.86-2.66,8.11,8.11,0,0,1,2.85-1.66,10.93,10.93,0,0,1,3.63-.59,15.44,15.44,0,0,1,2,.12,13.83,13.83,0,0,1,1.72.33h7a0.7,0.7,0,0,1,.65.42A3,3,0,0,1,502.56,229.36ZM498,253.86a2.62,2.62,0,0,0-1.22-2.31,6.14,6.14,0,0,0-3.31-.87l-6-.2a10.52,10.52,0,0,0-1.35,1.22,6.68,6.68,0,0,0-.83,1.11,3.52,3.52,0,0,0-.43,1,4.74,4.74,0,0,0-.11,1.06,2.73,2.73,0,0,0,1.7,2.55,10.61,10.61,0,0,0,4.73.86,12,12,0,0,0,3.22-.37,6.4,6.4,0,0,0,2.1-1,3.64,3.64,0,0,0,1.14-1.42A4.23,4.23,0,0,0,498,253.86Zm-2.13-18.38a4.58,4.58,0,0,0-5-5,5.26,5.26,0,0,0-2.17.41,4.27,4.27,0,0,0-1.52,1.13,4.8,4.8,0,0,0-.91,1.66,6.57,6.57,0,0,0-.3,2,4.54,4.54,0,0,0,5,4.93,5.55,5.55,0,0,0,2.2-.4A4.07,4.07,0,0,0,494.7,239a4.56,4.56,0,0,0,.91-1.63A6.19,6.19,0,0,0,495.9,235.47Z" transform="translate(-26.47 -113.7)"/><path class="a" d="M527.19,251.5a0.58,0.58,0,0,1-.1.35,0.84,0.84,0,0,1-.34.24,2.51,2.51,0,0,1-.65.16,9.08,9.08,0,0,1-1,.05,9.27,9.27,0,0,1-1.06-.05,2.8,2.8,0,0,1-.65-0.15,1,1,0,0,1-.34-0.25,0.57,0.57,0,0,1-.1-0.35V238a13.55,13.55,0,0,0-.3-3.19,6.73,6.73,0,0,0-.9-2.08,3.9,3.9,0,0,0-1.53-1.34,4.84,4.84,0,0,0-2.17-.46,5.45,5.45,0,0,0-3.19,1.13,17.6,17.6,0,0,0-3.34,3.31V251.5a0.6,0.6,0,0,1-.1.35,1,1,0,0,1-.34.25,2.65,2.65,0,0,1-.64.15,9.38,9.38,0,0,1-1.06.05,9,9,0,0,1-1-.05,2.69,2.69,0,0,1-.66-0.16,0.71,0.71,0,0,1-.33-0.24,0.65,0.65,0,0,1-.09-0.35V217.09a0.71,0.71,0,0,1,.09-0.36,0.67,0.67,0,0,1,.33-0.26,2.93,2.93,0,0,1,.66-0.16,9,9,0,0,1,1-.05,9.38,9.38,0,0,1,1.06.05,2.63,2.63,0,0,1,.64.16,0.83,0.83,0,0,1,.34.26,0.68,0.68,0,0,1,.1.36V231a13.84,13.84,0,0,1,3.69-2.86,8.11,8.11,0,0,1,3.73-.95,8.71,8.71,0,0,1,3.9.79,7.08,7.08,0,0,1,2.56,2.1,8.29,8.29,0,0,1,1.4,3.08,18.32,18.32,0,0,1,.43,4.25v14.1Z" transform="translate(-26.47 -113.7)"/><path class="a" d="M551.63,251.53a0.55,0.55,0,0,1-.21.46,1.44,1.44,0,0,1-.56.23,5.47,5.47,0,0,1-1.05.08,5.87,5.87,0,0,1-1.06-.08,1.34,1.34,0,0,1-.58-0.23,0.58,0.58,0,0,1-.17-0.46V249.2a11.79,11.79,0,0,1-3.39,2.55,8.83,8.83,0,0,1-4,.92,10.79,10.79,0,0,1-3.31-.48,7.06,7.06,0,0,1-2.52-1.38,6.17,6.17,0,0,1-1.62-2.21,7.36,7.36,0,0,1-.57-3,6.86,6.86,0,0,1,.79-3.4,6.66,6.66,0,0,1,2.29-2.39,11.43,11.43,0,0,1,3.66-1.43,22.83,22.83,0,0,1,4.87-.48h3.2v-1.8a9,9,0,0,0-.29-2.38,4.14,4.14,0,0,0-.91-1.72,4,4,0,0,0-1.64-1,7.71,7.71,0,0,0-2.47-.34,9.94,9.94,0,0,0-2.82.38,15.6,15.6,0,0,0-2.19.82c-0.62.3-1.15,0.57-1.57,0.82a2.2,2.2,0,0,1-.95.37,0.65,0.65,0,0,1-.36-0.1,0.91,0.91,0,0,1-.27-0.31,1.43,1.43,0,0,1-.17-0.52,4.33,4.33,0,0,1-.05-0.71,4.27,4.27,0,0,1,.09-1,1.37,1.37,0,0,1,.44-0.71,5.4,5.4,0,0,1,1.19-.78,13.21,13.21,0,0,1,2-.82,17.12,17.12,0,0,1,2.41-.62,14.66,14.66,0,0,1,2.65-.25,14,14,0,0,1,4.25.57,6.89,6.89,0,0,1,2.83,1.66,6.44,6.44,0,0,1,1.57,2.71,13.19,13.19,0,0,1,.49,3.79v15.62ZM547.43,241h-3.64a13.84,13.84,0,0,0-3.05.29,6.21,6.21,0,0,0-2.14.88,3.63,3.63,0,0,0-1.25,1.39,4.2,4.2,0,0,0-.4,1.86,3.72,3.72,0,0,0,1.15,2.86,4.53,4.53,0,0,0,3.22,1.07,6,6,0,0,0,3.11-.85,13.49,13.49,0,0,0,3-2.59V241Z" transform="translate(-26.47 -113.7)"/><path class="a" d="M563.45,220.47a2.78,2.78,0,0,1-.56,2,3.09,3.09,0,0,1-2.09.54,3,3,0,0,1-2.06-.52,2.73,2.73,0,0,1-.56-2,2.79,2.79,0,0,1,.57-2,3.11,3.11,0,0,1,2.1-.53,3,3,0,0,1,2.05.52A2.73,2.73,0,0,1,563.45,220.47Zm-0.5,31a0.59,0.59,0,0,1-.11.35,0.79,0.79,0,0,1-.34.24,2.47,2.47,0,0,1-.64.16,9.44,9.44,0,0,1-1.06.05,9.11,9.11,0,0,1-1-.05,2.69,2.69,0,0,1-.66-0.16,0.76,0.76,0,0,1-.34-0.24,0.65,0.65,0,0,1-.09-0.35V228.3a0.68,0.68,0,0,1,.09-0.34,0.71,0.71,0,0,1,.34-0.26,2.7,2.7,0,0,1,.66-0.16,9.17,9.17,0,0,1,1-.05,9.5,9.5,0,0,1,1.06.05,2.48,2.48,0,0,1,.64.16,0.74,0.74,0,0,1,.34.26,0.62,0.62,0,0,1,.11.34v23.19Z" transform="translate(-26.47 -113.7)"/><path class="b" d="M105.61,179.74c19.78,0,37.16,1.6,52.14,4.54,9.09,1.88,16.3,3.74,22.18,6.15l-77-76.73L26.47,190.16A141.11,141.11,0,0,1,51.87,184c16.31-2.94,34.22-4.28,53.74-4.28h0Z" transform="translate(-26.47 -113.7)"/><path class="c" d="M102.93,267.69L179.4,191c-10.69-.8-25.41-0.8-43.84.53-19.52,1.34-32.89,3.21-40.64,5.61-6.95,2.14-10.16,5.08-9.63,8.56a5.16,5.16,0,0,0,1.61,3.47l1.87,1.61c2.67,1.87,4.27,2.68,4.81,3.21a8.22,8.22,0,0,1,2.67,8c-1.07,4.27-9.63,8.82-25.39,13.37l32.08,32.35h0Z" transform="translate(-26.47 -113.7)"/></svg>