<svg xmlns="http://www.w3.org/2000/svg" viewBox="0 0 537.04 161.22"><defs><style>.a{fill:#af2434;}.b,.c,.d{fill:#231815;stroke:#231815;stroke-miterlimit:10;}.b,.c{stroke-width:0.16px;}.b,.d{fill-rule:evenodd;}.d{stroke-width:0.09px;}</style></defs><title>Bank of China</title><path class="a" d="M107.09,106.53c-42,0-77.84,33.61-80.46,75.52S55.26,261.91,97,267.14s81.54-23.62,89.33-65c3.8-20.17,0-41.95-11.07-59.32a78.78,78.78,0,0,0-47.12-33.75,85.79,85.79,0,0,0-21-2.59M44.7,187.15c0-30.19,22.47-57.48,52.48-62.25V146.5c0,2,.71,5.28-0.14,7.07-0.69,1.39-7.39.53-8.92,0.53-8.64,0-17,5.11-19.06,13.93-0.92,3.86-.36,8.34-0.36,12.31,0,7.14-.23,14.33,0,21.47a18,18,0,0,0,8.84,15.43c3.85,2.26,8,2.43,12.28,2.43,2,0,6.61-1,7.36,1.29,0.58,1.76,0,5.05,0,6.92v20.79C67.33,243.9,44.7,217.38,44.7,187.15m44.2,14.91c-3,0-1.79-6.86-1.79-8.73V177c0-1.4-.52-3.71.3-4.93,1.32-1.91,8.21-.79,10.37-0.79h20.35c2.07,0,9.1-1.21,9.63,1.43,0.7,3.19,0,7.29,0,10.56V197.4c0,2.43.4,4.66-2.63,4.66H88.9M117,248.67v-21.5c0-2.82-1.37-7.27,2.21-7.5,4.39-.27,8.87.54,13.18-0.64,9.09-2.49,13.11-10.66,13.11-19.46v-21c0-5.4.53-10.82-2.44-15.65-4.69-7.62-12.27-8.85-20.44-8.85-1.09,0-4.4.55-5.22-.14s-0.39-3.22-.39-4.3V124.89c30,4.79,52.49,32.06,52.49,62.26S146.84,243.91,117,248.67" transform="translate(-26.47 -106.53)"/><path class="b" d="M250.24,188.66c-0.11-1.05.69-4.24,1.89-2,0.88,1.63.62,3.74,0.74,5.51a19.84,19.84,0,0,1-.73,6.84,3,3,0,0,0,.27,2.66c0.34,0.42,1.72.57,1.45,1.31-0.36.93-3-.41-3.43-0.79-1.46-1.34-.86-3.77-0.88-5.56s-0.17-3.85.93-5.05c0.71-.77-0.35-2-0.24-2.93M260.86,143c2.92-2.78,7.68-5.69,11.9-4.7,3,2-1.69,8.41-2.93,10.23s-7.46,9.84-8.43,4c-0.54-3.24-1.08-6.23-.54-9.49m0.57-12.45-6.71-8.43c-1.16-1.47-2-3.32-4-3.65-2.7-.46-3.75,1.85-5.07,3.7s0.53,4.29-.16,6.67A55.91,55.91,0,0,0,243.88,139c-0.22,2.27-.37,4.54-0.48,6.82-0.53.87-2.27,1.72-3.05,2.3-1.2.88-10.66,8.15-11.48,7.23a31.89,31.89,0,0,0-4.12-4c-1.17-.92-2.78-1.3-3.65-2.6-1.7-2.54-2.75-3.48-2.57.68-0.08,6.75,2.4,13.12,6.09,18.72,2.18,3.32,4.34,6.73,8.26,8,0.77,0.25,5.38,1.5,5.55.7a12,12,0,0,1,.62-2.83c2.14-3.8,2.16,3.23,2.26,4.48,0.32,3.76.12,8.67,1.6,12.13,2,4.72,1.61,9.71,1.75,14.71,0.05,1.6,3.54,6.66,5.09,4.17,0.14-.66-2.05-3.06-2.3-3.73a1.36,1.36,0,0,1,0,.29c-1.06-2-.92-5.59-1.24-7.73-0.12-.81-1.59-11.28-0.25-11.07,0.22,0,.46,2.9.07,2.75,0.21,2.54.56,5.08,0.9,7.6,0.39,2.91,1.39,5.2,2.15,8,0.28,0.67,0,2.25,1.37,2s0.32-.67,1-1.76c0.18-.33,2.73-1,2.61-1.08,1.61,0.62,1.73-1.89,1.73-2.8-0.19-3.18-1.24-5,.38-8.13,1.29-2.42,1.93-6.46,2.46-9.11,0.71-3.54,2.17-6.93,2.82-10.43a47.64,47.64,0,0,1,1.38-6.54c0.18-.57.26-1.82,0.92-1.86,1.16-.07,4.13-0.13,4.64-1.54,0.46-1-.35-1.85.69-3,0.28-.32,2.5-1.68,1.24-2.1-0.77-.25-3,0.21-3.16-0.42a4.81,4.81,0,0,1,1-4.76c2.37-2.53,4.47-4.3,6.24-7.48,1.66-3,4.74-5.46,5.71-8.65,1.28-4.19-1.36-4.63-5-4.77-3.4-.13-6,0.92-9,2.43-0.69.36-3.5,2-3.5,0.06-0.8-1.2-1.06-3.62-1.06-5M241.16,155a40.61,40.61,0,0,0-4.08,2.92c-0.69.56-3,1.92-3.13,2.65a5.53,5.53,0,0,0,.88,4.06c0.94,1.52,2.85,2,3.48,3.54,1.58,3.8,3.18-.79,3.48-2.94,0.41-2.79,1.94-8.11-.63-10.23" transform="translate(-26.47 -106.53)"/><path class="c" d="M350.82,122.08c-5.72-6.9-18.74-1.83-25.41.9-4.3,1.77-7.87,5.2-10.61,8.89-1.47,2-3.78,6.39-.29,8.09,1.26,0.63,3.51-.45,3.25-1.88-0.38-2-.55-3.67.45-5.54,2.37-4.43,5.93-6.78,10.59-8.31,3.74-1.22,8.8-3.25,12.76-2.59,4.66,0.79,8.55,4.6,10.54,8.71,4.2,8.69,4.4,19.27,4.88,28.71a127.33,127.33,0,0,1-1.73,27.34c-0.38,2.29-3.81,5.17-5.81,6.11-3.33,1.56-8.35-1.74-11.8-2.09-1.71-.17-3.88.22-5.52-0.32-2.18-.72,1.53-2.36,2-2.55,3.45-1.46,10.37,2.44,12.83-1,1-1.34,2.23-3.84,1.9-5.54-0.42-2.4-2.87-1.34-4.4-.83-4.48,1.5-9,3-13.51,4.28-3.09.88-8.29,2.81-11.51,2.14-0.25-.05,5-5.3,5.54-5.83,2.84-2.8,5.65-5.71,8.66-8.32,1.43-1.26,3.91,3.49,4.82,4.24s3.73,3,5.17,2,2-3.61,2.58-5c0.86-2.28,3.66-8.11,1.35-10.33,1,1-2.65,8.93-3.33,10.12-0.78,1.37-2.12,2.45-3.79,2-2.1-.51-2.68-2.75-3.91-4.24-1-1.25,2.35-4.4,2.93-5.19,2-2.66,7.07-6.6,6.88-10.15-0.14-2.59-1.17-3.93-2.74-1.41-1.19,1.93-2.5,3.75-3.61,5.74-0.88,1.6-1.63,3.61-2.84,5-1.31,1.55-3.51,1.71-1.87-.51,1.11-1.48,1.06-3,1.38-4.76,0.37-2-2-3.16-3.27-4.11-1.5-1.09-2.59-2.93-3.66-4.42-1.38-1.92-1.45-2.54-.18-4.41,1-1.5,6.44-9.4,1.89-9.4-1.93,0-3.77,1-5.48,1.79-2.15,1-2,.16-2.82-1.54-0.66-1.33-1.69-3.53-2.9-4.43-1.84-1.36-.41,2.32-0.31,2.67a43.11,43.11,0,0,1,1.42,5.6c0.22,1.48-2.24,3.33-3,4.59-2,3.56,4.56-.19,5.12,1.14,1.95,4.65-1.53,5.85-2.83,9.86-0.24.74-1.58,4.33,0,4.5,1.29,0.15,1.86-2.21,3.33-1.83,0.68,0.18-4.84,7.08-5.38,7.86-2.23,3.24-3.7,5.77-4.1,9.71-0.35,3.34,5.61-.94,6.81-1.6,3.1-1.7,7.26-3.82,9.44-6.71,1-1.32,2.29-.13,1.86,1.19-0.24.74-2.06,1.55-2.67,2a103.86,103.86,0,0,0-7.78,7.51,79.12,79.12,0,0,1-6.81,6.65c-1.13.86-3.79,0.59-5.15,0.76-0.85.11-2.17,2.09-2.37,0.63a76.52,76.52,0,0,1-.57-10.07,7,7,0,0,1-1.67,2.14c0.16-3-.41-6.09-0.29-9.15,0.19-5.24.44-10.49,0.82-15.72a109.71,109.71,0,0,1,1.45-11.5c0.54-3,.37-6.9-2.05-2.28-4.16,7.92-3.87,18.7-4.18,27.43a111.06,111.06,0,0,0,1.18,22.43c0.47,2.8,1.44,7.43,5,7.7,7.09,0.57-1.48-5.89.83-7.87,0.63-.54,3.85,0,4.7,0,1.7,0,3.39,0,5.09,0a58.38,58.38,0,0,1,15.59,2.46,25.76,25.76,0,0,1,10.91,6.19c1.52,1.56,2.36,2.31,4.17.47s3.46-3.55,5.33-5.23c2.35-2.11,5-3.86,5.51-7.16s0.63-6.84.84-10.24c0.58-9.08,1.08-17.95.17-27-1-9.52-3.43-21-9.73-28.54m-23.25,21.29a12.59,12.59,0,0,1,1.78-.71c-0.38.81-1.21,3.34-2.31,3.15s-0.13-2.11.53-2.44m1.84,23.35c-1.08,1.63-5.16,3.3-7,3.78-3.37.91-1.58-1.11-.55-2.82a32,32,0,0,1,5.53-6.34c0.66-.65,2.34,2.41,2.56,2.86a2.8,2.8,0,0,1-.57,2.52m1.74-3.72c-0.54-1-1-5.92.7-3.47,0.44,0.63,1.27,1.9.94,2.74s-0.88,2.12-1.64.74" transform="translate(-26.47 -106.53)"/><path class="c" d="M340.5,146.64c2.92,0,4.27-3,4.77-5.45,0.66-3.08-1.93-3.62-4.41-4.81a10.14,10.14,0,0,0-4.54-.77c-1.69,0-1.65,2.1-1.64,3.52,0,3.85,1.52,7.51,5.83,7.51" transform="translate(-26.47 -106.53)"/><path class="c" d="M394,158.95a181.15,181.15,0,0,1,9.7-18,29,29,0,0,1,4.63-5.9,5.9,5.9,0,0,1,3-1.78c1.45-.16,2.82,0,4-1,2.46-2.1.86-4.07-1-6a13.83,13.83,0,0,0-3.14-2.47c-1.35-.75-1.36.11-2.15,1.26a124.34,124.34,0,0,0-10.1,17.85c-2.83,6-5.44,12-8.21,18-1.18,2.57-2.38,5.14-3.63,7.67a10.39,10.39,0,0,1-1.59,2.62c-0.85.9-2.14,0.92-2.9,1.93a4.44,4.44,0,0,0,1.21,6.45c2.74,1.78,2.31-3.13,2.72-4.58,1.64-5.46,5-11,7.47-16.12" transform="translate(-26.47 -106.53)"/><path class="c" d="M411.82,137.2a10.25,10.25,0,0,0-.68,3.16c0,1.68.79,2.74-.07,4.4-0.29.55-1.1,1.18-1.19,1.83-0.27,1.87,2.36-.49,2.49-0.61a8.9,8.9,0,0,1,4.23-2c1.31-.29,2.32.13,2.13-1.31-0.52-4.08-3-5.75-6.9-5.43" transform="translate(-26.47 -106.53)"/><path class="c" d="M465.65,188.48c-4.09-1.25-8.08-2.88-12.17-4.15-1.49-.48-3.42-0.6-4.69-1.6-2.05-1.59-.23-2.29.58-3.87,0.53-1,.54-2,1.27-3.05a23.21,23.21,0,0,1,4.47-4.77c0.92-.75,3.52-1.37,3.35-2.9-0.35-2.79-4.4.1-5.13,0.81-7,6.87-15.68,7.18-25,6-0.62-.08-2.42.94-2.57,0.68-0.55-.82.18-3.29,0.29-4.15a47.18,47.18,0,0,1,1.2-6.33c0.46-1.73,1-5.41,2.67-6.44,1.11-.67,1.94-0.35,2.84-1.33,1.32-1.44,1.33.53,0.56,1.5-2.34,3-5.41,7.86-5.41,11.8,0,2.75.34,3.3,2.86,1.69a51.54,51.54,0,0,1,5.74-3.55c1.46-.69,3.21-1.08,4.59-1.87s-0.25-4.6-1-5.57-2.13-1.29-2.15-2.94c0-1.39,1.75-3.87,2.39-5.07,2.29-4.25,2.59-8.71,4.15-13.21,0.72-2,1.33-4.05,1.86-6.15,0.43-1.65,1.88-3.47,1.44-5.15-0.26-.92.58-4.24-2-2.58-2.17,1.4-4.37,3-6.4,4.64-0.59.48-7.49,7-7.22,7.12-1.24-.46-2.67-3-3.26-0.15a26.47,26.47,0,0,1-2.06,5A82.39,82.39,0,0,0,422.51,157c-1,4.59-1.54,9.32-2.13,14-0.28,2.29-.49,4.58-0.71,6.87-0.28,3.07-.45,3.32-2.65,5.46-3.91,3.81-7.57,8.5-12.67,10.79-1.44.65-4.58,1.85-2.87-.73,0.77-1.15,1.1-.64,2.39-0.83,0.92-.13.55-1.72,0.76-2.34,0.48-1.44,3.3-2.9,4.39-3.87,2.17-2,4.16-4.13,6.14-6.31,1.26-1.39,2.24-4.22-.7-4.78a10.93,10.93,0,0,0-3.53-.06c-0.72.1-2.66,1.08-3.32,0.55,0.31,0.24,3.05-3.85,3.27-4.59s-1-5.79-1.48-5.48-1.13,1.9-1.68,2.42c-0.16.16-2.07,1.57-2.2,1.61-1,.31-0.8-3.61-0.52-4.07a6,6,0,0,1,2.47-2.7c3.18-1.55,3.46-3.07.85-5.54-1-.92-0.47-1.89-1.92-2.2-1.25-.27-1.76.22-2.75,0.85-2.11,1.33-6.07,2.93-4.43,5.81,1.21,2.15,1.6,2.56-.06,4.67-2.23,2.8-4.69,5.71-3.31,9.33,0.69,1.81.35,4.17,2.67,4.21a35.86,35.86,0,0,1-6.17,6.52c-1.24,1.12-7.49,4.91-3,6.39,3.16,1,3.88-3.79,6.18-4.28,0.65-.14,2,0.7,2.57.91,1.59,0.56,3-.25,1.35,1.83-0.92,1.16-4.23,3.48-4.36,4.94-0.37,4.35,1,4,4.65,3.27,7.46-1.59,12-6,17.12-11.24,2.59-2.63,2,3.35,2.11,4.77,0.31,4.12,3.07,7,7.35,7,4.05,0,7.4-3.14,10.16-5.74A35.38,35.38,0,0,0,440,191c0.65-.81,1-2.19,1.75-2.85,2.12-1.86,5.83,1.94,7.78,2.92a17.23,17.23,0,0,0,10,1.39c2.81-.33,5.62-0.81,8.39-1.35,0.82-.16,2.82-0.47,1.54-1.74-0.63-.65-2.93-0.64-3.78-0.89m-27.24-25.26a5.94,5.94,0,0,1-3.15,2.48c-1.15.3-3.75,1.38-2.94-.86a15,15,0,0,1,1.95-3.78c0.8-1,2.12,1.53,2.5-.39a3.42,3.42,0,0,1,1.65,2.55m-7.2-14.1c0-4,2.33-9.24,4.86-12.2a24.92,24.92,0,0,1,5.72-4.71c3.29-2.09,2.74.56,1.93,3s-1.5,5-2.23,7.54c-0.66,2.31-.85,2.72-2.73,4.27-1.73,1.45-3.51,2.82-5.35,4.15-2.22,1.6-2.22.13-2.22-2.06M405,180.43c0.85-.54,6-4,7-2.39,0.65,1.06-5.85,6.36-6.83,7.12a5.58,5.58,0,0,1-.13-4.74m-3.78-8.8c0.53,0.52-.37,2.08-0.76,1.59s0.23-2.13.76-1.59m-2,17.22c-6-.27-0.43-3.22,1-5.61,1-.16.87,1.3,1,2,0.28,1.82-.65,2.57-2,3.56m40.71-.69c-1.24,1.56-3.66,2.71-5.31,3.75-2,1.27-4.3,2.86-6.62,3.4-5,1.18-4.05-10.21-3.65-12.78,0.13-.78-0.09-3.52,1-3.31,0.77,0.14,1,.91,1.6,1.31,1.16,0.8,2.4.62,3.69,0.89,1.7,0.35,11.21,4.31,9.29,6.73m6.29-8.67c-1.28,1.75-3.07.42-4.13-.76a12.38,12.38,0,0,0,4.05-2c2.1-1.47.58,2,.08,2.73" transform="translate(-26.47 -106.53)"/><path class="c" d="M512.31,158.57c-2-1.29-9.76-2-7.19-5.27,2.25-2.84,6.4-5.38,9.66-6.78,1.92-.82,4.31-1,6-2.15,1.35-.93,2.07-2.79,3-4.14,2.71-4.14,1.67-8.58.18-13a25.33,25.33,0,0,0-2.44-5.34c-1.29-2-2.2-2.13-4.57-1.95-3.73.28-5.51,5.15-7.46,7.82-5.19,7.08-10.64,15.36-17.39,21.05-1.64,1.37-3.95,2.52-4.46,4.79-0.42,1.84.23,4.13,2.06,4.91,1.44,0.61,9.11,1.81,9.34,3,0.33,1.75-4.1,5.36-5.16,6.56-3.2,3.62-6.51,7.26-9.46,11.09-2.22,2.89-.22,6.87,2.85,8.38,1.44,0.72,4,1.31,5.52.48a1.44,1.44,0,0,0,.55-1.46c0-1,1.08-1.69,1.73-2.27,1.27-1.14,7.69-5.88,7.52-1.88-0.16,3.47-2.63,8.8-.54,12a17,17,0,0,0,6.14,4.82c2,0.88,2.37-3.18,2.75-4.34a13.59,13.59,0,0,0-4.57-15.14c-1.53-1.17-3-1.56-2.89-3.57,0.08-1.8,3.38-3.9,4.48-5.26,1.8-2.22,4.08-4,6-6.09,2.4-2.57.91-4.64-1.68-6.34" transform="translate(-26.47 -106.53)"/><path class="c" d="M526.27,148.2c-1.17,1.94-.15,5.54,2,6.39,1.24,0.49,1.76-1,2.45-1.74a15.61,15.61,0,0,1,4.5-3.21c2.72-1.28,6.4-2.76,9.44-3,1.36-.09,2.22.57,3.63,0,1-.42,4.64-0.68,5.22-1.33s0.29-2.25,1-3.16c0.56-.67,2.37-2.11.45-2.11-3.18,0-6.84,1-9.89,1.93-4,1.16-7.67,3.1-11.52,4.62-1.55.61-3.28,1.2-4.93,0.61-2-.71-1.27-0.79-2.37,1" transform="translate(-26.47 -106.53)"/><path class="c" d="M561.41,155.35c-2.38-.54-5.48.48-7.81,1-3.41.79-6.87,1.56-10.23,2.55-6.76,2-12.71,5.84-19.22,8.42-1.66.66-5,1-5.94,2.67-1.55,2.69,1.21,5.22,3.69,3.21,2-1.58,4.59-2.63,6.79-3.84a38.41,38.41,0,0,1,8-3.64c0,6.93,0,13.84.08,20.78,0,2.37.79,7.07-1.83,8.41-2.93,1.49-6.69-1.28-9.41-2.23-1.57-.54-2.91-0.64-4.2-1.79-0.38-.34-2.39-2.57-3.13-1.28-1.13,2,3.75,4.15,4.73,4.75,2.64,1.6,5.93,3.18,8.08,5.43s2.15,7.28,6.29,7.7c2.88,0.31,6.95-4.79,7.57-7.24,0.73-2.82-.22-6.23-0.67-9.06-1.12-7-3-14.4-1.33-21.39,0.71-2.91-3.79-3-3-5.33,0.14-.4,2.16-0.44,2.73-0.74a29.32,29.32,0,0,1,4.76-1.72,34.63,34.63,0,0,1,6.14-1.45c1.59-.18,3.88.31,5.35-0.33,0.86-.37,1.74-1.71,2.33-2.41,1-1.1,2.63-1.9.15-2.5" transform="translate(-26.47 -106.53)"/><path class="d" d="M443,240.79c0.86,1.11,2.86,4.87,3.83,5.26-0.13-.07.46,0.11,0.7,0.12-0.06-1.23.43-7.08-.49-7.72-0.43-.31-1.31.67-2,0.67-1.34-.26-2.55-1.18-3.89-1.53a13.83,13.83,0,0,0-10.68.59c-9.36,5-10.53,20.07-.46,25.1a14.62,14.62,0,0,0,11.1.67c3.09-1.1,5-3.76,7-6.17a1.19,1.19,0,0,0-1.72.38,9.42,9.42,0,0,1-5,3.8c-4.43,1.32-10.24-.55-12.4-4.78-2.67-5.24-2.88-12.27,1.51-16.56,3.42-3.34,9.23-3.76,12.46.17" transform="translate(-26.47 -106.53)"/><path class="d" d="M246.07,254.71a6.43,6.43,0,0,0-6.08-6.19c2.63-.55,4-3.4,4.09-5.88,0.16-4.47-3.8-6.07-7.64-6.27-4.65-.21-9.43.13-14.09,0.13-0.37,1.65,2.87,1.3,3.59,2.8,1.29,2.39.27,7.66,0.27,10.37,0,3.38.5,7.21-.11,10.54-0.43,1.79-3.18,1.72-3,3.13,7.37-.88,24,3.19,23-8.63m-15-7.72c-0.45-4.43-.94-12.27,6.28-8,3.17,2,3.74,7.85-.44,8.92-1.08.24-5.43,1.29-5.84-.88m9,13.29c-1.88,1.85-8.87,2.86-8.87-1.23v-5.47c0-1.09-.39-3.17,1.06-3.55a10.35,10.35,0,0,1,6.34.67c3.26,1.58,4.08,7,1.47,9.58" transform="translate(-26.47 -106.53)"/><path class="d" d="M252.52,257.89a9,9,0,0,1-2.64,3.7c-0.61.34-1.65,0.37-1.57,1.16,0.08,1,7.77.48,9.11,0.45,0.62,0,.76,0,0.66-0.57s-1.45-.46-2.14-0.71c-3.46-1-1.93-3.58-.79-5.78,1-1.9.95-2.29,3-2.29s4.36,0.08,6.54.08c1.9,0,1.95,1.18,2.69,2.8a11.82,11.82,0,0,1,1.26,2.87c0.49,2.1-1.94,2-2.58,3.25,3.64,0.79,7.76.31,11.48,0.34-0.31-.65-1.09-0.78-1.84-1.22-1.67-1-2.34-2.38-3.08-4.09q-1.32-3-2.63-6.07c-2.24-5.16-4.1-10.83-6.89-15.73l-10.58,21.8M265,252.11c-2.58,0-5.2.13-7.78,0q2-4.47,4-8.95a88.7,88.7,0,0,0,4.21,9H265" transform="translate(-26.47 -106.53)"/><path class="d" d="M528.53,255.22c0-1.38,0-2.77,0-4.16,0-2.78,0-5.58-.11-8.37-0.06-1.07.16-2.61-.72-3.42s-5.74-1.92-2.46-1.86c2.25,0,6.25-.52,8.19.54-4.72.36-2.92,10-3,13.33q0,4.13-.07,8.27c0,1.34.58,4.24-.7,4.5s-2.59-1.73-3.46-2.59q-2.83-2.81-5.68-5.62c-3.7-3.65-7.41-7.3-11.1-11,0,3.37,0,6.73,0,10.09,0,2.49-.83,8,3.07,8,1.23,1.63-4.05,1.09-4.64,1.09-0.87,0-3.92.35-4.1-.39s0.24-.76.89-0.93c3.16-1.12,2.38-5,2.42-7.76l0.13-8.58a28.42,28.42,0,0,0,.06-4.28c0-2.32-4.14-3.72-4-4.58,0-.13,0-0.27,0-0.41,0.9,0.09,7.07-.33,7.2.14,0.6,2.24,4,4.61,5.55,6.15l8.14,8.14c0.22,0.21,4.29,4,4.31,3.65" transform="translate(-26.47 -106.53)"/><path class="d" d="M299.92,236.65l-0.8,0c0,1.45,3.53,1.08,4.2,2.75,0.73,1.51.35,4.36,0.36,5.92,0,2.81,0,5.63,0,8.44,0,2.14-3.37-1.94-3.91-2.48-3.81-3.77-7.66-7.51-11.44-11.32-1.3-1.31-2-3.53-3.94-3.4-1.17,0-5.32-.63-6.09.21-0.35.38,2.34,1.58,2.9,2.22a3.68,3.68,0,0,1,1,2.42c0.62,4.66-.15,10-0.23,14.67,0,1.55.28,3.61-.71,4.93-0.66.94-2.54,0.76-2.62,1.73-0.1,1.25,2.68.64,3.6,0.64s5,0.35,5.25-.38c0.3-.9-0.61-0.68-1.18-0.91-1.4-.49-1.69-1.86-1.79-3.17-0.32-4.91-.16-9.88-0.16-14.81,4,4,8.06,7.89,12.09,11.85,1.15,1.13,7.25,8.62,8.89,7.41,0.76-.57.25-5.78,0.26-6.93,0-2.7,0-5.39.07-8.09,0-2.44,0-4.88.08-7.31,0-1,0-2.47,1-3.09,0.72-.47,1.8-0.07,1.88-1-2.93-.12-5.87-0.33-8.81-0.33" transform="translate(-26.47 -106.53)"/><path class="d" d="M339.48,263c-0.58-1.07-2.82-1.8-3.77-2.9-1.59-1.8-3-3.78-4.5-5.67-1.34-1.69-2.66-3.38-4-5.07s0.9-2.83,2.13-4c2.33-2.15,4.62-4.91,7.29-6.63,0.39-.31,4.13-2.1,2.3-2.1-2.87,0-5.75.06-8.62,0-0.23,1.23,1.36.57,2,1.53s-0.41,1.81-1,2.39c-2.71,2.83-5.38,5.73-8.31,8.33-2.77,2.46-2-.31-2-2.67v-3.77c0-.73,0-1.46,0-2.19s-0.11-1.38.56-1.95c0.25-.21,2.37-1.07,2.32-1.4-0.21-1.25-11.23.28-11.29-.06,0.28,1.61,4.29,1.13,3.86,3.75a22.78,22.78,0,0,0,0,3.6v13.47c0,1.15.23,3.29-.76,4.11,0,0-3.29,1.77-1.8,1.77l1.67,0,5.78-.11c0.27,0,3.32.24,2.6-.7-0.44-.57-1.48-0.61-2-1.07a3.48,3.48,0,0,1-.87-2.76c0-.66,0-1.33,0-2a15.52,15.52,0,0,1,0-3.28c0.31-1.22,1.29-1.85,2.28-2.74,2.42,3,4.74,6,7.19,9a10.49,10.49,0,0,1,2,2.66c0.46,1.24,4.62.6,6.05,0.6h-0.37a6.76,6.76,0,0,0,1.33-.1" transform="translate(-26.47 -106.53)"/><path class="d" d="M481.95,263c-3.19-1-2.46-4.46-2.46-7.14v-8.68c0-2.18-.72-5.88.27-7.86,0.52-1.26,2.39-.56,2.18-1.88-3.66.1-7.38,0.1-11,0-0.29,1.36,1.55.81,2.4,1.55,2.2,2,1.12,7.39,1.15,10H462.15c-1.43,0-1.24-.19-1.24-1.48,0-3-1.2-9.24,3.14-9.3a0.65,0.65,0,0,1,0-.3c-1.49-.07-12-1-12-0.1,0,0.59,2.62,1,3.3,1.8,1.41,1.66.87,4.54,0.87,6.57,0,4,.15,8,0,12-0.08,2.07-.39,3.89-2.47,4.76-0.62.3-.84,0.4-0.71,1.11,3.79,0,7.59.09,11.38,0,0.59-.69-0.77-0.9-1-0.92-3.73-.64-2.57-7.87-2.57-10.44,0-1.38-.23-1.42.83-1.86,0.89-.37,2.73,0,3.7,0h7.4c1.57,0,1.66-.21,1.66,1.37v7.1c0,0.38-.72,4.26-1.76,3.63,2.11,1.3,7.19.73,9.68,0.82,0.14-.52,0-0.64-0.48-0.77" transform="translate(-26.47 -106.53)"/><path class="d" d="M498.48,262.94c-3.47-.62-2.55-5.29-2.55-7.86V246c0-2-1-6.84,1.25-7.82,3.1-1-.87-1-2.14-1-0.93,0-7.87-.26-7.27.64s2.45,0.27,3.08,1.62,0.41,3.17.41,4.64v9.24c0,2.53.72,6.43-.75,8.64-0.56.72-2,.74-2.16,1.43-0.17,1,4,.47,4.79.47s6.21,0.16,6.26-.2c0.09-.74-0.17-0.59-0.92-0.73" transform="translate(-26.47 -106.53)"/><path class="d" d="M402.92,237.21c-5.87,0-11.75.11-17.63,0-0.33,1.5,2.22,1,3.06,2,1.62,1.67.72,6.48,0.72,8.64v8.7c0,1.36.25,3-.22,4.29-0.41,1-1.94,1.09-2.19,1.76s8.05,0.58,9.33.54c0.74,0,2.22.49,2.06-.57-0.13-.88-1.58-0.52-2.41-1-2.23-1.11-1.51-4.86-1.51-6.91v-3.11c0-1.5.29-1.33,1.73-1.33,2.21-.16,5.2-0.09,5.74,2.55,0.35,1.55,1-.44,1-1.16,0.11-2.07.21-4.13,0.32-6.2-1.49-.32-1.28.72-1.86,1.71-0.82,1.38-2.67,1.28-4.05,1.49-0.51,0-2.77.27-2.77-.49,0-2-1.29-8.8,1.14-9.47a13.09,13.09,0,0,1,6.84.32c1.26,0.46,2.89,4.23,3.39,3.94s0.59-5.7-.62-5.73l-2,0" transform="translate(-26.47 -106.53)"/><path class="d" d="M560.72,261.69c-1.44-1.08-2-3.26-2.69-4.88l-3.36-7.75c-1.82-4.18-3.28-8.85-5.66-12.75-2.71,5.34-5.07,10.89-7.5,16.37-1.22,2.73-2.28,6.73-4.51,8.78-1.37,1.23-3.88,2.07-.19,2.07,1,0,8.19.42,7.64-.69-0.23-.46-1.93-0.47-2.59-0.83-3.37-1.39-.55-5.06.55-7.14,0.75-1.42,5-.67,6.56-0.65,0.69,0,2.78-.33,3.32,0a6.42,6.42,0,0,1,.91,2c0.4,0.95,1.53,2.48,1.53,3.51,1.11,1.65-2.1,2.64-2.48,3.39,3.54,0.8,7.6.31,11.21,0.35-0.38-.84-1.88-1.21-2.72-1.83m-9.47-9.26c-2.54,0-5.08.09-7.6,0,1.31-3,2.64-6,3.94-9,1.1,3.07,2.75,6,4.13,9h-0.46" transform="translate(-26.47 -106.53)"/><path class="d" d="M381.55,248.56c-0.52-7.68-7.51-12.92-15-12.15-7.65.3-13,7.89-12.08,15.2,0.42,7.68,7.64,12.77,15,12.08,7.91-.56,12.63-7.61,12.09-15.13m-5.25,7.67c-1.09,2.37-2.28,5-4.93,5.92a8.82,8.82,0,0,1-8.94-2.24c-3.75-3.67-4.17-10.8-2.76-15.54,1.63-5.42,7.57-8.19,12.48-5.2,4.75,2.88,6.37,12.25,4.15,17.06" transform="translate(-26.47 -106.53)"/></svg>