<svg xmlns="http://www.w3.org/2000/svg" viewBox="0 0 536.97 98.77"><defs><style>.a{fill:#003b77;}</style></defs><title>Bank of Communications</title><path class="a" d="M233.25,201.89A85,85,0,0,1,202.44,189c-0.11-.15-1.57-0.83-1.34-1.81,0.67-2.84,4.79-8.7,5.21-9.5s0.12-2.25-.85-2.44c-6.39-1.28-6.58-1.52-6.58-1.52-1.79-.11-1.91.76-1.91,0.76l0.11,4.55c-1.19,4-1.91,3.72-1.91,3.72s-5.19-3.87-5.54-4.18-4.37-.66-4.37-0.66a4.9,4.9,0,0,1,.8-1c5.93-5.07,7.48-9.65,7.52-9.8s-0.07-2.73-.07-2.73l-2-2.65,5.24-1.43s3.07-.92,3.66-0.24c1,1.14,1.39,6.41,1.39,6.41,1.81,3.87,7.56,5.39,7.94,5.48l10.17,3a5.15,5.15,0,0,0,2.08-4.53c0.59-1.44-4.77-3.68-6.81-4.15-7.39-1.71-8.65-3-10.65-4.48s-0.48-3-.48-3,3.89-1.15,5-1.39c1.56-.31,10.5-0.73,10.5-0.73,2.5,0.2,2.5-.75,2.5-0.75l-0.73-6c0.27-.75-0.41-2.28-1-2.09a99,99,0,0,1-17.84,3.77c-0.94.13-1-4.69-.69-6.85a3.83,3.83,0,0,0-3.54-4.2,11.73,11.73,0,0,1-4.07-1.64c-6.16,8.37,2,10.3,2.54,10.53,2.19,0.85,1.77,1.11,2.44,2,0.86,1.07-1.62,1.87-3.18,2.3-14.48,3.94-19.69,4.06-21.25,4-3.24-.15-2.17,3-2.17,3a14.21,14.21,0,0,1,1.76,2.82c1.11,2.56,6.58.68,7.66,0.38,6-1.66,6-1.13,6-1.13,1,1.13-.8,4.27-0.8,4.27a30.2,30.2,0,0,1-10.6,8.67,1.72,1.72,0,0,1-1.54.11c-0.57,1.43,1.08,3.69,1.75,3.78,0.49,0,5.54-.12,5.54-0.12l0.7-.25c0.58,0,.41.84,0.41,0.84,0.34,3.74,2.6,4.68,3.88,5,4.28,1.06,5.45,3.2,5.45,3.2-9.53,12.93-27,11.67-27,11.67,0.53,0.52,2,1.39,5,2,9.63,1.92,18.51-3.24,19.2-3.84s6-4.6,6.68-5.37c1.25-1.38,2-.65,2-0.65l11.11,9.39c14.91,12.56,24,1.22,24,1.22Z" transform="translate(-26.47 -136.97)"/><path class="a" d="M284.36,158.93c1.65-2.82-.83-6.1-2.35-7-5.32-3.31-6-5.05-6-5.05-3,1.48-3.07,4.91-2.23,6.91C276.59,160.47,283.8,159.87,284.36,158.93Z" transform="translate(-26.47 -136.97)"/><path class="a" d="M317.31,198.32a1,1,0,0,1-.25-1.39,10.12,10.12,0,0,0,.73-3.72s-1.28-14.85-.16-21.88c0.46-2.91.91-7.78,1.34-8.11,0,0-.81-2.6-7.26-2.28-2.18.11-4.82,1.95-6.4,0.84-1-.74-0.83-1.44,0-2.27s9.69-10.33,11.59-10.71c0,0,2.09-2.77-2.5-5.38-2.68-1.54-3.35-2.51-6.8-.27-2,1.29-7.73,6.39-11.43,7a2.08,2.08,0,0,1-2.4-1.48l-0.75-.54a9.66,9.66,0,0,0-2.93,7.24c0.16,2.16,5.84.25,7.47-1.06,1.17-1,8.56-5.43,7.06-1.43L300,158l-3.63,1s-2,.78-0.31,2.5c0,0,2.83,1.86,2.55,2.66,0,0-.42,1.11-4.24,2.93a6.23,6.23,0,0,0-2,1.49,0.18,0.18,0,0,1-.08.12L289.47,167l-2.14-.07s0.75,5.19.7,5.82-0.22,20.44,1.27,23.42L282,195.6s-10.8-11.33-2.71-26.94c1-2,2.41-4.37-1.31-6-1.65-.73-5.3-1.17-6-1.88,0,0-2.46-.89-2.18,2.36l1.74,3.81s-0.31,2.25-1.32,7.51c-0.22,1.18-1.39,8,4.46,17.42,0,0,1.07,1.81.73,2.43s-0.6.29-.6,0.29l-7.53-.76a1.61,1.61,0,0,0-2.07,1.29c-0.26,1.26-1.6,5.57.74,6.06,0,0,14.22-3.08,35.55,2.61,3.81,1,9.38,2,20.25,1.71,0,0,13.83-1.93,13.83-10.13C335.62,195.38,332.69,193.05,317.31,198.32Zm-18.52-14.69s-4.37.68-4.66,0.47c0,0-.08-4.3-0.08-4.73a8.09,8.09,0,0,0,5.28.68s0.58,0,.58,1.4C299.9,183.37,300.11,183.49,298.79,183.63Zm-5.55-8s-1.39-3.67-.32-4.27c0,0,1.66.43,6.23-1.23a6.62,6.62,0,0,1,.48,3.19,0.61,0.61,0,0,1-.69.64,20.17,20.17,0,0,0-4.26,2C294.13,176.45,293.58,177.18,293.24,175.6ZM300,197.95c-4.9-.33-6.18-1.24-6.18-1.24,0.09-.32.46-7.6,0.46-7.6,5.87-.26,5.87.27,5.87,0.27A36.37,36.37,0,0,1,300,197.95Zm13.13-29.29c0,0.48-.14,22-0.14,22-0.22.6-4.54,0.81-4.54,0.81-0.37,1.81,4.43,7.39,4.43,7.39s-0.05.41-1.66,0.44c-7.23.15-8.74-.91-8.74-0.91,0.49,0,2.81-2.76,2.81-2.76V188.9c3.9-1.39,5.18-3.35,5.18-3.35,0.65-3.67-.64-3.89-0.64-3.89l-3.19.58c-1.5.12-1.26-.74-1.26-0.74l-0.08-2.72c0-.32,5.44-2.71,5.44-2.71a7.75,7.75,0,0,0,.22-3.57c-0.33-2.13-5.55-.27-5.55-0.27l-0.32-3.62a17.58,17.58,0,0,0,3.36-.85,22.48,22.48,0,0,1,4-.91C313.21,166.95,313.21,168.19,313.15,168.66Z" transform="translate(-26.47 -136.97)"/><path class="a" d="M477.09,159.41c5.68-.16,8.48-3,8.48-3s1.66-1.5,3.45-3.31c2.11-2.17,4.41-4.74,4.41-4.74l1.6-1v-0.76c-2.62-2.76-7.14-3.92-7.14-3.92a1,1,0,0,0-.81.16c-1.43,2.88-5.71,7-6.82,8a20.85,20.85,0,0,0-5.62,7.35A3.18,3.18,0,0,0,477.09,159.41Z" transform="translate(-26.47 -136.97)"/><path class="a" d="M495.56,161a1.78,1.78,0,0,0,.06-1.76,24.12,24.12,0,0,0-8.61-1.92l-1.66.53c-12.14,18-25.65,24-25.65,24-0.49.6,0.94,4,.94,4a5.71,5.71,0,0,0,2,.44c4.45,0.22,14.13-7.51,14.13-7.51,1.41-.11,2,2.08,2,2.08-0.28.69-.56,16.57-0.6,17.67-0.1,3.66,1.45,6.11,2.84,6.11s3.93-2.33,3.93-2.33l-0.22-12.83c-0.2-.75-1.68-14.86-1.68-14.86C492.47,166.54,495,162.07,495.56,161Z" transform="translate(-26.47 -136.97)"/><path class="a" d="M498.45,153a17.13,17.13,0,0,0,3.23,6c8.27,3.67,18.9-3.84,19.44-4.26s0.85-2.87.85-2.87a23.71,23.71,0,0,0-2.77-2.44L517.9,149a128.91,128.91,0,0,1-19.56,1.23L498,151.85A2.24,2.24,0,0,1,498.45,153Z" transform="translate(-26.47 -136.97)"/><path class="a" d="M528.66,160.31s-14.09,3.19-17.87,3.41c-2.13.13-14.11,1.49-14.11,1.49s-5.16.54-5.48,5.38c-0.09,1.27-.12,4.26.26,4.74,0,0,4.63-1.33,10.49-2.61a28.78,28.78,0,0,1,5.33-.54s0.9,22.43.52,23.28c0,0,.27,3.29-3.51,2,0,0-3.88-2.43-7.61-2.33a1.57,1.57,0,0,0,.71,1.38c0.84,0.78,6.32,5.28,8.83,8.45,0.87,1.12,10,4.64,10.43-5.36,0.09-1.72-1.86-19-2-20.07s-0.49-7.82,0-8.15c0,0,14.76-2,17.63-5.27C533.25,165.08,532.19,162,528.66,160.31Z" transform="translate(-26.47 -136.97)"/><path class="a" d="M396.52,190.64s-7,1.12-7,.9a5.61,5.61,0,0,1,1.86-2,23.09,23.09,0,0,0,4.31-4.1c2-4.16-.37-4-0.37-4-2-.7-3.29,1.12-3.67,1.69-3.33,4.76-3.52,4.31-3.52,4.31-0.53-2.69-.16-8.5-0.16-8.5l5-2.77c1.5-.49,1.82-3.57.82-4.21-0.82-.51-5.65.11-5.65,0.11a1,1,0,0,1-.91.06,6.82,6.82,0,0,1,.11-2.31l4.28-2c1.11-.92.74-3.46,0.74-3.46-0.85-1.13-3.2-1.5-3.2-1.5l-6.12.11s-1.61.44-1.44-.47c0.38-2,4.74-6,4.74-6,2.29,0,5.36,2.37,5.91,2.86a56.65,56.65,0,0,0,4.85,3.82c0.42-10.67-4.52-12.62-5.42-13.09a1.52,1.52,0,0,1-.87-1.38c2.67-1.82,2.45-2.38,2.45-2.38-2.76-7.2-7.72-5.51-7.72-5.51,0,0.28-3,6-4,7.89-7.7,13.93-20.57,24-21,24.48a47.45,47.45,0,0,1-5,2.66c2.3,5.54,7.63,4.66,8.69,4.43,3.41-.76,11.84-11.61,11.84-11.61,0.24,0.63,1.6.67,2.29,0.79,2.38,0.49,4.28.68,4.28,0.68l0.23,3-5,1.44a3.41,3.41,0,0,0-2.37,3.15c-0.21,5.19,3.64,3.68,3.64,3.68l4.2-1.27c0.27,0.21.65,6.65,0.65,6.65l-4.65-2.77a5.07,5.07,0,0,0-2.71,3.94c1.16,3.45,3.4,3.57,4.42,4a0.87,0.87,0,0,1,.11,1.59c-10.93,5.74-11.65,5.39-11.65,5.39L368.87,201c0,5,6.71,3.3,7.08,3.09a93.62,93.62,0,0,1,18.63-7.82c1.39,0,2.51-2.66,2.51-2.66l1-1.65C398.94,190.43,396.52,190.64,396.52,190.64Z" transform="translate(-26.47 -136.97)"/><path class="a" d="M428,185.33a41.51,41.51,0,0,1-7.77-3.94c0.16-.17,13.21-7.88,13.21-7.88a27.56,27.56,0,0,0-7.25-6.06c-7.06,11.44-17.15,12.24-18.78,12.3s-1.92,0-2-1.45c-0.17-4.91.69-5,.69-5a3.06,3.06,0,0,1,2.08.81c1.7,1.59,5.55.36,5.55,0.36l2.55-2.23c2.71-3,3-4.11,3.24-6.76a30.7,30.7,0,0,1,2.36-10.71c1.85-5.06,1.64-6.22,1.64-6.22-0.33-5.53-5.78-3.76-6.45-3.52-4.22,1.6-9.5,2.23-11.13,2.72-4.37,1.34-3.79,2.2-3.79,2.2l-0.26,4.3s-0.74,22.74-.77,24.39c-0.66,17.57.66,26.23,0.66,26.23-0.08,1.51,1.94,2.3,1.94,2.3,6.36-.37,11.51-12,11.91-13.36,2.09-7,2.54-6.23,2.54-6.23,5,2,10.93,9.11,11.3,9.43s1,0.15,1.44-.8,3.72-5.05,3.72-5.05C434.56,189.81,430.16,186.06,428,185.33Zm-20.66-32.25c0.14-1.06,7-1.18,7.77-1s1,2.51,1,2.51c-0.69,3.4-1.27,3-1.27,3a19.77,19.77,0,0,1-7.77.17C406.66,156.85,407.36,153.08,407.36,153.08Zm-1.47,10.69,0.55-.8,8-.31a1.07,1.07,0,0,1,.19,1.37c-0.35,1-1.42,5-4.68,4.85,0,0-4.32.8-4.41-.59Zm4.29,28.36c-2.16,1-3.4.23-3.4,0.23s-2-3.83-1.35-10.15a1.69,1.69,0,0,1,.87-0.14,32.26,32.26,0,0,1,9.7,3.83S416.5,189.31,410.18,192.13Z" transform="translate(-26.47 -136.97)"/><path class="a" d="M140.64,225.86h5.63c1.58,0,3.17.58,3.17,2.14,0,1.78-1.24,2.58-3.39,2.58h-5.41v-4.72Zm-4.24,7.76h9c4.31,0,5.48-.62,6.68-1.6a4.78,4.78,0,0,0,1.83-3.63,4.12,4.12,0,0,0-3.29-4.28,3.6,3.6,0,0,0,2.63-3.63c0-1.82-1.32-4.51-6.51-4.51H136.4v17.63ZM140.64,219h5.08c2,0,3.25.45,3.25,1.92s-1.38,2-3.13,2h-5.2V219Z" transform="translate(-26.47 -136.97)"/><path class="a" d="M165.15,220h0.06l2.62,7h-5.38Zm-3.87,10h7.79l1.36,3.63h4.79L167.77,216H162.7l-7.55,17.63h4.65Z" transform="translate(-26.47 -136.97)"/><path class="a" d="M191,216h4.12v17.63h-4.43L182.06,221H182v12.58h-4.14V216h4.66l8.37,12.27H191V216Z" transform="translate(-26.47 -136.97)"/><path class="a" d="M204.07,233.63h-4.42V216h4.42v7.16l8.08-7.16h5.7l-8.62,7.22,9.13,10.41h-5.69l-6.54-7.75-2.06,1.77v6Z" transform="translate(-26.47 -136.97)"/><path class="a" d="M240.47,224.8c0-4.93,3.34-6.13,5.73-6.13s5.71,1.2,5.71,6.13-3.34,6.15-5.71,6.15S240.47,229.73,240.47,224.8Zm-4.43,0c0,8.26,7.36,9.26,10.17,9.26s10.15-1,10.15-9.26-7.37-9.26-10.15-9.26S236,216.54,236,224.8Z" transform="translate(-26.47 -136.97)"/><path class="a" d="M264.29,233.63h-4.42V216h15.05v3.11H264.29v4h9.34v3.1h-9.34v7.43Z" transform="translate(-26.47 -136.97)"/><path class="a" d="M306.45,221.77c-0.34-1.05-1-3-4.68-3-2.11,0-5.24,1.18-5.24,6.16,0,3.16,1.47,6,5.24,6,2.44,0,4.14-1.15,4.68-3.3h4.41c-0.88,3.81-3.87,6.48-9.17,6.48-5.63,0-9.66-3.15-9.66-9.23s4.26-9.29,9.7-9.29c6.35,0,8.89,3.63,9.13,6.23h-4.41Z" transform="translate(-26.47 -136.97)"/><path class="a" d="M317.73,224.8c0-4.93,3.35-6.13,5.73-6.13s5.72,1.2,5.72,6.13-3.33,6.15-5.72,6.15S317.73,229.73,317.73,224.8Zm-4.45,0c0,8.26,7.39,9.26,10.17,9.26s10.17-1,10.17-9.26-7.38-9.26-10.17-9.26S313.28,216.54,313.28,224.8Z" transform="translate(-26.47 -136.97)"/><path class="a" d="M357.46,233.62h-4.13V218.86h-0.07l-3.95,14.75H345l-3.86-14.75h-0.05v14.75H337V216h6.44l3.82,13.88h0L351,216h6.41v17.62Z" transform="translate(-26.47 -136.97)"/><path class="a" d="M382,233.62h-4.13V218.86h-0.07l-3.93,14.75h-4.34l-3.84-14.75h-0.07v14.75h-4.13V216h6.44l3.86,13.88h0L375.58,216H382v17.62Z" transform="translate(-26.47 -136.97)"/><path class="a" d="M403.16,227.46c0,4.64-3.35,6.6-8.69,6.6-2,0-4.84-.39-6.72-2.14a5.64,5.64,0,0,1-1.67-4.24V216h4.51v11.43c0,2.45,1.71,3.53,3.78,3.53,3,0,4.29-1.22,4.29-3.36V216h4.5v11.46Z" transform="translate(-26.47 -136.97)"/><path class="a" d="M420.36,216h4.12v17.63h-4.42L411.48,221H411.4v12.58h-4.12V216H412l8.35,12.27h0.06V216Z" transform="translate(-26.47 -136.97)"/><path class="a" d="M432.82,233.63h-4.43V216h4.43v17.63Z" transform="translate(-26.47 -136.97)"/><path class="a" d="M450.43,221.77c-0.37-1.05-1-3-4.68-3-2.12,0-5.25,1.18-5.25,6.16,0,3.16,1.5,6,5.25,6,2.46,0,4.14-1.15,4.68-3.3h4.44c-0.91,3.81-3.91,6.48-9.2,6.48-5.63,0-9.67-3.15-9.67-9.23s4.24-9.29,9.71-9.29c6.34,0,8.9,3.63,9.15,6.23h-4.44Z" transform="translate(-26.47 -136.97)"/><path class="a" d="M466.57,220h0.06l2.62,7h-5.39Zm-3.91,10h7.81l1.36,3.63h4.78L469.18,216h-5.09l-7.54,17.63h4.65Z" transform="translate(-26.47 -136.97)"/><path class="a" d="M485.82,233.63h-4.43V219.1H475V216h17.23v3.11h-6.4v14.52Z" transform="translate(-26.47 -136.97)"/><path class="a" d="M498.9,233.63h-4.45V216h4.45v17.63Z" transform="translate(-26.47 -136.97)"/><path class="a" d="M506.5,224.8c0-4.93,3.33-6.13,5.73-6.13s5.74,1.2,5.74,6.13-3.34,6.15-5.74,6.15S506.5,229.73,506.5,224.8Zm-4.43,0c0,8.26,7.38,9.26,10.16,9.26s10.17-1,10.17-9.26-7.39-9.26-10.17-9.26S502.06,216.54,502.06,224.8Z" transform="translate(-26.47 -136.97)"/><path class="a" d="M538.8,216h4.14v17.63h-4.42L529.93,221h-0.08v12.58h-4.13V216h4.65l8.37,12.27h0.06V216Z" transform="translate(-26.47 -136.97)"/><path class="a" d="M550.34,228.19c0,1,.62,2.85,4.48,2.85,2.09,0,4.41-.42,4.41-2.28,0-1.38-1.59-1.74-3.81-2.18l-2.27-.45c-3.41-.65-6.71-1.3-6.71-5.19,0-1.94,1.25-5.4,8.1-5.4,6.48,0,8.21,3.52,8.24,5.68h-4.24c-0.11-.78-0.46-2.64-4.32-2.64-1.68,0-3.65.51-3.65,2.09,0,1.38,1.33,1.66,2.21,1.84l5.14,1c2.87,0.59,5.51,1.58,5.51,4.75,0,5.27-6.44,5.74-8.32,5.74-7.71,0-9-3.69-9-5.88h4.23Z" transform="translate(-26.47 -136.97)"/><polygon class="a" points="0 69.59 0 68.52 0 68.52 0 69.59"/><path class="a" d="M86.72,157.65a30,30,0,0,0-16.23,4.74l-15.93,10.3V137L26.47,160.66v44.83a30.15,30.15,0,0,0,20.7,28.59l5.36,1.67A32.88,32.88,0,0,1,34,206.38c0-18.19,15.24-33,34-33,17.52,0,32,12.88,33.8,29.41l-19.39,0a15.09,15.09,0,1,0,.36,5.68l19.17,0a32.2,32.2,0,0,1-6.8,17.79s11.87-13.89,15.94-20.18a32.9,32.9,0,0,0,5.7-18.3A30.11,30.11,0,0,0,86.72,157.65Z" transform="translate(-26.47 -136.97)"/></svg>