<svg xmlns="http://www.w3.org/2000/svg" viewBox="0 0 536.97 150.28"><defs><style>.a{fill:#00397b;}</style></defs><title>SPDB</title><path class="a" d="M263.17,165.15c0,0.17-4.18,16.33-11.52,27.85l-0.38.59,6.69,4.76,0.42-.62c8.19-12.42,12-28.66,12-28.84l0.13-.53-7.09-4.18ZM263,162l0.5,0.68,5.73-5.06-0.45-.56A48,48,0,0,0,254.72,145l-0.41-.24-5.56,4.73,0.75,0.55C249.62,150.13,259.19,156.89,263,162Zm52.89-25.08-0.37-.54a45.5,45.5,0,0,0-8.78-8.63l-0.47-.33-5.93,4.51,0.71,0.6s3.3,2.82,5.21,4.88h-8.16V126.89h-7.72v10.53H269.34s-0.07.92-.07,1a54.92,54.92,0,0,0-10-7.82l-0.44-.25L252.92,135l0.84,0.58c0.09,0.06,8.26,5.89,13.16,11.61l0.45,0.54,4.23-3.15h18.83v4.22H272.61v50.58h7.51V180.79h10.31v16.56h7.72V180.79h10.54v10.42c-0.22.15-1.33,0.7-6.73,0.7h-1.06l2.62,7.46h5.11a7.28,7.28,0,0,0,4.91-2,7.55,7.55,0,0,0,2.62-4.74V148.79h-18v-4.28h23.69v-7.18H315.5C315.56,137.28,315.93,136.93,315.93,136.93Zm-25.5,36.74H280.12v-5.58h10.31v5.58Zm0-12.78H280.12v-4.94h10.31v4.94Zm18.25,12.78H298.15v-5.58h10.54v5.58Zm0-17.67v4.89H298.11V156h10.58Zm69.23,26.1a65.37,65.37,0,0,0,10.55-17.19l0.08-.13V159H362.18c0.4-1.24,1.3-3.88,1.54-4.6h35v-7.15H365.44q1-4.93,2.6-16.58l0.07-.67L361,128.18l-0.11.83A128.85,128.85,0,0,1,358,147.28H346.92c0.71-1.75,5.69-14.21,5.69-14.21l-6.55-3.44-7.5,18.71v6.09h17.57c-4,15.73-12.56,27.94-25.63,36.27l-0.72.46L335,197.3l0.6-.4c11.51-8.35,19.21-17.82,23.12-28.07A64.7,64.7,0,0,0,368,182.26c-5.63,5-13.54,8.71-22.95,10.71l-1.11.23,4.36,6.23,0.44-.11a48.41,48.41,0,0,0,24.52-12.22,100.73,100.73,0,0,0,12.2,8,50.75,50.75,0,0,0,11.39,4.22l0.44,0.12,5.11-6-1.18-.29A60.17,60.17,0,0,1,377.92,182.09ZM372.86,177a48.84,48.84,0,0,1-7.53-10.81h14.61A46.93,46.93,0,0,1,372.86,177Zm58-20.12h8.4v-7.2H424.17c0.8-1.77,1.38-3.27,1.79-4.44h14.12v-7.15H428a43.23,43.23,0,0,0,1-8.1v-0.59l-7-1.85-0.08.89c-0.94,13-5.24,22.69-12.68,29l-0.58.49s4.52,5.4,4.66,5.56h-0.42v7.15H423.3v18.61a5.36,5.36,0,0,1-.77,3.38l-0.39.42,4.06,6.54,14.18-7.49v-7.62l-9.52,4.68V170.65h9.75V163.5h-9.75v-6.59Zm-7.57,6.59h-9.49a2.15,2.15,0,0,1,.29-0.25,38.72,38.72,0,0,0,6.1-6.34h3.09v6.59ZM467,181.64a34.77,34.77,0,0,0,10.86-10.22l0.4-.56s-5.17-4.09-5.25-4.13h1.45V131H441.8v58.86c0,1.92-.45,2.56-0.69,2.76l-0.48.4,3.59,6.54,16.84-6.11V186s-10.09,3.38-11.73,4v-23.2h5.05a41.05,41.05,0,0,0,6.68,19,28.12,28.12,0,0,0,16.27,11.66l0.48,0.12,5.15-6.45-1.11-.3C474.72,188.91,469.75,185.84,467,181.64Zm-17.65-43.51h17.82v7H449.32v-7Zm0,21.38V152h17.82v7.5H449.32Zm14.52,16.16a30.74,30.74,0,0,1-2.33-8.94h10.77c-0.09.13-.2,0.31-0.2,0.31C469.38,171.22,466.62,174.07,463.84,175.67Zm36.25-22.35c6.23-4.4,12.72-11.64,19.26-21.5l0.38-.6-5.81-4.54-0.42.7A71.17,71.17,0,0,1,494,148l-0.84.6,6.45,5Zm21.77-1.27v7.15h19.94V191a0.73,0.73,0,0,1-.43.85c-0.2.1-1,.31-4,0.31-2.51,0-4.92-.08-7.26-0.26l-1.09-.08,2.35,7.49,4.85,0.09a40.55,40.55,0,0,0,7.7-.53,6.61,6.61,0,0,0,4-2.59,7.48,7.48,0,0,0,1.51-4.59v-32.4h13.92v-7.22H521.86Zm1.27-2.46-5.9-4-0.43.59c-7.45,10.69-15.45,18.48-23.76,23.22l-0.81.48,5.7,5.95s6.24-4.49,8-5.73v29h7.45V162.79c4.92-5.9,8.1-10.14,9.42-12.62Zm35.57-9.2v-7.28h-35l0.12,7.28H558.7Zm-169.7,6,0.41,0.62,6.23-4.55-0.41-.59a62.25,62.25,0,0,0-13.09-13.39l-0.45-.31-6,4.28L376.4,133C376.44,133.09,385,140.43,389,146.35Z" transform="translate(-26.47 -119.13)"/><path class="a" d="M503,252.79l-0.7-1.06c-1.05-1.51-24.26-35.48-26.06-38.12h-7.32v45.31h5V219.74l0.68,1L501,258.92h7V213.61h-5v39.17Zm24.14-18-0.28-.3,0.3-.27c0.2-.21,18.47-16.92,22.41-20.57H542.6l-21.35,20-0.64.62V213.61h-5v45.31h5V235l0.67,0.67c0.87,0.93,20.8,21.46,22.48,23.21h7.38C547.27,254.95,527.32,235,527.1,234.76ZM276,233.84c-5.34-1.64-10.4-3.19-10.4-9.05,0-2.87,2-7.73,9.71-7.73a10.77,10.77,0,0,1,8.36,3.77c0.24-.23,3.63-3.29,4.13-3.77-2.82-3.13-6.78-4.62-12.5-4.62-11,0-15.13,7.57-15.13,12.35,0,9.81,7.05,12,13.28,14,5,1.57,9.67,3.08,9.67,8.23,0,5.79-5.8,8.4-9.9,8.4a12.45,12.45,0,0,1-10-4.71l-4.21,3.6c2.9,3.64,8,5.73,14,5.73,9.17,0,15.53-5.66,15.53-13.75C288.48,237.65,282.12,235.72,276,233.84Zm35.26-20.23H295.47v45.31h5V238.37h10.74c12.86,0,14.26-8.66,14.26-12.4S324.08,213.61,311.21,213.61Zm-1.78,20.54h-9v-16.3h9c2.62,0,10.63,0,10.63,8.13S312.05,234.15,309.43,234.15Zm36.46-20.54H330.28v45.31h14.55c7.61,0,14-2.44,18.53-7a21.86,21.86,0,0,0,6.34-15.62C369.69,233.94,369,213.61,345.9,213.61Zm-2,40.63h-8.6v-36h10.11c18.31,0,18.87,16.17,18.87,18C364.31,248.7,354.06,254.24,343.93,254.24Zm64.49-19.64c4.85-1.62,7.55-5.4,7.55-10,0-6.88-5-11-13.46-11H387v45.31h15.33c9.41,0,15.76-5,15.76-12.34C418,240.83,413.64,235,408.43,234.6ZM392,217.85h10.59c5.91,0,8,3.85,8,7.5,0,4.83-3.4,7.62-9.34,7.62H392V217.85Zm9.93,36.82H392V237.19h10c6.78,0,10.67,3.26,10.67,8.94C412.62,254,404.42,254.66,401.9,254.66Zm37.73-41.05c-0.18.46-19.49,44.25-19.94,45.31h5.92c0.21-.49,4.61-11.56,4.61-11.56h23.06s4.48,11.07,4.65,11.56h6c-0.44-1.09-19.2-44.85-19.38-45.31h-4.88Zm-7.71,29.53,9.9-24,9.66,24H431.93Z" transform="translate(-26.47 -119.13)"/><path class="a" d="M142.7,176.34l0.59-.52c11.51-9.34,25.27-8.51,29.9-7.89-1.89-5.4-10.15-23.33-34.77-23.33-13.92,0-23,7.39-28.15,13.61-6.1,7.35-7.6,16-8,20.5-2,21.38-13.41,31.61-14.7,32.73-12.74,10.53-25.77,9.14-30.46,8.19,2.23,5.71,11.23,24,35.65,23.41a36.64,36.64,0,0,0,25.5-11.29c8-8,9.75-20.54,10.09-24.2C130.11,189.29,138.95,179.65,142.7,176.34ZM204,141.58a9.3,9.3,0,0,0-3.15-6.72l-19.13-14.72s-3.85-3.2-3.85,1.71c0,16.68,0,58.88,0,58.88a13.28,13.28,0,0,1,0,1.51c0,4.45-1,17.71-12.61,27.62a42,42,0,0,1-33.88,9.92c2.71,5.58,13.1,23.39,36.55,23.39,21.59,0,36.07-19,36.07-36.8C204,206.39,204,172.26,204,141.58Zm-138.8,36a42,42,0,0,1,33.92-9.91c-2.7-5.6-13.13-23.39-36.53-23.39-21.6,0-36.09,19-36.09,36.79V247a9.26,9.26,0,0,0,3.16,6.71l19.18,14.72s3.81,3.22,3.81-1.71V206.78c0-.09-0.06-0.63-0.06-1.52A37,37,0,0,1,65.17,177.63Z" transform="translate(-26.47 -119.13)"/></svg>