<svg xmlns="http://www.w3.org/2000/svg" xmlns:xlink="http://www.w3.org/1999/xlink" viewBox="0 0 537.37 149.58"><defs><style>.a{fill:none;clip-rule:evenodd;}.b{clip-path:url(#a);}.c{fill:#59aa34;}.aa,.ab,.ac,.ad,.ae,.af,.ag,.ah,.ai,.aj,.ak,.al,.am,.an,.ao,.ap,.aq,.ar,.as,.at,.au,.av,.aw,.ax,.ay,.az,.ba,.bb,.bc,.bd,.be,.bf,.bg,.bh,.bi,.bj,.bk,.bl,.bm,.bn,.bo,.bp,.bq,.br,.bs,.bt,.bu,.bv,.bw,.bx,.by,.bz,.c,.ca,.cb,.cc,.cd,.ce,.cf,.cg,.ch,.ci,.cj,.ck,.cl,.cm,.cn,.co,.cp,.cq,.cr,.cs,.ct,.cu,.cv,.cw,.cx,.cy,.cz,.d,.da,.db,.dc,.dd,.de,.df,.dg,.dh,.di,.dj,.dk,.dl,.dm,.dn,.do,.dp,.dq,.dr,.ds,.dt,.du,.dv,.dw,.dx,.dy,.dz,.e,.ea,.eb,.ec,.ed,.ee,.ef,.eg,.eh,.ei,.ej,.ek,.el,.em,.en,.eo,.ep,.eq,.er,.es,.et,.eu,.ev,.ew,.ex,.ey,.ez,.f,.fa,.fb,.fc,.fd,.fe,.ff,.fg,.fh,.fi,.fj,.fk,.fl,.fm,.fn,.fo,.fp,.fq,.fr,.fs,.ft,.fu,.fv,.fw,.fx,.fy,.fz,.g,.ga,.gb,.gc,.gd,.ge,.gf,.gg,.gh,.gi,.gj,.gk,.gl,.gm,.h,.i,.j,.k,.l,.m,.n,.o,.p,.q,.r,.s,.t,.u,.v,.w,.x,.y,.z{fill-rule:evenodd;}.d{fill:#58aa35;}.e{fill:#57ab37;}.f{fill:#56a93a;}.g{fill:#55a93c;}.h{fill:#54aa3c;}.i{fill:#52a93e;}.j{fill:#52a940;}.k{fill:#52a942;}.l{fill:#51a943;}.m{fill:#4fa845;}.n{fill:#4fa947;}.o{fill:#4ea94a;}.p{fill:#4ca94c;}.q{fill:#4ba84d;}.r{fill:#4ba84f;}.s{fill:#49a751;}.t{fill:#49a854;}.u{fill:#47a755;}.v{fill:#47a757;}.w{fill:#44a759;}.x{fill:#44a75c;}.y{fill:#44a75e;}.z{fill:#44a75f;}.aa{fill:#41a761;}.ab{fill:#42a663;}.ac{fill:#42a665;}.ad{fill:#3fa668;}.ae{fill:#3ea66a;}.af{fill:#3ea66b;}.ag{fill:#3da56d;}.ah{fill:#3aa56f;}.ai{fill:#3aa572;}.aj{fill:#39a573;}.ak{fill:#39a576;}.al{fill:#37a478;}.am{fill:#36a47a;}.an{fill:#36a47d;}.ao{fill:#36a47e;}.ap{fill:#35a480;}.aq{fill:#36a381;}.ar{fill:#33a383;}.as{fill:#32a385;}.at{fill:#31a387;}.au{fill:#2ea389;}.av{fill:#2ea38b;}.aw{fill:#2ea28c;}.ax{fill:#2ea28f;}.ay{fill:#2ea291;}.az{fill:#29a293;}.ba{fill:#29a295;}.bb{fill:#26a197;}.bc{fill:#25a19a;}.bd{fill:#24a19b;}.be{fill:#24a19d;}.bf{fill:#27a19f;}.bg{fill:#25a0a1;}.bh{fill:#259fa2;}.bi{fill:#249fa4;}.bj{fill:#23a0a6;}.bk{fill:#239fa8;}.bl{fill:#239fab;}.bm{fill:#229ead;}.bn{fill:#1d9eaf;}.bo{fill:#1d9eb0;}.bp{fill:#1c9eb2;}.bq{fill:#1b9eb4;}.br{fill:#1d9db7;}.bs{fill:#1c9db8;}.bt{fill:#1c9cba;}.bu{fill:#1b9cbc;}.bv{fill:#1a9dbe;}.bw{fill:#1a9cc1;}.bx{fill:#1b9bc1;}.by{fill:#199bc3;}.bz{fill:#1a9bc5;}.ca{fill:#1e9bc6;}.cb{fill:#1b99c9;}.cc{fill:#1999cb;}.cd{fill:#1899cc;}.ce{fill:#1c9ace;}.cf{fill:#1b9ad0;}.cg{fill:#1c98d2;}.ch{fill:#1f98d4;}.ci{fill:#1e98d6;}.cj{fill:#1a98d6;}.ck{fill:#1d97d5;}.cl{fill:#1996d5;}.cm{fill:#1a96d4;}.cn{fill:#1895d3;}.co{fill:#1b94d2;}.cp{fill:#1893d2;}.cq{fill:#1691d1;}.cr{fill:#1791d1;}.cs{fill:#1590d0;}.ct{fill:#1690cf;}.cu{fill:#178fcf;}.cv{fill:#158ece;}.cw{fill:#198dcd;}.cx{fill:#158ccd;}.cy{fill:#178bcc;}.cz{fill:#158acc;}.da{fill:#168acb;}.db{fill:#178acb;}.dc{fill:#1588ca;}.dd{fill:#1788c9;}.de{fill:#1586c8;}.df{fill:#1786c8;}.dg{fill:#1385c8;}.dh{fill:#1485c7;}.di{fill:#1184c7;}.dj{fill:#1483c6;}.dk{fill:#0f83c6;}.dl{fill:#1083c6;}.dm{fill:#0e81c4;}.dn{fill:#1081c5;}.do{fill:#1081c4;}.dp{fill:#0e80c3;}.dq{fill:#1080c3;}.dr{fill:#0f7fc2;}.ds{fill:#117ec1;}.dt{fill:#0f7dc0;}.du{fill:#0b7cc0;}.dv{fill:#0b7cbf;}.dw{fill:#0f7bbf;}.dx{fill:#0c7abe;}.dy{fill:#0c7abd;}.dz{fill:#1079bd;}.ea{fill:#0d78bc;}.eb{fill:#0e78bc;}.ec{fill:#0f78bc;}.ed{fill:#0d76bb;}.ee{fill:#0b75ba;}.ef{fill:#0e75b9;}.eg{fill:#0c73b8;}.eh{fill:#0e73b8;}.ei{fill:#0a72b8;}.ej{fill:#0b72b7;}.ek{fill:#0f71b6;}.el{fill:#0b70b5;}.em{fill:#0c70b5;}.en{fill:#096fb4;}.eo{fill:#0c6eb4;}.ep{fill:#0a6db3;}.eq{fill:#0c6db3;}.er{fill:#0d6db2;}.es{fill:#0b6bb1;}.et{fill:#0d6bb1;}.eu{fill:#0b6ab0;}.ev{fill:#0d69af;}.ew{fill:#0c68af;}.ex{fill:#0c68ae;}.ey{fill:#0e67ae;}.ez{fill:#0d66ac;}.fa{fill:#0965ac;}.fb{fill:#0d64ab;}.fc{fill:#0a64aa;}.fd{fill:#0e62a9;}.fe{fill:#0862a9;}.ff{fill:#0b62a8;}.fg{fill:#0960a8;}.fh{fill:#0a61a7;}.fi{fill:#085fa6;}.fj{fill:#0a5fa6;}.fk{fill:#095da5;}.fl{fill:#055da5;}.fm{fill:#0a5ca4;}.fn{fill:#0a5ca3;}.fo{fill:#065ba3;}.fp{fill:#0a5aa2;}.fq{fill:#0759a1;}.fr{fill:#0658a1;}.fs{fill:#0658a0;}.ft{fill:#0858a0;}.fu{fill:#07569f;}.fv{fill:#06559f;}.fw{fill:#08559e;}.fx{fill:#07539d;}.fy{fill:#0b529c;}.fz{fill:#07529b;}.ga{fill:#06509b;}.gb{fill:#06509a;}.gc{fill:#0a4f9a;}.gd{fill:#064f99;}.ge{fill:#0a4d99;}.gf{fill:#0a4e98;}.gg{fill:#094c97;}.gh{fill:#054c97;}.gi{fill:#064c96;}.gj{fill:#044b96;}.gk{fill:#014a96;}.gl{fill:#054994;}.gm,.gn{fill:#707070;}</style><clipPath id="a" transform="translate(-26.08 -110.31)"><path class="a" d="M61.41,121.2a5.53,5.53,0,0,1,3.21-1.69A3.89,3.89,0,0,1,62,121.86a3.12,3.12,0,0,1,2.43,1.61s-1.48,1.26-3.17-.78a2.32,2.32,0,0,1-1,3.21s-1.3-.74,0-3c0,0-1.87,2.13-3.17,1.65,0,0-.09-1.17,2.78-2.26,0,0-2.21.13-2.69-1.26,0,0,1-1.26,3.17.35a3,3,0,0,1,.74-3.73s1.3,1.17.26,3.52h0Zm35.72,34.38c3.26,1.22,2.6,2.65,1.43,2.86a5.94,5.94,0,0,1-2.52-1.3c0.17,0.65,1,1.87.39,2.65-0.69.56-1.52-.22-1.91-0.61a5.5,5.5,0,0,1-.78-1.74c-0.17.22-2.56,1.82-3.47,0.61,0-1.17,1.87-1.56,2.47-2-0.87.26-2.78-.87-3.08-1.17-0.48-.43.09-0.69,0.35-0.78a3.91,3.91,0,0,1,3.6.69c-0.22-.61-1.39-1.69-0.35-2.6l0.61-.26a1.59,1.59,0,0,1,1.3.61,2.24,2.24,0,0,1,.56,1.87,4.67,4.67,0,0,1,1.61-1c1.22-.65,2.17.43,1.17,1.22ZM53,170.64c-1,.43.35,2.6,0.43,2.82a16.12,16.12,0,0,0-2.26.09s1-2.52-.3-3.13c-2.65-1.22-5.56,1.52-7,.65,1.91-.52,2.69-2.86,4.38-2.69,0.65,0,2.3,1.22,2.73,1.13a5.5,5.5,0,0,1,.17-1.56,6.53,6.53,0,0,1,1,1.43c0.22,0.17,1.69-.56,3.69-0.3a5.45,5.45,0,0,1,3,3.73c-2.65-2.39-5.34-2.39-5.82-2.17h0Zm89.37-13.07c4.38,3.78,6.38,1.78,8.85,4.25,0.09-1.82-2-3.78-2.43-4.34,4.86,2.17,5.43,2.69,4.34,5.21-0.74,1.74,2.6-.56,4.56,1.3-1.48-.09-1.78.65-3.43,1.52-3.39,1.61-4.9-.22-6.73,1.52l-0.74-1.35s3-.78,3.17-1.65-6.51.26-7.6-6.47h0Zm38.33,11.63a6.6,6.6,0,0,1,.35-2.91c-0.09,0-2.65-.17-2.3,1.09,0.26,0.78,1.35.65,2,1.82h0Zm-57.12-22a10.12,10.12,0,0,1-4-.56c1,0.87,2.47,2.34,2,3.34a17.54,17.54,0,0,0,2-2.78h0Zm-3.69,3.6a3.36,3.36,0,0,1-2.17-2.47,2,2,0,0,1-1.17,1.78,2.92,2.92,0,0,0,3.34.69h0Zm-5.21-2.6a4.22,4.22,0,0,0,.43-0.65,3.29,3.29,0,0,1-.69.39ZM55.25,162.09c-1.91-2.39-.48-3.26.3-2.56a3.88,3.88,0,0,1,1.22,1.87c0.17-.56.13-1.82,0.91-2.17,0.78-.09,1,0.87,1.17,1.35a4.37,4.37,0,0,1-.13,1.56c0.22-.09,2.69-0.13,2.82,1.22-0.48.91-.39-0.26-2.78,0.35,1.13,0,2.17,2,1.22,2.56s-2-.56-2.43-2c0.17,0.61.43,2-.78,2.17a1.25,1.25,0,0,1-1.39-1.17,2.53,2.53,0,0,1,.39-1.65c-1.82.35-3.39-1.82-1.91-1.74Zm64.2,0.65c-3-.69-6.25,3.26-6.25,3.26,0.39-3,.56-3.13,1-3.82,0.82-1.35,4.56-.61,4.56-1.3a5,5,0,0,0-.17-1.56l1.35,0.74c1.26,0.22,1.3-2.69,3-3a9.67,9.67,0,0,1,4.6.65c-3.65.56-6.21,2.65-5.73,4.12a4,4,0,0,0,1.52,1.39L120.18,165s0.09-2-.74-2.21h0Zm-7.16-4.43a5.94,5.94,0,0,1-.09-0.69l-0.87-1.22a1.75,1.75,0,0,1-1,.26l0,1.52c0,0.26.3,0.3,0.35,0.61a0.46,0.46,0,0,1-.43.52,0.42,0.42,0,0,1-.43-0.48c0-.39.35-0.39,0.35-0.65v-1.52a2.53,2.53,0,0,1-1-.35l-0.87,1.22c-0.17.22,0,.43-0.13,0.69a0.38,0.38,0,0,1-.61.17,0.44,0.44,0,0,1-.09-0.65c0.26-.26.52-0.09,0.69-0.3l0.87-1.26a2.32,2.32,0,0,1-.56-0.82l-1.43.48c-0.26.09-.22,0.39-0.52,0.52a0.43,0.43,0,0,1-.61-0.26,0.48,0.48,0,0,1,.35-0.56c0.35,0,.48.22,0.74,0.17l1.43-.48c0-.17,0-0.3,0-0.48a2.54,2.54,0,0,1,.09-0.56l-1.48-.43a5,5,0,0,0-.69.09,0.38,0.38,0,0,1-.35-0.52,0.42,0.42,0,0,1,.61-0.26,4.76,4.76,0,0,1,.48.52l1.48,0.48a2,2,0,0,1,.61-0.82L108.29,152c-0.17-.22-0.43-0.09-0.65-0.3a0.43,0.43,0,0,1,0-.65,0.39,0.39,0,0,1,.61.13,5.54,5.54,0,0,1,.09.74l0.91,1.22a1.84,1.84,0,0,1,1-.35v-1.43c0-.26-0.3-0.35-0.35-0.65a0.39,0.39,0,0,1,.43-0.48,0.39,0.39,0,0,1,.39.48c0,0.35-.35.39-0.35,0.65v1.43a2.13,2.13,0,0,1,1,.35l0.82-1.17c0.13-.22,0-0.43.09-0.69a0.45,0.45,0,0,1,.65-0.17,0.44,0.44,0,0,1,0,.65,7.11,7.11,0,0,1-.65.3l-0.87,1.17a1.85,1.85,0,0,1,.65.87l1.35-.43a6.19,6.19,0,0,0,.48-0.52,0.46,0.46,0,0,1,.61.26,0.41,0.41,0,0,1-.35.56c-0.35,0-.48-0.22-0.69-0.13l-1.35.43a1.63,1.63,0,0,1,0,.48,2.93,2.93,0,0,1-.09.61l1.35,0.43a4.8,4.8,0,0,0,.69-0.13,0.41,0.41,0,0,1,.35.56,0.42,0.42,0,0,1-.56.26c-0.35-.17-0.26-0.48-0.52-0.56l-1.35-.43a2.15,2.15,0,0,1-.69.82l0.87,1.17a4.42,4.42,0,0,0,.65.35,0.44,0.44,0,0,1,0,.65,0.45,0.45,0,0,1-.65-0.17h0Zm-31.12,4.51a6.71,6.71,0,0,1-.13-0.74l-1-1.17a2.77,2.77,0,0,1-1.22.26v1.52c0,0.26.35,0.3,0.39,0.61a0.48,0.48,0,0,1-.52.52,0.53,0.53,0,0,1-.52-0.52c0.09-.35.43-0.39,0.43-0.61v-1.52a2.88,2.88,0,0,1-1.13-.35L76.38,162c-0.17.22,0,.43-0.13,0.69a0.54,0.54,0,0,1-.74.17,0.39,0.39,0,0,1-.09-0.65c0.3-.26.61-0.09,0.78-0.3l1.09-1.22a2.09,2.09,0,0,1-.65-0.87l-1.78.48c-0.26.09-.26,0.39-0.56,0.52a0.54,0.54,0,0,1-.74-0.26A0.4,0.4,0,0,1,74,160.1c0.43-.09.56,0.22,0.87,0.13l1.78-.48a0.93,0.93,0,0,1-.09-0.48,2.18,2.18,0,0,1,.09-0.52l-1.74-.48a8.5,8.5,0,0,0-.87.13,0.44,0.44,0,0,1-.39-0.56,0.56,0.56,0,0,1,.69-0.26c0.39,0.17.35,0.48,0.61,0.52l1.74,0.48a2.66,2.66,0,0,1,.74-0.82l-1-1.17a3.26,3.26,0,0,0-.78-0.3,0.43,0.43,0,0,1,0-.69,0.6,0.6,0,0,1,.78.17c0.17,0.3-.09.52,0.09,0.69l1.09,1.22a2.61,2.61,0,0,1,1.17-.3v-1.48c0-.26-0.35-0.3-0.39-0.61a0.48,0.48,0,0,1,.52-0.52,0.49,0.49,0,0,1,.48.52,4.53,4.53,0,0,1-.43.61v1.48a2.65,2.65,0,0,1,1.22.3l1-1.13a3.37,3.37,0,0,0,.09-0.69,0.56,0.56,0,0,1,.78-0.17,0.37,0.37,0,0,1,0,.65c-0.26.26-.61,0.09-0.78,0.3l-1,1.17a1.78,1.78,0,0,1,.74.87l1.61-.43a6.48,6.48,0,0,0,.61-0.52A0.52,0.52,0,0,1,84,158a0.4,0.4,0,0,1-.39.52c-0.43.09-.61-0.22-0.87-0.13l-1.65.43a1.85,1.85,0,0,1,.09.48,1.39,1.39,0,0,1-.13.61l1.65,0.43a6.43,6.43,0,0,0,.82-0.13,0.46,0.46,0,0,1,.43.56,0.6,0.6,0,0,1-.74.26,6.78,6.78,0,0,1-.56-0.56L81,160a1.89,1.89,0,0,1-.82.82l1,1.17a3.26,3.26,0,0,0,.78.3,0.37,0.37,0,0,1-.09.65,0.53,0.53,0,0,1-.74-0.13h0Zm-10.33,3.43c2.52,0.91,2,2,1.09,2.21a4.89,4.89,0,0,1-1.91-1c0.13,0.48.74,1.43,0.3,2s-1.17-.13-1.48-0.43a4.28,4.28,0,0,1-.65-1.35c-0.13.17-2,1.39-2.65,0.48,0-1,1.43-1.22,1.91-1.56-0.65.22-2.13-.65-2.39-0.91s0-.52.26-0.61a3,3,0,0,1,2.78.56c-0.17-.48-1.09-1.3-0.26-2l0.48-.17a1.1,1.1,0,0,1,1,.48,1.68,1.68,0,0,1,.43,1.43,3.21,3.21,0,0,1,1.26-.78c1-.48,1.65.39,0.91,1Zm95.71-30.43c0.39-1.39,1.39-2.13,2-1.78,0.91,0.52-.17,1.61-1.43,2.13,1.22-.43,2.56-0.35,2.43.52s-1.22,1.13-2.6.22c1.09,0.91,1.22,2.13.43,2.43s-1.35-.56-1.17-2.17c-0.35,1.52-1.39,2.13-1.91,1.91-0.78-.39-0.65-1.35,1.39-2.3-1.56.56-2.6,0.17-2.47-.48s1.39-.87,2.6-0.26c-0.69-.43-1.22-2-0.22-2.26,0.65-.22,1.39.48,1,2h0Zm26.65,26.56c1.39-1.43,3.26-1.65,3.86-.78,1,1.22-1.22,1.87-3.3,1.61,2,0.3,3.82,1.35,3.13,2.34s-2.43.52-3.78-1.52c1,1.91.39,3.47-.87,3.3s-1.56-1.61-.35-3.52c-1.43,1.69-3.26,1.74-3.82,1.09-0.87-1-.09-2.13,3.3-1.91-2.52-.35-3.73-1.52-3.17-2.26s2.52-.13,3.82,1.48c-0.69-1.09-.52-3.26,1.09-3,1,0.17,1.61,1.52.09,3.17h0Zm-7.94-12.28c0.56-1.78,1.82-2.73,2.6-2.3,1.13,0.69-.22,2.08-1.87,2.73,1.56-.56,3.3-0.43,3.17.69s-1.61,1.43-3.39.26c1.43,1.22,1.56,2.78.56,3.13s-1.74-.69-1.52-2.78c-0.43,2-1.78,2.73-2.43,2.43-1-.48-0.87-1.74,1.78-3-2,.74-3.34.26-3.21-0.61s1.82-1.13,3.39-.3c-0.91-.61-1.56-2.52-0.3-3,0.82-.3,1.78.61,1.22,2.65h0ZM148.92,136c2-2.13,4.47-2.52,5.25-1.35,1.13,1.74-1.78,2.73-4.56,2.47,2.6,0.3,4.95,1.74,3.95,3.21s-3.26.82-4.9-2c1.13,2.69.22,5-1.43,4.77s-2-2.21-.13-5c-2,2.43-4.47,2.6-5.17,1.69-1.09-1.43,0-3,4.56-2.86-3.34-.43-4.82-2-4-3.13s3.34-.26,4.95,2c-0.82-1.48-.39-4.64,1.69-4.34,1.35,0.22,2,2.17-.17,4.6h0Zm-32.86-23.22c0.39-1.43,1.56-2.17,2.39-1.78,1.22,0.56,0,1.65-1.61,2.17,1.52-.43,3.3-0.26,3.21.65s-1.48,1.13-3.34.09c1.52,1,1.82,2.34.82,2.6s-1.82-.65-1.74-2.34c-0.3,1.61-1.56,2.17-2.26,1.91-1.09-.43-1-1.43,1.52-2.34-2,.52-3.34.09-3.3-0.61s1.74-.87,3.39-0.13c-1-.52-1.82-2.13-0.56-2.43,0.82-.22,1.87.56,1.48,2.21h0ZM88.84,125.2c-0.17-1.3-3.43-3.73-6.25-3.91,2.78-1.48,4.08-.87,4.08-0.87,1.91,0.43,2.69,3.65,3.69,3.34a13.13,13.13,0,0,0,1.48-1l-0.3,1.65c0.09,1,3.52-.26,4.73,1.13,0,0,1.48,1.22,1.61,4.56-1.52-2.78-5.73-4.47-7.12-3.43-0.61.48-.26,2.08-0.26,2.08a6.52,6.52,0,0,0-3.3-1.91s1.78-.69,1.65-1.61h0Zm14.71,13.33c0.91-2.65,3.08-4.08,4.38-3.39,2,1-.35,3-3.17,4.08,2.65-.87,5.64-0.69,5.38,1s-2.73,2.13-5.69.35c2.39,1.82,2.65,4.17.91,4.69s-3-1-2.56-4.17c-0.78,3-3,4.12-4.17,3.65-1.78-.74-1.48-2.56,3-4.38-3.43,1.09-5.69.35-5.43-.91,0.3-1.43,3.13-1.65,5.73-.48-1.52-.91-2.65-3.73-0.48-4.38,1.39-.43,3,1,2.08,3.95h0Zm-26.48-1.74c-0.87-1.26-.61-2.39.26-2.47,1.3-.13,1.3,1.3.56,2.43,0.74-1,2.08-1.78,2.73-1s-0.13,1.52-2.21,1.65c1.82,0.09,3,.91,2.56,1.56s-1.74.39-3-.91c1,1.35.61,2.39,0,2.52-1.09.17-1.82-.65-0.82-2.52-0.91,1.35-2.17,1.65-2.69,1.09s0.52-1.48,2.21-1.69c-1.09,0-2.86-.78-2.26-1.61,0.39-.52,1.69-0.43,2.69,1h0Zm-27.65,5.43c0.3-1.48,1.22-2.21,1.82-1.82,0.91,0.61,0,1.74-1.26,2.26,1.17-.43,2.52-0.26,2.47.65s-1.13,1.13-2.52.09c1.13,1.09,1.35,2.39.61,2.65s-1.39-.65-1.35-2.39c-0.22,1.65-1.17,2.26-1.69,2-0.82-.43-0.78-1.48,1.13-2.39-1.48.52-2.52,0.09-2.47-.61s1.35-.87,2.56-0.17c-0.74-.52-1.35-2.13-0.39-2.47,0.56-.17,1.39.61,1.09,2.26h0Zm-15,3.47c0.09-1.61,1-2.52,1.87-2.21,1.22,0.52.26,1.87-1.13,2.6,1.35-.65,3-0.65,3.08.35s-1.13,1.39-3,.48c1.56,1,2.08,2.34,1.22,2.73s-1.78-.48-2-2.34c0,1.78-1,2.56-1.69,2.34-1.09-.35-1.17-1.48,1-2.73-1.69.78-3,.48-3.08-0.3s1.43-1.13,3-.52c-1-.48-2-2.13-0.91-2.6,0.69-.3,1.78.43,1.74,2.21h0ZM50,151.5c1-2.34,3-3.39,4.12-2.56,1.69,1.22-.52,2.82-3.13,3.39,2.43-.43,5.08.13,4.77,1.69s-2.6,1.61-5.12-.43c2,2,2.08,4.21.52,4.47s-2.6-1.39-2-4.25c-0.87,2.69-3,3.43-3.95,2.86-1.52-1-1.13-2.6,3-3.69-3.13.52-5.08-.43-4.77-1.61s2.91-1.13,5.17.35c-1.3-1-2.13-3.86-.13-4.17,1.26-.22,2.6,1.3,1.61,3.95h0ZM31.76,167.13c-1.3,0-4.08,3-4.6,5.69-1.09-3-.56-3.91-0.56-3.91,0.48-1.61,4.17-2.3,4-3.34a11.85,11.85,0,0,0-.87-1.56l1.61,0.48c1,0.09.26-3.47,1.78-4.47,0,0,1.35-1.26,4.64-.91-2.91,1.13-5.17,4.86-4.21,6.47,0.39,0.69,1.87.52,1.87,0.52a6.62,6.62,0,0,0-2.3,3s-0.48-1.91-1.39-1.91h0ZM128.34,131c-0.65-.48-5.43,1.65-5.43,1.65a11.23,11.23,0,0,0,1.26-2.78c1-.82,3.26-0.22,3.95-0.43a3.44,3.44,0,0,1,.09-1.26l1,0.78c0.65-.09,1.56-2.13,3-2.13a15.3,15.3,0,0,0,3.43,1.39c-2.69.3-5.3,1.17-5.17,2.43a3.16,3.16,0,0,0,1,1.3l-2.78,1s0.3-1.48-.26-1.91h0Zm45.53,2.91c3.78,4.3,5.77,2.43,7.86,5.21,0.22-1.82-1.52-4.08-1.91-4.64,4.34,2.69,4.77,3.26,3.65,5.73-0.82,1.69,2.43-.35,4.08,1.78-1.35-.26-1.69.48-3.3,1.17-3.17,1.3-4.47-.69-6.25.91l-0.61-1.48s2.86-.48,3-1.35-6-.35-6.55-7.34h0Zm-90.89,3c-0.87-2.08-.3-3.82.82-3.82,1.65,0,1.39,2.21.26,3.86,1.13-1.52,3-2.39,3.69-1.17s-0.48,2.39-3.17,2.21c2.34,0.39,3.73,1.87,3,2.86s-2.3.3-3.69-2c1.09,2.26.35,3.82-.52,3.91-1.43.13-2.21-1.22-.56-4-1.43,1.91-3.13,2.21-3.65,1.26s1-2.21,3.13-2.3c-1.39-.09-3.52-1.65-2.56-2.82,0.56-.78,2.26-0.39,3.26,2h0ZM131.6,148c-1.61.56-.74,2.69,0.43,3.39-2-.91-4.21-0.74-4.43.39-0.22,1,1.52,1.52,4.17.65-3.43,1.43-3.65,2.82-2.3,3.39,0.87,0.35,2.6-.52,3.21-2.78-0.3,2.39.61,3.6,2,3.17s1.13-2.21-.69-3.56c2.3,1.3,4.21.91,4.38-.3s-2.08-1.43-4.17-.78c2.17-.78,3.95-2.39,2.47-3.13-0.74-.39-1.82.09-2.6,1.13a7.66,7.66,0,0,1,2.17-5.3c0.65,0.3,1.17,1,2.08,2.78a5.05,5.05,0,0,1,.74-3.43,5.73,5.73,0,0,1,2.13,3.91c0.22,1,1,1,1.17-.13s1.3-3.78,2.82-4.43a11.23,11.23,0,0,1-1.26,5.69c1.52-.13,3-4.21,5.51-4.43-1,.17-1.48,1.52.52,1.74a10,10,0,0,1-3.73,3.95c1.43,0.26,2.26-.78,3.73-1.22a0.88,0.88,0,0,1,.69,1.61c-0.74.56,1.74,0.17,1.78,1.3a1.15,1.15,0,0,1-1,.69,1,1,0,0,0,1,.39,1.85,1.85,0,0,1-1.3.74c1,0.17,1,.91,1.3,1.09-0.74.65-2.17,0-2.69,0.87-1.43,2.43,4.38,3.13,6.42.52a5,5,0,0,1,4.95-1.78,5.84,5.84,0,0,1,3.91,3.6,2.11,2.11,0,0,1,.26.87c1.22-.17,3-0.56,3.26-1.3,0.39-1.17-8.42-1.39-8.12-11.24,4.69,6.55,7.73,4.25,10.24,8.42,0.56-2.52-1.56-5.9-2-6.81,5.69,4.47,6.25,5.34,4.25,8.59-1.43,2.3,3.47-.09,5.47,3.13-1.82-.52-2.43.39-4.77,1.17-4.69,1.35-6.16-1.65-8.94.35l-0.39-1.3c-1.3.3-3.52,0-3.08,2,0.48,2.56.3,0.61,3-.61a2.94,2.94,0,0,1,3.34,1.65,7,7,0,0,1-.87,5,6.49,6.49,0,0,0-.52,3c-0.26-2.78-2.17-3.26-3.21-2.39-1.65,1.35.35,3.21,2,3.39-2.69,0-5,1.3-4.73,2.56s2.43,0.82,4.95-1.35c-3.17,3.17-2.73,4.77-1,4.69,1.13,0,2.65-1.82,2.26-4.51,0.78,2.65,2.39,3.47,3.69,2.39s0.22-2.91-2.47-3.43c3.21,0.26,5.12-1.13,4.77-2.47s-3-.48-5,1.22c2-1.87,3.3-4.47,1.26-4.51a1.63,1.63,0,0,0-.43,0c0.43-.26-0.17-1.74.74-2.34,0.69-.52,1.61.22,1.78,2,1-2.56,3.13-3,3.91-2.08s0.3,2.78-1.3,3.82c3,0.22,3.56-2.21,6.9-2.56-1.39-.48-3.17-2.6-2.43-3.56s3,0.35,3.91,2.52c-0.26-1.35-.17-3.91,1.35-3.73,1.22,0.13,1.09,2.69.52,3.95,0.43-.43,3.78-1.82,4,0s-3.34,1.87-3.34,1.87c2.17,0.65,3.17,2.69,2.69,3.39-0.74,1.13-3.34-1.09-3.73-2.21,0.09,1.69.17,2.65-.82,3.34-1,.43-1.39-0.22-1.69-0.82-0.17.13-.48,0.22-0.74,0.39a4.22,4.22,0,0,1-3,.61c-1.82-.26-2.6.09-2.73,1.65-0.17,2.34,2.73,1.56,5.17.87a4.3,4.3,0,0,0,1-1.56l0.91,1.22a1.43,1.43,0,0,1,1.22.48c1.52-.09,3.17-1.35,4.82-0.52,0,0,.52.87,2.34,3.26-5.34-1.78-7.68-.3-8.38,1-0.48.87,0.65,2.26,0.65,2.26l-4-.43a18,18,0,0,1-2.26,1.69L111.54,226.2,42.61,178.37c-3.08-1.61-2.91-4.38.09-3.56,0.82,0.22,2.08.74,2.69,0.35,2.43-1.52.82-5.43-1.61-3.08-1.78,1.74-4.12,1.91-4.17.82-0.09-1.43,1.69-1.17,3.86-2.3a6.24,6.24,0,0,0,2.3-2.52,3.21,3.21,0,0,1-.52-1.82c-0.35,1.87-1.39,2.91-2.6,2.47s-0.91-2.34.48-3.82c-1.35.48-3.86,0-3.56-1.43s2.13-1,3.73-.3c-1.17-.91-1.78-3.08-0.87-3.6,1.3-.74,2.43,1.17,2.47,3.17,0.3-1.43,1.52-3.13,2.73-2.56s0,2.82-1,3.34a4,4,0,0,1,2.47,0c0.17-2.34,5.82-1.56,4.25.48,0,0-1.22,1.26-.61,2,1.43,1.65,4.6-2.17,4.08-3.95,0,0,3.69.82,4.34,1.74,1.26,1.74,4.08,1.09,3.26-1.69,2,0.78,2.52-.09,2.52-0.52a1,1,0,0,0-1.43-.74,2,2,0,0,1-2.91-1.39c-0.13,1-.91,2.43-1.91,2s-0.22-2.13.3-2.6c-4.38,1.17-3.86-3.47,0-2.08-3.69-2,.82-5.08,1.69-1.26-0.17-3.95,4.64-2,1.69.52,2.43-1.87,3.39,0,2.86.69-1.13,1.3,1.61,2.91,2.21.35-0.91-.91-1.91-3.47.39-6.38a4.63,4.63,0,0,1,2,3.69c0.22-1.13,2.08-3,4.51-.78a6.58,6.58,0,0,1-2-3.6,5.08,5.08,0,0,1,3,2.26,6.84,6.84,0,0,1-1-3.21,3.64,3.64,0,0,1,1.87,1c1-3.3,4.51-3.13,5.43-1.69a3.93,3.93,0,0,1,.69,2,4,4,0,0,1,2-2.3,6.45,6.45,0,0,1-.52,3.43,4.37,4.37,0,0,1,2.39-1.74,6,6,0,0,1-2,4.43s4.25-.65,3.78-3c-0.13-.56-0.82-0.87-1.17-1.43a4.39,4.39,0,0,1-.43-4.34,2.3,2.3,0,0,1,.39,1,2.71,2.71,0,0,1,.74-1.56,1.91,1.91,0,0,1,.48,1.22,3.22,3.22,0,0,1,1.61-2.56,1.93,1.93,0,0,1,.13,1.26A2.72,2.72,0,0,1,93,143.25a1.81,1.81,0,0,1-.17,1.26,1.59,1.59,0,0,1,.82-0.56,1.65,1.65,0,0,1-.17,1,2.56,2.56,0,0,1,1.52-.3c-0.91.69-.82,1.78,0.48,1.69a3.4,3.4,0,0,1-2,1.43,4.24,4.24,0,0,1,2.17.87,2.62,2.62,0,0,1-1.74,1.13,1.74,1.74,0,0,0,2.69-1.22c2.08,1.3,1,4,3.52,4.77-1.22-2.91,0-3.73-.69-6.64a1.67,1.67,0,0,1,1.26,1,4.44,4.44,0,0,0,.35-0.91,7.51,7.51,0,0,1,1.87,6.25c0,0.69.69,0.78,0.65-.09-0.26-2.65.91-5.17,2.91-6a8.64,8.64,0,0,1-.52,4.34c-0.26.65,1,1.35,1.09-.65,0.09-1.78,1.35-1.69,1.74-1.61a1.88,1.88,0,0,1,2.26-.91,1.33,1.33,0,0,1-.43-2c0.87-1.26,2.39-1.17,4.69-1-1.91-1.26-2.56-3.95-1.48-4.56s3,0.87,3.65,3.56c0.26-2.52,1.65-4.43,2.86-4.08s0.26,3.52-.87,4.82c3-.69,4.82-0.09,5,0.82a2.41,2.41,0,0,1,1.61-1.09c2.39-.39,4.17,1.26,5.51,3.3h0ZM116.14,132.4c-1-2.56-8.38-4.3-8.38-4.3a22.39,22.39,0,0,0,4.86-1.78c2.17,0.13,4.12,3.39,5.17,3.95a6.73,6.73,0,0,1,1.65-1.39l0.17,2c0.87,0.65,4.43-.69,6.08.91a56.81,56.81,0,0,1,2.34,5.51c-3.56-2.69-7.68-4.69-9-3.08a4.91,4.91,0,0,0-.43,2.65l-4.38-2s2.39-1.43,2-2.47h0ZM148,124.2c1.48-.74,2.86-0.48,3,0.3,0.26,1.17-1.48,1.13-2.91.43,1.3,0.69,2.3,1.91,1.48,2.52s-1.91-.17-2.21-2c0,1.65-.87,2.69-1.74,2.26s-0.61-1.56.91-2.69c-1.56.91-2.91,0.52-3.08-.13-0.3-1,.61-1.61,3-0.61-1.69-.87-2.21-2-1.56-2.47s1.87,0.52,2.3,2c-0.17-1,.69-2.56,1.74-2,0.69,0.39.69,1.56-1,2.43h0ZM55.07,139.52c5.47,3.34,6.94.69,10.11,3-0.35-2-3-3.82-3.56-4.34,5.51,1.48,6.16,2,5.73,4.95-0.3,2.08,2.52-1.13,5,.56-1.52.17-1.65,1-3.13,2.34-3,2.43-5,.69-6.42,3l-1.13-1.35s2.91-1.48,2.82-2.43-6.55,1.56-9.42-5.69h0Z"/></clipPath></defs><title>hzbank</title><g class="b"><polyline class="c" points="171.93 0 171.93 0.39 0 0.39 0 0"/><polyline class="c" points="171.93 0.17 171.93 0.87 0 0.87 0 0.17"/><polyline class="c" points="171.93 0.65 171.93 1.3 0 1.3 0 0.65"/><polyline class="c" points="171.93 1.08 171.93 1.78 0 1.78 0 1.08"/><polyline class="c" points="171.93 1.52 171.93 2.21 0 2.21 0 1.52"/><polyline class="c" points="171.93 2 171.93 2.65 0 2.65 0 2"/><polyline class="c" points="171.93 2.43 171.93 3.13 0 3.13 0 2.43"/><polyline class="c" points="171.93 2.91 171.93 3.56 0 3.56 0 2.91"/><polyline class="c" points="171.93 3.34 171.93 4.04 0 4.04 0 3.34"/><polyline class="c" points="171.93 3.78 171.93 4.47 0 4.47 0 3.78"/><polyline class="c" points="171.93 4.25 171.93 4.91 0 4.91 0 4.25"/><polyline class="c" points="171.93 4.69 171.93 5.38 0 5.38 0 4.69"/><polyline class="c" points="171.93 5.17 171.93 5.82 0 5.82 0 5.17"/><polyline class="c" points="171.93 5.6 171.93 6.29 0 6.29 0 5.6"/><polyline class="c" points="171.93 6.08 171.93 6.73 0 6.73 0 6.08"/><polyline class="c" points="171.93 6.51 171.93 7.21 0 7.21 0 6.51"/><polyline class="c" points="171.93 6.95 171.93 7.64 0 7.64 0 6.95"/><polyline class="c" points="171.93 7.42 171.93 8.07 0 8.07 0 7.42"/><polyline class="c" points="171.93 7.86 171.93 8.55 0 8.55 0 7.86"/><polyline class="c" points="171.93 8.33 171.93 8.98 0 8.98 0 8.33"/><polyline class="c" points="171.93 8.77 171.93 9.46 0 9.46 0 8.77"/><polyline class="c" points="171.93 9.2 171.93 9.9 0 9.9 0 9.2"/><polyline class="c" points="171.93 9.68 171.93 10.33 0 10.33 0 9.68"/><polyline class="c" points="171.93 10.11 171.93 10.81 0 10.81 0 10.11"/><polyline class="c" points="171.93 10.59 171.93 11.24 0 11.24 0 10.59"/><polyline class="c" points="171.93 11.03 171.93 11.72 0 11.72 0 11.03"/><polyline class="c" points="171.93 11.46 171.93 12.15 0 12.15 0 11.46"/><polyline class="c" points="171.93 11.94 171.93 12.63 0 12.63 0 11.94"/><polyline class="c" points="171.93 12.37 171.93 13.06 0 13.06 0 12.37"/><polyline class="c" points="171.93 12.85 171.93 13.5 0 13.5 0 12.85"/><polyline class="c" points="171.93 13.28 171.93 13.98 0 13.98 0 13.28"/><polyline class="c" points="171.93 13.76 171.93 14.41 0 14.41 0 13.76"/><polyline class="c" points="171.93 14.19 171.93 14.89 0 14.89 0 14.19"/><polyline class="c" points="171.93 14.63 171.93 15.32 0 15.32 0 14.63"/><polyline class="c" points="171.93 15.11 171.93 15.76 0 15.76 0 15.11"/><polyline class="c" points="171.93 15.54 171.93 16.23 0 16.23 0 15.54"/><polyline class="c" points="171.93 16.02 171.93 16.67 0 16.67 0 16.02"/><polyline class="c" points="171.93 16.45 171.93 17.14 0 17.14 0 16.45"/><polyline class="c" points="171.93 16.89 171.93 17.58 0 17.58 0 16.89"/><polyline class="c" points="171.93 17.36 171.93 18.06 0 18.06 0 17.36"/><polyline class="c" points="171.93 17.8 171.93 18.49 0 18.49 0 17.8"/><polyline class="c" points="171.93 18.27 171.93 18.93 0 18.93 0 18.27"/><polyline class="c" points="171.93 18.71 171.93 19.4 0 19.4 0 18.71"/><polyline class="c" points="171.93 19.19 171.93 19.84 0 19.84 0 19.19"/><polyline class="d" points="171.93 19.62 171.93 20.31 0 20.31 0 19.62"/><polyline class="e" points="171.93 20.05 171.93 20.75 0 20.75 0 20.05"/><polyline class="f" points="171.93 20.53 171.93 21.18 0 21.18 0 20.53"/><polyline class="g" points="171.93 20.96 171.93 21.66 0 21.66 0 20.96"/><polyline class="h" points="171.93 21.44 171.93 22.09 0 22.09 0 21.44"/><polyline class="i" points="171.93 21.88 171.93 22.57 0 22.57 0 21.88"/><polyline class="j" points="171.93 22.31 171.93 23 0 23 0 22.31"/><polyline class="k" points="171.93 22.79 171.93 23.48 0 23.48 0 22.79"/><polyline class="l" points="171.93 23.22 171.93 23.92 0 23.92 0 23.22"/><polyline class="m" points="171.93 23.7 171.93 24.35 0 24.35 0 23.7"/><polyline class="n" points="171.93 24.13 171.93 24.83 0 24.83 0 24.13"/><polyline class="o" points="171.93 24.61 171.93 25.26 0 25.26 0 24.61"/><polyline class="p" points="171.93 25.05 171.93 25.74 0 25.74 0 25.05"/><polyline class="q" points="171.93 25.48 171.93 26.17 0 26.17 0 25.48"/><polyline class="r" points="171.93 25.96 171.93 26.61 0 26.61 0 25.96"/><polyline class="s" points="171.93 26.39 171.93 27.09 0 27.09 0 26.39"/><polyline class="t" points="171.93 26.87 171.93 27.52 0 27.52 0 26.87"/><polyline class="u" points="171.93 27.3 171.93 28 0 28 0 27.3"/><polyline class="v" points="171.93 27.74 171.93 28.43 0 28.43 0 27.74"/><polyline class="w" points="171.93 28.21 171.93 28.86 0 28.86 0 28.21"/><polyline class="x" points="171.93 28.65 171.93 29.34 0 29.34 0 28.65"/><polyline class="y" points="171.93 29.13 171.93 29.78 0 29.78 0 29.13"/><polyline class="z" points="171.93 29.56 171.93 30.25 0 30.25 0 29.56"/><polyline class="aa" points="171.93 30.04 171.93 30.69 0 30.69 0 30.04"/><polyline class="ab" points="171.93 30.47 171.93 31.17 0 31.17 0 30.47"/><polyline class="ac" points="171.93 30.91 171.93 31.6 0 31.6 0 30.91"/><polyline class="ad" points="171.93 31.38 171.93 32.03 0 32.03 0 31.38"/><polyline class="ae" points="171.93 31.82 171.93 32.51 0 32.51 0 31.82"/><polyline class="af" points="171.93 32.29 171.93 32.95 0 32.95 0 32.29"/><polyline class="ag" points="171.93 32.73 171.93 33.42 0 33.42 0 32.73"/><polyline class="ah" points="171.93 33.16 171.93 33.86 0 33.86 0 33.16"/><polyline class="ai" points="171.93 33.64 171.93 34.29 0 34.29 0 33.64"/><polyline class="aj" points="171.93 34.07 171.93 34.77 0 34.77 0 34.07"/><polyline class="ak" points="171.93 34.55 171.93 35.2 0 35.2 0 34.55"/><polyline class="al" points="171.93 34.98 171.93 35.68 0 35.68 0 34.98"/><polyline class="am" points="171.93 35.46 171.93 36.11 0 36.11 0 35.46"/><polyline class="an" points="171.93 35.9 171.93 36.59 0 36.59 0 35.9"/><polyline class="ao" points="171.93 36.33 171.93 37.03 0 37.03 0 36.33"/><polyline class="ap" points="171.93 36.81 171.93 37.46 0 37.46 0 36.81"/><polyline class="aq" points="171.93 37.24 171.93 37.94 0 37.94 0 37.24"/><polyline class="ar" points="171.93 37.72 171.93 38.37 0 38.37 0 37.72"/><polyline class="as" points="171.93 38.15 171.93 38.85 0 38.85 0 38.15"/><polyline class="at" points="171.93 38.59 171.93 39.28 0 39.28 0 38.59"/><polyline class="au" points="171.93 39.07 171.93 39.72 0 39.72 0 39.07"/><polyline class="av" points="171.93 39.5 171.93 40.19 0 40.19 0 39.5"/><polyline class="aw" points="171.93 39.98 171.93 40.63 0 40.63 0 39.98"/><polyline class="ax" points="171.93 40.41 171.93 41.11 0 41.11 0 40.41"/><polyline class="ay" points="171.93 40.84 171.93 41.54 0 41.54 0 40.84"/><polyline class="az" points="171.93 41.32 171.93 42.02 0 42.02 0 41.32"/><polyline class="ba" points="171.93 41.76 171.93 42.45 0 42.45 0 41.76"/><polyline class="bb" points="171.93 42.23 171.93 42.88 0 42.88 0 42.23"/><polyline class="bc" points="171.93 42.67 171.93 43.36 0 43.36 0 42.67"/><polyline class="bd" points="171.93 43.15 171.93 43.8 0 43.8 0 43.15"/><polyline class="be" points="171.93 43.58 171.93 44.27 0 44.27 0 43.58"/><polyline class="bf" points="171.93 44.01 171.93 44.71 0 44.71 0 44.01"/><polyline class="bg" points="171.93 44.49 171.93 45.14 0 45.14 0 44.49"/><polyline class="bh" points="171.93 44.92 171.93 45.62 0 45.62 0 44.92"/><polyline class="bi" points="171.93 45.4 171.93 46.05 0 46.05 0 45.4"/><polyline class="bj" points="171.93 45.84 171.93 46.53 0 46.53 0 45.84"/><polyline class="bk" points="171.93 46.27 171.93 46.97 0 46.97 0 46.27"/><polyline class="bl" points="171.93 46.75 171.93 47.44 0 47.44 0 46.75"/><polyline class="bm" points="171.93 47.18 171.93 47.88 0 47.88 0 47.18"/><polyline class="bn" points="171.93 47.66 171.93 48.31 0 48.31 0 47.66"/><polyline class="bo" points="171.93 48.09 171.93 48.79 0 48.79 0 48.09"/><polyline class="bp" points="171.93 48.57 171.93 49.22 0 49.22 0 48.57"/><polyline class="bq" points="171.93 49.01 171.93 49.7 0 49.7 0 49.01"/><polyline class="br" points="171.93 49.44 171.93 50.13 0 50.13 0 49.44"/><polyline class="bs" points="171.93 49.92 171.93 50.57 0 50.57 0 49.92"/><polyline class="bt" points="171.93 50.35 171.93 51.05 0 51.05 0 50.35"/><polyline class="bu" points="171.93 50.83 171.93 51.48 0 51.48 0 50.83"/><polyline class="bv" points="171.93 51.26 171.93 51.96 0 51.96 0 51.26"/><polyline class="bw" points="171.93 51.7 171.93 52.39 0 52.39 0 51.7"/><polyline class="bx" points="171.93 52.17 171.93 52.87 0 52.87 0 52.17"/><polyline class="by" points="171.93 52.61 171.93 53.3 0 53.3 0 52.61"/><polyline class="bz" points="171.93 53.09 171.93 53.74 0 53.74 0 53.09"/><polyline class="ca" points="171.93 53.52 171.93 54.21 0 54.21 0 53.52"/><polyline class="cb" points="171.93 54 171.93 54.65 0 54.65 0 54"/><polyline class="cc" points="171.93 54.43 171.93 55.13 0 55.13 0 54.43"/><polyline class="cd" points="171.93 54.87 171.93 55.56 0 55.56 0 54.87"/><polyline class="ce" points="171.93 55.34 171.93 55.99 0 55.99 0 55.34"/><polyline class="cf" points="171.93 55.78 171.93 56.47 0 56.47 0 55.78"/><polyline class="cg" points="171.93 56.25 171.93 56.91 0 56.91 0 56.25"/><polyline class="ch" points="171.93 56.69 171.93 57.38 0 57.38 0 56.69"/><polyline class="ci" points="171.93 57.12 171.93 57.82 0 57.82 0 57.12"/><polyline class="ci" points="171.93 57.6 171.93 58.25 0 58.25 0 57.6"/><polyline class="cj" points="171.93 58.03 171.93 58.73 0 58.73 0 58.03"/><polyline class="ck" points="171.93 58.51 171.93 59.16 0 59.16 0 58.51"/><polyline class="cl" points="171.93 58.95 171.93 59.64 0 59.64 0 58.95"/><polyline class="cm" points="171.93 59.42 171.93 60.07 0 60.07 0 59.42"/><polyline class="cn" points="171.93 59.86 171.93 60.55 0 60.55 0 59.86"/><polyline class="cn" points="171.93 60.29 171.93 60.99 0 60.99 0 60.29"/><polyline class="co" points="171.93 60.77 171.93 61.42 0 61.42 0 60.77"/><polyline class="cp" points="171.93 61.2 171.93 61.9 0 61.9 0 61.2"/><polyline class="cp" points="171.93 61.68 171.93 62.33 0 62.33 0 61.68"/><polyline class="cq" points="171.93 62.11 171.93 62.81 0 62.81 0 62.11"/><polyline class="cr" points="171.93 62.55 171.93 63.24 0 63.24 0 62.55"/><polyline class="cs" points="171.93 63.03 171.93 63.68 0 63.68 0 63.03"/><polyline class="ct" points="171.93 63.46 171.93 64.15 0 64.15 0 63.46"/><polyline class="cu" points="171.93 63.94 171.93 64.59 0 64.59 0 63.94"/><polyline class="cv" points="171.93 64.37 171.93 65.07 0 65.07 0 64.37"/><polyline class="cv" points="171.93 64.85 171.93 65.5 0 65.5 0 64.85"/><polyline class="cw" points="171.93 65.28 171.93 65.98 0 65.98 0 65.28"/><polyline class="cx" points="171.93 65.72 171.93 66.41 0 66.41 0 65.72"/><polyline class="cx" points="171.93 66.19 171.93 66.85 0 66.85 0 66.19"/><polyline class="cy" points="171.93 66.63 171.93 67.32 0 67.32 0 66.63"/><polyline class="cz" points="171.93 67.11 171.93 67.76 0 67.76 0 67.11"/><polyline class="da" points="171.93 67.54 171.93 68.23 0 68.23 0 67.54"/><polyline class="db" points="171.93 67.97 171.93 68.67 0 68.67 0 67.97"/><polyline class="dc" points="171.93 68.45 171.93 69.1 0 69.1 0 68.45"/><polyline class="dc" points="171.93 68.89 171.93 69.58 0 69.58 0 68.89"/><polyline class="dd" points="171.93 69.36 171.93 70.01 0 70.01 0 69.36"/><polyline class="de" points="171.93 69.8 171.93 70.49 0 70.49 0 69.8"/><polyline class="de" points="171.93 70.28 171.93 70.93 0 70.93 0 70.28"/><polyline class="df" points="171.93 70.71 171.93 71.4 0 71.4 0 70.71"/><polyline class="dg" points="171.93 71.14 171.93 71.84 0 71.84 0 71.14"/><polyline class="dh" points="171.93 71.62 171.93 72.27 0 72.27 0 71.62"/><polyline class="di" points="171.93 72.05 171.93 72.75 0 72.75 0 72.05"/><polyline class="dj" points="171.93 72.53 171.93 73.18 0 73.18 0 72.53"/><polyline class="dk" points="171.93 72.97 171.93 73.66 0 73.66 0 72.97"/><polyline class="dl" points="171.93 73.4 171.93 74.09 0 74.09 0 73.4"/><polyline class="dm" points="171.93 73.88 171.93 74.53 0 74.53 0 73.88"/><polyline class="dn" points="171.93 74.31 171.93 75.01 0 75.01 0 74.31"/><polyline class="do" points="171.93 74.79 171.93 75.44 0 75.44 0 74.79"/><polyline class="dp" points="171.93 75.22 171.93 75.92 0 75.92 0 75.22"/><polyline class="dq" points="171.93 75.66 171.93 76.35 0 76.35 0 75.66"/><polyline class="dq" points="171.93 76.14 171.93 76.83 0 76.83 0 76.14"/><polyline class="dr" points="171.93 76.57 171.93 77.26 0 77.26 0 76.57"/><polyline class="ds" points="171.93 77.05 171.93 77.7 0 77.7 0 77.05"/><polyline class="ds" points="171.93 77.48 171.93 78.17 0 78.17 0 77.48"/><polyline class="dt" points="171.93 77.96 171.93 78.61 0 78.61 0 77.96"/><polyline class="du" points="171.93 78.39 171.93 79.09 0 79.09 0 78.39"/><polyline class="dv" points="171.93 78.83 171.93 79.52 0 79.52 0 78.83"/><polyline class="dw" points="171.93 79.3 171.93 79.95 0 79.95 0 79.3"/><polyline class="dx" points="171.93 79.74 171.93 80.43 0 80.43 0 79.74"/><polyline class="dy" points="171.93 80.22 171.93 80.87 0 80.87 0 80.22"/><polyline class="dz" points="171.93 80.65 171.93 81.34 0 81.34 0 80.65"/><polyline class="ea" points="171.93 81.08 171.93 81.78 0 81.78 0 81.08"/><polyline class="eb" points="171.93 81.56 171.93 82.25 0 82.25 0 81.56"/><polyline class="ec" points="171.93 81.99 171.93 82.69 0 82.69 0 81.99"/><polyline class="ed" points="171.93 82.47 171.93 83.12 0 83.12 0 82.47"/><polyline class="ee" points="171.93 82.91 171.93 83.6 0 83.6 0 82.91"/><polyline class="ee" points="171.93 83.38 171.93 84.03 0 84.03 0 83.38"/><polyline class="ef" points="171.93 83.82 171.93 84.51 0 84.51 0 83.82"/><polyline class="eg" points="171.93 84.25 171.93 84.95 0 84.95 0 84.25"/><polyline class="eg" points="171.93 84.73 171.93 85.38 0 85.38 0 84.73"/><polyline class="eh" points="171.93 85.16 171.93 85.86 0 85.86 0 85.16"/><polyline class="ei" points="171.93 85.64 171.93 86.29 0 86.29 0 85.64"/><polyline class="ej" points="171.93 86.08 171.93 86.77 0 86.77 0 86.08"/><polyline class="ek" points="171.93 86.51 171.93 87.2 0 87.2 0 86.51"/><polyline class="el" points="171.93 86.99 171.93 87.64 0 87.64 0 86.99"/><polyline class="em" points="171.93 87.42 171.93 88.11 0 88.11 0 87.42"/><polyline class="en" points="171.93 87.9 171.93 88.55 0 88.55 0 87.9"/><polyline class="eo" points="171.93 88.33 171.93 89.03 0 89.03 0 88.33"/><polyline class="eo" points="171.93 88.81 171.93 89.46 0 89.46 0 88.81"/><polyline class="ep" points="171.93 89.24 171.93 89.94 0 89.94 0 89.24"/><polyline class="eq" points="171.93 89.68 171.93 90.37 0 90.37 0 89.68"/><polyline class="er" points="171.93 90.16 171.93 90.81 0 90.81 0 90.16"/><polyline class="es" points="171.93 90.59 171.93 91.28 0 91.28 0 90.59"/><polyline class="et" points="171.93 91.07 171.93 91.72 0 91.72 0 91.07"/><polyline class="eu" points="171.93 91.5 171.93 92.19 0 92.19 0 91.5"/><polyline class="eu" points="171.93 91.93 171.93 92.63 0 92.63 0 91.93"/><polyline class="ev" points="171.93 92.41 171.93 93.06 0 93.06 0 92.41"/><polyline class="ew" points="171.93 92.85 171.93 93.54 0 93.54 0 92.85"/><polyline class="ex" points="171.93 93.32 171.93 93.97 0 93.97 0 93.32"/><polyline class="ey" points="171.93 93.76 171.93 94.45 0 94.45 0 93.76"/><polyline class="ez" points="171.93 94.23 171.93 94.89 0 94.89 0 94.23"/><polyline class="ez" points="171.93 94.67 171.93 95.36 0 95.36 0 94.67"/><polyline class="fa" points="171.93 95.1 171.93 95.8 0 95.8 0 95.1"/><polyline class="fb" points="171.93 95.58 171.93 96.23 0 96.23 0 95.58"/><polyline class="fb" points="171.93 96.02 171.93 96.71 0 96.71 0 96.02"/><polyline class="fc" points="171.93 96.49 171.93 97.14 0 97.14 0 96.49"/><polyline class="fd" points="171.93 96.93 171.93 97.62 0 97.62 0 96.93"/><polyline class="fe" points="171.93 97.36 171.93 98.06 0 98.06 0 97.36"/><polyline class="ff" points="171.93 97.84 171.93 98.49 0 98.49 0 97.84"/><polyline class="fg" points="171.93 98.27 171.93 98.97 0 98.97 0 98.27"/><polyline class="fh" points="171.93 98.75 171.93 99.4 0 99.4 0 98.75"/><polyline class="fi" points="171.93 99.18 171.93 99.88 0 99.88 0 99.18"/><polyline class="fj" points="171.93 99.66 171.93 100.31 0 100.31 0 99.66"/><polyline class="fj" points="171.93 100.09 171.93 100.79 0 100.79 0 100.09"/><polyline class="fk" points="171.93 100.53 171.93 101.22 0 101.22 0 100.53"/><polyline class="fl" points="171.93 101.01 171.93 101.66 0 101.66 0 101.01"/><polyline class="fm" points="171.93 101.44 171.93 102.14 0 102.14 0 101.44"/><polyline class="fn" points="171.93 101.92 171.93 102.57 0 102.57 0 101.92"/><polyline class="fo" points="171.93 102.35 171.93 103.05 0 103.05 0 102.35"/><polyline class="fp" points="171.93 102.79 171.93 103.48 0 103.48 0 102.79"/><polyline class="fp" points="171.93 103.26 171.93 103.92 0 103.92 0 103.26"/><polyline class="fq" points="171.93 103.7 171.93 104.39 0 104.39 0 103.7"/><polyline class="fr" points="171.93 104.17 171.93 104.83 0 104.83 0 104.17"/><polyline class="fs" points="171.93 104.61 171.93 105.3 0 105.3 0 104.61"/><polyline class="ft" points="171.93 105.04 171.93 105.74 0 105.74 0 105.04"/><polyline class="fu" points="171.93 105.52 171.93 106.22 0 106.22 0 105.52"/><polyline class="fu" points="171.93 105.95 171.93 106.65 0 106.65 0 105.95"/><polyline class="fv" points="171.93 106.43 171.93 107.08 0 107.08 0 106.43"/><polyline class="fw" points="171.93 106.87 171.93 107.56 0 107.56 0 106.87"/><polyline class="fw" points="171.93 107.34 171.93 108 0 108 0 107.34"/><polyline class="fx" points="171.93 107.78 171.93 108.47 0 108.47 0 107.78"/><polyline class="fy" points="171.93 108.21 171.93 108.91 0 108.91 0 108.21"/><polyline class="fy" points="171.93 108.69 171.93 109.34 0 109.34 0 108.69"/><polyline class="fz" points="171.93 109.12 171.93 109.82 0 109.82 0 109.12"/><polyline class="ga" points="171.93 109.6 171.93 110.25 0 110.25 0 109.6"/><polyline class="gb" points="171.93 110.03 171.93 110.73 0 110.73 0 110.03"/><polyline class="gc" points="171.93 110.47 171.93 111.16 0 111.16 0 110.47"/><polyline class="gd" points="171.93 110.95 171.93 111.64 0 111.64 0 110.95"/><polyline class="ge" points="171.93 111.38 171.93 112.08 0 112.08 0 111.38"/><polyline class="gf" points="171.93 111.86 171.93 112.51 0 112.51 0 111.86"/><polyline class="gg" points="171.93 112.29 171.93 112.99 0 112.99 0 112.29"/><polyline class="gh" points="171.93 112.77 171.93 113.42 0 113.42 0 112.77"/><polyline class="gi" points="171.93 113.2 171.93 113.9 0 113.9 0 113.2"/><polyline class="gj" points="171.93 113.64 171.93 114.33 0 114.33 0 113.64"/><polyline class="gk" points="171.93 114.11 171.93 114.77 0 114.77 0 114.11"/><polyline class="gk" points="171.93 114.55 171.93 115.24 0 115.24 0 114.55"/><polyline class="gl" points="171.93 115.03 171.93 115.89 0 115.89 0 115.03"/></g><path class="gm" d="M414.17,253.25h-6.9l-2,6.29h-4.17l7.21-22.18h5l7.21,22.18h-4.34Zm-5.95-3h5L410.7,242Zm134.26-12.85h4v12.94c0,4.34,1.78,6.34,4.51,6.34,2.91,0,4.69-2,4.69-6.34V237.36h4V250c0,6.81-3.52,9.85-8.85,9.85-5.12,0-8.42-2.86-8.42-9.81V237.36Zm-15.76,19.27c3.95,0,6.16-3.6,6.16-8.25,0-4.17-2.08-8.12-6.12-8.12s-6.12,3.82-6.12,8.25,2.21,8.12,6.08,8.12h0Zm-0.09,3.26c-6.29,0-10.24-4.82-10.24-11.29,0-6.77,4.3-11.59,10.55-11.59,6.42,0,10.24,4.9,10.24,11.2,0,7.42-4.51,11.68-10.55,11.68h0Zm-33-22.53h4.08v8.9H507v-8.9h4v22.18h-4v-9.77h-9.33v9.77H493.6V237.36Zm-21.88,22.18v-2.26l11.33-16.45H472.73v-3.47h15.54v2.39l-11.16,16.32h11.33v3.47H471.73Zm-4.47-12.24v11.2a22.32,22.32,0,0,1-7.12,1.26c-3.73,0-6.6-1-8.72-3a11.2,11.2,0,0,1-3.08-8.16c0-7,5-11.5,12.33-11.5a16.29,16.29,0,0,1,5.9,1l-0.91,3.3a11.35,11.35,0,0,0-5-1c-4.73,0-8,2.82-8,7.94s3.08,8,7.68,8a7.68,7.68,0,0,0,3-.43v-5.56H459.4V247.3h7.86Zm-88.46-9.94h4v8.9h9.38v-8.9h4v22.18h-4v-9.77h-9.38v9.77h-4V237.36Zm-27.17,22.18V237.36h12.8v3.34h-8.77v6.12h8.16v3.26h-8.16v9.46h-4Zm-15.76-2.91c3.95,0,6.16-3.6,6.16-8.25,0-4.17-2.08-8.12-6.12-8.12s-6.16,3.82-6.16,8.25,2.26,8.12,6.12,8.12h0Zm-0.09,3.26c-6.29,0-10.24-4.82-10.24-11.29,0-6.77,4.3-11.59,10.55-11.59,6.42,0,10.24,4.9,10.24,11.2,0,7.42-4.51,11.68-10.55,11.68h0Zm-38.67-.35V237.36h4v10.2l7.55-10.2h4.95l-7.34,9.9,7.81,12.28h-4.73l-5.51-9-2.73,3.73v5.25h-4Zm-35.33-6.29h-6.9l-2,6.29h-4.21l7.21-22.18h5l7.25,22.18h-4.34Zm-5.95-3h5L258.34,242Zm-22.14-.82v7.34h2.13c2.6,0,4.9-1,4.9-3.69s-2.26-3.65-5-3.65h-2Zm0-9.2v6.25h2c2.82,0,4.38-1.3,4.38-3.17,0-2.13-1.56-3.08-4.12-3.08h-2.3Zm9.2,17.54c-1.61,1.35-4.17,2-8.25,2h-5V237.19h6.21c2.82,0,4.6.43,6,1.43a4.66,4.66,0,0,1,2.3,4.17,5.13,5.13,0,0,1-3.69,4.77,5.77,5.77,0,0,1,4.47,5.6,5.91,5.91,0,0,1-2.08,4.56h0Zm44-20.36h3.73v22.18h-4.21l-9.59-16.19v16.19H273V237.36h4.64l9.2,15.5v-15.5Zm152.4,0H443v22.18h-4.21l-9.64-16.19v16.19h-3.73V237.36h4.64l9.2,15.5v-15.5Z" transform="translate(-26.08 -110.31)"/><path class="gm" d="M110.59,248.38c0,4.51-2.08,9.25-7.12,9.25-5.64,0-7.64-4.73-7.64-9.25s2-9.25,7.64-9.25c5,0,7.12,4.73,7.12,9.25h0ZM93.18,259.24h2.43v-4.12H95.7a8.14,8.14,0,0,0,7.77,4.77c6.6,0,9.77-5.34,9.77-11.5s-3.17-11.5-9.77-11.5c-3.26,0-6.42,1.65-7.55,4.77H95.83V229.2H93.18v30Z" transform="translate(-26.08 -110.31)"/><path class="gm" d="M131.21,250.82c0,3.47-2.86,6.64-7.55,6.64-2.47,0-4.86-1.56-4.86-4.12,0-5.08,3.95-5.43,8.46-6.21a10.23,10.23,0,0,0,3.78-1.35h0.09Zm-13.72-10.07a23.75,23.75,0,0,1,8-1.48c3.13,0,5.38,1,5.38,3,0,1.52-1.61,2.08-6.73,2.86-4.73.69-8.2,2.69-8.2,7.68,0,4.38,3.47,7,7.47,7a8.35,8.35,0,0,0,7.94-4.43v3.78h2.52V243.87c0-5.82-4.17-7-8-7a20.87,20.87,0,0,0-8.33,1.56Z" transform="translate(-26.08 -110.31)"/><path class="gm" d="M45.52,259.24h4.82V246.39c0-3.17,2.08-5.73,5.25-5.73,2.82,0,4.17,1.48,4.25,4.9v13.67h4.82V244.3c0-4.9-3-7.42-7.73-7.42a8.38,8.38,0,0,0-6.51,2.65H50.34V229.2H45.52v30Z" transform="translate(-26.08 -110.31)"/><polygon class="gm" points="43.54 130.96 55.3 130.96 43.28 145.58 43.28 148.93 62.42 148.93 62.42 145.15 49.74 145.15 61.81 130.52 61.81 127.18 43.54 127.18 43.54 130.96"/><path class="gm" d="M138.15,259.24h2.65V246.56c0.09-4.25,2.6-7.42,6.81-7.42s5.51,2.82,5.51,6.55v13.54h2.69v-14c0-5.17-1.87-8.38-8-8.38a7.35,7.35,0,0,0-6.95,4.38H140.8v-3.73h-2.65v21.7Z" transform="translate(-26.08 -110.31)"/><polygon class="gm" points="133.82 148.93 136.47 148.93 136.47 140.68 140.77 137.12 149.36 148.93 152.66 148.93 142.76 135.25 152.05 127.22 148.49 127.22 136.47 137.73 136.47 118.89 133.82 118.89 133.82 148.93"/><polygon class="gm" points="300.81 92.98 291.73 92.98 295.03 64.02 304.02 64.02 300.81 92.98"/><path class="gm" d="M331.48,159.36h9.38v15h7.64l4.08,20.75V159.36H362v15h7.9l5.25,21V159.36h9.72v65.46h-9.72V203.76h-7.9L362,182.67v42.15h-9.38V203.76h-7.64l-4-20.49,0,14c0,8.38-2.08,21-8.85,27.56h-9.9l0.65-.78a40.61,40.61,0,0,0,8.72-25.22V159.36Z" transform="translate(-26.08 -110.31)"/><polygon class="gm" points="227.45 92.41 224.28 83.38 224.28 114.51 214.73 114.51 214.73 82.43 208.05 103.92 200.19 103.92 211.82 65.33 202.1 65.33 202.1 58.86 214.73 58.86 214.73 49.01 224.28 49.01 224.28 58.86 231.09 58.86 231.09 65.33 225.67 65.33 235.61 92.45 227.45 92.41"/><path class="gm" d="M264.46,185.1c0-5.12,1.13-7.16,5.08-7.16h20.79c4.21,0,5.3,2.26,5.3,6.38v34.33h4.3v6.16h-8.42c-3.95,0-5.64-1.39-5.64-6.12v-35H273.93v22.18c0,5.69-1.17,14.15-5.17,19h-9.64l0.43-.61a33.13,33.13,0,0,0,4.9-17V185.1Z" transform="translate(-26.08 -110.31)"/><polygon class="gm" points="246.85 49.01 257.14 49.05 258.53 55.21 273.94 55.21 273.94 61.68 233.53 61.68 233.53 55.21 248.15 55.21 246.85 49.01"/><path class="gm" d="M447,179.76v8.68h17.88l0-8.68H447Zm0-13.54v7.55H465l0-7.55H447Zm16.71-5.82H470c3.3,0,4.34,1.82,4.34,5.17v29H459.7l4.9,9.81,2.6-6.08h8.85l-6.47,16.1,5.17,10.42h-9.55l-15.67-30.25H447V219l8.46,0v5.86H442.73c-4.17,0-5.17-2-5.17-5.56V165.44c0-3.91,1.65-5,4.64-5h21.53Z" transform="translate(-26.08 -110.31)"/><path class="gm" d="M434.57,193.22v5.95h-11v20.57l9.38,0v5.12H419.6c-3.26,0-5.51-2-5.51-5.38V199.16h-7.34v-5.95h7.34v-8.59h-6.77v-2.17h-3.65l7.25-23.09h8.68l-2.13,6.34h17.28v5.95h-19.1l-2.17,7h21.1v5.95h-11v8.59h11Z" transform="translate(-26.08 -110.31)"/><polygon class="gm" points="475.64 114.42 475.64 91.41 466.18 91.41 483.72 66.76 494.57 66.76 485.41 79.65 485.41 114.42 475.64 114.42"/><rect class="gn" x="498.13" y="51.26" width="36.68" height="7.25"/><path class="gm" d="M563.45,186.49h-8v31.64c0,2.91-1,6.68-5.95,6.68H532.76V218.3l12.15,0,0-31.86H521.3v-6.73h42.15v6.73Z" transform="translate(-26.08 -110.31)"/><polygon class="gm" points="476.21 71.79 465.36 71.79 481.07 49.74 491.88 49.74 476.21 71.79"/></svg>