<svg xmlns="http://www.w3.org/2000/svg" viewBox="0 0 537.06 92.59"><defs><style>.a{fill:#0055b8;}.b{fill:#094;}</style></defs><title>China Minsheng Bank</title><path class="a" d="M98.71,182.1l15.23-7L85.32,162.26,56.69,175.12l28.42,12.79,0.21,0c21.47,0,38.93,9.66,38.93,21.53S106.79,231,85.32,231s-38.94-9.66-38.94-21.54V209H26.47v0.5c0,16,26.39,29.06,58.84,29.06s58.84-13,58.84-29.06c0-13.4-19.4-24.1-45.45-27.38h0Zm-13.39-1.75h0l-11.65-5.24,11.65-5.24L97,175.12Z" transform="translate(-26.47 -145.96)"/><path class="b" d="M85.32,146C52.87,146,26.47,159,26.47,175c0,13.4,19.39,24.11,45.45,27.39l-15.24,7,28.63,12.85,28.62-12.85-28.42-12.8-0.2,0c-21.47,0-38.94-9.66-38.94-21.53s17.47-21.54,38.94-21.54,38.93,9.67,38.93,21.54v0.49h19.91V175c0-16-26.4-29.06-58.84-29.06h0Zm0,58.19h0L97,209.39l-11.65,5.23-11.65-5.23Z" transform="translate(-26.47 -145.96)"/><path class="a" d="M213.09,157.94H195V154.1c0-2.07-1.3-2.65-2.33-2.65h-4.83v6.49H163.18s0,25.34,0,26.19a5.17,5.17,0,0,0,5.39,5.34h19.25v11.75h4.83c1,0,2.33-.58,2.33-2.65v-9.1h19.78a5.17,5.17,0,0,0,5.39-5.34c0-.84,0-26.19,0-26.19h-7.09Zm-42.83,25h0V164.5h17.57v18.41H170.26Zm24.72,0h0V164.5h18.11v18.41H195Z" transform="translate(-26.47 -145.96)"/><path class="a" d="M300.22,153.17V198.8h0a3.4,3.4,0,0,0,4.87,3v0L319,198.05s2.61-1.06,2.58-5.11v-3l-14.83,4.2V183.83h23.69l4.69,8.47c3.1,5.59,9,7.91,13,8.87,4.29,0.84,6-1.18,6.78-2.07,0.86-1.1,3.62-4.87,3.62-4.87s-14.11.09-18.18-6.53h0c-0.7-1.11-1.52-2.45-2.38-3.88h14.57a2.63,2.63,0,0,0,2.79-2.76v-3.8h-21.2c-1.33-2.31-2.47-4.32-3.12-5.47H345.4a5.19,5.19,0,0,0,5.41-5.34v-13.3m-6.56,6.56h0v5.52H306.78v-5.52h37.47Zm-37.47,17.54h0V171.8h17.06l3,5.47H306.78Z" transform="translate(-26.47 -145.96)"/><path class="a" d="M445,151.76h-6.24a27.09,27.09,0,0,1-11.1,11l3.77,3.42a4.62,4.62,0,0,0,3.82.78v3.34a1.66,1.66,0,0,0,1.79,1.64h2.24V177h-6.82v3.56a2.07,2.07,0,0,0,2.31,2.18h4.5v14.95h0a3.42,3.42,0,0,0,3.42,3.42,3.36,3.36,0,0,0,1.46-.34h0l7.49-2.6s2.6-1.06,2.58-5.11v-2.77l-8.39,2.89V182.73h8.91V177h-8.91v-5.09h8.91v-5.75H437a5.57,5.57,0,0,0,.75-0.61,24,24,0,0,0,2.92-3.49h14.12v-5.74H443.66A31.23,31.23,0,0,0,445,151.76Z" transform="translate(-26.47 -145.96)"/><path class="a" d="M491.34,188.28a3.7,3.7,0,0,0,1.92-3.47v-4.1l-13.09,4.87a43.6,43.6,0,0,1-4.91-6.41h12a5.19,5.19,0,0,0,5.41-5.34v-21H462c-3.86,0-4.13,2.64-4.14,4.53h0v39.93h0c0,0.09,0,.18,0,0.28a3.42,3.42,0,0,0,3.43,3.43,3.46,3.46,0,0,0,1.46-.33v0l7.11-2.14s2.57-.89,2.57-5v-3l-8,2.59V179.17h4.92c1.17,2.49,8,16.17,18.45,21.55,1.72,0.89,3.94,1.72,6.62-.62,1.87-2.08,3.74-4.42,3.74-4.42a25.81,25.81,0,0,1-12.51-5.16l5.7-2.24h0Zm-5.24-29.75h0v4.93H464.43v-4.93H486.1Zm-21.68,10.68H486.1v4.22H464.43v-4.22Z" transform="translate(-26.47 -145.96)"/><path class="a" d="M417.43,193.73h-19V182.34h18.51a2.63,2.63,0,0,0,2.79-2.76v-3.8h-21.3V165.69h19.2a2.63,2.63,0,0,0,2.79-2.76v-3.8h-22v-5c0-2.07-1.3-2.65-2.33-2.65h-4.3v7.62h-13a32.74,32.74,0,0,0,1.52-5h-6.48s-4,7.64-11.42,11.29l2.58,2.26c1.88,1.65,5.62,2.65,7.73.63a23.22,23.22,0,0,0,2.37-2.66h16.72v10.09H370.95v3.8a2.63,2.63,0,0,0,2.79,2.76h18.06v11.38H364.53v3.8a2.64,2.64,0,0,0,2.8,2.76h53.59c3.22,0,3.81-1.78,4.07-3.25,0.26-1.7.7-4,.7-4a12.8,12.8,0,0,1-4.78.67h-3.48Z" transform="translate(-26.47 -145.96)"/><path class="a" d="M531.22,161.1h26a2.63,2.63,0,0,0,2.79-2.76v-3.79H528.43v3.79A2.63,2.63,0,0,0,531.22,161.1Z" transform="translate(-26.47 -145.96)"/><path class="a" d="M501.31,162l4,3.47c0.57,0.4,2.33,1.79,5.65.14a29.87,29.87,0,0,0,12.43-13.83h-6.59A30.43,30.43,0,0,1,501.31,162Z" transform="translate(-26.47 -145.96)"/><path class="a" d="M516.67,165.28a30.92,30.92,0,0,1-15.72,10.22l3.85,3.26a5,5,0,0,0,5.64.58c0.54-.28,1.13-0.63,1.75-1v22.9h4.29c1,0,2.33-.57,2.33-2.65v-26a31.41,31.41,0,0,0,4.56-7.24h-6.7Z" transform="translate(-26.47 -145.96)"/><path class="a" d="M558.76,167.93H524.63v3.79a2.63,2.63,0,0,0,2.79,2.76h19.72v20.37h-1.48v0h-6.33a12.82,12.82,0,0,1-4.78-.66s0.44,2.26.71,4c0.26,1.47.84,3.25,4.07,3.25h9a5.17,5.17,0,0,0,5.39-5.34c0-.66,0-15.37,0-21.56h5.07c3.22,0,3.81-1.77,4.07-3.25,0.26-1.7.7-4,.7-4A12.84,12.84,0,0,1,558.76,167.93Z" transform="translate(-26.47 -145.96)"/><path class="a" d="M281.17,153.17H231v47.78h51.31a5.17,5.17,0,0,0,5.39-5.34c0-.84,0-42.44,0-42.44h-6.56ZM264.5,194.39H237.57V159.73h43.6v34.66H264.5Z" transform="translate(-26.47 -145.96)"/><path class="a" d="M274.43,185.81l-0.69-2.21a2.21,2.21,0,0,0-1.92-1.48h-4.25l1.13,3.69h-5.34V179.3h9.76c2,0,2-1.27,2-1.75v-3.32H263.36v-5.44h11.15c2,0,2-1.27,2-1.75v-3.32H242.19V167c0,0.48.07,1.75,2,1.75H256.8v5.44H243.58v3.32c0,0.48.08,1.75,2,1.75H256.8v6.51H240.47v2.91a1.87,1.87,0,0,0,2.16,2H275c2.43,0,2.88-1.34,3.08-2.46,0.19-1.29.53-3,.53-3a9.72,9.72,0,0,1-3.61.5h-0.59Z" transform="translate(-26.47 -145.96)"/><polygon class="a" points="179.95 86.34 174.81 86.34 174.81 77.99 164.52 77.99 164.52 86.34 159.37 86.34 159.37 65.7 164.52 65.7 164.52 74 174.81 74 174.81 65.7 179.95 65.7 179.95 86.34"/><rect class="a" x="185.43" y="65.71" width="5.14" height="20.63"/><polygon class="a" points="216.91 86.34 212.59 86.34 201.18 73.12 201.18 86.34 196.03 86.34 196.03 65.7 200.75 65.7 211.77 78.32 211.77 65.7 216.91 65.7 216.91 86.34"/><path class="a" d="M269.47,232.29h-5.54l-1.69-4.08H253l-1.55,4.08H246l8.32-20.63h6l9.17,20.63h0Zm-12.07-15.7h0l-3,8h6.35Z" transform="translate(-26.47 -145.96)"/><polygon class="a" points="273.31 65.7 277.78 65.7 277.78 86.34 272.63 86.34 272.63 73.45 267.07 79.92 266.28 79.92 260.72 73.45 260.72 86.34 255.57 86.34 255.57 65.7 260.05 65.7 266.68 73.36 273.31 65.7"/><rect class="a" x="283.27" y="65.71" width="5.14" height="20.63"/><polygon class="a" points="314.76 86.34 310.44 86.34 299.03 73.12 299.03 86.34 293.88 86.34 293.88 65.7 298.6 65.7 309.62 78.32 309.62 65.7 314.76 65.7 314.76 86.34"/><polygon class="a" points="360.43 86.34 355.28 86.34 355.28 77.99 344.99 77.99 344.99 86.34 339.85 86.34 339.85 65.7 344.99 65.7 344.99 74 355.28 74 355.28 65.7 360.43 65.7 360.43 86.34"/><polygon class="a" points="380.3 86.34 365.08 86.34 365.08 65.7 380.09 65.7 380.09 69.49 370.23 69.49 370.23 73.81 379.64 73.81 379.64 77.59 370.23 77.59 370.23 82.56 380.3 82.56 380.3 86.34"/><polygon class="a" points="405.9 86.34 401.57 86.34 390.17 73.12 390.17 86.34 385.02 86.34 385.02 65.7 389.74 65.7 400.75 78.32 400.75 65.7 405.9 65.7 405.9 86.34"/><path class="a" d="M456.4,217.59a17.58,17.58,0,0,0-7.72-1.91c-5.6,0-7.56,3.45-7.56,6.51,0,3.66,2.87,6.09,7.14,6.09a7.59,7.59,0,0,0,3.42-.73v-2.42h-3v-3.78h8.14v8.45c-1.55,1.6-5.36,2.78-8.69,2.78-7.2,0-12.31-4.39-12.31-10.56s5.09-10.62,12.44-10.62a19.48,19.48,0,0,1,8.14,1.7v4.51Z" transform="translate(-26.47 -145.96)"/><path class="a" d="M481.07,211.78c4.87,0,6.84,2.87,6.84,5.17a4.67,4.67,0,0,1-2.82,4.12,5.35,5.35,0,0,1,4.38,5.29c0,2.37-1.27,6.05-7.29,6.05H472V211.78h9.11Zm-4,8.2H480c1.88,0,2.63-1.15,2.63-2.24s-0.76-2.18-2.63-2.18H477.1V220h0Zm0,8.66h3.08c2.85,0,3.85-.76,3.85-2.54,0-1.51-1.33-2.33-3.15-2.33H477.1v4.87Z" transform="translate(-26.47 -145.96)"/><path class="a" d="M514.72,232.42h-5.54l-1.69-4.08h-9.23l-1.54,4.08h-5.45l8.32-20.64h6l9.17,20.64h0Zm-12.08-15.7h0l-3,8H506Z" transform="translate(-26.47 -145.96)"/><polygon class="a" points="511.68 86.47 507.36 86.47 495.95 73.24 495.95 86.47 490.8 86.47 490.8 65.83 495.52 65.83 506.54 78.45 506.54 65.83 511.68 65.83 511.68 86.47"/><polygon class="a" points="527.52 75.51 536.63 86.47 530.19 86.47 522.02 76.78 522.02 86.47 516.87 86.47 516.87 65.83 522.02 65.83 522.02 75.18 522.08 75.18 528.58 65.83 534.24 65.83 527.52 75.51"/><path class="a" d="M351.1,216.86c0-1,1.19-1.7,3-1.7a16.42,16.42,0,0,1,6.76,1.41v-4a24.09,24.09,0,0,0-7.21-1.16c-4.81,0-7.91,2.36-7.91,5.93,0,7.27,10.74,6.17,10.74,9.56,0,1.21-1.24,1.91-3.22,1.91a15.8,15.8,0,0,1-7.71-2.12v4.52a25.33,25.33,0,0,0,8.11,1.39c4.63,0,8.15-2.3,8.15-6.26C361.84,219.11,351.1,220,351.1,216.86Z" transform="translate(-26.47 -145.96)"/><path class="a" d="M181.75,228.12a27.53,27.53,0,0,1-5.08.52c-4.74,0-8.59-2.17-8.59-6.81s3.68-6.42,7.9-6.42a21.7,21.7,0,0,1,5.78.85V212a25.8,25.8,0,0,0-5.81-.68c-7.82-.06-13.23,3.83-13.23,10.84,0,6.5,5,10.63,13.35,10.63a31.3,31.3,0,0,0,5.69-.56v-4.1Z" transform="translate(-26.47 -145.96)"/></svg>