<svg xmlns="http://www.w3.org/2000/svg" viewBox="0 0 537.16 132.11"><defs><style>.a{fill:#c8142e;}.a,.b{fill-rule:evenodd;}.b{fill:#231815;}</style></defs><title>China Merchants Bank</title><path class="a" d="M26.47,190.13A66.07,66.07,0,0,1,156,171.91h-28.2l-16.46-41L92.92,176.78l-18.83-45.5-34.91,86,14.25,20h78.82l13.64-20.46-1.75-4.35h10.54A66.07,66.07,0,0,1,26.47,190.13h0ZM129,174.85h27.8q0.39,1.65.7,3.34H130.36L129,174.85h0Zm2.52,6.29H158q0.23,1.65.37,3.34H132.88l-1.34-3.34h0Zm2.52,6.28h24.47q0.06,1.34.06,2.7v0.64H135.4l-1.34-3.34h0Zm2.52,6.28h21.92q-0.09,1.68-.26,3.34H137.92l-1.34-3.34h0ZM139.1,200h18.76c-0.17,1.12-.37,2.23-0.59,3.34H140.44L139.1,200h0Zm2.52,6.28h15q-0.43,1.69-.93,3.34H143l-1.34-3.34h0ZM68.18,171.17L49.31,217.32h75L105.48,171,86.81,216.71,68.18,171.17h0Z" transform="translate(-26.47 -124.08)"/><path class="b" d="M331.81,196.94c-0.35,2,1.48,5.71-1.59,6.63-0.48.41-.91,1.08-1.68,1a4.15,4.15,0,0,1-1.94-1.1,6.72,6.72,0,0,1-1.91-.49,57.76,57.76,0,0,0,.1-5.91,3.53,3.53,0,0,1,2.41-.11c0.5-.26,1.51,0,2.06-0.51,1-.18,1.68.33,2.54,0.51h0Zm-84.61-1.13a3.11,3.11,0,0,0,1.08.51L248.06,205c-2.31,1.25-4.83-.26-7.14-0.11l-5.66.36a18.85,18.85,0,0,1-.48-8.48l1.08-1.1,11.34,0.1h0Zm174.87-.23c-0.13,1.44,2.16,1.62,1.68,3.08-0.45,1.05-1.66.82-2.64,0.84-0.65-1.46-1.46.8-2.19-.49a2.44,2.44,0,0,1-2-1.59,1.72,1.72,0,0,1,.7-1.85,5.49,5.49,0,0,0,1.46-.48,5.38,5.38,0,0,1,3,.48h0Zm16.54-3.46c-0.13,1.51,1.08,2.59,1.91,3.59a3,3,0,0,1,.5,2.56c-0.73.82-.91,2.31-2.19,2.46-0.35,1.18-1.68.87-2.54,0.74a27.56,27.56,0,0,1-.1-6.76c1-.9-0.6-4.12,1.81-3.2l0.6,0.61h0Zm-96.8-1.84c1,3.61-.28,7.22.13,11.06a2.16,2.16,0,0,0-.35,2.1c-0.66,2.2,1,5.33-1.59,6.27a1.55,1.55,0,0,1-1.68-.62l0.13-7.38a1.82,1.82,0,0,0,.35-1.35,56.69,56.69,0,0,1,.13-9.48,2.52,2.52,0,0,1,1.2-1.1,2.39,2.39,0,0,1,1.69.49h0ZM452,186.85a1.25,1.25,0,0,1-1.21,1.1c-1.81,1.61-4.2,1.82-5.91,3.69-0.6.07-.93,0.87-1.68,0.61a17.23,17.23,0,0,1-2.54-3.91,3.45,3.45,0,0,1-.13-1.36c0.4-1.17,1.61-.3,2.31-0.74,1.66,0.2,2.81-.88,4.57-0.49,1.08-.62,2.24.05,3.27,0.35a2,2,0,0,1,1.31.75h0Zm-29.67-1.72c-0.05.15,0.28,0.35,0,.49,0.3,0.87-1,1.05-1.21,1.84a0.72,0.72,0,0,1-.25.74c-1.11-.18-3.27.54-3.14-1.1,0.23-.77,0-1.85.85-2.23,1-.84,3-1.12,3.75.26h0Zm-91.12-4.79c-0.1,2.35.15,4.58,0.23,6.86,0.28,0.66,1.48,1.08.86,2s-1.61.43-2.29,0.38l-3.75-.13c-0.63-1.05,1-1.79,1.08-2.84a48,48,0,0,0-1.21-5.41,2.3,2.3,0,0,1,.38-1.36c1.48,0,3.69-1.15,4.7.51h0Zm-13.53-.51c0.88,0.77.3,2.15,0.73,3.08-0.22,1.1-.4,2.12-1.33,2.72a8.83,8.83,0,0,1-4.35,1.49,2.34,2.34,0,0,1-1-1.23c-0.5-2,1.89-2.74,1.21-4.82,0.45-.23.1-0.77,0.6-1a3.05,3.05,0,0,0,2.41-.75,2.43,2.43,0,0,1,1.69.49h0Zm25.09,0c0.38,1.75-1,2.72-1.56,4.07-0.66.59-1.41,1.28-2.29,1-1-1.43-3.22-1-3-3.2,0-.87-0.13-2,0.61-2.46,1-.07,2-0.9,3-0.23s2.31,0.23,3.24.84h0Zm-105.58-3.3c0.48,1.36,1.23,2.82,2.77,3.2,1.36,0.41,2.92.9,3.27,2.56a1.77,1.77,0,0,1-.61,1c-2.34.56-5,.41-7.49,0.62-1-.31-2.51.21-3.14-0.87,0.05-3.08,2.11-5.43,4-7.61,0.85-.38.93,0.67,1.2,1.1h0Zm209.26-2.1c-0.07,1.15-.23,2.43-1.21,2.95a29.48,29.48,0,0,1-7.14,1c-1.06-.43-0.93-1.79-1.08-2.84a4.52,4.52,0,0,1,1.08-1.46c2.94,0.84,6.16-2.9,8.35.35h0ZM411,170.87a4.93,4.93,0,0,1-.1,1.84c-0.85-.15-1.61.29-2.31,0.13,0-1,1-1.49,1-2.46,0.43,0.25,1.11-.05,1.44.49h0Zm16.79-5.79c0.07,2.9.33,5.82,0.22,8.61,1.23,4.58.1,10.15,1,14.88,0,2.92-.55,6.22,0,9.22,0.17,1-.35,1.77-0.38,2.71a5.91,5.91,0,0,0-.6,1.72c-1.58,1.56-.48,5.94-4,5-0.78-.56-0.88-1.64-1.58-2.33,0.23-1.89,2.59-2.82,2.54-4.82,0.68-2.69-.3-5.63.38-8.35a0.9,0.9,0,0,0,.1-1.1c-1.08-1.05-.93-2.95-0.6-4.3,0.07-.62-0.18-1.38.25-1.85a11.49,11.49,0,0,0,.6-2.46,19.29,19.29,0,0,0,.12-5.53,3.28,3.28,0,0,0-1.33-1.85c-1.76-.38-3.55-0.74-5.3-1.1-0.36-.33-0.93-0.31-1.09-0.88a3,3,0,0,1,.35-1.84c1.16,0,2-1.05,3.27-.49,0.72,0.05,1.76.8,2.28,0-0.4-2.38,1.51-3.77,2.29-5.66a0.87,0.87,0,0,1,1.46.35h0Zm-96.2-2.69a2.56,2.56,0,0,1,.13,2c-1.26,1.48.22,4.76-2.67,4.92-1.11-.43-2.79,0-3.24-1.48-0.78-1-2-1.83-1.59-3.33l1.94-2.08c1.21-.07,2.41-0.92,3.62-0.25,0.53,0.25,1.28,0,1.81.25h0Zm115.25-1.61a3.52,3.52,0,0,1,.12,1.36c-1.36,1.23-2.49,3.56-4.6,2.84a6.74,6.74,0,0,0-1.91-.51l-0.12.12-3.14-.23c0.05-.87-0.25-2.3.73-2.84,1.26-.23,3.06.11,4.1-1.1,1.68,0.66,3.37-.88,4.83.35h0Zm-196.94-1.95a2.41,2.41,0,0,1,.35,1.59,2.18,2.18,0,0,0-.48,1.23c-1.31,2.56-3.32,4.82-3.74,7.74-1.51,1.82-2.76,4.66-5.43,4.69-0.88-.44-2.09-1.38-2.16-2.46,0.63-2.38,3-4.07,3.5-6.54,0.3-2-.25-4.38,1-6,1.66-.79,4.17.08,5.91-0.74,0.53-.18.73,0.33,1.11,0.51h0Zm-19.69-.38c0.61,1.25,1.38,2.72.73,4.17a98.86,98.86,0,0,1-5.08,8.5A6.84,6.84,0,0,1,224.4,175c-0.71.67-1.41-.21-2.19-0.13-0.73-2-2.92-3.15-4.45-4.53a2,2,0,0,1,1.33-2,3.76,3.76,0,0,0,4.22-1.84c1.48-2.64,1.38-6,2.89-8.61,1.33,0.18,2.64.69,4,.49h0Zm190.93,0.25c0.53,0.36.3,1,.35,1.59-1.16.67-1,2.61-2.54,2.72a7.73,7.73,0,0,0-2.89-1.1,2.43,2.43,0,0,1-.12-2.85c0.78-.82,1.11-2.82,2.79-2.2,0.7,0.72,1.31,1,2,1.72l0.38,0.13h0Zm137.93-10.45a2.56,2.56,0,0,1,.13,2c0,3.64-1,6.89-.6,10.68-1.21.85-.61,2.46-1.46,3.46s-2.56.41-3.75,0.36c-3.95-1.1-8.19,0-12.29,0-4.9-.21-9.27.87-14.25,0.49a1.11,1.11,0,0,1-.83.48c-0.48-.9-0.07-2.2-0.38-3.17-0.18-2.92-.58-5.76-0.6-8.74l-0.71-1.85c0.11-.43-0.24-0.7-0.12-1.1,0.68-.74,1.76-0.2,2.54,0,3-.62,5.68,1.2,8.45-0.13,4.15-.36,7.84,1.43,12.17.62,2.61-1.18,5.36-1.95,7.74-3.69,0.91,0,1.53-1.08,2.52-.49a1.91,1.91,0,0,1,1.45,1.1h0Zm-38.27-5.41c1.51,0.7.6,2.61,2.06,3.44,0.05,1.33-.93,2.2-1.08,3.43-0.81,1.18-.05,2.61.13,3.81-0.58,2.64,1.08,5.08,0,7.64a19.09,19.09,0,0,0-.61,3.43c-1.43.62-3.39,0.18-4.35,1.72,0.28,1.1-.73,3.15,1,3.69,1.83,0,3.27,1.74,3.87,3.2,1.43-.07,1,3.18,2.64,1.49a7.75,7.75,0,0,0,.26-2.33,2,2,0,0,1,.47-1.75l0.73-.23c6.39,0.54,12.5-.67,18.84-0.26,4.09-.39,8.22-0.69,12.42-0.85,1.36-.74,3.12-0.46,4.23-1.85a2.51,2.51,0,0,0,1.93-1.23h0.36c-0.83,3.25-.4,7.2-0.36,10.68,0,1.49-1.08,3.1,0,4.43a2.26,2.26,0,0,1-.12,1.1c-0.81-.84-1.86-0.43-2.89-0.36-1.71-.26-3,1-4.7.36a11.18,11.18,0,0,0-7.37.26,2.46,2.46,0,0,0-.48,2c0.5,2.41.1,5.07-.13,7.48,0.93,2.23.23,5.18,0.61,7.63,0,6.43,1.16,12.63.35,19.06a2.42,2.42,0,0,1-2,1c-5.12-.44-10.58,0-15.33-1.33a6.27,6.27,0,0,1-1.81-.51c-0.38-1.46-2-1.46-2.42-2.95-0.28-1.05-.55-2.28.25-3.2,0.28-.43-0.15-1.25.73-1.1,1.45,0.18,2.64,1.48,4.22,1a13.9,13.9,0,0,0,3.62-4.3c-0.93-4,1.76-6.76.48-10.58-0.42-2.41.23-4.69,0.36-7-0.36-2.18.23-4.74-.48-6.76-3.82-.92-7.42,1.31-11.22,0l-2.06-.23c-0.78-1.53,1.56-2.66-.13-3.69-2.09-1.2-1.93,1.59-3.74,1.46-0.23,1.16-2.27,1.9-1.69,3.33,0.4,1.28-.38,2.61.86,3.56,0.8,1.72-.56,3.43.22,5.18-0.48,1.67-.05,3.28-0.35,5l0.13,0.13c-0.36,1.46.22,3.25-.48,4.56-0.65,4,.89,8.4-0.85,11.91-0.35,1.3-1,2.84-2.53,3.08-0.58.48-.58,1.3-1.34,1.61-2.64.9-5-.43-7.12-1.61-0.5.25-.65-0.41-1.08-0.36-0.48-1-1.71-.62-2.54-1-0.6-.75-2.64-0.44-1.94-2a7,7,0,0,0,3.52-2.58,2.39,2.39,0,0,0,1-1.23,10,10,0,0,1,.73-3.69c1.26-4.66-1-9.42.48-14a2.55,2.55,0,0,0-1.46-2.1c-2.66.94-3.85,4.25-6.26,5.53a16.83,16.83,0,0,1-4-.49c-1.28-1.18-3.57-1.74-3.85-3.56-0.42-.62-1.51-0.54-1.08-1.61-0.18-.39-0.68-0.23-0.73-0.62,0.46-.72,1.51-1.1,2.16-1.85,1.86,0,3-1.79,4.83-1.95s2.29-2.18,3.87-2.59c1.34-1.61,3.5-2,4.35-4.07,1-1.07,2.29-2,2.29-3.56,0.38-.62,1.28-1.2,1-2.21-1.21-.54-1.23-2.17-2.54-2.33-0.88.77-1.61,1.95-2.64,2.33-0.38,1.46-2,.62-2.55,1.72a7.54,7.54,0,0,1-2.06.13c-0.22-.79-1.14-0.48-1.69-0.74-0.6-.82-2-1.51-1.68-2.82l-0.73-.74L493,165.33a45.78,45.78,0,0,1,4.83-2.33c0.53-1.79,2.11-.46,3-1.23,1.74-1.72,4.1-2.64,5.34-4.79,1.38-.79,1.84-2.61,3.12-3.46,0.65-.94.63-2.2,1.45-3.07,0-2.69,2.7-4.23,3.37-6.64,1.08-1.2,2.21-2.25,3.74-2.33,0.33-.28.81-0.79,1.21-0.25a2.2,2.2,0,0,0,1.68,1.61h0Zm-104.39-2.46a10.41,10.41,0,0,0,2.19,2.94c0.3,2,3,2.23,3.14,4.43,0.88,0.64.88,1.64,0.83,2.69a2.5,2.5,0,0,0-.83,1.84c0.83,0.62,1.08,1.77,2.28,1.49a2.88,2.88,0,0,0,2.16.13c2-1.44.07-3.87,1.21-5.79a5.81,5.81,0,0,1,.48-3.94,20.84,20.84,0,0,1,6.89,4.82c2,0.18,3.62-.39,5.43,0l0.13-.13c2.21,0.39,4.88-.33,6.86.62,1.81,0.36,2.69-1.56,4.47-1.23,1.16-1.33,2.77-1.48,4.35-1.71a1.57,1.57,0,0,1,1.81.84c0.1,3.54.38,7.46-.25,10.84-1.15,1.62-.7,3.92-1.33,5.77a26.21,26.21,0,0,0-1,6.4l-0.12.13c0.3,2.53-.1,5.38.38,7.87-0.15,2.13-1.69,3.69-1.33,6a1.33,1.33,0,0,0,.23,1.36c1.28,0.13,2.11-.8,3-1.62-0.1-1.1,1.2-1.3,1.33-2.33,0.15-.54.66,0,1,0,0.88,1,2.79,1.38,2.29,3.2,0,0.9-.83,1.92,0,2.71-0.08,1-.91,2-0.25,2.95a2.12,2.12,0,0,0,1.08,1.59,2.66,2.66,0,0,1-1.44.74,7.32,7.32,0,0,1-3.62,2.21c-2.36-.18-4.83-0.59-7.11-0.62a1.89,1.89,0,0,0-.85,2c2.51,3.15,6.81,2.41,9.9,4.43,1.91,0.05,3.93,1,5.78.13,0.33,2.28-1,4.18-1.21,6.38-0.8,2.13-2.74,3.84-4,5.66-1.81.79-2.61,2.56-4.12,3.94-0.7-.18-0.85-1.48-1.81-1.36s-1-1.26-1.91-1.23c-0.78-1.51-2.71-.94-3.4-2.72-0.53-1.33-1.93-2.46-2.76-3.56,0-1.26-.85-2.13-1.59-3.07-1.86.18-1.63,2.72-3.49,3.33-2.66,2-3.85,6.13-7.47,6.51-0.8.72-2,.41-2.92,1-2,1.33-4.73.87-6.74,2.2a2.39,2.39,0,0,1-1.59-.36c-0.37-1.95-1.71-3.46-1.43-5.66-0.57-1-1.63-2.46-2.92-2.59-2,.15-2.26,3-4.32,3.08a7,7,0,0,0-3.14,1.59c-1.54.23-2.57,1.74-4,2.23-1.91-.92-2.29-3.25-4.1-4.43-0.43-1.82-3-2-3-4-0.3-1.51-1.13-2.77-1.34-4.31,0.08-.69-0.68-1.1-0.1-1.74,2.14,0.25,5,1.23,6.86-.36,1.73-.9,4.3-0.49,5.08-2.94,0.15-1,.33-2.31-0.73-2.94a2,2,0,0,0-1.81.1,7.11,7.11,0,0,1-5.18,3.69c-0.25-.9-0.5-1.79-0.73-2.69L401.56,194c-0.78-1.18-.47-2.87-0.73-4.3-0.22-.08-0.07-0.31-0.13-0.49,2.77-.08,6,0.21,8.7-0.23,0.78-.82.48-2,0.73-3.07-0.58-1.2-2.26-.36-3.27-0.26a6,6,0,0,1-2.77.13c-1.11-.92-1.38-2.31-2.54-3.08-1.46.54-1.13,2.28-1.68,3.43a3.14,3.14,0,0,0-1.08,1.61,0.71,0.71,0,0,0-.25.72c-0.07,1.36-2.37,1.77-1.68,3.46a1,1,0,0,1-.86.84c-1.21.15-2-1.1-2.89-1.33a6.21,6.21,0,0,1-1.2-1.74,5.91,5.91,0,0,1-4.35-1.85c-0.12-.92.38-2.41-0.48-3.18-0.12-1.51,1.68-1.31,2.54-2,2.82-.84,5.89-1.36,7.85-4.07,4.25-8.07,9.25-15.83,10.73-25.08,1.16-5.51,3.52-10.5,3.62-16.47,0.25-.64,1-0.36,1.46-0.25,1.08,1.07,2.59,2.17,3.12,3.58h0Zm-81.69-2.23c0.78,0.66,2.36.15,2.67,1.23,0,1-1.11,1.61-1.21,2.58-1.16,2.21-3.85,3.74-4.23,6.27-0.15,2.74,3,.87,4.45,1.59,3.34,1.08,6.68-.43,10-0.13,2.94-.39,6.18,0,8.7-1.46a11.62,11.62,0,0,1,6.64.62c1.13,1.28.81,3.2,1.21,4.79,0,2.94-1.81,5.1-2.16,7.86a2.49,2.49,0,0,1-.85,1.85c-2.46.38-4.35-1.79-6.76-.49a6.38,6.38,0,0,1-1.68.36,0.32,0.32,0,0,0-.35.13c-0.15-.31-0.28.15-0.5,0a34.59,34.59,0,0,0-7.6-.62,8.45,8.45,0,0,0-1.68,3.95c0.2,0.82.43,1.92,1.43,2.07,1.18,0.13,2-.56,3-0.85,2.77-.12,5.43-0.07,7.37,1.85,0.48,1.2.08,2.77,0.38,4a25.12,25.12,0,0,1,.6,6.28c-0.53.18,0,.82-0.5,1-0.78,6.12.43,12.29,0.38,18.57-0.18,5.38,1.48,11.19-.48,16.11-0.48,1.08,0,2.64-.85,3.44-4.1.66-8.4-.33-12.67-0.36-2.57.48-5.06-.67-7.24-1.85-1.26.53-1.71-.92-2.77-0.87,0.81-1.08,2.59-1.51,2.77-3.08-0.12-.8-0.1-1.69-1-2.2-3.92-.67-8.3-0.25-12.45-0.36-0.6-.51-1.43-0.69-1.81-1.48-0.25-2.25.6-4.53-.35-6.5,0.05-1.54,1-3.13.12-4.56-0.38-1.72.18-3.36,0-5.18a6,6,0,0,0-3.39-1.46c0,1.12-.3,2.43-0.35,3.69,0.55,5.53.4,11.38,0.6,17.09a4.25,4.25,0,0,1-2.16,3.81c-1.38-.53-1.86,1.13-3,1.1a28.91,28.91,0,0,1-6-1.59c-0.5-1.69-.07-3.76-0.38-5.53l-0.12-.13,0.12-.13c-0.58-1.82.1-3.69-.12-5.66-0.08-8.76.2-17.52-.23-26.31-0.2-2.41-.7-4.66,0-7,0.4-.79.07-2,1.21-2.46a39.6,39.6,0,0,1,9.4.87c0.9-.28,2.19.18,2.66-0.87,0.33-1.77-1.66-2.56-1.69-4.17a1.5,1.5,0,0,0-1-.49c-1.11.21-2.09,1.05-3.24,0.74-4,.72-8.27.51-12.07,1.59-1.66.15-1.68-1.87-2.79-2.69-0.48-1-.05-2.3-0.35-3.33-2.64-2.71-2.34-7.4-1.46-10.8a1.18,1.18,0,0,1,.25-0.87c1.94,0.46,3.24,2.53,5.56,2.1,4.55,0.7,9.56.64,14.11,1a0.56,0.56,0,0,1,.73,0c2.94-.18,5.94-0.13,8.8-0.49,0.5-.31,1.26-0.13,1.46-0.87-0.63-1.26-2-1.85-2.77-3.08a25.36,25.36,0,0,0-1.81-2c-0.07-1.18.23-2.56-.61-3.44a3.77,3.77,0,0,1-.6-3.07c1.86-2.41,4.75-.57,7.47-1.1a12,12,0,0,1,2.19-.62,10,10,0,0,1,7,1.59h0Zm-117.54.13c0.53,0.13,1.25-.31,1.56.36,0.55,5.3-.53,10.83,0,16.11,0.9,1.61,3.07,1,4.6,1a4.56,4.56,0,0,0,1.81-1.85c0.18-1.74-.78-3-1-4.56-0.43-1.67-1.13-3.18-1.08-5,0.53-.33-0.05-1.13.48-1.46,5.68,1.34,11.92,1.36,17.75,2.33a11,11,0,0,0,2.41.62c0.3,0.13.35-.26,0.6,0,5.28,0.31,9.15-2.92,14.61-2.23,2.59,0.51,6.69-.85,7.34,2.59,0.13,1.07-.65,1.71-0.7,2.71a7.36,7.36,0,0,0-.61,2.46c-1.53,5.74-3.82,11.17-5,17.08-0.8,2-1.81,3.95-2.41,6a34.26,34.26,0,0,0-4.35,5c-0.88.51-2.39-.1-2.77,1.1-0.05,1.08-.07,2.1,1,2.72,2.47,0.31,5.53.62,7.59-.74,1-.07,2.06,0,2.42.87,0.12,3.3-2.14,5.76-1.31,9.22-0.2,6.61-.38,13.81,1.08,20-0.18.9,0.4,2.1-.48,2.71-0.5,1.08.6,3.16-1,3.44-0.76,0-1.56.74-2.29,0.13-3.74-1.92-8.52-.54-12.55-0.25-3-1.38-7.39-.39-10.51-0.85-0.15.05-.55,0-0.83,0l-6.16.36c-0.38.38-1,.23-1.33,0.62-1.33.36-1.33-1.44-2.16-2.1l-0.5-.49-0.22-18.67c0.3-2.15-.13-4.58.35-6.66-0.35-2.48-2.39-4-4.35-5.41-1-.35-1.58.59-1.91,1.23-0.23.49-.2,1.1-0.38,1.62-0.8,3.53,0,7.3-.23,11.06,0.7,0.92.55,2.23,1,3.3,0.35,3.15-.28,6.17-0.25,9.35a1.26,1.26,0,0,1,.13,1.23,5.05,5.05,0,0,1-.35,2.33,4.32,4.32,0,0,1-1,2c-2,.05-4.4-0.1-6.51.13l-0.13-.13c-2.57.13-6.06,1-7.94-1.23-0.78-1-2.11-1.61-2.32-2.94,0.88-2.31,2.87-3.92,4.83-5.3,0.58-.07,1.28.2,1.71-0.23,0.4,0.2.53-.33,0.83-0.39a64.76,64.76,0,0,0,0-8.22l0.13-.13c-0.18-2.05-.3-4.13-1.46-5.79-0.13-.46-0.63-0.07-0.83-0.36-1.61,1.26-3,3.56-5.21,3.56a15.9,15.9,0,0,0-2.51,1.61,10.45,10.45,0,0,0-1.93,2.33h-0.25c-1-6-5.73-10.47-5.31-17.08,0.5-1.12,2.16-.43,3.27-0.62,3.25-2.38,8.55.23,11.57-2.71,2.06-1.38,4.55-3.44,3.87-6.41a5.73,5.73,0,0,0-2.16-4c-1.78-.9-2.66,1.54-4.35.87a8.43,8.43,0,0,1-2.06-.13c-0.83-.46-2-0.33-2.54-1.36a13.12,13.12,0,0,0-.35-3.81c-0.85-3-2.76-5.61-2.54-9.1,1.13-.51,2,0.43,3.14.13,3.27-.25,6.74.05,9.78-0.74a4,4,0,0,0,1.81-2.33c0-6-3.52-11.14-1.58-17.34a2.94,2.94,0,0,1,2.19.13,19.89,19.89,0,0,0,7.85,2.33h0Z" transform="translate(-26.47 -124.08)"/><path class="b" d="M209.09,236.52h-0.66a1.37,1.37,0,0,1-1.38,1,3.43,3.43,0,0,1-1.11-.24,11.16,11.16,0,0,0-4.22-.81c-5.88,0-10,3.82-10,8.89s4.11,8.89,10,8.89a9.8,9.8,0,0,0,7.4-3.18l-0.73-.87A8.89,8.89,0,0,1,202,253c-3.64,0-4.69-3.18-4.69-7.76s1-7.74,4.69-7.74c3.2,0,5.46,2.55,6.46,4.85h0.66v-5.81h0ZM543,253.84h9.82v-0.59c-1.71,0-2.34-.17-2.34-2.15v-4.7l0.42-.32,4.22,5.34a3.56,3.56,0,0,1,.75,1.27c0,0.52-.83.54-1.38,0.56v0.59h8.94v-0.59c-1.1,0-1.66-.88-2.23-1.61l-6.79-8.55,4.69-4a6.8,6.8,0,0,1,3.89-1.59v-0.59h-7.48v0.59c0.74,0,2.17,0,2.17.81a5.41,5.41,0,0,1-1.93,2.23L550.5,245v-5.29c0-2,.64-2.11,2.34-2.16v-0.59H543v0.59c1.71,0,2.35.17,2.35,2.16V251.1c0,2-.64,2.11-2.35,2.15v0.59h0Zm-21.25,0h6.79v-0.59c-1.83,0-3-.27-3-2.32V240.49l14,13.79h0.66V239.85c0-1.5.58-2.25,2.09-2.33v-0.59H536v0.59c1.69,0,2.87.27,2.87,2.33V247l-10.18-10.1h-6.93v0.59c0.88,0,1.16,0,2.43,1.54v11.76c0,1.54-.61,2.34-2.43,2.42v0.59h0ZM505.13,248l2.82-5.71,3,5.71h-5.82Zm-5.55,5.83h6.51v-0.59c-1.16,0-2.48-.15-2.48-1.44a8.85,8.85,0,0,1,1-2.82h6.93l0.36,0.72a9.65,9.65,0,0,1,1.1,2.57,0.91,0.91,0,0,1-.69.86,6.39,6.39,0,0,1-1.52.12v0.59H521.3v-0.59A2.67,2.67,0,0,1,519,252c-0.53-.76-1-1.72-1.69-3l-6.84-12.52h-0.94l-6.93,13.89c-0.85,1.69-1,2.64-3,2.86v0.59h0Zm-18.21,0h7.81c0.75,0,2.21,0,3.12-.07,3.78-.3,6.79-1.42,6.79-4.75,0-1.52-1.43-2.92-2.79-3.46a11.41,11.41,0,0,0-2.9-.76,10.82,10.82,0,0,0,1.82-.56c1.6-.66,2.71-1.78,2.71-3.4a3.13,3.13,0,0,0-1.46-2.84c-1.29-1-3.64-1.06-6.24-1.06h-8.86v0.59c1.71,0,2.34.17,2.34,2.16V251.1c0,2-.64,2.11-2.34,2.15v0.59h0Zm7.48-15.32c0-.41.19-0.73,1-0.73a3,3,0,0,1,1.79.46,3.52,3.52,0,0,1,1.1,2.92c0,2.75-1.49,3.28-2.87,3.28h-1.08v-5.93h0Zm0,6.79H490c1.88,0,3.7.93,3.7,3.89,0,2.15-.69,3.78-3.51,3.78-1.24,0-1.38-.13-1.38-1.72v-6h0Zm-28,9h0.72a0.87,0.87,0,0,1,1-.73c0.75,0,2.37.73,4.25,0.73,4,0,6.81-2.3,6.81-5.61,0-1.89-1.16-3.69-3.48-4.77l-3.5-1.61c-1.32-.61-2.59-1.23-2.59-2.75,0-1.3,1.24-2.05,2.65-2.05,2.57,0,4.53,2.28,5,4.33h0.74l-0.17-5.31h-0.77a0.81,0.81,0,0,1-.94.68,2.65,2.65,0,0,1-.93-0.17,10,10,0,0,0-3-.51c-3.39,0-5.79,2.18-5.79,5.17,0,2.17,1.1,3.57,3.48,4.75l3,1.49c1.38,0.68,2.6,1.37,2.6,2.89s-1.5,2.5-3.32,2.5c-2.87,0-4.75-2.6-5.22-4.85h-0.75l0.17,5.82h0Zm-15.38-.43h10.81v-0.59c-2.07,0-2.84-.41-2.84-2.13V238.45c0-.54.17-0.54,1-0.54a4.3,4.3,0,0,1,4.64,3.62h0.66l-0.22-4.6H442.31l-0.22,4.6h0.66a4.3,4.3,0,0,1,4.64-3.62c0.8,0,1,0,1,.54v12.66c0,1.72-.77,2.09-2.84,2.13v0.59h0Zm-24.18,0h6.79v-0.59c-1.82,0-3-.27-3-2.32V240.49l14,13.79h0.66V239.85c0-1.5.58-2.25,2.1-2.33v-0.59h-6.29v0.59c1.68,0,2.87.27,2.87,2.33V247l-10.18-10.1h-6.93v0.59c0.88,0,1.16,0,2.43,1.54v11.76c0,1.54-.61,2.34-2.43,2.42v0.59h0ZM404.69,248l2.81-5.71,3,5.71h-5.82Zm-5.54,5.83h6.51v-0.59c-1.16,0-2.49-.15-2.49-1.44a8.83,8.83,0,0,1,1-2.82h6.93l0.36,0.72a9.74,9.74,0,0,1,1.11,2.57,0.92,0.92,0,0,1-.69.86,6.38,6.38,0,0,1-1.52.12v0.59h10.49v-0.59a2.69,2.69,0,0,1-2.29-1.24c-0.53-.76-1-1.72-1.68-3L410,236.5h-0.94l-6.93,13.89c-0.85,1.69-1.05,2.64-3,2.86v0.59h0Zm-22.56,0h9.82v-0.59c-1.71,0-2.34-.17-2.34-2.15v-5.44h7.12v5.44c0,2-.64,2.11-2.34,2.15v0.59h9.82v-0.59c-1.71,0-2.34-.17-2.34-2.15V239.69c0-2,.63-2.11,2.34-2.16v-0.59h-9.82v0.59c1.71,0,2.34.17,2.34,2.16v4.84h-7.12v-4.84c0-2,.63-2.11,2.34-2.16v-0.59h-9.82v0.59c1.71,0,2.35.17,2.35,2.16V251.1c0,2-.63,2.11-2.35,2.15v0.59h0Zm-1.14-17.32h-0.66a1.37,1.37,0,0,1-1.38,1,3.45,3.45,0,0,1-1.1-.24,11.16,11.16,0,0,0-4.22-.81c-5.88,0-10,3.82-10,8.89s4.11,8.89,10,8.89a9.8,9.8,0,0,0,7.39-3.18l-0.73-.87a8.9,8.9,0,0,1-6.42,2.76c-3.64,0-4.69-3.18-4.69-7.76s1-7.74,4.69-7.74c3.2,0,5.46,2.55,6.46,4.85h0.66v-5.81h0Zm-31.1,2.6c0-.91.11-1.32,1.52-1.32a3.3,3.3,0,0,1,3.53,3.57c0,2.67-2,3.68-4.47,3.68h-0.58v-5.93h0Zm-7.48,14.73h9.83v-0.59c-1.71,0-2.35-.17-2.35-2.15v-5.19h0.83l5.3,7.93h6.4v-0.59a1.37,1.37,0,0,1-1.11-.51,27.36,27.36,0,0,1-2.07-2.67l-3.34-4.62c2.18-.54,4.39-2,4.39-4.19s-1.85-3.55-4.08-4a54.06,54.06,0,0,0-7.53-.3h-6.27v0.59c1.71,0,2.35.17,2.35,2.16V251.1c0,2-.63,2.11-2.35,2.15v0.59h0Zm-19.29,0h16.78l1.08-5.12-0.66-.15a6.86,6.86,0,0,1-1.4,2.33c-1.85,1.93-3.26,2-6.1,2-2.09,0-2.21-.32-2.21-2.1v-5.37c3,0,4.06,1.25,4.42,3.74h0.66v-8.35h-0.66c-0.36,2.5-1.38,3.75-4.42,3.75v-5.34c0-1.23.36-1.27,1.71-1.27h1.77c3.37,0,4.67,1.3,5,3.8h0.66v-4.78H317.58v0.59c1.71,0,2.35.17,2.35,2.16V251.1c0,2-.64,2.11-2.35,2.15v0.59h0Zm-25.75,0h6v-0.59c-2.37,0-2.59-.86-2.59-2.74V239l6.49,14.8h0.91l6.84-14.8,0.06,12.05c0,2-.63,2.11-2.35,2.15v0.59h9.55v-0.59c-1.71,0-2.34-.17-2.34-2.15V239.69c0-2,.63-2.11,2.34-2.16v-0.59h-7.61l-5,10.85-4.69-10.85h-7.67v0.59c1.38,0,2.12.2,2.12,1.89v10.71c0,2.86-.77,3.13-2.12,3.13v0.59h0Zm-23-5.83,2.81-5.71,3,5.71h-5.82Zm-5.54,5.83h6.51v-0.59c-1.16,0-2.48-.15-2.48-1.44a8.72,8.72,0,0,1,1-2.82h6.92l0.36,0.72a9.57,9.57,0,0,1,1.11,2.57,0.91,0.91,0,0,1-.69.86,6.38,6.38,0,0,1-1.52.12v0.59H285v-0.59a2.68,2.68,0,0,1-2.29-1.24c-0.53-.76-1-1.72-1.68-3l-6.85-12.52h-0.94l-6.93,13.89c-0.86,1.69-1,2.64-3,2.86v0.59h0Zm-20.51,0h6.79v-0.59c-1.82,0-3-.27-3-2.32V240.49l14,13.79h0.66V239.85c0-1.5.58-2.25,2.1-2.33v-0.59H257v0.59c1.68,0,2.87.27,2.87,2.33V247l-10.18-10.1h-6.93v0.59c0.88,0,1.16,0,2.43,1.54v11.76c0,1.54-.61,2.34-2.43,2.42v0.59h0Zm-10.1,0h9.83v-0.59c-1.71,0-2.35-.17-2.35-2.15V239.69c0-2,.64-2.11,2.35-2.16v-0.59h-9.83v0.59c1.71,0,2.35.17,2.35,2.16V251.1c0,2-.63,2.11-2.35,2.15v0.59h0Zm-22.39,0h9.83v-0.59c-1.71,0-2.35-.17-2.35-2.15v-5.44h7.12v5.44c0,2-.64,2.11-2.35,2.15v0.59h9.82v-0.59c-1.71,0-2.34-.17-2.34-2.15V239.69c0-2,.63-2.11,2.34-2.16v-0.59h-9.82v0.59c1.71,0,2.35.17,2.35,2.16v4.84h-7.12v-4.84c0-2,.63-2.11,2.35-2.16v-0.59h-9.83v0.59c1.71,0,2.34.17,2.34,2.16V251.1c0,2-.63,2.11-2.34,2.15v0.59h0Z" transform="translate(-26.47 -124.08)"/></svg>