<svg xmlns="http://www.w3.org/2000/svg" viewBox="0 0 536.97 134.18"><defs><style>.a{fill:#d61518;}.a,.b,.c{fill-rule:evenodd;}.b{fill:#e89213;}.c,.d{fill:#221814;}</style></defs><title>Bank of Chengdu</title><path class="a" d="M37.08,204.06l1.79,1.79a17.12,17.12,0,0,0,24.15,0l55.08-55.08L104.3,137Z" transform="translate(-26.47 -119.2)"/><path class="b" d="M100.33,133l-13.8-13.8L31.46,174.15a17.12,17.12,0,0,0,0,24.15l1.66,1.79Z" transform="translate(-26.47 -119.2)"/><path class="b" d="M135.86,168.53l-1.79-1.79a17.12,17.12,0,0,0-24.15,0L54.84,221.82l13.93,13.8Z" transform="translate(-26.47 -119.2)"/><path class="a" d="M72.73,239.58l13.8,13.8,54.95-55.08a16.89,16.89,0,0,0,0-24.15l-1.66-1.66Z" transform="translate(-26.47 -119.2)"/><path class="c" d="M307,126.62h-13v4.73H278.6v6.13h15.33v8.05H278.6v6.13h8.18a56.26,56.26,0,0,1-4.22,9.84,122.38,122.38,0,0,1-9.33,15l8.05,8.43s1.53-2,3.71-5.62v22.62h36.55v-36.8c0-3.58-2.17-6-5.75-6h-19.3c1.28-3.07,2-5.62,2.68-7.41h22.62v-6.13H307v-8.05h14.82v-6.13H307v-4.73Zm-10.35,69.13V183.1H310v12.65H296.62Zm13.42-28v9.07H296.62V165.21h10.73c2.43,0,2.68.89,2.68,2.56h0Z" transform="translate(-26.47 -119.2)"/><path class="c" d="M353.36,131.34H325.63v6.13h17.25c3.83,0,4.22,1.79,3.83,3.58s-5.49,15.33-5.49,15.33,4.6,21.72,3.71,26.2c-0.77,3.19-4.34,4.34-7.28,4.86V145.53h-12.4v57.38h12.4V197c7.16-.51,21.85-3.19,20.45-17a212.15,212.15,0,0,0-3.71-23.26s5.37-14.57,6.13-17.89-0.13-7.54-7.16-7.54h0Z" transform="translate(-26.47 -119.2)"/><path class="c" d="M250.36,181.44c5.37-10.61,6-25.94,6-25.94H244.61a48.54,48.54,0,0,1-1.92,12.27c-0.38-1-.89-2-1.28-3.07A157.55,157.55,0,0,1,235,142.84H255.6a41.26,41.26,0,0,1,1.66-12.78H244.35a26,26,0,0,0-1.79,6.65h-8.69c-1-6.52-1.28-10.61-1.28-10.61h-13s0.38,4.22,1.28,10.61h-25.3v-2.56h-13v38.72c0,11.88-8.43,21.34-8.43,21.34l10.48,7.54s11-9.33,11-27.35V160.48h7.54c2.68,0,2.94,1.41,2.94,4.09v13c0,9.71-7,18.4-7,18.4l10.35,7.67s9.71-13.8,9.71-23.51V161c0-1.79.64-6.65-4.86-6.65H195.54v-11.5h26.2a153.83,153.83,0,0,0,8.05,29c1.53,3.71,3.19,7.28,4.86,10.48a105.65,105.65,0,0,1-13.16,11.12l8.95,8.95s4.47-2.43,10.86-9.33a77.62,77.62,0,0,0,9.2,11.12l8.82-10.73a121.35,121.35,0,0,1-8.95-12h0Z" transform="translate(-26.47 -119.2)"/><rect class="d" x="482.53" y="12.78" width="54.31" height="6.13"/><path class="c" d="M563.45,150.26H508.24v6.13h30.67V184.5c0,6,0,6.26-2.81,8.05-1.66,1.15-5.62,3.19-5.62,3.19L536,203s8.82-2.68,11.76-4.22c3.58-1.79,5-3.32,5-8.82V156.39h10.73v-6.13Z" transform="translate(-26.47 -119.2)"/><path class="c" d="M498.78,144.89c-7.16,8.82-20.7,19.94-21.47,20.83l6.77,7.92s2.3-1.66,5.49-4.22v33.1h12.65V156.65a47.58,47.58,0,0,0,4.34-6Z" transform="translate(-26.47 -119.2)"/><path class="c" d="M501.6,131.73l-7.67-5.62c-7.16,10.1-16.48,16.74-17.25,17.64l6.9,7.8s7.92-5.49,18-19.81h0Z" transform="translate(-26.47 -119.2)"/><path class="c" d="M399.62,150.9h9.2v-5.62H387.61a72.55,72.55,0,0,0,4.09-6.52h16.87v-6.39H395c0.26-.51.51-1.15,0.77-1.66l-7.54-5.62c-9.07,16.23-14.7,21.72-15.59,22.62l7.8,6.65s1.15-1.28,2.81-3.45h3.83v13.55H377v6h10.1v25.81c0.13,3.07,1.15,6,6,5.37a44.49,44.49,0,0,0,15.08-5.37l-3.07-6.77s-2.81,1-3.83,1.28-1.66.38-1.66-.77V170.45h9.2v-6h-9.2V150.9h0Z" transform="translate(-26.47 -119.2)"/><path class="c" d="M427.09,191.66c-0.89.26-1.53,0.51-1.53-.64V165.34h31.69v-5.11c0-3.83.13-18.66,0.13-22.11,0-4-.51-6.52-6.13-6.52H413v5.62h0c0,8.05-.13,57.25,0,60.06s1.15,6,6,5.24c8.05-1,18.15-5.37,18.15-5.37l-2.68-7.54s-6.39,1.92-7.41,2h0Zm-1.53-40.25h19.17v7.92H425.56v-7.92h0Zm16.61-14.18c2.43,0,2.56,1,2.56,2.56v5.49H425.56v-8.05h16.61Z" transform="translate(-26.47 -119.2)"/><path class="c" d="M450.22,183.87a47.26,47.26,0,0,0,8.69-10.35l-6.77-4.73a42.64,42.64,0,0,1-8.05,7,34.88,34.88,0,0,1-3.58-6.65s-4.34-.13-11.12,0c8.95,30.16,27,33.35,27,33.35l5.75-10.35a28.58,28.58,0,0,1-11.88-8.31h0Z" transform="translate(-26.47 -119.2)"/><path class="c" d="M332.66,248h5.24V236.26h11.25v-4.34H337.9v-7.16H350v-4.22H332.66V248Z" transform="translate(-26.47 -119.2)"/><path class="c" d="M313.74,220c-8.56,0-14.57,6-14.57,14.44,0,8.18,5.75,13.93,14.06,13.93,8.69,0,14.57-5.75,14.57-14.44,0-8.31-5.62-13.93-14.06-13.93h0Zm-0.26,24.15c-6,0-8.82-5.11-8.82-9.84,0-5,2.68-10.1,8.82-10.1s8.82,5.11,8.82,9.84c0,5.11-2.68,10.1-8.82,10.1h0Z" transform="translate(-26.47 -119.2)"/><path class="c" d="M377.64,224.37a13.23,13.23,0,0,1,5.75,1l0.64,0.26,1.41-4.09-0.64-.26a17.92,17.92,0,0,0-7.28-1.28c-9.58,0-16.23,6-16.23,14.44s6,13.93,15.33,13.93a21.92,21.92,0,0,0,8.18-1.28l0.64-.26-1.28-4.09-0.64.26a16.86,16.86,0,0,1-6,1c-6.77,0-10.73-3.58-10.73-9.71s4.09-10,10.86-10h0Z" transform="translate(-26.47 -119.2)"/><path class="c" d="M489.58,237h6v6.52a18.68,18.68,0,0,1-4.47.51c-6.65,0-10.73-3.83-10.73-9.84s4.34-9.71,11.25-9.71a19,19,0,0,1,6.39,1l0.64,0.26,1.41-4.09-0.64-.26a23.3,23.3,0,0,0-7.67-1.28c-10.1,0-16.74,5.75-16.87,14.18a13.48,13.48,0,0,0,4.47,10.35c2.81,2.43,6.65,3.58,11.5,3.58a33.21,33.21,0,0,0,9.33-1.41l0.51-.26v-13.8H489.58V237Z" transform="translate(-26.47 -119.2)"/><path class="c" d="M465.17,232.17c0,2.81,0,5.37.26,7.92-1.28-2-2.56-4.09-4-6.13l-9.84-13.42h-5.24V248h5V236.13c0-3.19,0-5.75-.13-8.05,1.15,1.79,2.56,4,4.34,6.39L465.17,248h5V220.54h-5v11.63Z" transform="translate(-26.47 -119.2)"/><path class="c" d="M527.79,223.74c-2.81-2.3-6.9-3.45-12.52-3.45a58.57,58.57,0,0,0-8.18.51l-0.64.13v27h0.64a58.24,58.24,0,0,0,7,.38c6,0,10.73-1.41,13.55-4,3.07-2.56,4.6-6.26,4.6-10.73a11.86,11.86,0,0,0-4.47-9.84h0Zm-12.91,20.32a21.78,21.78,0,0,1-3.19-.13v-19.3a24.23,24.23,0,0,1,3.83-.26c4.09,0,7.16,1,9.07,3.07a8.6,8.6,0,0,1,2.3,6.26c0,6.65-4.34,10.35-12,10.35h0Z" transform="translate(-26.47 -119.2)"/><path class="c" d="M555.14,220.54v16.1c0,5-2.3,7.54-6.65,7.54-4,0-6.13-2.68-6.13-7.54v-16.1H537v16c0,7.67,4.09,11.88,11.37,11.88,7.67,0,12-4.34,12-12V220.54h-5.24Z" transform="translate(-26.47 -119.2)"/><path class="c" d="M427.48,235.75h11.63v-4.22H427.48v-6.77h12.27v-4.22H422.24V248h18.15v-4.34H427.48v-7.92Z" transform="translate(-26.47 -119.2)"/><path class="c" d="M409.33,231.4h-13V220.54h-5.24V248h5.24V235.75h13V248h5.24V220.54h-5.24V231.4h0Z" transform="translate(-26.47 -119.2)"/><path class="c" d="M287.42,220.54h-6.77l-9.33,10L270,232v-11.5H264.8V248H270V237.66c0.26-.38,1.41-1.41,2-2.17,0.89,1.15,9.58,12.52,9.58,12.52h6.26s-11.37-14.7-12.14-15.72c0.89-.77,11.63-11.76,11.63-11.76h0Z" transform="translate(-26.47 -119.2)"/><path class="c" d="M253.17,232.17c0,2.81.13,5.37,0.26,7.92a70.31,70.31,0,0,0-4-6.13l-9.71-13.42h-5.24V248h5V236.13c0-3.19,0-5.62-.13-8.05,1.41,2.43,3.07,4.73,4.22,6.39L253.3,248h5V220.54h-5.11v11.63Z" transform="translate(-26.47 -119.2)"/><path class="c" d="M214.32,220.54L203.72,248h5.37s2.81-7.41,3.19-8.18h9.58c0.26,0.77,3.19,8.18,3.19,8.18h5.62l-10.73-27.47h-5.62Zm-0.77,15.21c0.64-1.53,2.56-6.65,2.56-6.65s0.51-1.41.89-2.81c0.51,1.41.89,2.94,0.89,2.94s1.79,4.47,2.56,6.52h-6.9Z" transform="translate(-26.47 -119.2)"/><path class="c" d="M196.31,233.19a6.45,6.45,0,0,0,3.83-5.62,5.7,5.7,0,0,0-2.81-5.24c-1.92-1.41-4.47-2-8.56-2a56.92,56.92,0,0,0-7.16.51l-0.51.13v27h0.64a49.59,49.59,0,0,0,6,.38c5.11,0,8.56-.89,10.73-2.68a7,7,0,0,0,2.81-5.75c0-3.45-2.43-5.62-5-6.65h0Zm-9.71-8.56a15.55,15.55,0,0,1,2.68-.13c4.09,0,6.13,1.28,6.13,3.71s-2.3,3.71-6,3.71h-2.81v-7.28Zm2.3,19.55s-1.79-.13-2.56-0.13v-8.56h2.43c2.17,0,7,.38,7,4.34,0,3.71-4.34,4.34-6.9,4.34h0Z" transform="translate(-26.47 -119.2)"/></svg>