<svg xmlns="http://www.w3.org/2000/svg" viewBox="0 0 536.97 107.79"><defs><style>.a{fill:#231815;}.b{fill:#009882;}</style></defs><title>Agricultural Bank of Bank</title><path class="a" d="M552.64,237.06v-1h2.28l-2.28-5.37v-4l0,0a4.29,4.29,0,0,1,.34-0.73,0.59,0.59,0,0,1,.49-0.29,0.53,0.53,0,0,1,.48.19,3.94,3.94,0,0,1,.41.72l5.81,12.71a5.41,5.41,0,0,0,.38.64,8.38,8.38,0,0,0,.49.7,1.73,1.73,0,0,0,.46.4,1.42,1.42,0,0,0,.5.21l0.21,0a1.21,1.21,0,0,1,.28.1,0.27,0.27,0,0,1,.14.2,0.34,0.34,0,0,1-.11.27,0.41,0.41,0,0,1-.31.13h-7.14a1.52,1.52,0,0,1-.51-0.06,0.27,0.27,0,0,1-.12-0.31,0.3,0.3,0,0,1,.14-0.24,0.88,0.88,0,0,1,.33-0.1l0.41,0a1.74,1.74,0,0,0,.48-0.11,0.79,0.79,0,0,0,.43-0.36,1,1,0,0,0,.14-0.61,2,2,0,0,0-.09-0.51l-1.09-2.5h-2.57Zm0-10.39v4l-0.07-.16-2.21,5.54h2.28v1H550l-0.83,2.54a1.52,1.52,0,0,0-.09.85,0.78,0.78,0,0,0,.32.5,1.2,1.2,0,0,0,.49.21,2.42,2.42,0,0,0,.44,0h0.25a0.4,0.4,0,0,1,.27.12,0.33,0.33,0,0,1,.12.26,0.29,0.29,0,0,1-.21.27,2,2,0,0,1-.54.06H545.6a2.17,2.17,0,0,1-.63-0.06,0.27,0.27,0,0,1-.17-0.29,0.26,0.26,0,0,1,.14-0.28,2,2,0,0,1,.39-0.08l0.26,0a1.72,1.72,0,0,0,.5-0.16,2.43,2.43,0,0,0,.57-0.33,3,3,0,0,0,.45-0.46,5.54,5.54,0,0,0,.37-0.53,3.49,3.49,0,0,0,.24-0.48l4.91-12.55h0ZM452.21,242v-1h0.2a3.67,3.67,0,0,0,.72-0.05,4.1,4.1,0,0,0,.88-0.3,2.51,2.51,0,0,0,.92-0.74,4,4,0,0,0,.66-1.32,10.42,10.42,0,0,0,.33-1.34q0.08-.54.15-1.78t0.07-1.65c0-.28,0-0.69,0-1.24,0-.74-0.08-1.35-0.13-1.83a13.65,13.65,0,0,0-.2-1.38,5.08,5.08,0,0,0-.4-1.19,2.64,2.64,0,0,0-.73-0.9,3.05,3.05,0,0,0-1.12-.56,4.49,4.49,0,0,0-1.21-.18h-0.11v-1h0.08a9.86,9.86,0,0,1,1.78.18,8.08,8.08,0,0,1,1.62.48,7.26,7.26,0,0,1,1.38.76,6.32,6.32,0,0,1,1.14,1,6.84,6.84,0,0,1,.9,1.36,7.45,7.45,0,0,1,.62,1.68,10.66,10.66,0,0,1,.27,1.65c0,0.5.06,0.95,0.06,1.35a12,12,0,0,1-.12,1.56,8.38,8.38,0,0,1-.33,1.41,7.7,7.7,0,0,1-.65,1.43,7,7,0,0,1-2.25,2.32,11,11,0,0,1-1.37.65,7.63,7.63,0,0,1-1.12.39,10.13,10.13,0,0,1-1.05.11l-0.91.06h-0.06Zm47.16-15.65,0.21,4.07a1.72,1.72,0,0,1,0,.45,0.52,0.52,0,0,1-.12.28,0.42,0.42,0,0,1-.27.11,0.29,0.29,0,0,1-.29-0.11,0.93,0.93,0,0,1-.16-0.36l-0.09-.3a6.37,6.37,0,0,0-.43-1,4.86,4.86,0,0,0-.68-1,4.36,4.36,0,0,0-.86-0.74,5.51,5.51,0,0,0-1.17-.57,4.63,4.63,0,0,0-1.54-.26,3.81,3.81,0,0,0-1.63.3,3,3,0,0,0-1.11.84,4.7,4.7,0,0,0-.67,1.14,10.84,10.84,0,0,0-.69,2.82,14,14,0,0,0-.06,1.6c0,0.42,0,.89,0,1.42a13.15,13.15,0,0,0,.13,1.5,7.19,7.19,0,0,0,.36,1.41,4.32,4.32,0,0,0,.69,1.23,4,4,0,0,0,1.08.91,4.31,4.31,0,0,0,1.21.51,4,4,0,0,0,1.29.06,4.19,4.19,0,0,0,1.31-.31,4.79,4.79,0,0,0,1.06-.63,7,7,0,0,0,1-.92,8.54,8.54,0,0,0,.77-1,1.77,1.77,0,0,1,.57-0.62,0.39,0.39,0,0,1,.41,0,0.43,0.43,0,0,1,.18.35,1.22,1.22,0,0,1-.19.64c-0.25.47-.5,0.88-0.73,1.21a8.17,8.17,0,0,1-1,1.12,4.82,4.82,0,0,1-1.33.93,6,6,0,0,1-1.54.45,9.06,9.06,0,0,1-1.65.13,10.24,10.24,0,0,1-2-.2,7.7,7.7,0,0,1-1.85-.61A6,6,0,0,1,487.9,240a6.8,6.8,0,0,1-1.83-3.13,10.3,10.3,0,0,1-.27-1.47,12.84,12.84,0,0,1-.08-1.38,13.2,13.2,0,0,1,.13-1.64,8.57,8.57,0,0,1,.36-1.68,7.17,7.17,0,0,1,.65-1.39,8,8,0,0,1,.82-1.16,5.66,5.66,0,0,1,1-.89,8.64,8.64,0,0,1,1.22-.73,6.61,6.61,0,0,1,1.39-.5,8.73,8.73,0,0,1,1.72-.23,8.48,8.48,0,0,1,1.48.07,6.85,6.85,0,0,1,1.29.32,7.18,7.18,0,0,1,1.12.48,2.8,2.8,0,0,0,.76.32,0.62,0.62,0,0,0,.48-0.1,0.5,0.5,0,0,0,.18-0.25c0-.11.08-0.24,0.11-0.38a1.06,1.06,0,0,1,.15-0.35,0.35,0.35,0,0,1,.29-0.15,0.45,0.45,0,0,1,.32.11,0.62,0.62,0,0,1,.11.25,2.2,2.2,0,0,1,.05.28h0Zm12.55,6.18v-3.9a3.8,3.8,0,0,0-.08-0.68,1.81,1.81,0,0,0-.29-0.71,1.84,1.84,0,0,0-.56-0.51,1.94,1.94,0,0,0-.65-0.26l-0.21,0a0.48,0.48,0,0,1-.24-0.1,0.26,0.26,0,0,1-.08-0.28,0.37,0.37,0,0,1,.16-0.26,0.54,0.54,0,0,1,.31-0.08h7.11a0.57,0.57,0,0,1,.3.08,0.29,0.29,0,0,1,.11.25,0.42,0.42,0,0,1-.07.27,0.33,0.33,0,0,1-.24.11l-0.25,0a1.73,1.73,0,0,0-.62.2,1.67,1.67,0,0,0-.53.48,2,2,0,0,0-.34.77,3.93,3.93,0,0,0-.1.8v10.4a4.09,4.09,0,0,0,.07.73,1.42,1.42,0,0,0,.3.66,1.6,1.6,0,0,0,.59.43,2.28,2.28,0,0,0,.59.19l0.21,0a0.7,0.7,0,0,1,.25.12,0.3,0.3,0,0,1,.13.26,0.29,0.29,0,0,1-.16.25,0.88,0.88,0,0,1-.41.08h-7a0.57,0.57,0,0,1-.33-0.1,0.27,0.27,0,0,1-.09-0.31,0.32,0.32,0,0,1,.14-0.21,0.68,0.68,0,0,1,.25-0.1l0.22,0a2,2,0,0,0,.49-0.15,1.82,1.82,0,0,0,.56-0.37,1.4,1.4,0,0,0,.37-0.63,3.42,3.42,0,0,0,.12-0.83v-5.67h-5.68v5.67a2.83,2.83,0,0,0,.09.73,1.7,1.7,0,0,0,.34.66,1.45,1.45,0,0,0,.55.43,2,2,0,0,0,.56.15l0.25,0a0.44,0.44,0,0,1,.21.13,0.37,0.37,0,0,1,.11.26,0.24,0.24,0,0,1-.11.23,0.51,0.51,0,0,1-.3.08h-7.13a0.54,0.54,0,0,1-.32-0.1,0.3,0.3,0,0,1-.09-0.31,0.34,0.34,0,0,1,.13-0.2,0.68,0.68,0,0,1,.22-0.1l0.25,0a1.31,1.31,0,0,0,.41-0.14,3.25,3.25,0,0,0,.55-0.36,1.32,1.32,0,0,0,.43-0.64,2.75,2.75,0,0,0,.16-0.84V228.68a4.12,4.12,0,0,0-.08-0.69,2.08,2.08,0,0,0-.32-0.8,1.37,1.37,0,0,0-.54-0.51,2.09,2.09,0,0,0-.54-0.17l-0.27,0a0.48,0.48,0,0,1-.27-0.1,0.26,0.26,0,0,1-.09-0.28,0.38,0.38,0,0,1,.17-0.26,0.58,0.58,0,0,1,.3-0.08H508a1.11,1.11,0,0,1,.28.06,0.25,0.25,0,0,1,.14.26,0.3,0.3,0,0,1-.12.29,0.61,0.61,0,0,1-.25.09l-0.25,0a1.75,1.75,0,0,0-.57.21,2,2,0,0,0-.58.51,1.55,1.55,0,0,0-.34.7,4,4,0,0,0-.06.71v4h5.68Zm12.44,6.57a6.27,6.27,0,0,0,.09.82,1.31,1.31,0,0,0,.32.63,1.55,1.55,0,0,0,.62.41,2.69,2.69,0,0,0,.65.16l0.34,0a1,1,0,0,1,.25.06,0.34,0.34,0,0,1,.1.26,0.31,0.31,0,0,1-.1.3,0.62,0.62,0,0,1-.34.08H518.7a0.59,0.59,0,0,1-.33-0.09,0.29,0.29,0,0,1-.08-0.32,0.32,0.32,0,0,1,.14-0.21,0.72,0.72,0,0,1,.24-0.1l0.27,0a2.29,2.29,0,0,0,.53-0.15,1.78,1.78,0,0,0,.59-0.37,1.56,1.56,0,0,0,.4-0.74,3.63,3.63,0,0,0,.16-0.88V228.69a5.45,5.45,0,0,0-.06-0.74,1.44,1.44,0,0,0-.32-0.76,1.77,1.77,0,0,0-.64-0.47,3.32,3.32,0,0,0-.63-0.21l-0.24,0a0.41,0.41,0,0,1-.24-0.1,0.24,0.24,0,0,1-.08-0.27,0.4,0.4,0,0,1,.16-0.27,0.53,0.53,0,0,1,.31-0.08h7.36a0.54,0.54,0,0,1,.3.1,0.29,0.29,0,0,1,.11.27,0.41,0.41,0,0,1-.13.23,0.38,0.38,0,0,1-.24.1l-0.3,0a1.65,1.65,0,0,0-.63.24,2,2,0,0,0-.55.49,2,2,0,0,0-.33.63,2.64,2.64,0,0,0-.1.74v10.54h0Zm17.52,1.55a2.18,2.18,0,0,1-.16,1,0.61,0.61,0,0,1-.44.39,0.76,0.76,0,0,1-.54-0.16,1.8,1.8,0,0,1-.4-0.36c-0.17-.19-0.3-0.35-0.38-0.46l-9-11.86v10.29a1.54,1.54,0,0,0,.13.72,1.27,1.27,0,0,0,.5.52,2.33,2.33,0,0,0,.71.3,4.68,4.68,0,0,0,.63.1l0.35,0,0.31,0.08a0.28,0.28,0,0,1,.18.29,0.28,0.28,0,0,1-.14.3,0.83,0.83,0,0,1-.38.06h-5.52a0.56,0.56,0,0,1-.35-0.11,0.26,0.26,0,0,1-.08-0.33,0.32,0.32,0,0,1,.16-0.18,0.74,0.74,0,0,1,.28-0.09l0.31,0a2.92,2.92,0,0,0,.5-0.09,2.48,2.48,0,0,0,.63-0.26,1.14,1.14,0,0,0,.47-0.55,1.76,1.76,0,0,0,.16-0.69V229a5.89,5.89,0,0,0-.06-0.83,2.2,2.2,0,0,0-.26-0.8,1.34,1.34,0,0,0-.49-0.52,2.19,2.19,0,0,0-.59-0.25,3.15,3.15,0,0,0-.47-0.1l-0.33,0a0.43,0.43,0,0,1-.22-0.07,0.29,0.29,0,0,1-.1-0.31,0.29,0.29,0,0,1,.17-0.27,1.68,1.68,0,0,1,.5-0.07l4.84,0L540.66,236v-7.83a1.86,1.86,0,0,0-.13-0.64,1.47,1.47,0,0,0-.4-0.58,1.46,1.46,0,0,0-.61-0.32,3.48,3.48,0,0,0-.6-0.11l-0.62,0a0.46,0.46,0,0,1-.28-0.09,0.27,0.27,0,0,1-.09-0.29,0.32,0.32,0,0,1,.18-0.24,0.73,0.73,0,0,1,.36-0.08h5.46a0.5,0.5,0,0,1,.31.1,0.34,0.34,0,0,1,.12.29,0.38,0.38,0,0,1-.09.23,0.31,0.31,0,0,1-.23.1l-0.46,0a2.93,2.93,0,0,0-.64.16,1.43,1.43,0,0,0-.59.36,1.84,1.84,0,0,0-.34.6,1.91,1.91,0,0,0-.13.59V240.7h0Zm-75.24-1.63a4,4,0,0,0,.11.9,1.37,1.37,0,0,0,.36.63,1.86,1.86,0,0,0,.59.41,2.27,2.27,0,0,0,.52.16l0.26,0a0.74,0.74,0,0,1,.22.11,0.34,0.34,0,0,1,.13.24,0.32,0.32,0,0,1-.08.26,0.3,0.3,0,0,1-.24.1H461a0.55,0.55,0,0,1-.33-0.1,0.26,0.26,0,0,1-.08-0.31,0.42,0.42,0,0,1,.13-0.17,0.37,0.37,0,0,1,.19-0.13l0.37,0a2.07,2.07,0,0,0,.46-0.1,1.89,1.89,0,0,0,.61-0.34,1.37,1.37,0,0,0,.45-0.69,3.56,3.56,0,0,0,.15-0.93V228.59a5,5,0,0,0-.08-0.7,1.31,1.31,0,0,0-.33-0.74,2.07,2.07,0,0,0-.6-0.43,2.46,2.46,0,0,0-.6-0.21l-0.28,0a0.53,0.53,0,0,1-.26-0.09,0.24,0.24,0,0,1-.08-0.27,0.41,0.41,0,0,1,.18-0.27,0.54,0.54,0,0,1,.3-0.08h13.93v4.37a1,1,0,0,1-.07.35,0.32,0.32,0,0,1-.22.18,0.4,0.4,0,0,1-.3,0,0.44,0.44,0,0,1-.21-0.27l-0.16-.46a7.94,7.94,0,0,0-.36-0.81,5.24,5.24,0,0,0-.6-0.91,3.72,3.72,0,0,0-.93-0.82,4.06,4.06,0,0,0-1.16-.5,3.93,3.93,0,0,0-1-.15h-2.71a1.58,1.58,0,0,0-.36.06,0.61,0.61,0,0,0-.29.17,0.43,0.43,0,0,0-.14.23,4,4,0,0,0,0,.41v5.49h1.68a1.71,1.71,0,0,0,.56-0.1,2.82,2.82,0,0,0,.54-0.26,2.16,2.16,0,0,0,.53-0.53,5.34,5.34,0,0,0,.42-0.61,3.22,3.22,0,0,0,.25-0.54q0.1-.29.18-0.46a0.36,0.36,0,0,1,.27-0.21,0.32,0.32,0,0,1,.32.08,0.58,0.58,0,0,1,.12.41v5.57a0.44,0.44,0,0,1-.1.29,0.45,0.45,0,0,1-.66-0.05,1.13,1.13,0,0,1-.18-0.42,4.19,4.19,0,0,0-.38-0.8,3.7,3.7,0,0,0-.59-0.76,2,2,0,0,0-.7-0.46,1.71,1.71,0,0,0-.61-0.15h-1.67v5Zm-14.42-13.45v1a3.71,3.71,0,0,0-1.05.2,3.3,3.3,0,0,0-1,.56,3.56,3.56,0,0,0-.84,1.08,5.84,5.84,0,0,0-.58,1.55,15.41,15.41,0,0,0-.29,1.81c-0.06.65-.11,1.29-0.13,1.91s0,1.07,0,1.36,0,0.82.07,1.3a13.69,13.69,0,0,0,.22,1.45,4.3,4.3,0,0,0,.36,1.12,8,8,0,0,0,.44.71,3.74,3.74,0,0,0,.65.65,3.34,3.34,0,0,0,1.12.55,4.71,4.71,0,0,0,1.07.2v1a8,8,0,0,1-1-.07,9.05,9.05,0,0,1-1.28-.25,8.07,8.07,0,0,1-1.41-.58,8.22,8.22,0,0,1-1.42-.91,6.46,6.46,0,0,1-1.13-1.22,7.4,7.4,0,0,1-.82-1.4,7.65,7.65,0,0,1-.44-1.32,10.89,10.89,0,0,1-.19-1.1c0-.31-0.06-0.64-0.06-1s0-.54,0-0.89a7.57,7.57,0,0,1,.12-1.21,8.87,8.87,0,0,1,.35-1.38,8.15,8.15,0,0,1,.63-1.38,5.78,5.78,0,0,1,.86-1.17,8.67,8.67,0,0,1,1-.88,8.54,8.54,0,0,1,1.08-.7,7.68,7.68,0,0,1,1.28-.54,9.12,9.12,0,0,1,1.29-.34,7,7,0,0,1,1.17-.1h0Zm-64.29,11.44v-1h2.28l-2.28-5.37v-4l0,0a4.33,4.33,0,0,1,.34-0.73,0.59,0.59,0,0,1,.49-0.29,0.53,0.53,0,0,1,.48.19,3.94,3.94,0,0,1,.41.72l5.81,12.71a5.37,5.37,0,0,0,.38.64,8.3,8.3,0,0,0,.49.7,1.75,1.75,0,0,0,.46.4,1.41,1.41,0,0,0,.5.21l0.21,0a1.2,1.2,0,0,1,.28.1,0.27,0.27,0,0,1,.14.2,0.34,0.34,0,0,1-.1.27,0.41,0.41,0,0,1-.31.13h-7.14a1.51,1.51,0,0,1-.51-0.06,0.27,0.27,0,0,1-.12-0.31,0.3,0.3,0,0,1,.14-0.24,0.87,0.87,0,0,1,.33-0.1l0.41,0a1.73,1.73,0,0,0,.48-0.11,0.79,0.79,0,0,0,.43-0.36,1,1,0,0,0,.14-0.61,2,2,0,0,0-.09-0.51l-1.09-2.5h-2.57ZM413,240.7a2.18,2.18,0,0,1-.16,1,0.61,0.61,0,0,1-.44.39,0.76,0.76,0,0,1-.54-0.16,1.82,1.82,0,0,1-.41-0.36c-0.17-.19-0.3-0.35-0.38-0.46l-9-11.86v10.29a1.53,1.53,0,0,0,.13.72,1.27,1.27,0,0,0,.5.52,2.32,2.32,0,0,0,.71.3,4.74,4.74,0,0,0,.63.1l0.35,0,0.31,0.08a0.28,0.28,0,0,1,.18.29,0.28,0.28,0,0,1-.14.3,0.83,0.83,0,0,1-.38.06h-5.52a0.56,0.56,0,0,1-.35-0.11,0.26,0.26,0,0,1-.08-0.33,0.32,0.32,0,0,1,.16-0.18,0.74,0.74,0,0,1,.28-0.09l0.31,0a2.9,2.9,0,0,0,.49-0.09,2.47,2.47,0,0,0,.64-0.26,1.15,1.15,0,0,0,.47-0.55,1.78,1.78,0,0,0,.16-0.69V229a5.9,5.9,0,0,0-.06-0.83,2.25,2.25,0,0,0-.26-0.8,1.35,1.35,0,0,0-.49-0.52,2.22,2.22,0,0,0-.59-0.25,3.12,3.12,0,0,0-.47-0.1l-0.33,0a0.43,0.43,0,0,1-.22-0.07,0.37,0.37,0,0,1,.07-0.57,1.68,1.68,0,0,1,.5-0.07l4.84,0L411.83,236v-7.83a1.87,1.87,0,0,0-.14-0.64,1.45,1.45,0,0,0-1-.9,3.51,3.51,0,0,0-.6-0.11l-0.62,0a0.47,0.47,0,0,1-.28-0.09,0.27,0.27,0,0,1-.08-0.29,0.32,0.32,0,0,1,.18-0.24,0.73,0.73,0,0,1,.36-0.08h5.46a0.5,0.5,0,0,1,.31.1,0.34,0.34,0,0,1,.12.29,0.37,0.37,0,0,1-.09.23,0.31,0.31,0,0,1-.23.1l-0.46,0a2.93,2.93,0,0,0-.64.16,1.43,1.43,0,0,0-.59.36,1.87,1.87,0,0,0-.34.6,1.91,1.91,0,0,0-.13.59V240.7h0Zm8.79-7.5,4.46-4.61a2.73,2.73,0,0,0,.34-0.47,4.19,4.19,0,0,0,.31-0.6A0.74,0.74,0,0,0,427,227a0.71,0.71,0,0,0-.32-0.34,1.17,1.17,0,0,0-.44-0.15l-0.39,0a1.07,1.07,0,0,1-.36-0.06,0.27,0.27,0,0,1-.13-0.27,0.29,0.29,0,0,1,.17-0.3,1,1,0,0,1,.4-0.08h6.34a1.35,1.35,0,0,1,.31.06,0.25,0.25,0,0,1,.17.26,0.32,0.32,0,0,1-.14.29,0.56,0.56,0,0,1-.31.1h-0.2a3.55,3.55,0,0,0-.8.15,6.71,6.71,0,0,0-.91.3,7.18,7.18,0,0,0-.93.52,4.15,4.15,0,0,0-.78.58l-2.73,2.91,4.23,7.3a7,7,0,0,0,.55.79l0.41,0.58a5.71,5.71,0,0,0,.47.57c0.14,0.14.3,0.29,0.48,0.44a4.41,4.41,0,0,0,.53.38,1.25,1.25,0,0,0,.48.17l0.31,0,0.25,0.07a0.31,0.31,0,0,1,.2.27,0.23,0.23,0,0,1-.16.29,1.71,1.71,0,0,1-.57.07H426a0.54,0.54,0,0,1-.31-0.08,0.27,0.27,0,0,1-.1-0.28,0.33,0.33,0,0,1,.22-0.3l0.25,0,0.2,0a1.55,1.55,0,0,0,.38-0.12,0.51,0.51,0,0,0,.3-0.33,0.89,0.89,0,0,0,0-.54,3.2,3.2,0,0,0-.16-0.47l-3.57-6.13-1.35,1.31v4.21a3.05,3.05,0,0,0,.09.73,1.87,1.87,0,0,0,.3.67,1.58,1.58,0,0,0,.56.46,1.66,1.66,0,0,0,.55.2l0.25,0a0.48,0.48,0,0,1,.25.13,0.32,0.32,0,0,1,.12.25,0.27,0.27,0,0,1-.16.28,1.21,1.21,0,0,1-.4.05h-7a0.61,0.61,0,0,1-.35-0.09,0.26,0.26,0,0,1-.08-0.32,0.33,0.33,0,0,1,.15-0.2,0.81,0.81,0,0,1,.24-0.1l0.31,0a1.12,1.12,0,0,0,.43-0.12,1.93,1.93,0,0,0,.52-0.41A1.67,1.67,0,0,0,418,240a2.87,2.87,0,0,0,.12-0.81V228.68a4.66,4.66,0,0,0-.06-0.71,1.62,1.62,0,0,0-.29-0.73,1.86,1.86,0,0,0-.57-0.52,1.45,1.45,0,0,0-.57-0.22l-0.43,0a0.42,0.42,0,0,1-.26-0.1,0.26,0.26,0,0,1-.08-0.27,0.39,0.39,0,0,1,.16-0.26,0.55,0.55,0,0,1,.31-0.08h7.28a0.54,0.54,0,0,1,.3.08,0.29,0.29,0,0,1,.1.24,0.33,0.33,0,0,1-.12.29,0.56,0.56,0,0,1-.25.07l-0.37,0a1.51,1.51,0,0,0-1.1.69,1.78,1.78,0,0,0-.27.68,4.1,4.1,0,0,0-.06.72v4.59Zm-33.92-6.54v4l-0.07-.16-2.21,5.54h2.28v1h-2.66l-0.83,2.54a1.54,1.54,0,0,0-.09.85,0.78,0.78,0,0,0,.32.5,1.19,1.19,0,0,0,.49.21,2.42,2.42,0,0,0,.44,0h0.25a0.4,0.4,0,0,1,.27.12,0.34,0.34,0,0,1,.12.26,0.29,0.29,0,0,1-.21.27,2,2,0,0,1-.54.06h-4.59a2.16,2.16,0,0,1-.63-0.06,0.27,0.27,0,0,1-.17-0.29,0.26,0.26,0,0,1,.14-0.28,2,2,0,0,1,.39-0.08l0.26,0a1.72,1.72,0,0,0,.5-0.16,2.39,2.39,0,0,0,.57-0.33,3,3,0,0,0,.45-0.46,5.6,5.6,0,0,0,.37-0.53,3.39,3.39,0,0,0,.24-0.48l4.91-12.55h0ZM372.81,241.9v-1a4.61,4.61,0,0,0,1-.14,2.18,2.18,0,0,0,1-.56,2,2,0,0,0,.58-0.92,5.27,5.27,0,0,0,.18-1.12c0-.41,0-0.74,0-1a3.91,3.91,0,0,0-.25-1.27,2.25,2.25,0,0,0-.73-1,3.52,3.52,0,0,0-1.19-.59,5,5,0,0,0-.62-0.13V233a3.87,3.87,0,0,0,1.2-.52,2.68,2.68,0,0,0,.89-0.94,3.09,3.09,0,0,0,.34-1.48,4.8,4.8,0,0,0-.17-1.5,2.31,2.31,0,0,0-.71-1.1,2.77,2.77,0,0,0-1-.49,4,4,0,0,0-.57-0.11v-1.05h0.69c0.6,0,1.17,0,1.7.09a7,7,0,0,1,1.41.28,4.07,4.07,0,0,1,1.14.58,3.35,3.35,0,0,1,.85.88,3.64,3.64,0,0,1,.48,1.21,3.5,3.5,0,0,1,0,1.5,3,3,0,0,1-.48,1.09,3.65,3.65,0,0,1-.8.79,7.26,7.26,0,0,1-2.58,1l-1.55.26q1.13,0.12,1.88.25a7.82,7.82,0,0,1,1.53.43,4.61,4.61,0,0,1,1.28.71,3.52,3.52,0,0,1,.86,1.14,3.88,3.88,0,0,1,.38,1.65,3.8,3.8,0,0,1-1.19,2.82,4.49,4.49,0,0,1-1.29.82,6.63,6.63,0,0,1-1.62.48,11.09,11.09,0,0,1-1.64.12h-1Zm0-16.15v1.05l-0.44,0H371.2a2.23,2.23,0,0,0-.52.07,0.89,0.89,0,0,0-.4.18,0.79,0.79,0,0,0-.19.36,2.09,2.09,0,0,0-.08.61v5.14h1.65a5.06,5.06,0,0,0,1.12-.16h0v1.22a7.54,7.54,0,0,0-1.08-.07H370v5.8a1.74,1.74,0,0,0,.08.6,0.5,0.5,0,0,0,.3.28,2,2,0,0,0,.73.1h1.69v1h-8.32a0.56,0.56,0,0,1-.35-0.09,0.27,0.27,0,0,1-.1-0.32,0.26,0.26,0,0,1,.15-0.2,1.58,1.58,0,0,1,.38-0.11,4.78,4.78,0,0,0,.55-0.13,1.9,1.9,0,0,0,.59-0.31,1.35,1.35,0,0,0,.44-0.58,2.55,2.55,0,0,0,.14-1V228.37a2.64,2.64,0,0,0-.1-0.7,1.65,1.65,0,0,0-.29-0.58,1.46,1.46,0,0,0-.5-0.39,1.81,1.81,0,0,0-.62-0.19,1.15,1.15,0,0,1-.45-0.12,0.23,0.23,0,0,1-.1-0.28,0.41,0.41,0,0,1,.16-0.28,0.53,0.53,0,0,1,.31-0.08h8.11Zm-45.35,11.3v-1h2.28l-2.28-5.37v-4l0,0a4.25,4.25,0,0,1,.34-0.73,0.58,0.58,0,0,1,.49-0.29,0.53,0.53,0,0,1,.48.19,3.84,3.84,0,0,1,.41.72l5.8,12.71a5.56,5.56,0,0,0,.39.64c0.21,0.32.37,0.55,0.49,0.7a1.75,1.75,0,0,0,.46.4,1.41,1.41,0,0,0,.5.21l0.21,0a1.21,1.21,0,0,1,.27.1,0.27,0.27,0,0,1,.14.2,0.34,0.34,0,0,1-.1.27,0.41,0.41,0,0,1-.31.13H329.9a1.51,1.51,0,0,1-.51-0.06,0.27,0.27,0,0,1-.12-0.31,0.3,0.3,0,0,1,.14-0.24,0.88,0.88,0,0,1,.33-0.1l0.41,0a1.73,1.73,0,0,0,.48-0.11,0.79,0.79,0,0,0,.43-0.36,1,1,0,0,0,.14-0.61,2,2,0,0,0-.09-0.51l-1.09-2.5h-2.57Zm25.44,4.84H338.35a0.54,0.54,0,0,1-.34-0.08,0.29,0.29,0,0,1-.08-0.33,0.32,0.32,0,0,1,.13-0.21,0.75,0.75,0,0,1,.24-0.1l0.24,0A1.49,1.49,0,0,0,339,241a2.75,2.75,0,0,0,.58-0.36,1.19,1.19,0,0,0,.4-0.6,3.15,3.15,0,0,0,.13-0.87V228.69A5.8,5.8,0,0,0,340,228a1.58,1.58,0,0,0-.25-0.76,2,2,0,0,0-.55-0.46,1.47,1.47,0,0,0-.53-0.24l-0.35,0a0.4,0.4,0,0,1-.25-0.1,0.27,0.27,0,0,1-.09-0.28,0.41,0.41,0,0,1,.16-0.26,0.53,0.53,0,0,1,.31-0.08h7.13a0.51,0.51,0,0,1,.28.09,0.29,0.29,0,0,1,.11.23,0.38,0.38,0,0,1-.08.26,0.32,0.32,0,0,1-.23.12l-0.33,0a1.56,1.56,0,0,0-.6.2,1.7,1.7,0,0,0-.52.48,1.78,1.78,0,0,0-.32.7,3.4,3.4,0,0,0-.08.71v10.91c0,0.27,0,.47,0,0.58a0.74,0.74,0,0,0,.16.36,1,1,0,0,0,.38.33,1.11,1.11,0,0,0,.56.13h2.5c0.16,0,.41,0,0.75,0a4.74,4.74,0,0,0,1-.23,4.1,4.1,0,0,0,1.12-.64,7.06,7.06,0,0,0,.95-0.86,7.92,7.92,0,0,0,.69-0.93,6.14,6.14,0,0,0,.49-0.9l0.17-.43a3.51,3.51,0,0,1,.19-0.42,0.3,0.3,0,0,1,.3-0.11,0.32,0.32,0,0,1,.28.15,1.54,1.54,0,0,1,0,.58Zm-25.44-15.23v4l-0.07-.16-2.21,5.54h2.28v1H324.8L324,239.6a1.52,1.52,0,0,0-.09.85,0.78,0.78,0,0,0,.32.5,1.2,1.2,0,0,0,.49.21,2.42,2.42,0,0,0,.44,0h0.25a0.4,0.4,0,0,1,.27.12,0.34,0.34,0,0,1,.12.26,0.29,0.29,0,0,1-.21.27,2,2,0,0,1-.55.06h-4.59a2.17,2.17,0,0,1-.63-0.06,0.27,0.27,0,0,1-.16-0.29,0.26,0.26,0,0,1,.14-0.28,2.05,2.05,0,0,1,.39-0.08l0.26,0a1.73,1.73,0,0,0,.5-0.16,2.42,2.42,0,0,0,.57-0.33,3,3,0,0,0,.45-0.46,5.71,5.71,0,0,0,.37-0.53,3.66,3.66,0,0,0,.24-0.48l4.91-12.55h0ZM310.82,234v-1.15a3.62,3.62,0,0,0,1.07-.38,2.6,2.6,0,0,0,.95-0.85,3,3,0,0,0,.47-1.2,5.33,5.33,0,0,0,.05-1.39,2.87,2.87,0,0,0-.35-1.22,2.23,2.23,0,0,0-.68-0.67,2.7,2.7,0,0,0-.95-0.38,5.25,5.25,0,0,0-.56-0.09v-1h2c0.4,0,.79,0,1.2.07a4,4,0,0,1,1.25.35,4.17,4.17,0,0,1,1.08.68,3.42,3.42,0,0,1,.76,1.05,4.15,4.15,0,0,1,.39,1.59,3,3,0,0,1-.43,1.76,3.16,3.16,0,0,1-.93,1,5.87,5.87,0,0,1-1.29.64,8.42,8.42,0,0,1-1.23.37l-1.19.28,0.93,0.18a5,5,0,0,1,.89.29,2.32,2.32,0,0,1,.85.6,2.29,2.29,0,0,1,.5.9,6,6,0,0,1,.19,1.4c0,0.59,0,1.09,0,1.49a1.14,1.14,0,0,0,.25.83,0.81,0.81,0,0,0,.61.22,1.06,1.06,0,0,0,.47-0.13,1.22,1.22,0,0,0,.49-0.51,6.55,6.55,0,0,0,.38-0.8c0.11-.28.19-0.46,0.22-0.54a0.64,0.64,0,0,1,.22-0.25,0.48,0.48,0,0,1,.37-0.09,0.41,0.41,0,0,1,.3.31,1.25,1.25,0,0,1,0,.74c-0.13.48-.26,0.92-0.38,1.3a4.12,4.12,0,0,1-.52,1.1,3.1,3.1,0,0,1-.81.84,3.15,3.15,0,0,1-1,.47,4.29,4.29,0,0,1-1.2.11,3.71,3.71,0,0,1-1.48-.29,2.07,2.07,0,0,1-1-.85,3.71,3.71,0,0,1-.44-1.1,8.87,8.87,0,0,1-.13-1.37l0-1.15c0-.34,0-0.73-0.06-1.17a3.65,3.65,0,0,0-.18-1.05,1.46,1.46,0,0,0-.44-0.64A1.72,1.72,0,0,0,310.82,234Zm0-8.3v1l-0.41,0h-0.83a2,2,0,0,0-.9.17,0.72,0.72,0,0,0-.34.38,2.85,2.85,0,0,0-.08.8V233h1.24a8.45,8.45,0,0,0,1.2-.08l0.12,0V234l-0.08,0a5.82,5.82,0,0,0-1.3-.11h-1.17v5.22a3.73,3.73,0,0,0,.1.74,1.67,1.67,0,0,0,.31.69,1.52,1.52,0,0,0,.55.42,1.62,1.62,0,0,0,.53.17l0.27,0a0.7,0.7,0,0,1,.3.12,0.32,0.32,0,0,1,.14.27,0.29,0.29,0,0,1-.11.26,0.46,0.46,0,0,1-.3.07h-7.18a0.52,0.52,0,0,1-.32-0.1,0.29,0.29,0,0,1-.09-0.31,0.36,0.36,0,0,1,.13-0.21,0.49,0.49,0,0,1,.24-0.1l0.24,0a2.35,2.35,0,0,0,.48-0.15,2.5,2.5,0,0,0,.57-0.3,1.24,1.24,0,0,0,.36-0.69,3.29,3.29,0,0,0,.14-0.86v-10.5a6.13,6.13,0,0,0-.08-0.69,1.92,1.92,0,0,0-.29-0.76,1.61,1.61,0,0,0-.5-0.51,1.37,1.37,0,0,0-.54-0.2l-0.37,0a0.37,0.37,0,0,1-.23-0.12,0.29,0.29,0,0,1-.08-0.31,0.34,0.34,0,0,1,.15-0.22,0.54,0.54,0,0,1,.31-0.08h7.84Zm-108,8.3v-1.15a3.64,3.64,0,0,0,1.07-.38,2.6,2.6,0,0,0,.95-0.85,3,3,0,0,0,.47-1.2,5.45,5.45,0,0,0,.05-1.39,2.86,2.86,0,0,0-.35-1.22,2.24,2.24,0,0,0-.68-0.67,2.7,2.7,0,0,0-.95-0.38,5.32,5.32,0,0,0-.56-0.09v-1h2c0.4,0,.79,0,1.2.07a4,4,0,0,1,1.25.35,4.16,4.16,0,0,1,1.08.68,3.42,3.42,0,0,1,.76,1.05,4.15,4.15,0,0,1,.39,1.59,3,3,0,0,1-.43,1.76,3.19,3.19,0,0,1-.93,1,5.9,5.9,0,0,1-1.29.64,8.41,8.41,0,0,1-1.23.37l-1.19.28,0.93,0.18a5,5,0,0,1,.89.29,2.3,2.3,0,0,1,.85.6,2.26,2.26,0,0,1,.5.9,6,6,0,0,1,.19,1.4c0,0.59,0,1.09,0,1.49a1.13,1.13,0,0,0,.25.83,0.81,0.81,0,0,0,.61.22,1.06,1.06,0,0,0,.47-0.13,1.22,1.22,0,0,0,.49-0.51,6.52,6.52,0,0,0,.38-0.8c0.11-.28.19-0.46,0.22-0.54a0.64,0.64,0,0,1,.22-0.25,0.47,0.47,0,0,1,.37-0.09,0.42,0.42,0,0,1,.3.31,1.26,1.26,0,0,1,0,.74c-0.13.48-.26,0.92-0.38,1.3a4.11,4.11,0,0,1-.52,1.1,3.09,3.09,0,0,1-.81.84,3.14,3.14,0,0,1-1,.47,4.29,4.29,0,0,1-1.2.11,3.71,3.71,0,0,1-1.48-.29,2.07,2.07,0,0,1-1-.85,3.68,3.68,0,0,1-.44-1.1,8.78,8.78,0,0,1-.13-1.37l0-1.15c0-.34,0-0.73-0.06-1.17a3.66,3.66,0,0,0-.19-1.05,1.45,1.45,0,0,0-.44-0.64,1.71,1.71,0,0,0-.66-0.33h0Zm14.91,5.11a6.08,6.08,0,0,0,.09.82,1.31,1.31,0,0,0,.32.63,1.55,1.55,0,0,0,.63.41,2.67,2.67,0,0,0,.65.16l0.34,0a1.07,1.07,0,0,1,.25.06,0.33,0.33,0,0,1,.1.26,0.31,0.31,0,0,1-.1.3,0.62,0.62,0,0,1-.34.08h-7.59a0.59,0.59,0,0,1-.33-0.09,0.29,0.29,0,0,1-.08-0.32,0.32,0.32,0,0,1,.13-0.21,0.76,0.76,0,0,1,.24-0.1l0.27,0a2.3,2.3,0,0,0,.53-0.15,1.79,1.79,0,0,0,.59-0.37,1.56,1.56,0,0,0,.4-0.74A3.54,3.54,0,0,0,214,239V228.69a5.56,5.56,0,0,0-.06-0.74,1.43,1.43,0,0,0-.32-0.76,1.76,1.76,0,0,0-.64-0.47,3.34,3.34,0,0,0-.63-0.21l-0.25,0a0.42,0.42,0,0,1-.24-0.1,0.24,0.24,0,0,1-.08-0.27,0.4,0.4,0,0,1,.16-0.27,0.52,0.52,0,0,1,.31-0.08h7.36a0.54,0.54,0,0,1,.3.1,0.29,0.29,0,0,1,.11.27,0.42,0.42,0,0,1-.13.23,0.38,0.38,0,0,1-.24.1l-0.3,0a1.65,1.65,0,0,0-.63.24,2,2,0,0,0-.55.49,2.06,2.06,0,0,0-.33.63,2.69,2.69,0,0,0-.1.74v10.54h0Zm16.49-12.75,0.21,4.07a1.7,1.7,0,0,1,0,.45,0.53,0.53,0,0,1-.12.28,0.43,0.43,0,0,1-.27.11,0.29,0.29,0,0,1-.29-0.11,0.94,0.94,0,0,1-.16-0.36l-0.09-.3a6.34,6.34,0,0,0-.43-1,4.83,4.83,0,0,0-.68-1,4.38,4.38,0,0,0-.86-0.74,5.49,5.49,0,0,0-1.17-.57,4.63,4.63,0,0,0-1.54-.26,3.82,3.82,0,0,0-1.63.3,3.05,3.05,0,0,0-1.11.84,4.71,4.71,0,0,0-.67,1.14,10.75,10.75,0,0,0-.69,2.82,13.85,13.85,0,0,0-.06,1.6c0,0.42,0,.89,0,1.42a12.87,12.87,0,0,0,.13,1.5,7.07,7.07,0,0,0,.36,1.41,4.28,4.28,0,0,0,.69,1.23,4,4,0,0,0,1.08.91,4.28,4.28,0,0,0,1.21.51,4,4,0,0,0,1.29.06,4.19,4.19,0,0,0,1.31-.31,4.81,4.81,0,0,0,1.06-.63,7.08,7.08,0,0,0,1-.92,8.32,8.32,0,0,0,.77-1,1.77,1.77,0,0,1,.57-0.62,0.39,0.39,0,0,1,.41,0,0.42,0.42,0,0,1,.19.35,1.21,1.21,0,0,1-.19.64,14,14,0,0,1-.73,1.21,8.15,8.15,0,0,1-1,1.12,4.82,4.82,0,0,1-1.33.93,6,6,0,0,1-1.54.45,9.07,9.07,0,0,1-1.66.13,10.24,10.24,0,0,1-2-.2,7.71,7.71,0,0,1-1.86-.61,6,6,0,0,1-1.66-1.24,7.34,7.34,0,0,1-1.21-1.6,7.26,7.26,0,0,1-.61-1.53,10,10,0,0,1-.27-1.47,13,13,0,0,1-.08-1.38,13.28,13.28,0,0,1,.13-1.64,8.64,8.64,0,0,1,.36-1.68,7.1,7.1,0,0,1,.65-1.39,8,8,0,0,1,.82-1.16,5.7,5.7,0,0,1,1-.89,8.67,8.67,0,0,1,1.22-.73,6.64,6.64,0,0,1,1.39-.5,8.75,8.75,0,0,1,1.72-.23,8.5,8.5,0,0,1,1.48.07,6.81,6.81,0,0,1,1.29.32,7.14,7.14,0,0,1,1.12.48,2.81,2.81,0,0,0,.76.32,0.62,0.62,0,0,0,.48-0.1,0.49,0.49,0,0,0,.19-0.25c0-.11.08-0.24,0.11-0.38a1.07,1.07,0,0,1,.15-0.35,0.35,0.35,0,0,1,.29-0.15,0.45,0.45,0,0,1,.32.11,0.61,0.61,0,0,1,.11.25,2.34,2.34,0,0,1,.05.28h0Zm7.22,10.72a7.83,7.83,0,0,0,.09,1.47,2.48,2.48,0,0,0,.47,1.05,2.6,2.6,0,0,0,1.18.8,5.09,5.09,0,0,0,1.7.33,5.5,5.5,0,0,0,1.43-.12,4.76,4.76,0,0,0,1.44-.57,3.1,3.1,0,0,0,1.06-.93,3.16,3.16,0,0,0,.47-1.16,7.17,7.17,0,0,0,.12-1.31v-8.35a4,4,0,0,0-.1-0.71,1.29,1.29,0,0,0-.3-0.6,1.49,1.49,0,0,0-.56-0.36,2.61,2.61,0,0,0-.54-0.16l-0.46,0a0.42,0.42,0,0,1-.24-0.1,0.3,0.3,0,0,1-.1-0.31,0.3,0.3,0,0,1,.16-0.24,1.09,1.09,0,0,1,.42-0.06h4.64a0.55,0.55,0,0,1,.3.09,0.36,0.36,0,0,1,.15.26,0.28,0.28,0,0,1-.09.26,0.4,0.4,0,0,1-.24.1l-0.37,0a1.71,1.71,0,0,0-.6.21,1.59,1.59,0,0,0-.52.43,2.14,2.14,0,0,0-.32.66,2.23,2.23,0,0,0-.11.71v8.17c0,0.33,0,.69,0,1.07a3.62,3.62,0,0,1-.29,1.19,3.85,3.85,0,0,1-.74,1.14,4.82,4.82,0,0,1-1.14.89,5.66,5.66,0,0,1-1.37.56,9.23,9.23,0,0,1-1.45.26,13,13,0,0,1-1.38.08c-0.39,0-.85,0-1.39-0.07a11,11,0,0,1-1.87-.35,3.92,3.92,0,0,1-1.75-.94,4.61,4.61,0,0,1-.89-1.05,3,3,0,0,1-.27-0.7c0-.2-0.09-0.43-0.13-0.7a4.21,4.21,0,0,1,0-.76v-8.66a4.66,4.66,0,0,0-.08-0.83,1.25,1.25,0,0,0-.41-0.72,2,2,0,0,0-.72-0.44,3.53,3.53,0,0,0-.63-0.16l-0.37,0a0.42,0.42,0,0,1-.25-0.09,0.33,0.33,0,0,1-.12-0.28,0.3,0.3,0,0,1,.13-0.27,0.61,0.61,0,0,1,.33-0.08h7.81a0.62,0.62,0,0,1,.31.08,0.29,0.29,0,0,1,.12.25,0.39,0.39,0,0,1-.09.28,0.28,0.28,0,0,1-.2.1l-0.37,0a3.11,3.11,0,0,0-.65.17,1.74,1.74,0,0,0-1,1.16,2.87,2.87,0,0,0-.11.75v8.53h0Zm26.79,4.79H253.68a0.54,0.54,0,0,1-.34-0.08,0.29,0.29,0,0,1-.08-0.33,0.32,0.32,0,0,1,.13-0.21,0.74,0.74,0,0,1,.24-0.1l0.24,0a1.47,1.47,0,0,0,.43-0.15,2.75,2.75,0,0,0,.58-0.36,1.19,1.19,0,0,0,.4-0.6,3.14,3.14,0,0,0,.13-0.87V228.69a5.83,5.83,0,0,0-.08-0.72,1.58,1.58,0,0,0-.25-0.76,2,2,0,0,0-.55-0.46,1.46,1.46,0,0,0-.53-0.24l-0.35,0a0.4,0.4,0,0,1-.25-0.1,0.27,0.27,0,0,1-.09-0.28,0.41,0.41,0,0,1,.16-0.26,0.54,0.54,0,0,1,.31-0.08h7.13a0.51,0.51,0,0,1,.28.09,0.29,0.29,0,0,1,.11.23,0.38,0.38,0,0,1-.09.26,0.32,0.32,0,0,1-.23.12l-0.33,0a1.55,1.55,0,0,0-.6.2,1.7,1.7,0,0,0-.52.48,1.79,1.79,0,0,0-.32.7,3.45,3.45,0,0,0-.08.71v10.91c0,0.27,0,.47,0,0.58a0.73,0.73,0,0,0,.16.36,1,1,0,0,0,.38.33,1.12,1.12,0,0,0,.56.13h2.5c0.16,0,.41,0,0.75,0a4.72,4.72,0,0,0,1-.23,4.08,4.08,0,0,0,1.12-.64,7,7,0,0,0,.95-0.86,7.54,7.54,0,0,0,.68-0.93,6.34,6.34,0,0,0,.49-0.9l0.17-.43a3.18,3.18,0,0,1,.19-0.42,0.3,0.3,0,0,1,.3-0.11,0.31,0.31,0,0,1,.28.15,1.54,1.54,0,0,1,0,.58l-0.47,4.82h0Zm0.94-16.15H284v4.93a1.18,1.18,0,0,1-.08.47,0.37,0.37,0,0,1-.29.22,0.34,0.34,0,0,1-.34-0.1,0.85,0.85,0,0,1-.17-0.33l-0.12-.45a9.23,9.23,0,0,0-.35-0.88,8.63,8.63,0,0,0-.59-1.12,3.83,3.83,0,0,0-.91-1,4.08,4.08,0,0,0-1.12-.63,2.76,2.76,0,0,0-.87-0.2h-0.59V239a3.16,3.16,0,0,0,.1.82,1.48,1.48,0,0,0,.42.69,2.31,2.31,0,0,0,.84.48,2.83,2.83,0,0,0,.85.18h0.33a0.73,0.73,0,0,1,.27.09,0.3,0.3,0,0,1,.16.26,0.31,0.31,0,0,1-.14.28,0.43,0.43,0,0,1-.27.09h-8.79a0.62,0.62,0,0,1-.34-0.08,0.26,0.26,0,0,1-.11-0.28,0.27,0.27,0,0,1,.12-0.23,0.73,0.73,0,0,1,.25-0.11l0.33,0a2.59,2.59,0,0,0,.48-0.08,5.67,5.67,0,0,0,.64-0.2,1.67,1.67,0,0,0,.63-0.4,1.74,1.74,0,0,0,.4-0.74,3.54,3.54,0,0,0,.15-0.83V226.67h-0.56a2.61,2.61,0,0,0-.7.12,5.86,5.86,0,0,0-1,.41,3.74,3.74,0,0,0-.87.61,4.42,4.42,0,0,0-.68.89c-0.23.38-.4,0.68-0.51,0.92l-0.42,1-0.13.3a1.11,1.11,0,0,1-.18.34,0.27,0.27,0,0,1-.24.08,0.34,0.34,0,0,1-.32-0.21,1,1,0,0,1-.1-0.47v-4.93h0Zm21.49,11.36a8,8,0,0,0,.09,1.47,2.47,2.47,0,0,0,.47,1.05,2.6,2.6,0,0,0,1.18.8,5.09,5.09,0,0,0,1.7.33,5.52,5.52,0,0,0,1.43-.12,4.76,4.76,0,0,0,1.44-.57,2.84,2.84,0,0,0,1.53-2.08,7.17,7.17,0,0,0,.12-1.31v-8.35a4,4,0,0,0-.1-0.71,1.29,1.29,0,0,0-.3-0.6,1.48,1.48,0,0,0-.56-0.36,2.61,2.61,0,0,0-.54-0.16l-0.46,0a0.43,0.43,0,0,1-.24-0.1,0.3,0.3,0,0,1-.1-0.31,0.29,0.29,0,0,1,.16-0.24,1.09,1.09,0,0,1,.42-0.06h4.64a0.55,0.55,0,0,1,.3.09,0.36,0.36,0,0,1,.15.26,0.28,0.28,0,0,1-.09.26,0.41,0.41,0,0,1-.24.1l-0.37,0a1.72,1.72,0,0,0-.6.21,1.59,1.59,0,0,0-.51.43,2.11,2.11,0,0,0-.32.66,2.23,2.23,0,0,0-.11.71v8.17c0,0.33,0,.69,0,1.07a3.65,3.65,0,0,1-.29,1.19,3.86,3.86,0,0,1-.74,1.14,4.78,4.78,0,0,1-1.14.89,5.67,5.67,0,0,1-1.37.56,9.24,9.24,0,0,1-1.45.26,13,13,0,0,1-1.38.08c-0.39,0-.85,0-1.39-0.07a11,11,0,0,1-1.87-.35,3.93,3.93,0,0,1-1.74-.94,4.56,4.56,0,0,1-.89-1.05,2.94,2.94,0,0,1-.27-0.7c0-.2-0.09-0.43-0.13-0.7a4.28,4.28,0,0,1,0-.76v-8.66a4.5,4.5,0,0,0-.08-0.83,1.24,1.24,0,0,0-.41-0.72,2,2,0,0,0-.72-0.44,3.5,3.5,0,0,0-.63-0.16l-0.37,0a0.41,0.41,0,0,1-.25-0.09,0.33,0.33,0,0,1-.12-0.28,0.3,0.3,0,0,1,.13-0.27,0.61,0.61,0,0,1,.33-0.08h7.81a0.62,0.62,0,0,1,.31.08,0.3,0.3,0,0,1,.12.25,0.39,0.39,0,0,1-.09.28,0.28,0.28,0,0,1-.2.1l-0.37,0a3.15,3.15,0,0,0-.65.17,1.69,1.69,0,0,0-.65.45,1.71,1.71,0,0,0-.39.71,2.87,2.87,0,0,0-.1.75v8.53Zm-121-.06h-2.57v-1h2.28l-2.28-5.37v-4l0,0a4.25,4.25,0,0,1,.34-0.73,0.58,0.58,0,0,1,.49-0.29,0.53,0.53,0,0,1,.48.19,3.86,3.86,0,0,1,.41.72l5.81,12.71a5.37,5.37,0,0,0,.38.64c0.21,0.32.37,0.55,0.49,0.7a1.79,1.79,0,0,0,.46.4,1.43,1.43,0,0,0,.5.21l0.21,0a1.16,1.16,0,0,1,.27.1,0.27,0.27,0,0,1,.15.2,0.34,0.34,0,0,1-.11.27,0.41,0.41,0,0,1-.31.13h-7.14a1.51,1.51,0,0,1-.51-0.06,0.27,0.27,0,0,1-.12-0.31,0.3,0.3,0,0,1,.14-0.24,0.88,0.88,0,0,1,.33-0.1l0.41,0a1.73,1.73,0,0,0,.48-0.11,0.79,0.79,0,0,0,.43-0.36,1,1,0,0,0,.14-0.61,2,2,0,0,0-.09-0.51l-1.09-2.5h0Zm33.18-11.31v1l-0.41,0h-0.83a2,2,0,0,0-.9.17,0.71,0.71,0,0,0-.34.38,2.82,2.82,0,0,0-.08.8V233h1.24a8.46,8.46,0,0,0,1.2-.08l0.12,0V234l-0.08,0a5.83,5.83,0,0,0-1.3-.11h-1.17v5.22a3.7,3.7,0,0,0,.1.74,1.66,1.66,0,0,0,.31.69,1.53,1.53,0,0,0,.55.42,1.62,1.62,0,0,0,.53.17l0.27,0a0.71,0.71,0,0,1,.3.12,0.33,0.33,0,0,1,.14.27,0.29,0.29,0,0,1-.11.26,0.46,0.46,0,0,1-.3.07h-7.18a0.51,0.51,0,0,1-.32-0.1,0.29,0.29,0,0,1-.09-0.31,0.35,0.35,0,0,1,.14-0.21,0.48,0.48,0,0,1,.24-0.1l0.24,0a2.36,2.36,0,0,0,.48-0.15,2.5,2.5,0,0,0,.57-0.3,1.23,1.23,0,0,0,.36-0.69,3.3,3.3,0,0,0,.14-0.86v-10.5a5.84,5.84,0,0,0-.08-0.69,1.91,1.91,0,0,0-.29-0.76,1.59,1.59,0,0,0-.49-0.51,1.37,1.37,0,0,0-.55-0.2l-0.37,0a0.36,0.36,0,0,1-.23-0.12,0.29,0.29,0,0,1-.08-0.31,0.35,0.35,0,0,1,.15-0.22,0.54,0.54,0,0,1,.31-0.08h7.84Zm-11.64.65v4.07a1.93,1.93,0,0,1,0,.48,0.75,0.75,0,0,1-.12.24,0.37,0.37,0,0,1-.25.13,0.34,0.34,0,0,1-.3-0.12,0.71,0.71,0,0,1-.16-0.35l-0.08-.34a3.34,3.34,0,0,0-.32-0.79,3.9,3.9,0,0,0-.63-0.84,5.67,5.67,0,0,0-.94-0.78,6.24,6.24,0,0,0-1.31-.65,4.09,4.09,0,0,0-1.48-.27,3.5,3.5,0,0,0-1.64.47,3.23,3.23,0,0,0-1.26,1.29,7.66,7.66,0,0,0-.7,1.68,9.89,9.89,0,0,0-.3,1.5,12.38,12.38,0,0,0-.06,1.56c0,0.35,0,.83,0,1.42s0.05,1.11.11,1.55a10.85,10.85,0,0,0,.3,1.45,3.76,3.76,0,0,0,.6,1.3,2.78,2.78,0,0,0,1.22.81,4.65,4.65,0,0,0,1.76.31,3.6,3.6,0,0,0,1.82-.41,2.53,2.53,0,0,0,1-1,2.74,2.74,0,0,0,.31-1.27v-0.56a2.07,2.07,0,0,0-.16-0.68,1.82,1.82,0,0,0-.36-0.64,1.53,1.53,0,0,0-.49-0.34,2.58,2.58,0,0,0-.42-0.16l-0.42-.08a0.42,0.42,0,0,1-.26-0.11,0.27,0.27,0,0,1-.08-0.23,0.32,0.32,0,0,1,.15-0.29,0.58,0.58,0,0,1,.32-0.1h6.48a1,1,0,0,1,.37.07,0.34,0.34,0,0,1,.21.26,0.24,0.24,0,0,1-.07.28,0.49,0.49,0,0,1-.22.1l-0.25,0a1,1,0,0,0-.41.21,1.83,1.83,0,0,0-.34.35,1.94,1.94,0,0,0-.23.58,3.9,3.9,0,0,0-.11.52L192,241.34a0.82,0.82,0,0,1-.17.47,0.6,0.6,0,0,1-.41.18,0.62,0.62,0,0,1-.51-0.21,1.3,1.3,0,0,1-.2-0.3,5.71,5.71,0,0,0-.3-0.49,3,3,0,0,0-.38-0.46,0.67,0.67,0,0,0-.4-0.21,0.85,0.85,0,0,0-.51.19l-0.63.46a6.67,6.67,0,0,1-1.46.69,7,7,0,0,1-2.54.35,7.8,7.8,0,0,1-2.78-.53,5.91,5.91,0,0,1-2.3-1.59,6.45,6.45,0,0,1-1.31-2.11,7.93,7.93,0,0,1-.44-2q-0.08-1-.08-1.75a14.31,14.31,0,0,1,.11-1.69,7.87,7.87,0,0,1,.38-1.63,7.63,7.63,0,0,1,.66-1.41,7.4,7.4,0,0,1,.87-1.16,6.52,6.52,0,0,1,1-.91,6.81,6.81,0,0,1,1.16-.69,7.27,7.27,0,0,1,1.47-.53,9,9,0,0,1,1.94-.22,7.92,7.92,0,0,1,1.25.08,5.74,5.74,0,0,1,1.11.29,6.87,6.87,0,0,1,1.11.52,3.34,3.34,0,0,0,.86.38A0.63,0.63,0,0,0,190,227a0.61,0.61,0,0,0,.19-0.28,2.55,2.55,0,0,0,.11-0.43,1,1,0,0,1,.14-0.37,0.37,0.37,0,0,1,.29-0.15,0.43,0.43,0,0,1,.32.1,0.73,0.73,0,0,1,.12.26A1.26,1.26,0,0,1,191.2,226.39Zm-24.11,10.66h-2.66l-0.83,2.54a1.53,1.53,0,0,0-.09.85,0.79,0.79,0,0,0,.32.5,1.21,1.21,0,0,0,.49.21,2.4,2.4,0,0,0,.44,0H165a0.4,0.4,0,0,1,.27.12,0.34,0.34,0,0,1,.12.26,0.29,0.29,0,0,1-.21.27,2,2,0,0,1-.54.06h-4.59a2.16,2.16,0,0,1-.63-0.06,0.27,0.27,0,0,1-.16-0.29,0.26,0.26,0,0,1,.14-0.28,2,2,0,0,1,.39-0.08l0.26,0a1.73,1.73,0,0,0,.5-0.16,2.43,2.43,0,0,0,.57-0.33,3,3,0,0,0,.45-0.46,5.67,5.67,0,0,0,.37-0.53,3.59,3.59,0,0,0,.24-0.48l4.91-12.55v4l-0.07-.16-2.21,5.54h2.28v1Z" transform="translate(-26.47 -139.27)"/><path class="b" d="M84.89,139.46c-1.49-.12-3-0.19-4.52-0.19H80.18V173h3.23a2.76,2.76,0,0,0,2.75-2.75V139.58l-1.27-.12h0Zm-4.71,107.6V211.29h1.2V196.93a2.39,2.39,0,0,1,2.39-2.39h12a2.39,2.39,0,0,0,2.39-2.4v2.4h0v14.38h0A2.39,2.39,0,0,1,96,211.31h-9.8v23.5a41.89,41.89,0,0,0,12-79.3v19.88h0v14.36h0v0a2.17,2.17,0,0,1,0,.37l0,0.16-0.06.21a2.3,2.3,0,0,1-.14.33l0,0A2.39,2.39,0,0,1,96,192.16H83.6a2.39,2.39,0,0,0-2.22,2.38v-2.38h0V177.79a2.39,2.39,0,0,1,2.39-2.39H90a2.39,2.39,0,0,0,2.15-2.15v-20h0V140.56A53.9,53.9,0,0,1,80.37,247.06H80.18Zm0-107.79c-1.46,0-2.9.07-4.33,0.19l-1.65.16v30.62A2.76,2.76,0,0,0,76.94,173h3.24V139.27h0Zm0,72v35.76a53.9,53.9,0,0,1-12-106.41v32.59a2.39,2.39,0,0,0,2.15,2.15h6.24A2.39,2.39,0,0,1,79,177.79v14.36h0v2.38a2.39,2.39,0,0,0-2.22-2.38H64.39a2.39,2.39,0,0,1-1.88-1.25l0,0a2.15,2.15,0,0,1-.14-0.33c0-.07,0-0.14-0.06-0.21l0-.16a3,3,0,0,1,0-.37v0h0V175.4h0V155.51a41.89,41.89,0,0,0,12,79.3v-23.5h-9.8a2.4,2.4,0,0,1-2.18-2.38h0V192.14a2.4,2.4,0,0,0,2.39,2.4h12A2.39,2.39,0,0,1,79,196.93v14.36h1.2Z" transform="translate(-26.47 -139.27)"/><path class="a" d="M528.76,151.41l5.16,0.33,13,0a47.5,47.5,0,0,1,3.12-4.06,3.08,3.08,0,0,1,1.8-1.25,3.15,3.15,0,0,1,1.82.94l2.49,2.3a17.49,17.49,0,0,1,2.08,2.09,1.32,1.32,0,0,1-.53,2.22l-3.68-.3-19.87-.15-3.74.19-0.78-1.07-0.91-1.13h0.09l-0.11-.15h0Zm-11.15,49.94v-38.7l0.06-.1,1.12-2.21,0.47-1a1.48,1.48,0,0,1,.59-0.68,2,2,0,0,1,1.52.33c0.35,0.2,1.69,1,4,2.48s3.39,2.54,3.16,3.26c-0.17.52-.84,0.82-2,0.9l0,0.06,3.52,0.3h21.41q1-1.5,2.73-3.65c1.14-1.43,2-2.13,2.7-2.09s1.93,1,3.82,3a12.86,12.86,0,0,1,2.45,3,1.47,1.47,0,0,1-.73,2.2l-3.68-.3-5.42,0q-0.59.67-.81,0.9v26.13a6.33,6.33,0,0,1-.74,3.14c-0.49.88-2,1.58-4.68,2.1a19.14,19.14,0,0,1-5.32.59,1.79,1.79,0,0,1-1-.37,1.72,1.72,0,0,1-.31-1.13l-0.1-1.79a3.76,3.76,0,0,0-.78-1.7,2.51,2.51,0,0,0-1.38-.9l-1.69-.36a7.1,7.1,0,0,1-1.85-.51,0.84,0.84,0,0,1-.43-0.86,0.85,0.85,0,0,1,.63-0.85,5.48,5.48,0,0,1,1.93-.11l1.14,0.09,2.93,0.3c1.69,0.15,2.66-.05,2.93-0.61a5.13,5.13,0,0,0,.42-2L544.29,168l-13-.07-3.74.19-1.28-1.76-0.51-.62c-0.31.24-.54,0.42-0.66,0.54l-2.92,2.9-0.28.24,1.56,0.91a1.47,1.47,0,0,1,.89,1c0,0.36-.43,1-1.39,1.92v19.62l0.34,5.71a3.67,3.67,0,0,1-1.09,1.73c-0.57.54-1.74,0.86-3.52,1l-1.06,0h0Zm0-42.55,5.08-3.45c0.62-.42,1.61-1.06,2.95-1.92,1.51,0.08,2.39-.09,2.64-0.53a1.56,1.56,0,0,0-.2-1.31,14.74,14.74,0,0,0-3.06-3.27l-2.28-2c-0.94-.86-1.59-1.23-1.94-1.13a1.76,1.76,0,0,0-1,.92l-0.47.87-1.12,1.76-0.63,1v9Zm0-9v9l-0.07,0-4,2.36c-1.5,1-2.31,1.47-2.41,1.52l-1.32.72a7.54,7.54,0,0,1-1.91.82A0.85,0.85,0,0,1,507,164a0.63,0.63,0,0,1-.11-0.69,7.18,7.18,0,0,1,1.25-1.45l1.32-1.28a37.1,37.1,0,0,0,3.78-4.47q2-2.66,3.16-4.52l1.17-1.87h0Zm0,12.88c-0.59,1.12-1.2,2.26-1.83,3.4s-1.88,3.12-3.69,5.79a53.15,53.15,0,0,1-5.23,6.68l-1.19,1.25a1.32,1.32,0,0,0-.47.89,1.21,1.21,0,0,0,.36.81q0.35,0.4,1.77-.52l1.79-1.17c2.7-1.75,4.65-3.08,5.84-4v17.59l-0.31,6.84a2.38,2.38,0,0,0,.81.9,4.54,4.54,0,0,0,2.14.24v-38.7Z" transform="translate(-26.47 -139.27)"/><path class="a" d="M476.75,171.6a41.09,41.09,0,0,0,1.62,6.14L480,181c0.42-.42.82-0.85,1.2-1.29a15.14,15.14,0,0,0,1.41-2.12,17.29,17.29,0,0,0,1.06-2l0.37-1.07,0.26-.8a0.93,0.93,0,0,1,.65-0.28,4.51,4.51,0,0,1,2,.52q1.32,0.6,2.95,1.28a8.45,8.45,0,0,1,2.39,1.41,1.56,1.56,0,0,1,.69,1.15c-0.07.58-1.15,1-3.19,1.35-0.72.57-1.53,1.19-2.45,1.86a33.33,33.33,0,0,1-5.68,2.79c0.94,1.17,2.1,2.49,3.48,3.95a21.08,21.08,0,0,0,7.06,4.24l1.69,0.71a1.19,1.19,0,0,1,.84.94,0.92,0.92,0,0,1-.92.83l-1.7.45a7.34,7.34,0,0,0-2,1.06,6.41,6.41,0,0,0-2.13,2.58,5.77,5.77,0,0,1-1.16,1.87,1.23,1.23,0,0,1-1-.16,3.84,3.84,0,0,1-.85-0.54l-1.06-.77a19.77,19.77,0,0,1-4.51-4.93,34.72,34.72,0,0,1-2.37-3.92c-0.25-.6-0.42-1-0.5-1.19-0.81.92-1.41,1.61-1.84,2.07v-3.25l1.18-.38c-0.4-1.49-.78-3-1.15-4.48l0-.16V168.82h5.79v-7.4h-5.79v-2.79h5.79v-6.54h-5.79v-2.78h5.18c0.43-.57.88-1.18,1.35-1.83a2.64,2.64,0,0,1,1.55-1.26,4.17,4.17,0,0,1,2.16.79,48.77,48.77,0,0,1,4.19,2.72,2.49,2.49,0,0,1,1,1.1c0,0.44-.56,1.22-1.79,2.33V164.8l0.28,6.37a3.16,3.16,0,0,1-1.26,1.5,5.81,5.81,0,0,1-2.39.6,11,11,0,0,1-2.5,0c-1.3-.16-2-0.63-2-1.41V171.6h-3.69ZM474.64,191l0,0.05-2.54,2.66-2.7,3L467.19,199,466,200.39a7,7,0,0,1-.73.73,0.78,0.78,0,0,1-.56.07,2,2,0,0,1-1.14-1.08l-2.26-3.58q-1.72-2.94-1.48-3.73a2.12,2.12,0,0,1,.5-0.76,4.82,4.82,0,0,0,.66-0.9,4.32,4.32,0,0,0,.25-1.63l0-13.61a1.31,1.31,0,0,1-.77.66l-3.68-.3-5.21-.06v11.47l2.64-1.38,3.45-1.73,2.08-1.07a1.38,1.38,0,0,1,.75-0.06,0.55,0.55,0,0,1,.54.56,1.2,1.2,0,0,1-.35.93l-1.32,1.41q-4.85,5.17-6.22,6.91T449.73,198l-1,1.44a3.81,3.81,0,0,1-.76.89,0.85,0.85,0,0,1-.64,0A2.36,2.36,0,0,1,446,199.2a34.49,34.49,0,0,1-1.89-3.12,18.7,18.7,0,0,1-1.42-2.93,1.65,1.65,0,0,1,0-1.25l0.64-.67a2.88,2.88,0,0,0,.67-2l0-13.14-3.37,0-3.74.19-0.19-.34h0l-1.12-2h0.21l3.62,0.22h4.62v-7.52l-2.7.24-1.07-1.38-0.41.42-2.07,2.15-1.07,1.1a1.7,1.7,0,0,1-.77.41,0.51,0.51,0,0,1-.68-0.38,1.13,1.13,0,0,1,0-.84l0.86-1.61a47.54,47.54,0,0,0,2.74-6.5q1.21-3.55,2.18-7t1.26-4.81l0.34-1.7,0.18-1.25c0.26-.54,1-0.58,2.33-0.12l2.52,0.77q5.24,1.65,5.24,2.81c0,0.48-.78,1-2.29,1.52q-2.19,4.05-3.31,5.75l4.48,0.11c1.09-1.34,1.92-2.32,2.48-2.93a2.92,2.92,0,0,1,1.4-1,2.67,2.67,0,0,1,1.66.94,16.36,16.36,0,0,1,2.87,3.17l0,0.09a1.46,1.46,0,0,1-.72,2.16l-3.67-.25-9.93-.19h-0.08q-2.49,3.58-5,6.55l2.73,0.09h7.66c0.58-.65,1.09-1.26,1.53-1.84a9.71,9.71,0,0,1,1.27-1.39,1.77,1.77,0,0,1,1.26-.51,5.66,5.66,0,0,1,2.09,1.52,15.07,15.07,0,0,1,2,2.21,1.36,1.36,0,0,1,.29,1.21,1.08,1.08,0,0,1-1.13.46h-5.87a5.39,5.39,0,0,1-1.19,1.19v6.33h0.94c0.77-.84,1.37-1.51,1.8-2s0.79-.94,1.1-1.28a1.67,1.67,0,0,1,1-.58c0.4-.05,1.16.45,2.29,1.48a17.67,17.67,0,0,1,2.47,2.69V152.95L461,146.47a1.46,1.46,0,0,1,.54-0.42q0.34-.18,2.67.95l4.61,2.31h5.8v2.78h-5.79v6.54h5.79v2.79h-5.79v7.4h5.79v13.91q-0.52-2.15-.73-3.64c-0.15-1-.32-2.89-0.54-5.56l-0.16-1.93h-4.37l0,17.9q3.31-1,5.76-1.77V191Z" transform="translate(-26.47 -139.27)"/><path class="a" d="M366.7,196.24h0.14l17.75,0.17V155.06l-0.48-8.21a1.24,1.24,0,0,1,.33-0.4,2.15,2.15,0,0,1,1.29.14l2.69,0.51,2.78,0.7c2.16,0.52,3.32,1.15,3.45,1.88s-0.55,1.49-2,2.53l0,44.28,3.56,0V154.9l-0.45-8.1a1.44,1.44,0,0,1,1.52-.47,39.13,39.13,0,0,1,5.81,1.24c2.24,0.62,3.42,1.28,3.57,2s-0.65,1.59-2.33,2.52l0,33c0.76-1.94,1.54-4.12,2.33-6.57s1.42-4.47,1.86-6.1,0.9-3.46,1.36-5.47,0.79-3.56,1-4.62l0.42-2.18,0.27-1.65c0.35-.45,1.1-0.35,2.27.29l3,1.4L420.3,162c2,1.13,2.79,2.11,2.48,3-0.15.43-.91,0.92-2.24,1.48-0.93,1.7-1.91,3.43-2.91,5.16s-2.35,3.8-4,6.22-4.74,6.63-9.14,12.62v6.13h5.29q2.29-2.79,3.6-4.61c0.87-1.21,1.57-1.84,2.12-1.91a4,4,0,0,1,2.34.91c0.73,0.54,1.53,1.2,2.39,2l2.06,2a3.46,3.46,0,0,1,1.18,1.95,1.66,1.66,0,0,1-.84,2.1l-49.94-.22-3.77.12L367.39,197Z" transform="translate(-26.47 -139.27)"/><path class="a" d="M371.35,162.55l-0.71-1.4a2.26,2.26,0,0,1-.3-1.06,0.72,0.72,0,0,1,.48-0.79,1,1,0,0,1,.91,0,6.55,6.55,0,0,1,1.06.94l1.16,1.31q2.63,3,4.21,5.17a55.61,55.61,0,0,1,3.82,6.35,15.5,15.5,0,0,1,1.95,8.51,8.36,8.36,0,0,1-1.72,4.6,5,5,0,0,1-3.61,2.11,4.39,4.39,0,0,1-3.49-1.11,4.8,4.8,0,0,1-1.59-2.9,16.07,16.07,0,0,1,.2-4.43,33.75,33.75,0,0,0,.45-4.71,29.66,29.66,0,0,0-.43-4.72c-0.22-1.28-.42-2.21-0.58-2.78s-0.48-1.51-.93-2.76S371.5,162.86,371.35,162.55Z" transform="translate(-26.47 -139.27)"/><path class="a" d="M329.16,158.31c0.14,0.77.37,1.8,0.68,3.08,0.39,1.58.89,3.32,1.49,5.23a48.31,48.31,0,0,0,3.56,7.72,51.21,51.21,0,0,0,5.14-7l0.69-1.25a3.72,3.72,0,0,1,1.4-1.77,2,2,0,0,1,1.21.22,11.29,11.29,0,0,1,1.59,1.22,21.92,21.92,0,0,0,2.72,2,10.49,10.49,0,0,1,2.5,2.08c0.57,0.67.76,1.18,0.57,1.52s-1.41.62-3.42,0.57c-4.32,1.71-8,3.09-11,4.15,0.67,1.05,1.54,2.27,2.61,3.67a26.61,26.61,0,0,0,5.34,4.84,29.21,29.21,0,0,0,7.06,4l1.69,0.63,1.92,0.36a1.05,1.05,0,0,1,.51.79,0.7,0.7,0,0,1-.31.71,8.35,8.35,0,0,1-1.59.61l-1.32.45a12.23,12.23,0,0,0-1.52.64,8.59,8.59,0,0,0-1.41,1.06,9.59,9.59,0,0,0-1.35,1.38,7.26,7.26,0,0,0-.91,1.84,2.12,2.12,0,0,1-.81,1.33,2.24,2.24,0,0,1-1.37-.62l-1.6-1.08a25.92,25.92,0,0,1-2.76-2.22,35.94,35.94,0,0,1-3-3,35.34,35.34,0,0,1-3.36-4.82,40.46,40.46,0,0,1-3.61-7.93,50.34,50.34,0,0,1-2.17-8.63q-0.61-4.05-.8-6.41c-0.13-1.57-.22-2.95-0.31-4.12-0.28.77-.61,1.67-1,2.68a80.31,80.31,0,0,1-4.07,7.32c1.25,0.62,1.9,1.18,1.93,1.69s-0.68,1.14-2.14,1.9v16.16l8-3.95,1-.51a1.63,1.63,0,0,1,1.67-.17,0.8,0.8,0,0,1,.35.95,1.85,1.85,0,0,1-.51.9l-0.57.54-11.26,11-3,3a1.9,1.9,0,0,1-1.45.54,2.26,2.26,0,0,1-1-1.16l-1.61-2.69a22.32,22.32,0,0,1-1.19-2.45,4.51,4.51,0,0,1-.5-1.73,1.55,1.55,0,0,1,.78-1.08,1.4,1.4,0,0,0,.73-0.71V180a95.08,95.08,0,0,1-8.71,6.21q-3.91,2.42-5,3l-1.19.63a2.26,2.26,0,0,1-1.16.29,1.89,1.89,0,0,1-1.18-.48c-0.36-.32.09-1,1.36-2l0.94-.72c0.86-.65,1.65-1.29,2.37-1.88a63.79,63.79,0,0,0,4.78-5.08q3.68-4.19,5.44-6.65a58.15,58.15,0,0,0,3.85-6.42,47.21,47.21,0,0,0,2.68-5.69l1.05-2.89H310q0.18,1.25.27,2.54a6.77,6.77,0,0,1-.89,3.52,5.66,5.66,0,0,1-3.77,2.7c-1.84.51-3.28,0.21-4.3-.89a4.58,4.58,0,0,1-1.48-3.28,4.64,4.64,0,0,1,1.51-3.22l2.54-2.21a7.28,7.28,0,0,0,1.25-2.34l0.29-.81,0.09-1.79a1.06,1.06,0,0,1,.59-0.67,1.11,1.11,0,0,1,1.14.32,4.93,4.93,0,0,1,.6.81l0.81,1.25,0.6,1.29h10.38c0.15-.51.3-1.06,0.46-1.65a48.85,48.85,0,0,0,.85-5.08l0.28-2.15a4.15,4.15,0,0,1,.43-1.83,3.58,3.58,0,0,1,1.9.22c0.22,0.08,1.41.32,3.55,0.71a19.66,19.66,0,0,1,4.77,1.37c1,0.5,1.55,1,1.51,1.51s-0.74,1.08-2.1,2.06q-1.23,2.85-2.14,4.84h10.67a24.55,24.55,0,0,1,2.06-2.3,2.63,2.63,0,0,1,1.28-.69,3.43,3.43,0,0,1,1.92.81,52.61,52.61,0,0,1,5.55,4.26,2.81,2.81,0,0,1,1,2c-0.07,1.19-.87,1.85-2.41,2l-2.73-.09a9.3,9.3,0,0,0-6.18,2.34l-1.61,1.35c-0.86.73-1.45,1-1.76,0.68a1.16,1.16,0,0,1,0-1.41l0.75-1.78c0.3-.73.86-2.17,1.7-4.32H329.16Z" transform="translate(-26.47 -139.27)"/><path class="a" d="M262.52,172.26a7.7,7.7,0,0,1,4.15,1.69,5,5,0,0,1,1.7,2.89,3.74,3.74,0,0,1-.39,2.22,3.31,3.31,0,0,1-2.92,1.84,4.33,4.33,0,0,1-2.7-.58,2.26,2.26,0,0,1-1-1.16c-0.12-.4-0.28-1.17-0.47-2.31a4.79,4.79,0,0,0-1.28-2.68l-1.09-.89a1,1,0,0,1-.39-0.9,0.42,0.42,0,0,1,.05-0.15h-0.3v13.2h4.8c0.52-.64,1.1-1.36,1.73-2.16s1.07-1.36,1.32-1.65a1.36,1.36,0,0,1,.77-0.49,2,2,0,0,1,1.21.54,27.4,27.4,0,0,1,2.86,2.55,6.67,6.67,0,0,1,1.31,1.64,1.5,1.5,0,0,1-.78,2.21l-25.95-.23-3.61.13L240,185.82l-0.65-.82,3.69,0.33,4.48,0.08h2.76l0-13.28-3.92,0-3.41.13-0.6-.88h-0.08l-1.69-2.15,4.39,0.39,5.31,0v-9.09l-4.3,0-3.61.13-0.92-1.27L240,157.49l4.72,0.33H261.3c1.09-1.63,1.89-2.76,2.39-3.37a2.54,2.54,0,0,1,1.21-1,2.32,2.32,0,0,1,1.42.61,31.25,31.25,0,0,1,4,3.3,4.46,4.46,0,0,1,.87,1.17,1.49,1.49,0,0,1-.79,2.19l-12.31-.12-0.19.17,0,8.84H261c1.76-2.21,2.89-3.35,3.39-3.45a2.72,2.72,0,0,1,2,.76A30.64,30.64,0,0,1,270,170a1.44,1.44,0,0,1,.28.56,1.46,1.46,0,0,1-.91,1.74Z" transform="translate(-26.47 -139.27)"/><path class="a" d="M255.71,192h16.55V152.31H255.71v-2.8h15.73c0.81-1.09,1.48-2,2-2.62a2.86,2.86,0,0,1,1.34-1.11,2.91,2.91,0,0,1,1.62.34,21.71,21.71,0,0,1,4.84,2.9c1.26,1,1.9,1.73,1.9,2.09s-0.6,1.18-1.76,2.23l-0.05,36.11,0.34,7.63a3.75,3.75,0,0,1-.68,1.81,5.3,5.3,0,0,1-2.26,1.16,8.91,8.91,0,0,1-3.61.41,3.91,3.91,0,0,1-2.4-.79,2.88,2.88,0,0,1-.54-2.06l0-2.85H255.71V192Zm-16.55,0h16.55v2.78H239.2v2.94a2.66,2.66,0,0,1-1.16,1.8q-1.17,1-5.43.64a2.89,2.89,0,0,1-1.52-.39,2,2,0,0,1-.59-1l0.35-9.07,0-35.1-0.35-8.69a1.41,1.41,0,0,1,.54-0.49,3.28,3.28,0,0,1,1.85.58l7.06,3.49h15.8v2.8H239.23Z" transform="translate(-26.47 -139.27)"/><path class="a" d="M197,159.84H202c0.87-1.13,1.63-2.12,2.28-3a3.16,3.16,0,0,1,1.69-1.42,4.33,4.33,0,0,1,2.33.95L211,158q3.89,2.42,3.87,3.55a3,3,0,0,1-1.1,1.64l-1.54,1.5v11l0.39,6.07a3.7,3.7,0,0,1-1,1.4,7.46,7.46,0,0,1-2.95,1,10.83,10.83,0,0,1-3.34.33,2.64,2.64,0,0,1-2-.79,5.2,5.2,0,0,1-.4-2.52v-2.3H197v-2.78h5.95V162.62H197v-2.78ZM191,178.91V190l0.41,8.57a5,5,0,0,1-1,1.55,6,6,0,0,1-2.46,1.27,10.06,10.06,0,0,1-4,.4c-1.32-.09-2.13-0.34-2.43-0.72a3,3,0,0,1-.59-1.43l0.57-10,0-10.75h-5.62v-2.78h5.59V162.62h-5.59v-2.78h5.59v-6.26l-0.5-7.11a2.1,2.1,0,0,1,.3-1.54,2.2,2.2,0,0,1,1.59-.26q0.63,0.06,5.21,1.07c3.07,0.68,4.73,1.24,5,1.7a1.55,1.55,0,0,1,.24,1.27,2.25,2.25,0,0,1-.92,1.12l-1.41,1,0,9H197v2.78H191v13.51H197v2.78H191Zm-15.1,0h-5.59v2.53a3.1,3.1,0,0,1-1.24,2.14c-0.83.76-2.3,1.19-4.46,1.28s-3.33-.05-3.56-0.41a2.56,2.56,0,0,1-.34-1.43l0.37-6.55V160.54l-0.34-5.06a1.33,1.33,0,0,1,.68-0.47,3.6,3.6,0,0,1,2,.65l8.05,4.17h4.44v2.78h-5.59v13.51h5.59v2.78Z" transform="translate(-26.47 -139.27)"/></svg>