<svg xmlns="http://www.w3.org/2000/svg" viewBox="0 0 536.8 87.69"><defs><style>.a{fill:#046d38;}.a,.b{fill-rule:evenodd;}.b{fill:#221814;}</style></defs><title>PSBC</title><path class="a" d="M120.75,148.12H81.5L78.21,162H56.94l-5,25.83-20.34-.17-5.15,22.62h21l-5.91,25.41H87.24l6.5-26.59h14.18l1.86-8.69-18.57-.08-7,26.92H49.6l0.84-4.81L81,222.56l6.25-26.76L110.71,196l1.77-8.36H83l-6.08,26.76-25.24.08,0.76-4,20.93-.08L78,187.62,58,187.45l0.68-3.38h30l3.54-14.85,24,0.17L118,161l-29.29.08-3,12.83L60.66,174l0.59-3.8h20l3.38-14.1h34.44ZM71.37,196.57H56.27l-0.84,3.8H70.78Zm-21,0h-16l-0.93,3.8h16Z" transform="translate(-26.47 -148.12)"/><path class="b" d="M167.51,174.79a0.91,0.91,0,0,1-.59.93,7.09,7.09,0,0,0-1.77,1.27,7.76,7.76,0,0,0-1.6,1.94q-0.51.89-.76,1.27a3.3,3.3,0,0,1-.84.68c-0.68.42-1.1,1.43-1.18,3.21a5.15,5.15,0,0,1-.25,1.27,0.68,0.68,0,0,1-.68.34,4.81,4.81,0,0,1-1.1-.08H157a34.34,34.34,0,0,0-3.71.17c-1.69.17-2.79,0.25-3.21,0.34s-0.76.59-.76,1.43-0.17,2.87-.42,5.82-0.42,5.82-.42,8.69,0.25,4.47.59,5.06a1.89,1.89,0,0,1,.25.84q0,1.27-2.79,1.27a3.11,3.11,0,0,1-1.43-.25,1.05,1.05,0,0,1-.34-0.93,6.06,6.06,0,0,1,.17-1.6,37.75,37.75,0,0,0,.59-7.68v-2.53l-0.25-4.81c-0.08-2.53-.08-3.88-0.17-4.05a0.45,0.45,0,0,0-.25-0.34,1.65,1.65,0,0,0-.68-0.08c-0.25,0-1.18.17-2.7,0.42a10.88,10.88,0,0,0-2.87.84,2.91,2.91,0,0,1-1.1.25,1.85,1.85,0,0,1-1.1-1.18,15.8,15.8,0,0,0-2.36-3.46,16,16,0,0,1-2.7-4.81,14.61,14.61,0,0,1-1.1-3.88,1.14,1.14,0,0,1,.59-1.1,6.63,6.63,0,0,1,2.79-.34,20.6,20.6,0,0,0,5.91-1.27c0.68-.25,2-0.59,4.14-1.18,0.59-.17.93-0.76,0.93-1.86l-0.17-7.09a2.72,2.72,0,0,1,.17-1.35,2,2,0,0,1,1.35-.34,11.39,11.39,0,0,1,2.87.51,7.29,7.29,0,0,1,2.19.68,0.76,0.76,0,0,1,.42.51,1.18,1.18,0,0,1-.59.76,2.55,2.55,0,0,0-.76,1.52,24.68,24.68,0,0,0-.25,4.47,1.22,1.22,0,0,0,.17.59,0.46,0.46,0,0,0,.42.25c2.53-.25,4.64-0.42,6.33-0.42a11.55,11.55,0,0,1,5,1.1,46.11,46.11,0,0,1,4.14,2.11c1.18,0.76,1.69,1.43,1.69,2.11h0Zm-17.13,6.92,4.22-.51a5.1,5.1,0,0,0,2.53-.68,3.92,3.92,0,0,0,1.18-2.11,9.11,9.11,0,0,0,.59-3,2.1,2.1,0,0,0-.93-1.94,5,5,0,0,0-2.87-.59c-1.18,0-2.45.08-3.88,0.17a2.06,2.06,0,0,0-1.1.34l-0.25.25a20.67,20.67,0,0,0-.17,2.62l-0.17,4.47a0.85,0.85,0,0,0,.84,1h0Zm-5.49-.08-0.08-3c-0.08-2-.08-3.29-0.08-3.54a0.45,0.45,0,0,0-.51-0.51,21.16,21.16,0,0,0-3.54,1,12.56,12.56,0,0,0-3.54,1.52,2,2,0,0,0-.59,1.43,14.92,14.92,0,0,0,.34,2.79,4.29,4.29,0,0,0,.84,2.28,1.46,1.46,0,0,0,1.1.42,10,10,0,0,0,2.11-.42c0.93-.25,1.94-0.51,3.21-0.76a1.13,1.13,0,0,0,.51-0.42,1.18,1.18,0,0,0,.25-0.76h0Z" transform="translate(-26.47 -148.12)"/><path class="b" d="M220.26,167.62a2.54,2.54,0,0,1-.34,1.18,8.1,8.1,0,0,0-.84,4.22,28,28,0,0,0,.25,3.12,34.52,34.52,0,0,1,.25,4l-0.34,4.9c0,1.94-.08,5.32-0.08,10.13a59.37,59.37,0,0,0,.34,8.78,18.82,18.82,0,0,1,.25,2.79c0,0.76-.25,1.1-0.93,1.1a10,10,0,0,1-3.63-1.52,29.27,29.27,0,0,1-4.47-3.12c-1.27-1.1-1.86-1.77-1.86-2a0.21,0.21,0,0,1,.25-0.17,6.64,6.64,0,0,1,1,.34,8.49,8.49,0,0,0,2.28.25,5.27,5.27,0,0,0,2-.25,2,2,0,0,0,.68-1.18,6.37,6.37,0,0,0,.25-1.94c0-.84-0.08-1.69-0.17-2.62a43.09,43.09,0,0,1-.42-6.33c0-2.53-.08-5.82-0.25-9.71s-0.34-6.33-.51-7.26a8.27,8.27,0,0,0-.76-2.62,4.87,4.87,0,0,0-1.52-2.11,3.68,3.68,0,0,0-2.45-.93,29.81,29.81,0,0,0-8.52,1.27,21.32,21.32,0,0,0-6.08,2.62,5.14,5.14,0,0,0-2.19,2.79,111.07,111.07,0,0,0-2,11.56,55.75,55.75,0,0,0-.93,7.34,6.47,6.47,0,0,0,.34,2.28,4.36,4.36,0,0,0,.76,1.43,1.09,1.09,0,0,0,.93.42,20.22,20.22,0,0,0,2.79-.42,16.85,16.85,0,0,0,3.54-.84,20,20,0,0,1,4.3-.76Q205,194,209,194a4.19,4.19,0,0,1,1.52.17,1,1,0,0,1,.68.42,9.33,9.33,0,0,1,.34,1.1,10.76,10.76,0,0,1,.08,1.69,0.82,0.82,0,0,1-1,.84,5.18,5.18,0,0,1-1.35-.25,11,11,0,0,0-3.54-.34,24.53,24.53,0,0,0-6.5.68,15.23,15.23,0,0,1-5.06.76,7.09,7.09,0,0,0-2.45.59,8.84,8.84,0,0,0-2.11,1.18,1.48,1.48,0,0,1-.93.59c-1.1,0-1.6-2.45-1.6-7.26a26.29,26.29,0,0,1,.17-2.87c0.08-.84.08-2,0.08-3.54v-3.71c0-1.27.08-3.54,0.25-6.67s0.25-5.23.42-6a4.19,4.19,0,0,1,.84-1.86,3.22,3.22,0,0,1,1.6-1.1,45,45,0,0,0,5.4-1.77c3.88-1.43,8.95-2.19,15.28-2.19a18.44,18.44,0,0,1,6.5,1c1.77,0.68,2.62,1.43,2.62,2.11h0Zm-7.17,20.17c0,1.6-.59,2.28-1.69,2.19a20.08,20.08,0,0,0-3-.25,12.51,12.51,0,0,0-2.62.25c-0.76.08-1.94,0.17-3.38,0.25a43.86,43.86,0,0,0-5.15.59,26.62,26.62,0,0,0-3.46.76,2.75,2.75,0,0,1-.84.25q-1,0-1-1.52c0-.76.25-1.18,0.84-1.18a17.57,17.57,0,0,0,2.7-.51,8.11,8.11,0,0,0,2.62-.84,2.32,2.32,0,0,0,.93-1.18,6,6,0,0,0,.34-2.19,0.77,0.77,0,0,0-.93-0.76,8.32,8.32,0,0,0-2,.25,9.12,9.12,0,0,1-1.6.34,0.86,0.86,0,0,1-.76-0.93,11.56,11.56,0,0,1-.17-1.35,1.35,1.35,0,0,1,1.27-1.6,11.12,11.12,0,0,0,2.7-.42,4.73,4.73,0,0,0,1.6-.51,0.46,0.46,0,0,0,.25-0.42,3.14,3.14,0,0,0-.42-1.86,1.42,1.42,0,0,0-1.18-.51,2.91,2.91,0,0,0-1,.08h-0.42c-0.68,0-1.1-.68-1.1-2.11q0-1.39,1-1.52a23.37,23.37,0,0,0,3.46-1,22.9,22.9,0,0,1,4.14-1.18,24,24,0,0,1,4.14-.59c1.1,0,1.6.34,1.6,1a2.1,2.1,0,0,1-.08.68,3.15,3.15,0,0,0-.17,1,1.27,1.27,0,0,1-.34.93,1.57,1.57,0,0,1-1,.59,10.83,10.83,0,0,0-2,.76,2.87,2.87,0,0,0-1.6,1.18,2.6,2.6,0,0,0-.25,1.1c0,0.34.25,0.42,0.76,0.34a9.44,9.44,0,0,1,2.87-.42,4,4,0,0,1,1.69.17,1,1,0,0,1,.42,1,2.31,2.31,0,0,1-.51,1.86l-0.68.68a2.62,2.62,0,0,0-.08.93,3.16,3.16,0,0,0,.76,1.69,4.56,4.56,0,0,1,1.1,1.94,0.81,0.81,0,0,0,.76.68,1.46,1.46,0,0,1,1.6,1.35h0Zm-5.82-1.69a4.78,4.78,0,0,0-.51-1,4.41,4.41,0,0,1-.68-2,0.54,0.54,0,0,0-.51-0.51,3,3,0,0,0-.84.17,1.54,1.54,0,0,0-.68.51,4.18,4.18,0,0,0-.08,1.27,8.71,8.71,0,0,0,.08,1.6c0.08,0.42.17,0.68,0.34,0.68a11.49,11.49,0,0,0,1.35-.08,5.22,5.22,0,0,0,1.35-.25,0.33,0.33,0,0,0,.17-0.34h0Z" transform="translate(-26.47 -148.12)"/><path class="b" d="M263.14,175.47a1.54,1.54,0,0,1-.17.76,28,28,0,0,0-1.18,6,29.09,29.09,0,0,1-1.27,6.41,8,8,0,0,0-.68,2.53c-0.08.93-.34,1.35-0.76,1.35a2,2,0,0,1-.93-0.51,8.73,8.73,0,0,0-1.77-.93,10.33,10.33,0,0,1-1.94-.84,2.09,2.09,0,0,0-1.27-.59,17.65,17.65,0,0,0-3,.76,13.12,13.12,0,0,0-3,1.18,1.37,1.37,0,0,1-.76.34c-0.59,0-1.43-1.1-2.53-3.38a28.39,28.39,0,0,1-2.28-6.67,17.24,17.24,0,0,0-.76-2.62,4.29,4.29,0,0,1-.34-1.18c0-.51.42-0.93,1.35-1.35a48,48,0,0,1,6.5-2,1.14,1.14,0,0,0,.84-1.27,19.82,19.82,0,0,1,.08-2.19c0.08-.84.08-2,0.08-3.54v-3.21c0-1.18.25-1.77,0.84-1.77a1.91,1.91,0,0,0,.34.08c0.34,0.08.93,0.17,1.77,0.34a5.13,5.13,0,0,1,1.77.59,0.6,0.6,0,0,1,.42.59v0.59a26.15,26.15,0,0,0-.68,6.25c0,0.93.08,1.52,0.08,1.69a0.84,0.84,0,0,0,.76.42h1.6a14.24,14.24,0,0,1,4.73.68c1.43,0.42,2.11.93,2.11,1.52h0Zm-7.6,11.9a0.71,0.71,0,0,0,.68-0.51,10.93,10.93,0,0,0,.68-3.21,35.25,35.25,0,0,0,.34-5c0-1.86-.68-2.79-2.19-2.79a0.89,0.89,0,0,0-.84.34,4.78,4.78,0,0,0-.17,1.35,3.23,3.23,0,0,0,.08,1.18,0.83,0.83,0,0,0,.68.25,1,1,0,0,1,.76.42,3.34,3.34,0,0,1,.17,1.27,1.54,1.54,0,0,1-.93,1.69,1.87,1.87,0,0,0-1.1.59,3.41,3.41,0,0,0-.25,1.69,0.88,0.88,0,0,0,.51,1A2,2,0,0,1,255.2,187a0.35,0.35,0,0,0,.34.34h0Zm-5.82-8.44c0-1.1-.17-1.6-0.68-1.6a7.1,7.1,0,0,0-1.6.51,4.73,4.73,0,0,0-1.52.93,1.43,1.43,0,0,0-.25.84c0,0.93.25,1.35,0.68,1.35a5.35,5.35,0,0,0,1.77-.34,6.45,6.45,0,0,0,1.35-.68,1.62,1.62,0,0,0,.25-1h0Zm-2.19,8.86a3.94,3.94,0,0,0,1.35-.42,3.84,3.84,0,0,0,1-.76,4.11,4.11,0,0,0,.17-1.27c0-.76-0.17-1.18-0.59-1.18a5.24,5.24,0,0,0-1.52.42,4.82,4.82,0,0,0-1.27.68,1.22,1.22,0,0,0-.17.76q0,1.77,1,1.77h0Zm33.17-.25c0,0.59-.08,1.35-0.17,2.36L280,192.6a2.44,2.44,0,0,1-.42,1.35,2,2,0,0,1-.93.17,13.29,13.29,0,0,1-2.45-.59,19.11,19.11,0,0,1-2.36-1c-0.51-.17-1.1-0.42-1.94-0.68a6.54,6.54,0,0,0-1.6-.34,0.57,0.57,0,0,0-.59.34,39.06,39.06,0,0,0-.42,4.64c-0.25,2.79-.34,5.15-0.34,7.17a20.85,20.85,0,0,0,.42,4.56,12.48,12.48,0,0,1,.34,2.36c0,1.1-.42,1.69-1.18,1.69a5.88,5.88,0,0,1-1.18-.25,2.27,2.27,0,0,1-1.1-.42,1,1,0,0,1-.25-0.68,3.17,3.17,0,0,1,.08-0.84c0.08-.76.17-3.46,0.17-8.1s-0.08-8.78-.34-12.32-0.25-7.68-.25-12.24c0-2.87-.34-4.9-0.93-5.91a2.11,2.11,0,0,1-.42-0.93,0.66,0.66,0,0,1,.51-0.42c0.34-.17,1.18-0.42,2.36-0.84a25.68,25.68,0,0,1,3.12-.84,5.53,5.53,0,0,0,2.53-1.1,4.8,4.8,0,0,1,2.62-.68,9.32,9.32,0,0,1,3.12.51c1,0.34,1.52.76,1.52,1.35a2.61,2.61,0,0,1-.51,1,10.32,10.32,0,0,0-.93,2.36,18.53,18.53,0,0,1-1.52,3.63,4,4,0,0,0-.34,1.43,3.7,3.7,0,0,0,.59,1.69,34.7,34.7,0,0,1,2.53,5,10.93,10.93,0,0,1,.76,3.88h0ZM276,185.59a15,15,0,0,0-.68-3.88,16.38,16.38,0,0,0-1.18-3.12,2.7,2.7,0,0,1-.59-1.6,3.94,3.94,0,0,1,.25-1.43,11.86,11.86,0,0,0,.68-3.38,3.27,3.27,0,0,0-.42-1.94,1,1,0,0,0-.84-0.42,5.11,5.11,0,0,0-1.86.76,3.65,3.65,0,0,0-1.6,3,49.5,49.5,0,0,0-.25,5.57c0,2.28.08,4,.08,5.06s0.17,1.69.17,1.86a1.7,1.7,0,0,0,.68.68,4.8,4.8,0,0,0,1.6.68,9.89,9.89,0,0,0,2.28.34,1.38,1.38,0,0,0,1.35-.59,2.67,2.67,0,0,0,.34-1.6h0Z" transform="translate(-26.47 -148.12)"/><path class="b" d="M326.52,190.91c0,1.18,1.1,2.62,3.46,4.47a39,39,0,0,0,10.21,5.32,9.81,9.81,0,0,1,3.12,1.77,2.87,2.87,0,0,1,1.1,1.43c0,0.34-.34.59-1.1,0.76a14.23,14.23,0,0,1-2.79.25,20.81,20.81,0,0,1-8.36-1.69,6.16,6.16,0,0,0-2.19-.68,1.45,1.45,0,0,1-1.35-1.35,9.25,9.25,0,0,0-.59-3.54,5.41,5.41,0,0,0-2-1.77,5.62,5.62,0,0,0-1.94-.84,1,1,0,0,0-.84.42,43.09,43.09,0,0,1-4.22,4.81,5.11,5.11,0,0,1-3.8,1.35,13.44,13.44,0,0,1-3.54-.68c-1.43-.42-2.19-0.76-2.19-1s0.25-.34.84-0.42a21.34,21.34,0,0,0,8.1-3.21c1.94-1.52,3-2.53,3-3.12a2.54,2.54,0,0,0-1.1-1.6,5.55,5.55,0,0,0-2.19-1.35,1.32,1.32,0,0,1-1-1.27,2,2,0,0,1,.17-0.93,4.28,4.28,0,0,0,.17-0.76,0.58,0.58,0,0,0-.34-0.68,1.78,1.78,0,0,0-.93.42,1.75,1.75,0,0,1-1,.42,0.43,0.43,0,0,1-.51-0.42,1.36,1.36,0,0,1,.34-0.84,46,46,0,0,0,4.64-10,74.41,74.41,0,0,0,3.46-12.41,1.31,1.31,0,0,1,1.35-1.27,4.17,4.17,0,0,1,1.6.51,1.49,1.49,0,0,1,1,.84,1.56,1.56,0,0,1-.34.84,9,9,0,0,0-.93,2.79,47.6,47.6,0,0,1-1.86,5.57,22.84,22.84,0,0,0-1.18,3.88,0.92,0.92,0,0,0,1,1.1,7.92,7.92,0,0,0,2.62-.68c1.1-.51,2.79-1.27,4.9-2.36a2.24,2.24,0,0,1,.84-0.25c0.25,0,.59.34,1.1,1.18a4.44,4.44,0,0,1,.68,1.94,1.22,1.22,0,0,1-1,1.1c-2.45.76-3.71,1.69-4,2.79a75.67,75.67,0,0,1-2.19,8.19,2.32,2.32,0,0,0-.17,1h0Zm-1.6-5.49a8.71,8.71,0,0,0-.25-2.19,2.6,2.6,0,0,0-.51-1.18,2.26,2.26,0,0,0-1.1-.25,7.84,7.84,0,0,0-1.1-.08,1.57,1.57,0,0,0-1.35.93,4.7,4.7,0,0,0-.59,1.18,4.73,4.73,0,0,0,.59,1.6,8.45,8.45,0,0,0,1.77,2.19,3.88,3.88,0,0,0,1.43,1.18,0.6,0.6,0,0,0,.51-0.25,7.85,7.85,0,0,0,.34-1.18,8.18,8.18,0,0,0,.25-1.94h0ZM314.2,172.51c0.84,0,1.27.59,1.27,1.86a1.52,1.52,0,0,1-.25.93,3.57,3.57,0,0,1-1.27,1,10,10,0,0,1-1.94,1.18,3.38,3.38,0,0,0-.93,1.94c-0.17,1.1-.34,1.77-0.34,2a0.77,0.77,0,0,0,.34.68,0.93,0.93,0,0,0,.84.08,14.61,14.61,0,0,1,2.53-.34c0.42,0,.59,0,0.68.17a1.35,1.35,0,0,1,.17.84,2.69,2.69,0,0,1-.51,1.43,2.14,2.14,0,0,1-1.18,1.1c-0.51.25-1.18,0.68-2.11,1.27a6.67,6.67,0,0,0-1.52,1.1,4.18,4.18,0,0,0-.25,1.18v1.69a0.62,0.62,0,0,0,.68.68,1.56,1.56,0,0,0,.59-0.17,11.4,11.4,0,0,1,3.21-.93c0.42,0,.59.17,0.59,0.42a4.85,4.85,0,0,1-1.27,2,10.09,10.09,0,0,1-3.63,3,76.55,76.55,0,0,0-9,5.23,2.39,2.39,0,0,1-1.1.34,2.74,2.74,0,0,1-1.43-1.1,3.6,3.6,0,0,1-1-1.52,1.08,1.08,0,0,1,.76-0.76,8.49,8.49,0,0,0,2.11-1.1,0.93,0.93,0,0,0,.42-0.84c0-1.86,0-3.21-.08-4.14s-0.08-2-.08-3.54a15.62,15.62,0,0,1,.17-3.29q0.13-1,.76-1a6.48,6.48,0,0,1,1.94.51,1.57,1.57,0,0,1,1.27,1.35,1.65,1.65,0,0,1-.08.59,17.9,17.9,0,0,0-.59,4.81A17.27,17.27,0,0,0,304,194a0.51,0.51,0,0,0,.51.25,3.76,3.76,0,0,0,1.1-.42,1.81,1.81,0,0,0,.84-1A23,23,0,0,0,307,189a36.65,36.65,0,0,0,.42-5.49,14.9,14.9,0,0,0-.25-3.12,1.18,1.18,0,0,0-1.18-1.1,3.39,3.39,0,0,0-1.27.25,4.14,4.14,0,0,1-1,.25,0.51,0.51,0,0,1-.51-0.25,10.93,10.93,0,0,1-1-1.94,8.06,8.06,0,0,1-.76-2.19c0-.25.25-0.51,0.93-0.51a26.16,26.16,0,0,0,5.32-1.1,30.33,30.33,0,0,1,4-1q2-.25,2.53-0.25h0Z" transform="translate(-26.47 -148.12)"/><path class="b" d="M382.57,179.94a0.34,0.34,0,0,0,.34.42,1.74,1.74,0,0,0,.76-0.42,22.75,22.75,0,0,0,2.53-2.87,35.87,35.87,0,0,0,2.53-3.54,1.65,1.65,0,0,1,1.1-1.1,2.31,2.31,0,0,1,1.27.59,1.29,1.29,0,0,1,.84.84,1.32,1.32,0,0,1-.51.84L389.57,177a12.13,12.13,0,0,0-1.94,2.79,0.51,0.51,0,0,0,.25.51,11.65,11.65,0,0,0,1.18.08,12.18,12.18,0,0,0,3-.25,3.64,3.64,0,0,1,1.18-.34,0.64,0.64,0,0,1,.34.17,6.21,6.21,0,0,1,.68,1,4.69,4.69,0,0,1,.84,2.79,0.79,0.79,0,0,1-.93.84,3.24,3.24,0,0,1-1.43-.51,9,9,0,0,0-4.47-1c-2.19,0-3.63.34-4.22,1l-2.53,2.7a0.25,0.25,0,0,0,0,.34,0.38,0.38,0,0,0,.42,0,20.77,20.77,0,0,1,4.3-.76,7.28,7.28,0,0,1,2.36.34,3.12,3.12,0,0,1,1.27.51,0.82,0.82,0,0,1,0,1.18,6.37,6.37,0,0,0-.34,1.27,14.94,14.94,0,0,0-.08,1.94v1.77a9.69,9.69,0,0,1-.08,1.6,8.2,8.2,0,0,0-.08,1.52l0.17,4.64a14.3,14.3,0,0,1-.34,3.21c-0.17,1.1-.51,1.69-0.93,1.69a5.18,5.18,0,0,1-2.53-1.35,28.26,28.26,0,0,1-3.21-2.62,1,1,0,0,0-1.18-.25c-0.42.17-.84,0.25-1.18,0.42a2.85,2.85,0,0,0-1,.34,1.94,1.94,0,0,1-.76.25,0.64,0.64,0,0,1-.59-0.34,5.81,5.81,0,0,1-.59-2,23.86,23.86,0,0,1-.34-4.9l0.08-3.12a0.43,0.43,0,0,0-.51-0.42,2.06,2.06,0,0,0-1.1,1.1,4,4,0,0,0-.76,1.94,2.55,2.55,0,0,1-.68,1.52,23.33,23.33,0,0,1-5.74,3.54,14.74,14.74,0,0,1-2.19.59,0.34,0.34,0,0,1-.42-0.34q0-.51,2-2.53c1.35-1.43,2.53-2.45,3.46-3.29a34.6,34.6,0,0,0,3.29-3.12c1.18-1.27,2.45-2.7,3.71-4.22s1.86-2.28,1.86-2.36v-0.17a0.45,0.45,0,0,0-.51-0.51,12.36,12.36,0,0,0-3.46.68,18.93,18.93,0,0,0-3,1,4.39,4.39,0,0,1-1.18.51,0.5,0.5,0,0,1-.59-0.42,1.52,1.52,0,0,0-.34-0.76,1.1,1.1,0,0,0-.59-0.42c-0.51,0-1.1.76-1.94,2.36a9.58,9.58,0,0,0-1.18,3.71c0,0.59.17,0.84,0.59,0.84a2.48,2.48,0,0,0,1.86-.76,7.05,7.05,0,0,0,1.35-2.19,0.35,0.35,0,0,1,.34-0.25c0.17,0,.17.17,0.17,0.51a7.86,7.86,0,0,1-.51,2.11,7.08,7.08,0,0,1-1.27,2.53,14,14,0,0,1-1.94,1.94,5.09,5.09,0,0,1-1.35.93,1.85,1.85,0,0,1-1.1-1.18,4.4,4.4,0,0,1-.51-1.86,9.3,9.3,0,0,1,.17-1.52,7.77,7.77,0,0,0,.17-1.6c0-2.28-.42-3.46-1.27-3.46a2.84,2.84,0,0,0-1.27.34,2.18,2.18,0,0,0-.93.68,11.68,11.68,0,0,0-.51,2.45c-0.17,1.43-.25,2.62-0.34,3.54s-0.17,2.11-.17,3.54,0,2.7-.08,3.71-0.25,1.6-.51,1.69a2.37,2.37,0,0,1-1.27.25,1.52,1.52,0,0,1-1.1-.34,1,1,0,0,1-.25-0.76,15.54,15.54,0,0,1,.25-2,18.82,18.82,0,0,0,.34-4.22,30.69,30.69,0,0,0-.42-5.06,9.74,9.74,0,0,0-.59-2.7,0.76,0.76,0,0,0-.51-0.42,0.89,0.89,0,0,0-.42.17,14,14,0,0,1-3.29,2.19,7.42,7.42,0,0,1-2.11.84,0.36,0.36,0,0,1-.42-0.42,14.61,14.61,0,0,1,1.27-2.53c0.93-1.52,1.86-3,2.87-4.56a17.4,17.4,0,0,0,1.94-3.38l1.77-4.73a37.9,37.9,0,0,1,2-4.9c0.42-.84.68-1.43,0.84-1.77a0.56,0.56,0,0,1,.51-0.59,5,5,0,0,1,1.86,1c0.93,0.76,1.43,1.18,1.43,1.52a1.07,1.07,0,0,1-.34.76A7.71,7.71,0,0,0,363,173c-0.68,1.1-1.52,2.53-2.53,4.39s-1.52,3-1.69,3.29a2,2,0,0,0-.25,1c0,1.43.51,2.19,1.43,2.19,1.86,0,4.39-.84,7.6-2.62a4,4,0,0,1,1.18-.42,1,1,0,0,1,.68.34,12.21,12.21,0,0,1,1.1,1.52,1.21,1.21,0,0,0,1.1.59,14.92,14.92,0,0,0,4.14-.76c1.77-.42,2.7-0.76,2.87-1a2.23,2.23,0,0,0,.34-1.52c0-.76-0.25-1.18-0.84-1.18l-2.19.08a0.73,0.73,0,0,1-.84-0.84,2.14,2.14,0,0,0-.34-1.35,2.56,2.56,0,0,1-.25-0.93,1.12,1.12,0,0,1,1.27-1.1c2-.17,3-0.34,3.12-0.68a25.72,25.72,0,0,0,.34-5.06c0.17-3.12.25-4.81,0.25-5.23a1.59,1.59,0,0,1,.42-0.93,1,1,0,0,1,.68-0.25l2.19,0.51c0.76,0.08,1.1.25,1.1,0.51a1.74,1.74,0,0,1-.42.76,6.59,6.59,0,0,0-.84,2.36,19.27,19.27,0,0,0-.42,3.71c0,1.27.08,1.94,0.08,2.11a0.46,0.46,0,0,0,.42.25,0.63,0.63,0,0,0,.42-0.08,10.83,10.83,0,0,1,2.87-.59,0.9,0.9,0,0,1,.93.76,4.78,4.78,0,0,1,.25,1.52,2.85,2.85,0,0,1-.42,1.43,1.88,1.88,0,0,1-1.1.76,3.2,3.2,0,0,0-1.52.51,7.22,7.22,0,0,0-1.18.76,0.82,0.82,0,0,0-.34.76v1.35Zm2,20.68a0.57,0.57,0,0,0,.51-0.34c0-.17.08-0.84,0.08-2s-0.17-2.7-.34-4.81-0.51-3.29-.84-3.46a2.11,2.11,0,0,0-1.18-.34,4.17,4.17,0,0,0-1.6.51,1.86,1.86,0,0,0-1,1.69c0,0.25.17,0.42,0.59,0.42a9.27,9.27,0,0,1,1.77.08,0.56,0.56,0,0,1,.42.59c0,0.25-.08.76-0.17,1.52a1.39,1.39,0,0,1-.51,1.18c-0.25.08-.68,0.25-1.18,0.42a10,10,0,0,1-1.1.51,1.41,1.41,0,0,0-.42,1.18,0.59,0.59,0,0,0,.68.68l2.36-.08c0.34,0,.42.34,0.42,0.84a1.17,1.17,0,0,0,.68,1.18,2.75,2.75,0,0,0,.84.25h0Zm-17-28.78a0.75,0.75,0,0,1,.76.76,4.47,4.47,0,0,0,.68,1.27,8.77,8.77,0,0,0,1.27,1.27,3.34,3.34,0,0,1,1.27,2.19,1.17,1.17,0,0,1-.68,1.18,5.61,5.61,0,0,1-1.77.25,3.37,3.37,0,0,1-1.77-.59,2.74,2.74,0,0,1-1.27-1,4.55,4.55,0,0,1-.25-1.86,5.77,5.77,0,0,1,.51-2.45,1.48,1.48,0,0,1,1.27-1h0Z" transform="translate(-26.47 -148.12)"/><path class="b" d="M444.6,165.84c0.51,0,.68.42,0.68,1.27a3.67,3.67,0,0,1-.42,1.94,4.52,4.52,0,0,1-2,.93,19.22,19.22,0,0,1-3.29.51,9.58,9.58,0,0,0-2,.25,2.73,2.73,0,0,0-.76,1.1,3.61,3.61,0,0,1-1.52,1.27,4.25,4.25,0,0,1-1.35.34c-0.51,0-.76-0.17-0.76-0.59a2.31,2.31,0,0,1,.34-1.18,3.49,3.49,0,0,0,.42-0.93,0.34,0.34,0,0,0-.42-0.34c-1-.17-1.77-0.25-2.19-0.34a4.19,4.19,0,0,0-1.52-.17,14.54,14.54,0,0,0-3.29.59,0.71,0.71,0,0,0-.17.51l0.08,1a1.59,1.59,0,0,1-.68,1.43,2.22,2.22,0,0,1-1.27.51c-0.34,0-.76-0.59-1.18-1.86a0.44,0.44,0,0,0-.42-0.42,5.81,5.81,0,0,0-1.52.51,13.59,13.59,0,0,0-1.94,1,1.89,1.89,0,0,1-1.27.68c-0.34,0-.84-0.51-1.52-1.43a4.26,4.26,0,0,1-1.1-2.19c0-.42.42-0.76,1.35-0.93l3.29-.42a8.35,8.35,0,0,0,1.69-.34,0.24,0.24,0,0,0,.17-0.25,11.59,11.59,0,0,0-1.1-3.38,2.91,2.91,0,0,1-.25-1.1,0.89,0.89,0,0,1,1.1-.84c0.25,0,.76.08,1.6,0.17a4.93,4.93,0,0,1,1.94.51,1.1,1.1,0,0,1,.59,1,6.39,6.39,0,0,1-.08,1.27,6.82,6.82,0,0,0-.08,1.27,0.83,0.83,0,0,0,.17.76,0.57,0.57,0,0,0,.68.08q3.42-.38,5.06-0.51c1-.08,1.86-0.17,2.45-0.25a8.09,8.09,0,0,0,1.27-.25,4,4,0,0,0,.84-1.69,24.44,24.44,0,0,0,.76-2.87,7.58,7.58,0,0,1,.51-1.86,1,1,0,0,1,.93-0.59,7.81,7.81,0,0,1,2.11.68c1.1,0.51,1.6.93,1.6,1.27a1.32,1.32,0,0,1-.51,1,4.56,4.56,0,0,0-1.18,1.6,5.73,5.73,0,0,0-.68,1.43c0,0.25.25,0.34,0.68,0.25a15.92,15.92,0,0,1,2.53-.25c0.68,0,1.1-.08,1.27-0.08a0.92,0.92,0,0,1,.42-0.08h0Zm6.5,12.24c0,1.1-.17,1.69-0.51,1.69a3,3,0,0,1-1.43-.68c-1-.68-3.8-1-8.44-1a17.23,17.23,0,0,0-2.62.08,0.42,0.42,0,0,0-.51.34,1.14,1.14,0,0,0,.42.76,1.78,1.78,0,0,1,.42.93,1.61,1.61,0,0,1-1.18,1,49.17,49.17,0,0,0-7.68,7.17c0,0.17.25,0.25,0.93,0.25a3.36,3.36,0,0,0,1.43-.25,2.82,2.82,0,0,0,1.1-.93c1.35-1.86,2.7-2.79,3.88-2.79s2.28,0.76,3.46,2.19a6.73,6.73,0,0,1,1.6,4.05,1.27,1.27,0,0,1-.34.93,1.4,1.4,0,0,1-1,.42,8.19,8.19,0,0,1-2.62-1c-1.35-.76-2-1.27-2-1.69s0.25-.68.84-0.76c1.6-.08,2.36-0.51,2.36-1.1a1.58,1.58,0,0,0-.59-1.1,2.08,2.08,0,0,0-1.43-.68,2,2,0,0,0-1.6.84,4.14,4.14,0,0,0-1.1,2.28,3.24,3.24,0,0,1-.51,1.86,1.49,1.49,0,0,1-1.27.42,25.33,25.33,0,0,0-5.49.59,20.49,20.49,0,0,0-4.39,1.43,4.29,4.29,0,0,1-1.18.34,1.27,1.27,0,0,1-.93-0.84,4.47,4.47,0,0,0-.68-1.27,2.2,2.2,0,0,1-.25-0.93,1.3,1.3,0,0,1,1.1-.59,3.17,3.17,0,0,0,1.43-.68,12.62,12.62,0,0,1,1.94-1.27,6.9,6.9,0,0,0,2.11-1.69,2,2,0,0,0,.59-0.84c0-.17-0.17-0.17-0.42-0.17a13.07,13.07,0,0,0-2.36.51,12.53,12.53,0,0,0-2.7,1.1,2.46,2.46,0,0,1-1.27.51c-0.34,0-.68-0.51-1.18-1.43a7.08,7.08,0,0,1-.68-1.77c0-.25.25-0.42,0.68-0.42a12.33,12.33,0,0,0,2.62-.68,7.83,7.83,0,0,0,1.6-1.69,4.89,4.89,0,0,0,.93-1.43,0.22,0.22,0,0,0-.25-0.25,2.6,2.6,0,0,0-.76.08,52.22,52.22,0,0,1-5.74,1,25.85,25.85,0,0,0-4.05.59,13.6,13.6,0,0,0-2.62.84,2.66,2.66,0,0,1-1.35.42,1.32,1.32,0,0,1-.84-0.93,5.42,5.42,0,0,1-.42-1.35,0.71,0.71,0,0,1,.17-0.51,1.89,1.89,0,0,1,.84-0.08,75.29,75.29,0,0,0,7.51-1.77c4.56-1.1,8.19-1.94,10.8-2.53,0.51-.08.76-0.17,0.76-0.34a2.28,2.28,0,0,0-.25-0.68,6.29,6.29,0,0,1-.17-1.52,2.77,2.77,0,0,1,.42-1.77,1.19,1.19,0,0,1,1-.68,1.41,1.41,0,0,1,1.1.84,6.59,6.59,0,0,0,1.27,1.35,2,2,0,0,1,.76,1,1.54,1.54,0,0,0,.42.68,1,1,0,0,0,.59.17l3.38-.17c1.27-.08,3-0.17,5.23-0.17s3.8-.08,4.81-0.17,1.52-.17,1.69-0.17a1.46,1.46,0,0,1,1.52.84,7.36,7.36,0,0,0,.76,1.43,3.12,3.12,0,0,1,.34,1.77h0Zm-22.79,4.3,1.52-.17a3.36,3.36,0,0,0,1.43-.25,3.72,3.72,0,0,0,1.43-1c0.68-.59,1.1-1.1,1.43-1.43a2.46,2.46,0,0,0,.42-0.84c0-.17-0.17-0.34-0.59-0.34l-2.36.25a2.87,2.87,0,0,0-1.86.51,4.93,4.93,0,0,0-1.18,1.35,2.91,2.91,0,0,0-.76,1.43,0.45,0.45,0,0,0,.51.51h0Zm16.12,13.34a1.14,1.14,0,0,1-.42.84,6.44,6.44,0,0,0-.68.93,19.12,19.12,0,0,0-.59,2.53,36.91,36.91,0,0,1-1.43,4.81c-0.68,1.77-1.1,2.87-1.27,3.21a1.07,1.07,0,0,1-.68.51,2.76,2.76,0,0,1-1.1-.51,13,13,0,0,0-1.6-.68,10.47,10.47,0,0,1-1.69-.84,1.87,1.87,0,0,0-1.18-.25c-0.68,0-2,.17-4,0.34a10,10,0,0,0-3.63.84,3.1,3.1,0,0,1-1.35.42,1.36,1.36,0,0,1-1-.76,12.54,12.54,0,0,0-1.69-1.94,14,14,0,0,1-2.62-4.05,11.54,11.54,0,0,1-1.35-4.3,1.43,1.43,0,0,1,.34-1,1.88,1.88,0,0,1,1.27-.34q0.89-.13,2.53-0.51c1-.25,3.38-0.76,7.09-1.35a60,60,0,0,1,7.43-.93,10.59,10.59,0,0,1,3.88.76c1.18,0.59,2.19,1,2.79,1.27a1.29,1.29,0,0,1,.93,1h0ZM436,204.67a1.28,1.28,0,0,0,1.18-.59,9.89,9.89,0,0,0,.93-2.87,18.12,18.12,0,0,0,.51-3.8,2.11,2.11,0,0,0-.76-1.94,2.65,2.65,0,0,0-1.77-.59c-0.68,0-1.35.08-2,.08a2.36,2.36,0,0,0-1.27.42,1.47,1.47,0,0,0-.25,1,1.57,1.57,0,0,0,.17.84,0.71,0.71,0,0,0,.51.17l2.11-.17c0.76,0,1.1.59,1.1,1.77a1.18,1.18,0,0,1-1.43,1.27,8.92,8.92,0,0,0-1.94.17,1.13,1.13,0,0,0-.76.76,2.25,2.25,0,0,0-.25,1,1.09,1.09,0,0,0,.17.68,1.31,1.31,0,0,0,.68.17c0.25,0,.51-0.08.68-0.08,0.93,0,1.35.25,1.35,0.76,0,0.68.34,0.93,1.1,0.93h0Zm-11.23-.59a6.29,6.29,0,0,0,1.69-.34,5.81,5.81,0,0,0,1.52-.42,1,1,0,0,0,.42-1,1.31,1.31,0,0,0-.17-0.93c-0.08,0-.42.08-0.84,0.17s-0.84.25-1,.34a2.34,2.34,0,0,1-.76.08,1.31,1.31,0,0,1-1-.84,2.81,2.81,0,0,1-.68-1.35,0.9,0.9,0,0,1,.59-0.76,23.26,23.26,0,0,1,3.12-.76c0.42,0,.59-0.17.59-0.42a4.36,4.36,0,0,0-.17-0.93,0.81,0.81,0,0,0-.84-0.59,6.81,6.81,0,0,0-2.28.76,12.47,12.47,0,0,0-2,.93,2.5,2.5,0,0,0-.34,1.43,11.78,11.78,0,0,0,.59,2.79c0.34,1.27.84,1.86,1.6,1.86h0Z" transform="translate(-26.47 -148.12)"/><path class="b" d="M482.16,172.43a3,3,0,0,1-1.18,2.19,2.93,2.93,0,0,1-1.86,1.1,1.76,1.76,0,0,1-1.43-.76,3.67,3.67,0,0,0-2.36-1.52,2.52,2.52,0,0,0-1.35.25,14.93,14.93,0,0,0-1.43,1.69,24,24,0,0,0-1.77,2.62,3.64,3.64,0,0,0-.59,1.69,0.89,0.89,0,0,0,.42.76,1.89,1.89,0,0,0,.84.25,5.28,5.28,0,0,0,1.18-.34,12,12,0,0,1,5.06-1.77c0.59,0,.93.51,0.93,1.6a1.83,1.83,0,0,1-.17,1,6.34,6.34,0,0,1-.68,1.18,11.45,11.45,0,0,0-1.1,2,5.68,5.68,0,0,0-.51,1.43,0.22,0.22,0,0,0,.25.25l2.11-.25a0.76,0.76,0,0,1,.68.93c0,0.84-.59,1.86-1.86,3a13.29,13.29,0,0,1-3.12,2.45,2.44,2.44,0,0,0-.51.84,3.94,3.94,0,0,0-.25,1.43,3.18,3.18,0,0,0,.34,1.35,1.25,1.25,0,0,0,1.1.51c0.42,0,1.18-.59,2.28-1.6a14.12,14.12,0,0,0,2.53-2.7,6,6,0,0,1,1-1.18c0.17,0,.17.17,0.17,0.42a7.87,7.87,0,0,1-.59,2A19.71,19.71,0,0,1,478.2,197a20.18,20.18,0,0,1-2.19,3,5.58,5.58,0,0,1-1.6,1.27,12.69,12.69,0,0,0-1.52.76,2.11,2.11,0,0,1-.93.42,0.46,0.46,0,0,1-.42-0.25,14.43,14.43,0,0,1-.34-2.11,24.76,24.76,0,0,1-.25-3.46l0.08-2.7a0.56,0.56,0,0,0-.59-0.68,11.24,11.24,0,0,0-3.21.59,1.07,1.07,0,0,1-.51.08,0.66,0.66,0,0,1-.42-0.51,8.16,8.16,0,0,1-.34-1.6c-0.08-.76-0.17-1.35-0.17-1.69a0.56,0.56,0,0,1,.68-0.59,1.65,1.65,0,0,1,.59.08c0.25,0,.68.08,1.1,0.08a6,6,0,0,0,1.94-.59,7.84,7.84,0,0,0,1.35-.84,1.82,1.82,0,0,0,.17-0.84,2.23,2.23,0,0,0-.59-1.86,6.5,6.5,0,0,1-1.35-2.53,0.35,0.35,0,0,0-.34-0.25,0.71,0.71,0,0,0-.51.17,10.16,10.16,0,0,1-3.54,2.62,8.31,8.31,0,0,1-2.79.84,0.36,0.36,0,0,1-.42-0.42,9.25,9.25,0,0,1,1.43-2.53,28.28,28.28,0,0,1,3.29-4c0.51-.59,2-2.62,4.56-6.16a40.63,40.63,0,0,0,5.15-9.71q0.51-1.27,1-1.27a3,3,0,0,1,1.77,1.35,3.3,3.3,0,0,1,1.18,1.94,1.8,1.8,0,0,1-.59,1.35c-0.42.34-.93,0.93-1.6,1.6s-1,1.1-1.1,1.18a1.07,1.07,0,0,0-.08.51,1,1,0,0,0,.51.59,2.75,2.75,0,0,0,1.1.34A6.51,6.51,0,0,0,480,171a2.51,2.51,0,0,1,1-.17,0.93,0.93,0,0,1,.84.42,1.94,1.94,0,0,1,.34,1.18h0Zm30,28a1.67,1.67,0,0,1-1,1.1,3.53,3.53,0,0,1-2.28.76,27.7,27.7,0,0,1-3.38-.25l-3.46-.42a8.83,8.83,0,0,1-1.69-.42,5.66,5.66,0,0,1-.59-1.69,7,7,0,0,0-1.18-2.53,6.18,6.18,0,0,0-2.19-1.94,5.52,5.52,0,0,0-1.86-.84,0.71,0.71,0,0,0-.68.51,22.16,22.16,0,0,1-4.9,7.77c-2,2.11-3.46,3.21-4.14,3.21a1.19,1.19,0,0,1-.84-1,25.55,25.55,0,0,1-.84-4.81,77.86,77.86,0,0,1-.42-9.71,17.37,17.37,0,0,1,.34-3.71c0.25-1.18.42-3.29,0.68-6.16s0.34-4.73.34-5.49a7.2,7.2,0,0,0-.25-1.94c-0.08-.51-0.17-0.93-0.17-1.1a0.77,0.77,0,0,1,.59-0.84,9.66,9.66,0,0,0,2.28-1.18,26,26,0,0,1,4.3-1.94,11.71,11.71,0,0,1,4.39-.93,5.14,5.14,0,0,1,3,.84c0.84,0.59,1.35,1.1,1.35,1.6a2.34,2.34,0,0,1-.42,1,14.05,14.05,0,0,0-.93,3.21,26.28,26.28,0,0,1-1.6,5.74,7.53,7.53,0,0,1-3,3.71c-2.36,1.43-3.71,2.28-4.14,2.53a1.27,1.27,0,0,0-.59.76c0,0.25.25,0.42,0.68,0.42a18.62,18.62,0,0,0,3.63-1.6,35.37,35.37,0,0,0,6.41-4.73,2.75,2.75,0,0,1,1-.68,1.28,1.28,0,0,1,.84.93A3,3,0,0,1,502,182a2.08,2.08,0,0,1-.84,1.1,17.55,17.55,0,0,0-1.77,1.77c-2.19,2.45-4.22,4-6.33,4.64a0.43,0.43,0,0,0-.34.42,1.2,1.2,0,0,0,.17.51,15.42,15.42,0,0,0,2.19,1.6c1.27,0.84,2.87,1.77,4.56,2.7a20.87,20.87,0,0,0,3.8,1.6,35.45,35.45,0,0,1,6.08,2.28c1.77,0.84,2.62,1.43,2.62,1.86h0Zm-25-17.56a13.36,13.36,0,0,0,2-1.1,24.57,24.57,0,0,0,2.36-1.6,6.21,6.21,0,0,0,.93-2.19c0.34-1.18.51-2.28,0.68-3.12a12.88,12.88,0,0,0,.25-2.53,3,3,0,0,0-.42-1.77,1.36,1.36,0,0,0-1.1-.51c-0.68,0-1.6.59-2.79,1.86s-1.77,2.28-1.77,3c0,0.42.17,0.59,0.51,0.42a10.47,10.47,0,0,1,3.12-1.1,0.76,0.76,0,0,1,.84.84,7.18,7.18,0,0,1-.93,2.53,5.47,5.47,0,0,1-2.19,2.36,9,9,0,0,0-1.6,1,1.65,1.65,0,0,0-.34,1.18c0,0.42.17,0.68,0.42,0.68h0Zm-1.27,16a7.09,7.09,0,0,0,2.53-.68,11.31,11.31,0,0,0,2.87-2.28,5.61,5.61,0,0,0,1.35-2.19,0.93,0.93,0,0,0-.51-0.84,26.49,26.49,0,0,1-3.54-2,3.57,3.57,0,0,0-1.69-.42,2.72,2.72,0,0,0-1.35.17,4.86,4.86,0,0,0-.51,2.11,30.93,30.93,0,0,0-.34,3.54,5.27,5.27,0,0,0,.25,2,0.91,0.91,0,0,0,.93.59h0Z" transform="translate(-26.47 -148.12)"/><path class="b" d="M536.94,169.39a1.56,1.56,0,0,1-.17.59,21.34,21.34,0,0,1-1.77,2,33.11,33.11,0,0,1-3.21,3,24.84,24.84,0,0,0-3.46,2.87,0.77,0.77,0,0,1-.59.25,1.45,1.45,0,0,1-.68-0.08,1.09,1.09,0,0,1-.17-0.68,1.67,1.67,0,0,1,.17-0.93,33.25,33.25,0,0,1,1.69-3.21c1-1.77,1.77-3.12,2.36-4.05s1-1.52,1.35-2a3.31,3.31,0,0,1,.68-0.76,0.31,0.31,0,0,1,.25-0.08,2.76,2.76,0,0,1,1.35.76c0.68,0.51,1.18.93,1.6,1.18a1.61,1.61,0,0,1,.59,1.18h0Zm17.13-2.19a1.71,1.71,0,0,1,1.52.93,3.21,3.21,0,0,1,.51,1.6,2.7,2.7,0,0,1-.25,1.18,10.51,10.51,0,0,1-3,1.77,22.14,22.14,0,0,1-3.8,1.6,5.74,5.74,0,0,1-1.6.25,20.13,20.13,0,0,0-3,.17,2.26,2.26,0,0,1-.84.17c-0.51,0-.84-0.42-1.1-1.27a13.69,13.69,0,0,0-.51-1.86,5.46,5.46,0,0,1-.25-0.84q0-.63,1-0.76a9.49,9.49,0,0,0,3.29-.68,33.42,33.42,0,0,1,4.39-1.43,16.78,16.78,0,0,1,3.63-.84h0Zm9.2,13.5c0,0.93-.34,1.43-0.93,1.43a5.36,5.36,0,0,1-1.27-.25,10.93,10.93,0,0,0-2.62-.25,7,7,0,0,0-2.19.17,2.75,2.75,0,0,0-.93,1,7.43,7.43,0,0,0-.51,1.43c0,0.42-.08,1.52-0.08,3.46L554.67,196a39.78,39.78,0,0,0,.25,4.05c0.17,1.6.34,2.7,0.42,3.38a5.18,5.18,0,0,1,.25,1.35,0.85,0.85,0,0,1-.84,1,3.71,3.71,0,0,1-.84-0.17,31.41,31.41,0,0,0-4.22-1.35,21.23,21.23,0,0,1-4.64-1.69,20.41,20.41,0,0,1-3.21-2.36,10,10,0,0,1-1.86-1.69,0.18,0.18,0,0,1,.17-0.17,0.92,0.92,0,0,1,.42.08c4.3,1.27,7,1.86,8.1,1.86a2.07,2.07,0,0,0,2.62-2.36c0-.84-0.08-2.79-0.25-5.91a55.75,55.75,0,0,0-.59-6.58,15.78,15.78,0,0,0-.42-2.28,1.47,1.47,0,0,0-.76-0.59,2.92,2.92,0,0,0-1-.25,29.94,29.94,0,0,0-4.05.42,14,14,0,0,0-4.14,1.35,1.8,1.8,0,0,1-1,.34,3,3,0,0,1-1.27-1.43,5.63,5.63,0,0,1-.76-1.77,0.93,0.93,0,0,1,.08-0.59,8,8,0,0,1,1.86-.51q1.77-.38,2.79-0.51c0.68-.08,1.69-0.25,3.21-0.59s2.79-.76,3.71-1.1a8.48,8.48,0,0,1,2.53-.76,9.73,9.73,0,0,1,2.19-.25,7.66,7.66,0,0,0,1.94-.25,13.1,13.1,0,0,1,1.77-.34c0.51,0,1.52-.08,3.12-0.08a1.75,1.75,0,0,1,1.27.42,15.59,15.59,0,0,1,1.1,1.6,4.84,4.84,0,0,1,.68,2.45h0ZM535.93,179a2.49,2.49,0,0,1-.84,1.35,10.49,10.49,0,0,0-1,1.35,1.7,1.7,0,0,0-.25.93c0,1.43-.17,3.21-0.34,5.32s-0.25,3.88-.25,5.4v3.88a10.07,10.07,0,0,1-.34,3.46,1.35,1.35,0,0,1-1.35.76,2.37,2.37,0,0,1-1.27-.25,1.09,1.09,0,0,1-.42-0.93c0-.42.08-1.86,0.25-4.39s0.34-4.22.34-5.32a12.78,12.78,0,0,0-.25-2.7,3.61,3.61,0,0,0-.25-1.27,0.46,0.46,0,0,0-.42-0.17q-0.63,0-1.52,1.52a4.6,4.6,0,0,0-.93,2,1.82,1.82,0,0,1-.17.84,10.3,10.3,0,0,1-1.18,1.27,7.36,7.36,0,0,1-1.86,1.52,4.18,4.18,0,0,1-1.69.68,6.23,6.23,0,0,1-1.6.25c-0.42,0-.68-0.08-0.68-0.25a0.86,0.86,0,0,1,.34-0.59,22.34,22.34,0,0,1,1.86-2.19c1-1.18,1.86-2,2.45-2.62a40.48,40.48,0,0,0,2.7-3.38,45,45,0,0,0,3.12-4.73,23,23,0,0,1,2-3,2.32,2.32,0,0,1,1.18-.93,2.91,2.91,0,0,1,1.43.76,2,2,0,0,1,.93,1.43h0Z" transform="translate(-26.47 -148.12)"/><path class="b" d="M135.61,229.4v3.8a2.36,2.36,0,0,0,.34,1.6,1.53,1.53,0,0,0,1.18.42h0.51v0.34h-6v-0.34h0.51a1.33,1.33,0,0,0,1.27-.59,2.48,2.48,0,0,0,.25-1.43v-8.44a2.63,2.63,0,0,0-.34-1.52,1.67,1.67,0,0,0-1.18-.42h-0.51v-0.34h5.15a9.46,9.46,0,0,1,3,.34,4.07,4.07,0,0,1,1.86,1.27,2.74,2.74,0,0,1,.76,2,3.46,3.46,0,0,1-1.18,2.62,4.72,4.72,0,0,1-3.21,1c-0.34,0-.68-0.08-1.1-0.08l-1.27-.25h0Zm0-.51c0.34,0.08.68,0.08,1,.17h0.68a2.48,2.48,0,0,0,1.86-.76,2.8,2.8,0,0,0,.84-2,3.49,3.49,0,0,0-.42-1.6,3.16,3.16,0,0,0-1-1.1,4.94,4.94,0,0,0-1.6-.34,11.56,11.56,0,0,0-1.35.17v5.49Zm18.82-6.75a6.77,6.77,0,0,1,6.75,6.75,6.78,6.78,0,0,1-6.92,6.92,6.51,6.51,0,0,1-6.84-6.84,6.26,6.26,0,0,1,2.28-5.06,6.71,6.71,0,0,1,4.73-1.77h0Zm-0.17.76a3.89,3.89,0,0,0-3,1.27,7.18,7.18,0,0,0-1.43,4.73,7.78,7.78,0,0,0,1.43,5,3.89,3.89,0,0,0,3,1.27,4,4,0,0,0,3.21-1.43c0.93-.93,1.35-2.45,1.35-4.47a7.71,7.71,0,0,0-1.43-5.06,4,4,0,0,0-3.12-1.27h0Zm21-.76v4.56h-0.34a6.2,6.2,0,0,0-.68-2.11,3.07,3.07,0,0,0-1.35-1.18,3.85,3.85,0,0,0-1.86-.51,2.42,2.42,0,0,0-1.77.68,1.74,1.74,0,0,0-.76,1.35A1.49,1.49,0,0,0,169,226a9.77,9.77,0,0,0,3,1.94c1.27,0.68,2.19,1.18,2.7,1.52a4,4,0,0,1,1.1,1.27,2.85,2.85,0,0,1,.42,1.43A3.4,3.4,0,0,1,175,234.8a5,5,0,0,1-3.21,1,5.57,5.57,0,0,1-1.18-.08,4.53,4.53,0,0,1-1.27-.34,7.61,7.61,0,0,0-1.27-.25,0.52,0.52,0,0,0-.42.08,1.26,1.26,0,0,0-.25.59H167v-4.47h0.42a5,5,0,0,0,.76,2.11,3.13,3.13,0,0,0,1.35,1.18,4.58,4.58,0,0,0,2.11.51,3.08,3.08,0,0,0,2-.68,1.92,1.92,0,0,0,.76-1.52,1.41,1.41,0,0,0-.34-0.93,2.19,2.19,0,0,0-.84-0.93,19.8,19.8,0,0,0-2.19-1.27,12.57,12.57,0,0,1-2.62-1.52,3.6,3.6,0,0,1-1.1-1.18,2.45,2.45,0,0,1-.42-1.52,3,3,0,0,1,1.18-2.45,4.18,4.18,0,0,1,3-1,6.63,6.63,0,0,1,2.36.51,2.48,2.48,0,0,0,.76.25,0.54,0.54,0,0,0,.51-0.17,1.3,1.3,0,0,0,.25-0.59h0.34Zm18,0.34,0.17,3H193a5.32,5.32,0,0,0-.25-1.1,2,2,0,0,0-.84-0.84,3.64,3.64,0,0,0-1.43-.25h-2v10a2.43,2.43,0,0,0,.34,1.52,1.67,1.67,0,0,0,1.18.42h0.51v0.34h-6v-0.34H185a1.48,1.48,0,0,0,1.27-.51,2.67,2.67,0,0,0,.25-1.43v-10h-1.69a6.44,6.44,0,0,0-1.43.08,2,2,0,0,0-.93.76,2.84,2.84,0,0,0-.42,1.35H181.6l0.17-3h11.48Zm12.32,8.69h-5.49l-0.93,2a3.18,3.18,0,0,0-.34,1.18,0.73,0.73,0,0,0,.25.51,3.39,3.39,0,0,0,1.35.34v0.34H196v-0.34a1.94,1.94,0,0,0,1.1-.42,5.36,5.36,0,0,0,1.18-1.86l5-10.8h0.34l4.9,10.89a4.37,4.37,0,0,0,1.1,1.69,2,2,0,0,0,1.35.51v0.34h-5.57v-0.34a5.32,5.32,0,0,0,1.1-.25,0.64,0.64,0,0,0,.34-0.59,5.42,5.42,0,0,0-.42-1.35Zm-0.34-.68-2.36-5.32-2.45,5.32h4.81Zm21.69,1.43,0.34,0.08-1.18,3.54H215.2v-0.34h0.51a1.33,1.33,0,0,0,1.27-.59,2.48,2.48,0,0,0,.25-1.43v-8.44a2.23,2.23,0,0,0-.34-1.52,1.53,1.53,0,0,0-1.18-.42H215.2v-0.34h6.33v0.34A5.75,5.75,0,0,0,220,223a2.33,2.33,0,0,0-.68.51,5.27,5.27,0,0,0-.17,1.52v8.19a2.61,2.61,0,0,0,.17,1.1,0.84,0.84,0,0,0,.42.34,6.09,6.09,0,0,0,1.6.08h1a7,7,0,0,0,2.28-.25,2.05,2.05,0,0,0,1.18-.76,4.26,4.26,0,0,0,1.1-1.77h0Z" transform="translate(-26.47 -148.12)"/><path class="b" d="M249,222.14v4.56h-0.42a4.79,4.79,0,0,0-.68-2.11,2.67,2.67,0,0,0-1.35-1.18,3.61,3.61,0,0,0-1.86-.51,2.72,2.72,0,0,0-1.77.68,1.9,1.9,0,0,0-.68,1.35,1.78,1.78,0,0,0,.42,1.1,9.77,9.77,0,0,0,3,1.94,18.82,18.82,0,0,1,2.7,1.52,3.15,3.15,0,0,1,1.1,1.27,2.85,2.85,0,0,1,.42,1.43,3.4,3.4,0,0,1-1.27,2.62,4.63,4.63,0,0,1-3.12,1,5.19,5.19,0,0,1-1.18-.08,4.25,4.25,0,0,1-1.35-.34,7.61,7.61,0,0,0-1.27-.25,0.63,0.63,0,0,0-.42.08,4.11,4.11,0,0,0-.25.59h-0.34v-4.47h0.34a6.58,6.58,0,0,0,.76,2.11,3.39,3.39,0,0,0,1.43,1.18,4,4,0,0,0,2,.51,3.08,3.08,0,0,0,2-.68,1.87,1.87,0,0,0,.51-2.45,3.24,3.24,0,0,0-.93-0.93,19.8,19.8,0,0,0-2.19-1.27,14,14,0,0,1-2.53-1.52,3.93,3.93,0,0,1-1.18-1.18,3.16,3.16,0,0,1-.42-1.52,3.25,3.25,0,0,1,1.18-2.45,4.33,4.33,0,0,1,3-1,6.28,6.28,0,0,1,2.36.51,2.75,2.75,0,0,0,.84.25,0.4,0.4,0,0,0,.42-0.17,0.77,0.77,0,0,0,.25-0.59H249Zm15.36,9H259l-1,2a6.88,6.88,0,0,0-.34,1.18,0.61,0.61,0,0,0,.34.51,2.55,2.55,0,0,0,1.27.34v0.34h-4.39v-0.34a2.68,2.68,0,0,0,1.18-.42,5.51,5.51,0,0,0,1.1-1.86l5-10.8h0.34l4.9,10.89a4.37,4.37,0,0,0,1.1,1.69,2.18,2.18,0,0,0,1.35.51v0.34h-5.57v-0.34a6.61,6.61,0,0,0,1.18-.25,0.77,0.77,0,0,0,.25-0.59,5.42,5.42,0,0,0-.42-1.35Zm-0.25-.68-2.45-5.32-2.45,5.32h4.9Zm21.78-8v0.34a2.7,2.7,0,0,0-1.1.42,5.89,5.89,0,0,0-1,1.52l-4.9,11.06h-0.34l-5.32-11.23c-0.25-.59-0.42-0.93-0.51-1.1a1.84,1.84,0,0,0-.68-0.42,3,3,0,0,0-1-.25v-0.34h5.74v0.34a2.55,2.55,0,0,0-1.27.34,0.77,0.77,0,0,0-.25.59,5.7,5.7,0,0,0,.42,1.43l3.63,7.68,3.29-7.51a4.63,4.63,0,0,0,.51-1.6,0.61,0.61,0,0,0-.34-0.51,1.9,1.9,0,0,0-1-.42h-0.17v-0.34h4.3Zm10.47,12.74v0.34h-6.08v-0.34h0.51a1.48,1.48,0,0,0,1.27-.51,2.64,2.64,0,0,0,.25-1.52v-8.44a4.18,4.18,0,0,0-.08-1.27,0.86,0.86,0,0,0-.51-0.42,1.7,1.7,0,0,0-.93-0.25h-0.51v-0.34h6.08v0.34h-0.51a1.48,1.48,0,0,0-1.27.51,2.48,2.48,0,0,0-.25,1.43v8.44a4.89,4.89,0,0,0,.08,1.35,1,1,0,0,0,.42.42,2.25,2.25,0,0,0,1,.25h0.51Zm3.8-12.74H304l8.61,9.79v-7.51a2.64,2.64,0,0,0-.25-1.52,1.75,1.75,0,0,0-1.27-.42h-0.51v-0.34h4.9v0.34H315a1.48,1.48,0,0,0-1.27.51,4.58,4.58,0,0,0-.17,1.43v11H313.1l-9.2-10.47v8a2.64,2.64,0,0,0,.25,1.52,1.67,1.67,0,0,0,1.18.42h0.51v0.34H301v-0.34h0.51a1.48,1.48,0,0,0,1.27-.51,2.67,2.67,0,0,0,.25-1.43v-9.12a6.21,6.21,0,0,0-.93-0.84,4.91,4.91,0,0,0-.93-0.42,2.89,2.89,0,0,0-.93-0.08v-0.34Zm32.24-.34,0.34,4.14h-0.34A5.05,5.05,0,0,0,331,224a4.69,4.69,0,0,0-3.21-1.18,4.76,4.76,0,0,0-4.14,2,6.84,6.84,0,0,0-1.1,4,7.36,7.36,0,0,0,.76,3.38,4.53,4.53,0,0,0,2,2.28,5,5,0,0,0,2.62.76,7.43,7.43,0,0,0,1.43-.17,7.3,7.3,0,0,0,1.43-.59v-3.8a3.71,3.71,0,0,0-.17-1.27,0.86,0.86,0,0,0-.51-0.42,2.17,2.17,0,0,0-1.18-.17v-0.42h5.49v0.42h-0.34a1.25,1.25,0,0,0-1.1.51,3.93,3.93,0,0,0-.17,1.35v4.05a16.07,16.07,0,0,1-2.36.84,12,12,0,0,1-2.62.25,7.78,7.78,0,0,1-6.16-2.36,6.57,6.57,0,0,1-1.6-4.22,6.46,6.46,0,0,1,.93-3.29,7.44,7.44,0,0,1,2.87-3,8.22,8.22,0,0,1,3.63-.84,6.69,6.69,0,0,1,1.43.17,15.93,15.93,0,0,1,1.77.51c0.42,0.08.68,0.17,0.76,0.17a0.44,0.44,0,0,0,.34-0.17,1.09,1.09,0,0,0,.17-0.68h0.42Zm15.61,0v4.56h-0.42a6.3,6.3,0,0,0-.59-2.11,3.3,3.3,0,0,0-1.43-1.18,3.61,3.61,0,0,0-1.86-.51,2.72,2.72,0,0,0-1.77.68,1.9,1.9,0,0,0-.68,1.35,1.78,1.78,0,0,0,.42,1.1,9.77,9.77,0,0,0,3,1.94,18.82,18.82,0,0,1,2.7,1.52,3.15,3.15,0,0,1,1.1,1.27,2.85,2.85,0,0,1,.42,1.43,3.4,3.4,0,0,1-1.27,2.62,4.63,4.63,0,0,1-3.12,1,5.19,5.19,0,0,1-1.18-.08,4.25,4.25,0,0,1-1.35-.34,7.61,7.61,0,0,0-1.27-.25,0.63,0.63,0,0,0-.42.08,1.22,1.22,0,0,0-.17.59h-0.42v-4.47h0.42a6.85,6.85,0,0,0,.68,2.11,3.39,3.39,0,0,0,1.43,1.18,4,4,0,0,0,2,.51,3.08,3.08,0,0,0,2-.68,1.87,1.87,0,0,0,.51-2.45,2.44,2.44,0,0,0-.93-0.93,19.8,19.8,0,0,0-2.19-1.27,14,14,0,0,1-2.53-1.52,3.93,3.93,0,0,1-1.18-1.18,3.16,3.16,0,0,1-.42-1.52,3.25,3.25,0,0,1,1.18-2.45,4.33,4.33,0,0,1,3-1,6.28,6.28,0,0,1,2.36.51,2.75,2.75,0,0,0,.84.25,0.4,0.4,0,0,0,.42-0.17,0.57,0.57,0,0,0,.25-0.59H348Z" transform="translate(-26.47 -148.12)"/><path class="b" d="M371.09,228.89a4.42,4.42,0,0,1,2.19.93,2.72,2.72,0,0,1,1,2.19,3.35,3.35,0,0,1-.68,1.86,3.44,3.44,0,0,1-1.77,1.27,11.82,11.82,0,0,1-3.54.42h-6.67v-0.34h0.59a1.48,1.48,0,0,0,1.27-.51,5.27,5.27,0,0,0,.17-1.52v-8.44a3.05,3.05,0,0,0-.25-1.52,1.67,1.67,0,0,0-1.18-.42h-0.59v-0.34h6.08a12.53,12.53,0,0,1,2.79.25,4.21,4.21,0,0,1,2.36,1.18,3,3,0,0,1,.76,2,2.65,2.65,0,0,1-.59,1.77,4,4,0,0,1-1.94,1.18h0Zm-5.4-.51c0.25,0,.51.08,0.84,0.08h1.1a7.68,7.68,0,0,0,2.28-.25,2.65,2.65,0,0,0,1.18-.93,2.85,2.85,0,0,0,.42-1.43,2.48,2.48,0,0,0-1-1.94,4.93,4.93,0,0,0-3-.76,6.62,6.62,0,0,0-1.86.17v5.06Zm0,6.25a11.25,11.25,0,0,0,2.36.25,4.17,4.17,0,0,0,2.87-.84,2.26,2.26,0,0,0,1-1.94,2.48,2.48,0,0,0-.51-1.43,2.83,2.83,0,0,0-1.43-1.1,7.06,7.06,0,0,0-2.45-.42h-1.1c-0.34,0-.59.08-0.76,0.08v5.4Zm22.45-3.46h-5.4l-1,2a6.88,6.88,0,0,0-.34,1.18,0.61,0.61,0,0,0,.34.51,2.55,2.55,0,0,0,1.27.34v0.34H378.6v-0.34a1.94,1.94,0,0,0,1.1-.42,4.36,4.36,0,0,0,1.18-1.86l5-10.8h0.34l4.9,10.89a4.37,4.37,0,0,0,1.1,1.69,2.18,2.18,0,0,0,1.35.51v0.34H388v-0.34a6.61,6.61,0,0,0,1.18-.25,0.77,0.77,0,0,0,.25-0.59A5.42,5.42,0,0,0,389,233Zm-0.25-.68-2.45-5.32L383,230.5h4.9Zm8.52-8h3.88l8.52,9.79v-7.51a2.64,2.64,0,0,0-.25-1.52,1.67,1.67,0,0,0-1.18-.42h-0.51v-0.34h4.9v0.34h-0.51a1.48,1.48,0,0,0-1.27.51,2.67,2.67,0,0,0-.25,1.43v11h-0.34l-9.28-10.47v8a2.64,2.64,0,0,0,.25,1.52,1.75,1.75,0,0,0,1.27.42h0.51v0.34h-4.9v-0.34h0.42a1.55,1.55,0,0,0,1.35-.51,4.58,4.58,0,0,0,.17-1.43v-9.12a3.71,3.71,0,0,0-.93-0.84,3.23,3.23,0,0,0-.93-0.42,2.62,2.62,0,0,0-.93-0.08v-0.34Zm25,5.82,5.15,4.81a9.36,9.36,0,0,0,2.19,1.6,7,7,0,0,0,1.77.51v0.34h-6.67v-0.34a1.12,1.12,0,0,0,.84-0.25,0.46,0.46,0,0,0,.25-0.42,0.51,0.51,0,0,0-.08-0.34,3.07,3.07,0,0,0-.59-0.76l-4.9-4.39v4.14a3.93,3.93,0,0,0,.17,1.35,0.53,0.53,0,0,0,.42.42,1.7,1.7,0,0,0,.93.25h0.51v0.34h-6v-0.34h0.51a1.72,1.72,0,0,0,1.27-.51,2.94,2.94,0,0,0,.17-1.52v-8.44a4.18,4.18,0,0,0-.08-1.27,1,1,0,0,0-.42-0.42,1.92,1.92,0,0,0-.93-0.25H415.4v-0.34h6v0.34h-0.51a1.7,1.7,0,0,0-.93.25,0.69,0.69,0,0,0-.42.42,4.11,4.11,0,0,0-.17,1.27v4.05a16.25,16.25,0,0,1,1.43-1.27,27.25,27.25,0,0,0,3.71-3.46,1.35,1.35,0,0,0,.25-0.68,0.64,0.64,0,0,0-.17-0.42,1.69,1.69,0,0,0-.76-0.17H423.5v-0.34h5.15v0.34c-0.25,0-.59.08-0.76,0.08a8.22,8.22,0,0,0-.93.42,11.2,11.2,0,0,0-1.35,1c-0.17.08-.84,0.76-2.11,1.94Z" transform="translate(-26.47 -148.12)"/><path class="b" d="M449.75,222.14a6.5,6.5,0,0,1,4.73,1.94,6.84,6.84,0,0,1-4.9,11.73,6.64,6.64,0,0,1-6.84-6.84,6.26,6.26,0,0,1,2.28-5.06,7,7,0,0,1,4.73-1.77h0Zm-0.17.76a3.89,3.89,0,0,0-3,1.27,7.18,7.18,0,0,0-1.43,4.73,7.32,7.32,0,0,0,1.52,5,3.71,3.71,0,0,0,3,1.27,4,4,0,0,0,3.29-1.43,6.59,6.59,0,0,0,1.27-4.47,7.71,7.71,0,0,0-1.43-5.06,4,4,0,0,0-3.12-1.27h0Zm15.11,0.25v5.15h2.53a1.75,1.75,0,0,0,1.27-.34,3.31,3.31,0,0,0,.59-1.43h0.34v4.39h-0.34a3,3,0,0,0-.25-1.1,1.13,1.13,0,0,0-.59-0.51,1.69,1.69,0,0,0-1-.17h-2.53v4.05a4.89,4.89,0,0,0,.08,1.35,1,1,0,0,0,.42.42,2.25,2.25,0,0,0,1,.25h0.51v0.34h-6.08v-0.34h0.51a1.48,1.48,0,0,0,1.27-.51,2.64,2.64,0,0,0,.25-1.52v-8.44a3.34,3.34,0,0,0-.17-1.27,0.69,0.69,0,0,0-.42-0.42,1.7,1.7,0,0,0-.93-0.25h-0.51v-0.34h10.47l0.17,2.87h-0.42a3.38,3.38,0,0,0-.59-1.35,1.77,1.77,0,0,0-.93-0.59,3.7,3.7,0,0,0-1.6-.25h-3Z" transform="translate(-26.47 -148.12)"/><path class="b" d="M496,222.14l0.34,4.47H496a5.18,5.18,0,0,0-1.86-2.87,4.46,4.46,0,0,0-2.87-.84,5.1,5.1,0,0,0-2.53.59A4.87,4.87,0,0,0,487,225.6a9.35,9.35,0,0,0-.59,3.63,7.37,7.37,0,0,0,.59,3.12,4.14,4.14,0,0,0,1.86,1.94,5.06,5.06,0,0,0,2.79.68,5.77,5.77,0,0,0,2.45-.51,7.66,7.66,0,0,0,2.28-2.19l0.34,0.25a8,8,0,0,1-2.53,2.53,6.77,6.77,0,0,1-3.29.76,6.42,6.42,0,0,1-5.4-2.36,6.25,6.25,0,0,1-1.43-4.22,6.66,6.66,0,0,1,.93-3.63,6.31,6.31,0,0,1,2.62-2.53,7.4,7.4,0,0,1,3.54-.93,6.74,6.74,0,0,1,3,.76,3.44,3.44,0,0,0,.59.17,0.71,0.71,0,0,0,.51-0.17,1.63,1.63,0,0,0,.42-0.76H496Zm8.69,6.41h6.58v-3.8a3.35,3.35,0,0,0-.17-1.27,1,1,0,0,0-.42-0.42,1.92,1.92,0,0,0-.93-0.25h-0.51v-0.34h6v0.34h-0.51a1.7,1.7,0,0,0-.93.25,0.53,0.53,0,0,0-.42.42,4.11,4.11,0,0,0-.17,1.27v8.44a3.93,3.93,0,0,0,.17,1.35,0.69,0.69,0,0,0,.42.42,1.7,1.7,0,0,0,.93.25h0.51v0.34h-6v-0.34h0.51a1.42,1.42,0,0,0,1.18-.51,2,2,0,0,0,.34-1.52v-4H504.7v4a3.93,3.93,0,0,0,.17,1.35,0.69,0.69,0,0,0,.42.42,1.7,1.7,0,0,0,.93.25h0.51v0.34h-6v-0.34h0.51a1.48,1.48,0,0,0,1.27-.51,2.64,2.64,0,0,0,.25-1.52v-8.44a3.35,3.35,0,0,0-.17-1.27,0.69,0.69,0,0,0-.42-0.42,1.92,1.92,0,0,0-.93-0.25h-0.51v-0.34h6v0.34h-0.51a1.7,1.7,0,0,0-.93.25,0.69,0.69,0,0,0-.42.42,4.11,4.11,0,0,0-.17,1.27v3.8Zm20.51,6.67v0.34h-6.08v-0.34h0.51a1.48,1.48,0,0,0,1.27-.51,2.64,2.64,0,0,0,.25-1.52v-8.44a4.18,4.18,0,0,0-.08-1.27,1,1,0,0,0-.42-0.42,2.25,2.25,0,0,0-1-.25h-0.51v-0.34h6.08v0.34H524.7a1.48,1.48,0,0,0-1.27.51,2.48,2.48,0,0,0-.25,1.43v8.44a4.89,4.89,0,0,0,.08,1.35,0.86,0.86,0,0,0,.51.42,1.7,1.7,0,0,0,.93.25h0.51Zm3.21-12.74h3.8l8.61,9.79v-7.51a2,2,0,0,0-.34-1.52,1.53,1.53,0,0,0-1.18-.42H538.8v-0.34h4.9v0.34h-0.51a1.48,1.48,0,0,0-1.27.51,2.92,2.92,0,0,0-.17,1.43v11h-0.42L532,225.26v8a2,2,0,0,0,.34,1.52,1.67,1.67,0,0,0,1.18.42h0.51v0.34h-4.9v-0.34h0.51a1.48,1.48,0,0,0,1.27-.51,2.67,2.67,0,0,0,.25-1.43v-9.12a6.21,6.21,0,0,0-.93-0.84,9.91,9.91,0,0,0-.93-0.42,2.89,2.89,0,0,0-.93-0.08v-0.34Zm28.27,8.69h-5.49l-0.93,2a3.18,3.18,0,0,0-.34,1.18,0.61,0.61,0,0,0,.34.51,2.55,2.55,0,0,0,1.27.34v0.34h-4.39v-0.34a1.94,1.94,0,0,0,1.1-.42,4.36,4.36,0,0,0,1.18-1.86l5-10.8h0.34l4.9,10.89a4.37,4.37,0,0,0,1.1,1.69,2.18,2.18,0,0,0,1.35.51v0.34h-5.57v-0.34a4.14,4.14,0,0,0,1.1-.25,0.64,0.64,0,0,0,.34-0.59,5.42,5.42,0,0,0-.42-1.35Zm-0.34-.68L554,225.18l-2.45,5.32h4.81Z" transform="translate(-26.47 -148.12)"/></svg>