<svg xmlns="http://www.w3.org/2000/svg" viewBox="0 0 536.97 74.83"><defs><style>.a{fill:#221814;}.a,.b,.c{fill-rule:evenodd;}.b{fill:#eba514;}.c{fill:#dd5411;}</style></defs><title>ZJTLCB</title><path class="a" d="M241.18,222.28V202.51a1,1,0,0,1,1-1h1.58a0.94,0.94,0,0,1,.95.95v19.81h5.75v-22a1,1,0,0,0-.93-1h-8.33v-6.71h9.26v-2.24h-14a1,1,0,0,0-1,1v31h5.75Zm-28.4-30.73a0.93,0.93,0,0,1,.88-1.21h3.73a1,1,0,0,1,.87.56h0l1.88,5a1,1,0,0,1-.78,1.27H215.5a1,1,0,0,1-.83-0.54l-1.9-5.11h0Zm8.69,14-1.87-5.09a1,1,0,0,0-.86-0.74h-3.89a1,1,0,0,0-.79,1.24l2,5.59a0.88,0.88,0,0,1,0,.32l-4,15.41h5.72l3.78-14.62a3.37,3.37,0,0,0-.14-2.1h0Zm12.24-2.46-1.82.69v-7.4h1.82v-2.24h-1.82v-3.81h-5.75v3.81H223v2.24h3.15V206L223,207.31V211l3.15-1.26v9.33a1,1,0,0,1-.94.94h-2.86v2.24h6.35a3.22,3.22,0,0,0,3.2-3.17V207.51l1.82-.69v-3.72Z" transform="translate(-26.47 -147.45)"/><path class="a" d="M266.2,205.56l-1.87-5.09a1,1,0,0,0-.86-0.74h-3.89a1,1,0,0,0-.79,1.24l2,5.59a1,1,0,0,1,0,.32l-4,15.41h5.72l3.8-14.62a3.39,3.39,0,0,0-.14-2.1h0ZM267,220v2.23h28.11V220H283.49V193.51h10.39v-2.24H268.32v2.24h8.78V220H267Zm-9.56-28.48a0.93,0.93,0,0,1,.88-1.21h3.73a1,1,0,0,1,.87.56h0l1.88,5a1,1,0,0,1-.78,1.27h-3.85a1,1,0,0,1-.83-0.54l-1.9-5.11h0Z" transform="translate(-26.47 -147.45)"/><path class="a" d="M339.87,191.63H324.54v-1.29h-7.66v1.29H301.54v2.23h15.33v2.34l-15.33-.09v2.24l15.33,0.09v2.45H301.54v2.24h11.27l-5.64,3.19h-5.63v2.24h12.09l6.21-3.68h1.72l6.21,3.68h12.09v-2.24h-5.63l-5.64-3.19h11.27v-2.24H324.54v-2.45l15.33-.09v-2.24l-15.33.09v-2.34h15.33v-2.23Zm-13.1,27.48V214a3.22,3.22,0,0,1,3.2-3.17h9.9v2.24h-6.4a1,1,0,0,0-.93.94v5.07a1,1,0,0,0,.93.94h6.4v2.24H330a3.22,3.22,0,0,1-3.2-3.17h0Zm-12.13,0V214a3.21,3.21,0,0,0-3.19-3.17h-9.9v2.24H308a1,1,0,0,1,.93.94v5.07a1,1,0,0,1-.93.94h-6.41v2.24h9.9a3.21,3.21,0,0,0,3.19-3.17h0Zm8.94,3.17V208.56h-5.75v13.72h5.75Z" transform="translate(-26.47 -147.45)"/><path class="a" d="M351.37,222.28v-1.91h3.87a3.22,3.22,0,0,0,3.2-3.17V205.44a1,1,0,0,0-1-1h-2.77a4.83,4.83,0,0,0,3.74-4.7v-6.26a3.22,3.22,0,0,0-3.2-3.17h-9v31.94h5.11Zm8.95-17.23v-1.94h3.13l4.76-3.43-2.91-1.93a2.74,2.74,0,0,1-1.42.6c0,0.06-3.29,0-3.59,0v-2.24h0.24a1,1,0,0,0,.92-0.8l0.86-5h5.1l-0.24,1.33h17.41v2.14l-8.25,5.92,4.93,3.39h3.32v1.94H376l-3.57-2.37-3.29,2.37h-8.85Zm6.25-9.91h2.77l2.82,1.84,4.62-3.16h-10Zm8.76,24.9v-1.92h9.26v-2.24h-9.26V214h9.26v-2.24h-9.26v-2.89h9.26v-2.23H360.31v2.23h9.26v2.89h-2.12a1,1,0,0,1-.93-0.92v-0.38H360.3v2.65h0a1,1,0,0,0,1,.89h8.29v1.89h-9.26v2.24h9.26V220h-9.26v2.24h24.27V220h-9.26Zm-24-1.92V192.59h1.28a1,1,0,0,1,1,.94l0,10.94h0l0,12.7a1,1,0,0,1-.91.94h-1.33Z" transform="translate(-26.47 -147.45)"/><path class="a" d="M429.3,191.93H413v-1.58h-5.75v1.58H391v2.23h5.28l2.09,4.49h-5.77v23.63h5.75v-21.4H403v2.89a1,1,0,0,1-.93.94h-1.82V207h5.31a3.21,3.21,0,0,0,3.19-3.17v-2.9h2.8v2.9a3.21,3.21,0,0,0,3.2,3.17H420v-2.24h-1.82a1,1,0,0,1-.94-0.94v-2.89H422v21.4h5.75V198.65h-5.77l2.09-4.49h5.28v-2.23ZM402,194.16h16.27l-2.09,4.49H404.09Zm18,22.73v-8.67h-19.8v11.84h16.61a3.22,3.22,0,0,0,3.2-3.17h0Zm-14.05.94v-7.36h8.3v6.41a1,1,0,0,1-.93.94H406Z" transform="translate(-26.47 -147.45)"/><path class="a" d="M474,220H462.2v-29.7h-5.75V220h-3.2v-29.7h-5.75V220H435.69v2.24H474V220Zm-4.9-7.35,3.31-18.51h-5.75l-3.89,21.73h2.57a3.77,3.77,0,0,0,3.77-3.23h0Zm-28.55,0-3.29-18.52H443l3.88,21.75h-2.57a3.77,3.77,0,0,1-3.77-3.23h0Z" transform="translate(-26.47 -147.45)"/><path class="a" d="M512.95,197.7H502.1l0-5.12H513Zm-25.42-7.34h-5.2l-0.77,5a1,1,0,0,1-.87.72H480.4v2.24c0.3,0,3.59.05,3.59,0a3.19,3.19,0,0,0,2.63-2.86h7.84v-2.24H487Zm30.88,19.48H505.17a1,1,0,0,0-.81,1.53l8,10.92h6.07c-2.07-2.86-4.66-6.33-6.76-9.21a0.65,0.65,0,0,1,.54-1h6.2v-2.24Zm-23.94-1.61H490v-6.07h4.46v-2.24h-14v2.24h3.82l0,6.07H480.4v2.24h3.82v8.65a3.18,3.18,0,0,0,3.15,3.17h7.08V220h-3.55a0.94,0.94,0,0,1-.91-0.94v-8.63h4.46v-2.24Zm7.65-8.29h10.84l0,4.16a1,1,0,0,1-.93.94h-9.91Zm16.62-9.59H496.39v28.77a3.21,3.21,0,0,0,3.19,3.17h6.7V220h-3.21a1,1,0,0,1-.93-0.94V207.28h13.4a3.21,3.21,0,0,0,3.19-3.17V190.35h0Z" transform="translate(-26.47 -147.45)"/><path class="a" d="M525.26,196.38l4.08-4.91h0a3.2,3.2,0,0,1,2.46-1.12h3.93a1,1,0,0,1,.79,1.43l-3.86,4.64a3.23,3.23,0,0,1-2.79,1.41H526a1,1,0,0,1-.7-1.44h0Zm38.18-6H539.17v2.24h24.27v-2.24Zm0,8.07H539.17v2.24h14.68V219.1a1,1,0,0,1-.93.94h-7v2.24H556.4a3.21,3.21,0,0,0,3.2-3.17V200.65h3.85v-2.24Zm-38.2,6.76,4.08-4.91h0a3.2,3.2,0,0,1,2.46-1.12h3.94a1,1,0,0,1,.79,1.43l-1.82,2.19v19.52h-5.75V206.62h-3a1,1,0,0,1-.69-1.44h0Z" transform="translate(-26.47 -147.45)"/><path class="a" d="M73.09,206h-9.5a7.8,7.8,0,0,1,7.87-8.08H83a8,8,0,0,1,7.64,7.9v12.47a8.3,8.3,0,0,0,1.2,4H83.33a8.47,8.47,0,0,1-1.22-3.61,17.72,17.72,0,0,1-11.85,3.58,6.53,6.53,0,0,1-6.7-6.35,6.43,6.43,0,0,1,4.82-6.43c3.47-1,9.88-2.13,12.87-3.23V206h0a2.87,2.87,0,0,0-2.42-2.65H75.56A2.81,2.81,0,0,0,73.09,206h0Zm8.12,4.87-6.39,1.82a2.42,2.42,0,0,0-1.45,3.47,2.59,2.59,0,0,0,2.76,1.29,5.62,5.62,0,0,0,5.09-6.58h0Z" transform="translate(-26.47 -147.45)"/><path class="a" d="M49.47,189.75A7.85,7.85,0,0,1,51.81,205a8.69,8.69,0,0,1-1.06,17.24H26.47V189.75h23Zm-13.53,6.8v6h8a3,3,0,0,0,2.79-3.08A3.06,3.06,0,0,0,44,196.55h-8Zm0,12.26v6.48h9a3.24,3.24,0,0,0,0-6.48h-9Z" transform="translate(-26.47 -147.45)"/><path class="a" d="M105.89,222.28H96.42V197.94h9.46v3.61A9.26,9.26,0,0,1,122.45,206v16.29H113V209a3.51,3.51,0,0,0-3.51-3.43,3.56,3.56,0,0,0-3.56,3.43v13.32Z" transform="translate(-26.47 -147.45)"/><polygon class="a" points="119.61 47.72 130.14 47.72 119.98 58.56 130.14 74.82 120.21 74.82 114.03 64.92 110 69.05 110 74.83 100.53 74.83 100.53 42.3 110 42.3 110 57.81 119.61 47.72"/><path class="b" d="M153.56,156.74A39.48,39.48,0,0,1,163,172.33a71.34,71.34,0,0,1,3.36,33.38,23.17,23.17,0,0,0,4.15,16.58,13.64,13.64,0,0,1,10.1-11.52,28.29,28.29,0,0,1,21.51,2.19,25.36,25.36,0,0,0-14-8.62,14.27,14.27,0,0,1-10.37-9c-2.76-9-8.78-25.27-24.22-38.55h0Z" transform="translate(-26.47 -147.45)"/><path class="c" d="M126,170.89c0.27,0.24.57,0.54,0.92,0.9a16.56,16.56,0,0,0,9.39,4.56,18.24,18.24,0,0,0,6.49-.14,41.71,41.71,0,0,1,19.81,2.89h0V179a36.48,36.48,0,0,0-54-26.91,17.81,17.81,0,0,0,12,16.85,17.71,17.71,0,0,0,7.94,9.51,17.2,17.2,0,0,1-2.55-7.59h0Z" transform="translate(-26.47 -147.45)"/></svg>