<svg xmlns="http://www.w3.org/2000/svg" viewBox="0 0 537.31 98.05"><defs><style>.a,.b,.d,.e,.f,.g,.h,.i,.j,.l,.m{fill:#231815;}.a,.b,.d,.f,.l,.n{fill-rule:evenodd;}.b,.c,.d,.e,.f,.g,.h,.i,.j,.k,.l,.m{stroke:#231815;stroke-miterlimit:3.86;}.b,.c,.e{stroke-width:0.41px;}.c,.k{fill:none;}.d{stroke-width:0.41px;}.f{stroke-width:0.42px;}.g{stroke-width:0.42px;}.h{stroke-width:0.42px;}.i{stroke-width:0.24px;}.j{stroke-width:0.1px;}.k{stroke-width:0.41px;}.l{stroke-width:0.42px;}.m{stroke-width:0.43px;}.n{fill:#004f9c;}</style></defs><title>China Construction Bank</title><path class="a" d="M449.42,220.25a5,5,0,0,0,3.5-4.74c0-4.38-4.91-5.76-7.21-5.76H433.86v22.31h13.33c1.94,0,6.88-1.74,6.88-6.39,0-4.13-3.9-5.09-4.65-5.42h0Zm-12.08-8h5.92c5.35,0,6.13,2.45,6.13,3.73,0,1.44-.89,3.31-4.87,3.31h-7.18v-7h0Zm8.74,17.23h-8.74v-7.65h6.81c3.26,0,6.5.4,6.5,3.64,0,1.75-1.11,4-4.57,4h0Z" transform="translate(-26.35 -141.41)"/><path class="a" d="M471.1,229.06V218.34c-0.07-1.59-2.09-2.63-4.54-3.09a16.07,16.07,0,0,0-3.34-.28,10.37,10.37,0,0,0-4,.71,5.14,5.14,0,0,0-3.23,3.15l-0.11,1.4h2.94c0.08-.73.3-3,4-3,2.09,0,4.8.52,5.06,1.65v1.9c0,0.86-1.16,1.17-1.57,1.22-1.85.37-3.67,0.09-7.2,0.95-2,.49-3.87,1.54-4.09,4.2-0.26,3.15,2.46,5,6.8,5,2.57,0,4.68-1.38,6.21-2.33a3.08,3.08,0,0,0,2.9,2.33,9.1,9.1,0,0,0,2.41-.27v-2a1.88,1.88,0,0,1-.7.09,1.4,1.4,0,0,1-1.48-.95h0Zm-3.24-2.2c0,0.52-2,3.25-6.28,3.15-1.71,0-3.49-.76-3.42-2.75a2.8,2.8,0,0,1,1.86-2.18c1.83-.67,5.32-0.61,7.84-1.44v3.22h0Z" transform="translate(-26.35 -141.41)"/><path class="a" d="M486.77,215.77a12.25,12.25,0,0,0-3.2-.43,7.48,7.48,0,0,0-3.86.74,5.71,5.71,0,0,0-2.16,1.74h-0.07v-2h-3.12v16.07h3.12v-8.54c-0.07-4.31,2.74-5.66,5.35-5.66,2.16,0,3.93,1,3.89,3v11.17h3.13V219.39a4.64,4.64,0,0,0-3.09-3.61h0Z" transform="translate(-26.35 -141.41)"/><polygon class="a" points="474.51 79.97 481.31 74.39 477.3 74.39 469.05 81.1 469.05 68.16 465.93 68.16 465.93 90.46 469.05 90.46 469.05 84.43 472.17 81.89 478.6 90.46 482.43 90.46 474.51 79.97 474.51 79.97"/><path class="a" d="M154.4,230a8.42,8.42,0,0,1-5.83-2.14,10.66,10.66,0,0,1,0-14,8.44,8.44,0,0,1,5.83-2.14,7.3,7.3,0,0,1,7.25,4.68h3.61c-1.6-4.53-5.32-7.31-11-7.25a13.46,13.46,0,0,0-7.5,2.3,12,12,0,0,0-4.32,9.39,11.76,11.76,0,0,0,4.32,9.39,13.55,13.55,0,0,0,7.5,2.3,11.23,11.23,0,0,0,11.56-8.88h-3.57c-1.38,4.25-3.83,6.3-7.81,6.3h0Z" transform="translate(-26.35 -141.41)"/><path class="a" d="M180,215.89a9.59,9.59,0,0,0-3.16-.54,8.77,8.77,0,0,0-2.64.43,9.09,9.09,0,0,0-3.35,2v-8.17h-3.12v22.31h3.12V221.44a2.57,2.57,0,0,1,1.2-2.39,7.92,7.92,0,0,1,3.08-1.38,6.62,6.62,0,0,1,3.31.43,2.42,2.42,0,0,1,1.64,2.81v11h3.12V219.67a4.06,4.06,0,0,0-3.19-3.77h0Z" transform="translate(-26.35 -141.41)"/><polygon class="a" points="159.6 71.33 162.73 71.33 162.73 68.16 159.6 68.16 159.6 71.33 159.6 71.33"/><polygon class="a" points="159.6 90.46 162.73 90.46 162.73 74.39 159.6 74.39 159.6 90.46 159.6 90.46"/><path class="a" d="M204.45,215.77a12.37,12.37,0,0,0-3.19-.43,7.55,7.55,0,0,0-3.87.74,5.74,5.74,0,0,0-2.15,1.74h-0.08v-2H192v16.07h3.12v-8.54c-0.07-4.31,2.75-5.66,5.35-5.66,2.16,0,3.94,1,3.9,3v11.17h3.12V219.39a4.64,4.64,0,0,0-3.08-3.61h0Z" transform="translate(-26.35 -141.41)"/><path class="a" d="M225.49,229.15V218.43c-0.08-1.59-2.08-2.63-4.53-3.09a15.93,15.93,0,0,0-3.34-.28,10.43,10.43,0,0,0-4,.71,5.16,5.16,0,0,0-3.23,3.15l-0.11,1.41h2.94c0.07-.74.3-3,4-3,2.08,0,4.79.52,5.05,1.65v1.9c0,0.86-1.16,1.16-1.56,1.22-1.87.37-3.69,0.09-7.22,1-2,.49-3.86,1.53-4.09,4.19-0.26,3.16,2.45,5,6.8,5,2.57,0,4.69-1.38,6.2-2.32a3.1,3.1,0,0,0,2.9,2.32,9.13,9.13,0,0,0,2.42-.27v-2a2,2,0,0,1-.71.09,1.4,1.4,0,0,1-1.49-.94h0Zm-3.24-2.21c0,0.52-2,3.24-6.28,3.15-1.7,0-3.49-.76-3.42-2.75a2.79,2.79,0,0,1,1.86-2.17c1.82-.67,5.31-0.62,7.84-1.44v3.21h0Z" transform="translate(-26.35 -141.41)"/><path class="a" d="M251.88,230a8.44,8.44,0,0,1-5.83-2.14,10.67,10.67,0,0,1,0-14,8.45,8.45,0,0,1,5.83-2.14,7.29,7.29,0,0,1,7.25,4.68h3.61c-1.6-4.53-5.31-7.31-11-7.25a13.47,13.47,0,0,0-7.51,2.3,12,12,0,0,0-4.31,9.39,11.77,11.77,0,0,0,4.31,9.39,13.57,13.57,0,0,0,7.51,2.3,11.23,11.23,0,0,0,11.55-8.88h-3.57c-1.37,4.25-3.83,6.3-7.81,6.3h0Z" transform="translate(-26.35 -141.41)"/><path class="a" d="M272.77,215.35c-3.56,0-8.81,1.44-8.81,8.6s5.24,8.63,8.81,8.63,8.81-1.47,8.81-8.63-5.24-8.6-8.81-8.6h0Zm0,14.66c-4.08,0-5.61-3.43-5.61-6.06s1.53-6,5.61-6,5.62,3.4,5.62,6-1.49,6.06-5.62,6.06h0Z" transform="translate(-26.35 -141.41)"/><path class="a" d="M296,215.77a12.38,12.38,0,0,0-3.2-.43,7.5,7.5,0,0,0-3.86.74,5.63,5.63,0,0,0-2.16,1.74h-0.08v-2h-3.12v16.07h3.12v-8.54c-0.07-4.31,2.76-5.66,5.35-5.66,2.15,0,3.94,1,3.9,3v11.17h3.12V219.39a4.64,4.64,0,0,0-3.08-3.61h0Z" transform="translate(-26.35 -141.41)"/><path class="a" d="M314.25,224.06a14.23,14.23,0,0,0-4.5-1.22,23.89,23.89,0,0,1-4.57-1.19,1.52,1.52,0,0,1-.93-2.2,4.38,4.38,0,0,1,3.79-1.71c4.35,0,4.46,1.75,4.46,2.57h3c0-1.81-.82-5-7.25-5-3.82,0-7.17,1.75-7.17,4.8a3.75,3.75,0,0,0,2.86,3.92,58.05,58.05,0,0,0,7.25,1.64c1.56,0.42,2.12,1.22,2.12,2a2.44,2.44,0,0,1-1.23,2,10,10,0,0,1-2.45.73,12.7,12.7,0,0,1-2.75-.18c-2.2-.55-3.27-1.56-3.38-3.13h-2.94c0,1.5.41,4.38,4.94,5.24a20.84,20.84,0,0,0,3.76.22,13.92,13.92,0,0,0,3.57-.67,5.19,5.19,0,0,0,3.49-3.86,3.64,3.64,0,0,0-2.12-4h0Z" transform="translate(-26.35 -141.41)"/><path class="a" d="M322,211.46h-3.12v4.34h-2.71v2.36h2.71v12.15c0,0.61.67,2.08,2.83,2.27a14.08,14.08,0,0,0,3.38-.19v-2.26c-1.75.25-3.09,0.19-3.09-.82V218.16h3.09V215.8H322v-4.34h0Z" transform="translate(-26.35 -141.41)"/><path class="a" d="M329.41,218.32h-0.07V215.8h-3.12v16.07h3.12v-8.35c0-2.79,1.07-4.28,3.26-5.11a10.83,10.83,0,0,1,3-.37v-2.69h-1.75a6.15,6.15,0,0,0-4.42,3h0Z" transform="translate(-26.35 -141.41)"/><path class="a" d="M349,224.53c0,2.07-.45,4.46-3.83,5.45a6.93,6.93,0,0,1-2.19.18,4.38,4.38,0,0,1-1.75-.43,2.63,2.63,0,0,1-1.48-2.57V215.8h-3.12v12.8a5.17,5.17,0,0,0,3.09,3.61,11.08,11.08,0,0,0,3.12.37,9.82,9.82,0,0,0,3.93-.67,5.79,5.79,0,0,0,2.16-1.75H349v1.71h3.12V215.8H349v8.73h0Z" transform="translate(-26.35 -141.41)"/><path class="a" d="M362.41,217.71a6.21,6.21,0,0,1,2.67.52c1.31,0.52,1.75,1.31,2.09,3h3.09c-0.23-1.87-.9-3.64-2.42-4.43a9.59,9.59,0,0,0-5.5-1.44,8.92,8.92,0,0,0-5.87,2.17,8.67,8.67,0,0,0-2.78,6.21,10.28,10.28,0,0,0,1.33,5.45c1.22,2.11,4,3.27,6.83,3.4s5.83-.89,7.36-3a6.25,6.25,0,0,0,1.05-3.24h-3a6.27,6.27,0,0,1-.93,2.08c-0.45.86-2,1.65-3.72,1.74a5.24,5.24,0,0,1-4.82-2.48,7.46,7.46,0,0,1-.71-4.32,6.46,6.46,0,0,1,1.52-4,5.83,5.83,0,0,1,3.83-1.68h0Z" transform="translate(-26.35 -141.41)"/><path class="a" d="M376.45,211.46h-3.12v4.34h-2.71v2.36h2.71v12.15c0,0.61.66,2.08,2.82,2.27a14,14,0,0,0,3.38-.19v-2.26c-1.74.25-3.07,0.19-3.07-.82V218.16h3.07V215.8h-3.07v-4.34h0Z" transform="translate(-26.35 -141.41)"/><polygon class="a" points="354.9 71.33 358.03 71.33 358.03 68.16 354.9 68.16 354.9 71.33 354.9 71.33"/><polygon class="a" points="354.9 90.46 358.03 90.46 358.03 74.39 354.9 74.39 354.9 90.46 354.9 90.46"/><path class="a" d="M394.89,215.35c-3.57,0-8.81,1.44-8.81,8.6s5.24,8.63,8.81,8.63,8.8-1.47,8.8-8.63-5.24-8.6-8.8-8.6h0Zm0,14.66c-4.09,0-5.61-3.43-5.61-6.06s1.52-6,5.61-6,5.61,3.4,5.61,6S399,230,394.89,230h0Z" transform="translate(-26.35 -141.41)"/><path class="a" d="M418.12,215.77a12.36,12.36,0,0,0-3.2-.43,7.55,7.55,0,0,0-3.86.74,5.75,5.75,0,0,0-2.16,1.74h-0.07v-2H405.7v16.07h3.12v-8.54c-0.08-4.31,2.75-5.66,5.36-5.66,2.15,0,3.94,1,3.89,3v11.17h3.13V219.39a4.65,4.65,0,0,0-3.09-3.61h0Z" transform="translate(-26.35 -141.41)"/><path class="b" d="M166.83,166.67H152.51v24.4h14.33v-24.4h0Zm32.93-.11v28.77H176.13v5.39h-9.3v-5.39H143.19V166.56a4.15,4.15,0,0,1,4.16-4.14h19.49v-4.53h9.23v4.53h19.57a4.13,4.13,0,0,1,4.13,4.14h0Zm-9.27.11H176.07v24.4H190.5v-24.4h0Z" transform="translate(-26.35 -141.41)"/><path class="c" d="M166.83,166.67H152.51v24.4h14.33v-24.4h0Zm23.66,0H176.07v24.4H190.5v-24.4h0Z" transform="translate(-26.35 -141.41)"/><path class="d" d="M224.66,161.61v35.06H262.3V161.61H224.66Zm-9.37,39.05h56.24v-39a4.11,4.11,0,0,0-4.12-4.12h-48a4.11,4.11,0,0,0-4.12,4.12v39h0Z" transform="translate(-26.35 -141.41)"/><polygon class="e" points="221.69 47.77 221.69 37.72 233.21 37.72 233.21 33.46 221.69 33.46 221.69 28.05 233.86 28.05 233.86 23.84 200.27 23.84 200.27 28.05 212.16 28.05 212.16 33.46 200.94 33.46 200.94 37.72 212.16 37.72 212.16 47.77 200.27 47.77 200.27 51.91 233.9 51.91 233.9 47.77 221.69 47.77 221.69 47.77"/><path class="e" d="M256.14,180.67H249.7l2.39,4.28a5.42,5.42,0,0,0,2.07,2.38,6.48,6.48,0,0,0,3,.5h2.92v-3.94l-2.12,0-1.82-3.2h0Z" transform="translate(-26.35 -141.41)"/><path class="f" d="M345.1,167h-3.39v-3.21a4.26,4.26,0,0,0-4.26-4.27H325.83V157h-8.7v2.49H305.56v4.36h11.57V167h-13v4.39h13v3H305.56v4.33h11.57v3.16H304.57v4.39h12.56v3h-13.7v4.43h13.69v3.09h-9a17.68,17.68,0,0,1-17.36-14.27l-4.85,0a20.83,20.83,0,0,0,20.84,18.68h37.71l0-4.47-18.65,0v-3.09h15.89v-4.43H325.83v-3h15.89v-4.39H325.83v-3.16h16.05l0-7.31h3.24V167h0Zm-12.5,7.37h-6.76v-3h6.76v3h0Zm0-7.37h-6.76v-3.13h6.76V167h0Z" transform="translate(-26.35 -141.41)"/><path class="g" d="M295,184A11,11,0,0,1,285.26,195v5.93A16.07,16.07,0,0,0,301.41,185l0-11.66-5.38,0c4.64-3,7-8.32,7-14.23,0-.09-17.76,0-17.76,0l0,4.43h10.28a12,12,0,0,1-9.56,9.89v4.31h9V184h0Z" transform="translate(-26.35 -141.41)"/><polygon class="h" points="535.77 16.89 499.88 16.89 499.88 21.31 535.77 21.31 535.77 16.89 535.77 16.89"/><path class="h" d="M520.19,163c-3.56,7-11.09,13.49-19,17.25l3.63,5.66a45.23,45.23,0,0,0,5.15-2.58v17.93h8.7l0-24.59a45.67,45.67,0,0,0,6.85-9L520.19,163h0Z" transform="translate(-26.35 -141.41)"/><path class="h" d="M524,172v4.43h23.23v17.85a2.54,2.54,0,0,1-2.54,2.54h-10.3v4.4H549a7.67,7.67,0,0,0,7.68-7.69l0-17.09h6.71V172H524Z" transform="translate(-26.35 -141.41)"/><path class="h" d="M518.2,159.59l-5.07-4.48c-3.57,6.71-8.12,10.94-13.79,14.73l3.33,5.86a38.49,38.49,0,0,0,15.53-16.11h0Z" transform="translate(-26.35 -141.41)"/><path class="i" d="M377.59,184.67a66,66,0,0,1-7.6,6.22l0-22.68-16,.1v4.33h7.05v22.31c-2.48.78-4.47,1.25-4.47,1.25l4.48,5.54a47.83,47.83,0,0,0,9.07-3.45,31.9,31.9,0,0,0,7.44-5.26v-8.35h0Z" transform="translate(-26.35 -141.41)"/><path class="i" d="M390.79,167.13v-5.36l12.53,0v5.4c0.08,2-.56,7,8.15,7.08h5.43v-4.07l-1.44,0c-3.46.22-3.15-1.22-3.14-2.23v-6.41a4.1,4.1,0,0,0-4.16-4.06h-3.92l-22.25,0v10.48c0,0.83.32,2.46-3.14,2.23l-1.52-.05v4.15h5.29c9,0.5,8.07-5.08,8.14-7.08h0Z" transform="translate(-26.35 -141.41)"/><path class="j" d="M419.11,194.31a59.24,59.24,0,0,1-13.27-2.57,52.56,52.56,0,0,0,10.9-10l0-5.52H376.84v5h29.83a45,45,0,0,1-9.2,7.12,54.35,54.35,0,0,1-9-5.68l-10.73,0a57.3,57.3,0,0,0,11.59,9.49,45,45,0,0,1-12.9,2.4V201a51.46,51.46,0,0,0,21.18-4.57,57.27,57.27,0,0,0,21.51,4.49v-6.57h0Z" transform="translate(-26.35 -141.41)"/><polygon class="i" points="348.51 17.05 330.8 17.05 330.8 21.73 348.51 21.73 348.51 17.05 348.51 17.05"/><path class="k" d="M465.87,166h14.55v-4.43H465.87V166h0Zm0,8.69h14.55v-4.34H465.87v4.34h0Z" transform="translate(-26.35 -141.41)"/><path class="l" d="M465.87,166h14.55v-4.43H465.87V166h0Zm0,8.69h14.55v-4.34H465.87v4.34h0Zm17.49,17.63a32.48,32.48,0,0,0,7.39-10.59l-6.5,0a25,25,0,0,1-5.29,6.78c-0.18-.22-0.9-1.16-1.08-1.39a16.09,16.09,0,0,1-2.6-5.3h-6.69a42.15,42.15,0,0,0,3.13,7.28c4.77,7.6,12,12,19.28,12.14v-6.14a15.48,15.48,0,0,1-7.65-2.76h0Zm-10.4.05a16.9,16.9,0,0,1-7.06,2.36l0-15.72H488.8l0-17.56a4.2,4.2,0,0,0-4.2-4.21H457.71v38h-1.76v6h4.3A36.88,36.88,0,0,0,473,198.88v-6.5h0Z" transform="translate(-26.35 -141.41)"/><path class="m" d="M444.75,193.83V183.6h10.12v-4.36H444.75v-4.93H454v-4.39l-17,0a42.89,42.89,0,0,0,3.36-4.23l14.26-.06v-4.19H443.12a41.69,41.69,0,0,0,2-4.15L438.67,155a30.77,30.77,0,0,1-12.39,15.4l4.28,5.08c0.64-.44,1.32-0.81,1.93-1.28h4.84v5h-6.39v4.36h6.5v12.23a35.23,35.23,0,0,1-4.42.42l4.31,5.35a34.14,34.14,0,0,0,17.37-6.73l0-7.12a34.54,34.54,0,0,1-10,6.09h0Z" transform="translate(-26.35 -141.41)"/><path class="n" d="M117.09,193.48H99a5.92,5.92,0,0,0-1.85.22,11.2,11.2,0,0,0-1.39,1L73.54,216.87a0.94,0.94,0,0,1-1.33,0L48.58,193.29a0.94,0.94,0,0,1,0-1.33l23.67-23.64a0.94,0.94,0,0,1,1.33,0L94.4,189.18a4.47,4.47,0,0,0,1.87,1.26c0.95,0.25,2.31-1,2.31-1l9.62-9.77-28-27.89a16.82,16.82,0,0,0-15-5,46.3,46.3,0,0,0-38.83,46,46.9,46.9,0,0,0,46.56,46.62c24.76,0,45.42-19.9,46.58-44.89a0.85,0.85,0,0,0-.51-0.94,3,3,0,0,0-1.89-.15h0Z" transform="translate(-26.35 -141.41)"/><path class="n" d="M87.57,151.06l24.57,24.41,6.88-6.59a8.51,8.51,0,0,0,.8-2.07c0.11-.53-0.91-1.4-0.91-1.4l-15-15C89.73,136.24,74,143,74,143s6.56,0.05,13.56,8h0Z" transform="translate(-26.35 -141.41)"/></svg>