<svg xmlns="http://www.w3.org/2000/svg" viewBox="0 0 536.57 139.6"><defs><style>.a{fill:#d61518;}.a,.b{fill-rule:evenodd;}.b,.c{fill:#221814;}</style></defs><title>BOHZ</title><path class="a" d="M124.78,258.29A33.79,33.79,0,0,0,116.25,212a25.58,25.58,0,0,0-5.24-.2,33.37,33.37,0,0,0-5,.56A28.73,28.73,0,0,1,114.64,262l-0.11.11a69.92,69.92,0,0,0,10-3.49s0.17-.22.24-0.33h0Z" transform="translate(-26.87 -124.81)"/><path class="a" d="M77.34,244c-1.51.78-3,1.48-4.63,2.11v0.06a24.89,24.89,0,1,0,16.62-30.3,34.43,34.43,0,0,0-5.55,2.36,46.65,46.65,0,0,0-8.23,5.65,37.65,37.65,0,0,1-39.69,5h0a69.93,69.93,0,0,0,4.51,7l0.26,0.06a42.74,42.74,0,0,0,35.6-6.21s1-.69,2.31-1.77a46.91,46.91,0,0,1,7.82-5.34,29.28,29.28,0,0,1,4.88-2,21.88,21.88,0,0,1,5.46-.78A19.8,19.8,0,1,1,77.37,244Z" transform="translate(-26.87 -124.81)"/><path class="a" d="M96.69,232.61a7,7,0,1,0,7,7,7,7,0,0,0-7-7h0Zm0,8.92a1.95,1.95,0,1,1,1.94-1.94,1.94,1.94,0,0,1-1.94,1.94h0Z" transform="translate(-26.87 -124.81)"/><path class="a" d="M87.83,245.89a10.8,10.8,0,0,1-2-6.32,9.59,9.59,0,0,1,.06-1.12v-0.09c-2.3,1.64-4.91,3.53-4.91,3.53a15.9,15.9,0,1,0,15.73-18.23c-0.39,0-.79,0-1.18,0a15.28,15.28,0,0,0-3.12.55,23,23,0,0,0-4.5,1.9,92.75,92.75,0,0,0-8.07,5.73c-1.34,1-2.36,1.65-2.36,1.65a46.69,46.69,0,0,1-33.1,7.13H44.24a66.12,66.12,0,0,0,5.44,5.55v0q1,0,2.07,0A51.35,51.35,0,0,0,79,238.54s1.19-.73,2.7-1.81c3-2.14,7.5-5.52,8.89-6.28a15,15,0,0,1,3.51-1.39,13,13,0,0,1,2.6-.36,10.88,10.88,0,1,1-8.82,17.23Z" transform="translate(-26.87 -124.81)"/><path class="a" d="M70.8,252.06a28.55,28.55,0,0,1-1.74-4.6l-0.23.07a61.77,61.77,0,0,1-14.41,2.63h0a69.85,69.85,0,0,0,6.32,4.3h0.17a24.93,24.93,0,0,0,5-.89,30.37,30.37,0,0,0,4.91-1.52h0Z" transform="translate(-26.87 -124.81)"/><path class="a" d="M75.44,258.91a29.75,29.75,0,0,1-3.15-4.15H72.24a29.86,29.86,0,0,1-7.84,1.68H64.24a70,70,0,0,0,8.13,3.62h0.07a15.45,15.45,0,0,0,3-1.12v0Z" transform="translate(-26.87 -124.81)"/><path class="a" d="M160.35,166.45A33.77,33.77,0,0,0,114.11,175a25.94,25.94,0,0,0-.22,5.23,32.07,32.07,0,0,0,.57,5,28.75,28.75,0,0,1,49.59-8.59l0.1,0.13a67.74,67.74,0,0,0-3.48-10l-0.33-.24h0Z" transform="translate(-26.87 -124.81)"/><path class="a" d="M146,213.9c0.78,1.49,1.48,3,2.11,4.63h0.06A24.88,24.88,0,1,0,117,197.67a23.68,23.68,0,0,0,.91,4.22,35.77,35.77,0,0,0,2.36,5.55,47.31,47.31,0,0,0,5.65,8.23,37.7,37.7,0,0,1,5,39.69v0a69.93,69.93,0,0,0,7-4.51l0.06-.26a42.9,42.9,0,0,0-6.21-35.6s-0.7-1-1.77-2.33a45.91,45.91,0,0,1-5.34-7.8,27.78,27.78,0,0,1-2-4.9,21.48,21.48,0,0,1-.79-5.46A19.8,19.8,0,1,1,146,213.87Z" transform="translate(-26.87 -124.81)"/><path class="a" d="M141.63,187.55a7,7,0,1,0,7,7,7,7,0,0,0-7-7h0Zm0,8.94a1.95,1.95,0,0,1,0-3.89,1.95,1.95,0,1,1,0,3.89h0Z" transform="translate(-26.87 -124.81)"/><path class="a" d="M147.94,203.41a10.8,10.8,0,0,1-6.32,2,9.35,9.35,0,0,1-1.11-.06h-0.09c1.62,2.3,3.53,4.93,3.53,4.93a15.91,15.91,0,1,0-18.23-15.75c0,0.4,0,.79,0,1.19a15,15,0,0,0,.56,3.12,23.41,23.41,0,0,0,1.9,4.5,94.57,94.57,0,0,0,5.72,8.07c1,1.34,1.67,2.36,1.67,2.36a46.69,46.69,0,0,1,7.13,33.1V247a70.84,70.84,0,0,0,5.55-5.44h0c0-.69,0-1.38,0-2.08a51.34,51.34,0,0,0-7.74-27.2s-0.73-1.21-1.81-2.7c-2.15-3-5.52-7.51-6.28-8.89a15.38,15.38,0,0,1-1.39-3.52,13,13,0,0,1-.36-2.6A10.88,10.88,0,1,1,148,203.38Z" transform="translate(-26.87 -124.81)"/><path class="a" d="M154.1,220.42a28.45,28.45,0,0,1-4.58,1.75l0.07,0.23a63.24,63.24,0,0,1,2.63,14.4v0a71,71,0,0,0,4.3-6.34v-0.16a26.34,26.34,0,0,0-.89-5,30.9,30.9,0,0,0-1.54-4.91v0Z" transform="translate(-26.87 -124.81)"/><path class="a" d="M161,215.8a29.38,29.38,0,0,1-4.15,3.13V219a30.48,30.48,0,0,1,1.68,7.84V227a71.15,71.15,0,0,0,3.63-8.13V218.8a14.77,14.77,0,0,0-1.13-3h0Z" transform="translate(-26.87 -124.81)"/><path class="a" d="M68.61,130.93a33.77,33.77,0,0,0,8.55,46.25,25.48,25.48,0,0,0,5.23.2,33.37,33.37,0,0,0,5-.56,28.73,28.73,0,0,1-8.59-49.59l0.11-.11a69.92,69.92,0,0,0-10,3.49s-0.17.22-.24,0.33h0Z" transform="translate(-26.87 -124.81)"/><path class="a" d="M116.06,145.24c1.49-.78,3-1.48,4.63-2.11v-0.06a24.78,24.78,0,1,0-20.85,31.22,24.36,24.36,0,0,0,4.21-.92,34.43,34.43,0,0,0,5.55-2.36,46.65,46.65,0,0,0,8.23-5.65,37.68,37.68,0,0,1,39.71-5h0a68.32,68.32,0,0,0-4.51-7l-0.26-.06a42.74,42.74,0,0,0-35.6,6.21s-1,.69-2.31,1.77a46.76,46.76,0,0,1-7.8,5.34,29.92,29.92,0,0,1-4.9,2,21.88,21.88,0,0,1-5.46.78A19.8,19.8,0,1,1,116,145.27Z" transform="translate(-26.87 -124.81)"/><path class="a" d="M96.69,142.66a7,7,0,1,0,7,7,7,7,0,0,0-7-7h0Zm0,8.94a1.95,1.95,0,1,1,2-2,2,2,0,0,1-2,2h0Z" transform="translate(-26.87 -124.81)"/><path class="a" d="M105.57,143.33a10.9,10.9,0,0,1,2,6.32c0,0.39,0,.75-0.06,1.12v0.09c2.3-1.64,4.4-3.16,4.93-3.55h0a15.91,15.91,0,1,0-15.75,18.23c0.4,0,.79,0,1.18,0A15.49,15.49,0,0,0,101,165a23.41,23.41,0,0,0,4.5-1.9,95,95,0,0,0,8.07-5.73c1.34-1,2.34-1.65,2.34-1.65A46.42,46.42,0,0,1,141.62,148a47,47,0,0,1,7.43.59h0.1a70.47,70.47,0,0,0-5.43-5.53v0c-0.69,0-1.38,0-2.08,0a51.38,51.38,0,0,0-27.2,7.73s-1.21.75-2.72,1.82c-3,2.14-7.5,5.52-8.88,6.28a16.8,16.8,0,0,1-3.52,1.39,13,13,0,0,1-2.6.36,10.88,10.88,0,1,1,8.84-17.24Z" transform="translate(-26.87 -124.81)"/><path class="a" d="M122.58,137.17a30,30,0,0,1,1.75,4.6l0.23-.07a61.54,61.54,0,0,1,14.4-2.63h0a65.2,65.2,0,0,0-6.32-4.3h-0.17a24.93,24.93,0,0,0-5,.89,30.37,30.37,0,0,0-4.91,1.52h0Z" transform="translate(-26.87 -124.81)"/><path class="a" d="M117.94,130.32a27.68,27.68,0,0,1,3.15,4.15h0.06a29.86,29.86,0,0,1,7.86-1.68h0.14a70.85,70.85,0,0,0-8.12-3.62h-0.09a14.79,14.79,0,0,0-3,1.12Z" transform="translate(-26.87 -124.81)"/><path class="a" d="M33,222.74a33.77,33.77,0,0,0,46.25-8.55,25.48,25.48,0,0,0,.2-5.23,33.37,33.37,0,0,0-.56-5,28.73,28.73,0,0,1-49.59,8.59l-0.1-.13a67.75,67.75,0,0,0,3.48,10L33,222.74h0Z" transform="translate(-26.87 -124.81)"/><path class="a" d="M47.3,175.28c-0.78-1.49-1.48-3-2.11-4.63H45.13a24.88,24.88,0,1,0,30.3,16.62,34.43,34.43,0,0,0-2.36-5.55,47.31,47.31,0,0,0-5.65-8.23,37.65,37.65,0,0,1-5-39.69v0a68.33,68.33,0,0,0-7,4.51l-0.06.26a42.74,42.74,0,0,0,6.21,35.6s0.69,1,1.77,2.33a46.17,46.17,0,0,1,5.34,7.8,29.41,29.41,0,0,1,2,4.9,21.81,21.81,0,0,1,.78,5.46,19.8,19.8,0,1,1-24.18-19.32Z" transform="translate(-26.87 -124.81)"/><path class="a" d="M51.7,187.67a7,7,0,1,0,7,7,7,7,0,0,0-7-7h0Zm0,8.92a1.95,1.95,0,1,1,2-2,1.94,1.94,0,0,1-2,2h0Z" transform="translate(-26.87 -124.81)"/><path class="a" d="M45.39,185.77a10.8,10.8,0,0,1,6.32-2,9.59,9.59,0,0,1,1.12.06h0.09c-1.64-2.3-3.53-4.93-3.53-4.93a15.91,15.91,0,1,0,18.23,15.75c0-.4,0-0.79,0-1.18a15.49,15.49,0,0,0-.55-3.13,23.41,23.41,0,0,0-1.9-4.5,95,95,0,0,0-5.73-8.07c-1-1.34-1.65-2.36-1.65-2.36a46.69,46.69,0,0,1-7.13-33.1v-0.11a70.65,70.65,0,0,0-5.53,5.44h0c0,0.69,0,1.38,0,2.08a51.34,51.34,0,0,0,7.74,27.2s0.73,1.21,1.81,2.7c2.14,3,5.52,7.51,6.28,8.89A16.5,16.5,0,0,1,62.23,192a13,13,0,0,1,.36,2.6,10.88,10.88,0,1,1-17.23-8.84Z" transform="translate(-26.87 -124.81)"/><path class="a" d="M39.23,168.76a30,30,0,0,1,4.6-1.75l-0.07-.23a61.54,61.54,0,0,1-2.63-14.4v0a65.4,65.4,0,0,0-4.3,6.34v0.16a26.14,26.14,0,0,0,.89,5,31.43,31.43,0,0,0,1.52,4.91v0Z" transform="translate(-26.87 -124.81)"/><path class="a" d="M32.37,173.39a28.58,28.58,0,0,1,4.15-3.13v-0.07a29.86,29.86,0,0,1-1.68-7.84V162.2a68.7,68.7,0,0,0-3.62,8.12v0.07a15.05,15.05,0,0,0,1.12,3h0Z" transform="translate(-26.87 -124.81)"/><path class="b" d="M202.34,163.07s0.72-2.26,1.41-2.44,5.17-2,6-.86,0.72,5.42,1.55,6.36,0.92,1.41-.79,3.16-3.94,5-5.24,5.82a8,8,0,0,0-2.95,3.45c-0.33,1-1.38,2-1.88,3.06s-0.66,2.47-1.57,2.51-1.28-1.52-.45-3,1.93-6.84,2-8.86,0.07-4.15,1-5.36,0.88-3.85.88-3.85h0Z" transform="translate(-26.87 -124.81)"/><path class="b" d="M196.88,189.81a26.21,26.21,0,0,0,.8,4.94c0.62,2,.07,4,0.36,5.93s2.59,6.94,3.09,7.84a3.72,3.72,0,0,0,3.68,2.44c2.5,0,4.51-3.49,5.16-5.42a21.79,21.79,0,0,0,.76-5.82c0-1.13.73-1.61,0-3.2s-1.38-1.64-1.52-1.64-1.78,4.15-2.77,4.22-1.85-3.32-2.28-4.58-2-3.82-3.1-4.32-4.35-1.16-4.14-.4h0Z" transform="translate(-26.87 -124.81)"/><path class="b" d="M215.86,168.34a1,1,0,0,0,1.06.95,18.55,18.55,0,0,1,3.35,1.42c0.62,0.24.76,0.47,0.29,1.78s-2.76,6.94-4,9.38-2.18,4.32-2.95,4.8-2.33.59-.33,2.69,2.14,5.79,2.8,7.38,0.33,5.17.88,6.12,1.09,3.16,1.88,3.23,3.2-1.16,5.36-1,5.09,0.43,6.65-2.08,4.65-7.89,5.37-8.86,0.52-3.17.26-4.74,0.62-.86.47-2.24-1.24-2.49-.55-3.86,0.69-1.71-.22-3-3.85-3.65-4.58-3.75-3.39,1.45-3.78,2.07-1.31.47-.3-1.52,1.47-7.57,3-8.15a29.41,29.41,0,0,1,6.11-1.28c0.65,0,1.24-1,.88-2.18a4.48,4.48,0,0,1,.79-3.38c0.4-.47-0.91-2.95-2.57-3.46s-3.42.66-4.84-.24S229,156,227.57,156s-4.58,3-4.35,3.74a5.43,5.43,0,0,1,.36,2.63c-0.22.76-2.66,2.47-3.56,3.19s-3.2.47-4.15,2.8h0Zm3.92,19.15s1.48,2.67,2,3.92,1.06,3.4,1.87,3.36,1.87-1.91,2-2.51,0.69-.57.8-2.6,0.46-4.53.49-5.29a1,1,0,0,0-.69-1.26c-0.65-.23-1.9.23-3.3,0.11S221,185,220.8,185.71a8.31,8.31,0,0,1-1,1.78h0Z" transform="translate(-26.87 -124.81)"/><path class="b" d="M241.42,161.13s0.91,4.7,1.48,6.49a39.65,39.65,0,0,1,.56,10.36c-0.33,1.9-1.28,8.59-1.47,10.72s-1.28,8.79-1.67,11.82-0.42,2.23-.7,4.51-1.62,2.66-2.18,2.66-0.95,1.24.47,1.75,3.42-1.42,4.37-3.36,3.61-6.55,3.71-8.12,1.13-4.42,1.61-4.47,2.18,3.46,3,4.8,3.61,7.54,4.47,9.07,2.23,1.57,2.66,3,0.89,4.42,1.85,4.47,3.22-2,4.41-2,4.65-2.47,4.7-4.55-1.48-5.6-1.85-8.78-2.61-19.75-2.61-20.23-1.94-13.86-.42-18.85,1.09-6.36-.1-7a9.72,9.72,0,0,0-3.75-.56c-1-.1-2.33.85-3.89,0.8a8.15,8.15,0,0,0-4.41.91c-0.91.66-2,.62-3,1.18s-2.24,1.57-1.19,2.8,2.95,0.86,4.7.76,2.43-.66,2.61.53-1,6.06-.8,7.59,1.18,5.56-.2,5.27,0.29-2.33-2.56-3.19-2.23-1.18-2.84-3.22-0.86-4.65-2.84-6.26-4.09,1.09-4.09,1.09h0Zm8,14.42a18.18,18.18,0,0,1,0,4.28,38.07,38.07,0,0,0-.33,7.36c0.19,0.37,2.84-1.67,2.8-5.79s-1.75-6.13-2.43-5.85h0Zm-0.29,15.08a7.23,7.23,0,0,1,.88,2.14,2.94,2.94,0,0,0,.23,1.24c0.07,0.13.42-.33,0.95,0.62s2.23,3.51,2.49,3.94,1.64,2.1,1.9,2.64a7.1,7.1,0,0,0,.89,1.22c0.2,0.29.13-.69,0.42-1.35s-0.36-3.49-.36-4.05-1.18-6.94-1.18-7.44a5.74,5.74,0,0,0-.19-1.7,1.8,1.8,0,0,0-1.45-.36c-0.52.19-.69,1.21-1.31,1.21a2.91,2.91,0,0,0-1.64.1,5.78,5.78,0,0,0-1.62,1.8h0Z" transform="translate(-26.87 -124.81)"/><path class="b" d="M300.4,162.87a3.05,3.05,0,0,0,1.78,1.49c1.52,0.7,2.93,2.4,2.56,3.26a7.38,7.38,0,0,0,.79,5c0.86,1.32,1.77,2.24,1.32,3.89s-0.75,4.54-3.1,5-7.93-1.21-10.88-2.95S292,180.84,293,182a14.46,14.46,0,0,0,3.3,2.86c2,1.39,2.07,2.89,3.35,3.42a8.9,8.9,0,0,0,3.39.37s-1.7.09-.29,4.84-0.92,5.95-.92,7.23,1.34,3.68,1,6,0.46,2.64,1.45,3.59,3.48,2.4,4.18,2.11,2.93-3.15,3.39-4,2-1.57,2-2.56,1.24-2,1.24-2.82,0.42-3.3.42-4.41-1-2.73-.88-3.61a2.12,2.12,0,0,1,1.36-1.85c0.79-.17,6.08-0.55,7.77.2s1.32,1.12,1.54,2.2a19.09,19.09,0,0,0,2.47,6.15c1.65,2.73.55,4,1.57,4.64s3.19-.59,3.81-1.49,2.23,0.49,2.77-2.23-0.29-7.07-.2-9a17,17,0,0,0-.88-5.62c-0.49-1.48-.66-3.71.5-3.75s1.77,2,3.75,3.22,2.95,1.81,5.09,1.24,2.73-1.61,3.48-3.63,2.56-6,2.44-6.61-2.36-6.82-.33-9.8,3.13-7.4,4-7.73,0.55,1.32.46,2.51,0.57,4.55.7,6.25-0.79,4.47-.79,6.19-0.24,8.69-.49,10.39,0.24,5.86-.75,8.09,1.16,3.4.7,4.6-2.89,1.52-3.1,3.76a17.43,17.43,0,0,0,.17,6c0.49,2.73,1.28,2.84,1.19,3.55a5,5,0,0,0,1,2.6c0.5,0.7,2.44.34,3.81-.36s3.1-2.28,3.63-2.15a2.4,2.4,0,0,0,2.77-1.85c0.7-2,.75-6.91,1-10s0-7.51.09-10.44-0.42-7.07-.37-9.64-0.17-7.69-.09-9.41,0.33-6.41.33-7.73,0.16-3.68-.91-5.09-1.34-4.34-2.73-5.95-3-1.65-4.88-3.15-2.36-1.41-4.63-1.08-4.34,2.73-3.72,4.14,5.29,3.3,6.08,4.25,0.53,1.32.53,1.32-0.66-1.54-1.85,1.24-2.53,4.22-3.76,6.36-3.35,4.14-4.42,6.16a28.31,28.31,0,0,0-1.94,6c-0.16.75-2.18,0.86-4,1.45s-3.1.09-3.26-1.45,1.61-5.22,1.77-7.31a9.53,9.53,0,0,0-1-5.42c-0.95-2.31-1.06-3.72-2.43-4.63a17.18,17.18,0,0,0-4.42-1.91c-1.91-.78-3.81,1.74-4.09,2.73a41.43,41.43,0,0,0-.62,5.26c-0.13,1.44-1.87,2.76-2.64,4.12s-2.15,4.8-2.77,4.09-2.82-2.36-4.3-3.85-0.83-3.42-2.27-5a13.42,13.42,0,0,0-4.8-3.39,6.57,6.57,0,0,0-4.76-.62c-0.83.07-2.36,0.49-2,1.35h0ZM327.92,172s0.11,3.1.2,4.8a9.81,9.81,0,0,1-1,4.67c-0.62,1.24-2.4,2-3.22,2.77s-2.49,2-3.19.66-0.45-2.86,1.25-4.18,1.11-2.56,2.76-4.25S326,172,327.92,172h0Z" transform="translate(-26.87 -124.81)"/><path class="b" d="M413.14,155.16s0.5-4.81,2.5-4.57a4.38,4.38,0,0,1,3.43,4.31,43.1,43.1,0,0,1-4.5,11.06c-1.75,2.61-9.24,14.8-10.8,17.05s-11.06,14.24-13.68,15-3.63-.69-3.94-1.94,2.18-3.43,4.12-4.68S403.53,170.64,405,168.2s7.43-11,8.06-12.86Z" transform="translate(-26.87 -124.81)"/><path class="b" d="M419,166s4.18-1.44,5.56-1.06,6.55,0.63,7.05-1.25-0.3-2.05-1.18-3.68-5.26.06-7.63,0.19-4.12,1.49-4.44,2.56-0.24,2.63.63,3.25h0Z" transform="translate(-26.87 -124.81)"/><path class="b" d="M410.77,184.22s1.81,0.26,1.81,3a6.28,6.28,0,0,1-1.94,4.87c-0.52.26-2.79-.91-3.12,1.18s3.89,2.4,3.89,2.4-1.7,3.1-3,5-1.75,3.38-3.63,4.94-2.4,4.67-.85,6.35,3.25,0.85,4.74,1,9.73-1,11.48-2.08,4.41-3.63,5.52-3.63,3,0.33,4.28-2.73,0.65-5.9-.65-6.81-3.38-.78-4.67-2.14-1.57-2.92.45-3.82,3.25-1.49,1.18-3.25S424.46,186,423,186s-3,2.6-5.85,2c-2-.72-1.75-4.15-1.09-4.74s6.29-2.6,7-4.93-1.94-2.6-3-2.6-6.24,3.84-7.66,4.87-4.35,2.07-1.62,3.63h0Zm1,18.36s0.26,3.17.46,3.89-2,1.81-3,1.42-1-1.11-.46-2.07,2.6-2.08,2.8-3.19,0.19-.06.19-0.06h0Zm9.48-7.66a26.23,26.23,0,0,1,.78,3.56,4.49,4.49,0,0,1-.66,2.34c-0.32.32-1.29-1.55-1.16-3s0.46-2.92,1-2.92h0Z" transform="translate(-26.87 -124.81)"/><path class="b" d="M434,162.25a0.36,0.36,0,0,0,0,.13c-0.07.3-.11,1.18,0.95,2.69,1.34,1.9.73,3.38,0.69,4.32a20.7,20.7,0,0,1-.56,4.88c-0.56,2.17-.82,6.48-1.29,8.56a37,37,0,0,0-1,7.57,82.89,82.89,0,0,0,.88,12.24c0.47,2.5,2.59,8.35,5.57,10.93s8.17,2.6,10.11,2,3.94-6.67,4.07-8.3,2.6-3.33,2.47-5.8-0.6-3.85.26-3.94,7.31,8.22,10.42,8.91,5.42,1,5.42-2a25.38,25.38,0,0,0-2.56-9.08,16.16,16.16,0,0,0-6.58-4.63c-3.45-1.16-6-1-6.09-2.21a7.74,7.74,0,0,1,.52-3.53c0.43-.92,4.63-2.51,7.83-3.85s5.83-4.63,7-5.33,1.09-2.93.75-4.35-1.61-1.87-3.33-2.86-1.91-.95-3.51-0.82a3.5,3.5,0,0,0-2.86,2.11c-0.43.86,0.78,2.51,0.17,3.38a38.17,38.17,0,0,1-5.7,5.27c-1.59,1.08-3.51,2.6-3.68,1.91s1.74-4.6,2.34-6.62a53.28,53.28,0,0,0,1.85-9,67.14,67.14,0,0,0,.09-8.73c0-1.64-.3-3.63-0.91-4.2s-5.44-1.55-7.79-1.25a1.82,1.82,0,0,0-1.77,2.33c0,0.13-1.91,3.07-3.94,3.76s-4.54,3.94-6.88,4.28c0,0-2.8-.47-2.8,1.21h0ZM441.26,192a5.85,5.85,0,0,1,.26,3.72c-0.6,1.64-.09,4.5.88,4.84s2.46-1.16,3.53-2,3.94-3.76,3.94-4.55-3.19-1.94-4.54-2.28-3.23-1.42-4.07.3h0ZM443,183.4a3.33,3.33,0,0,0-1.61,2.69c0,1.81-.13,3,0.7,3.25s2.07-.57,4.71-0.47,2.93,0.3,4.37-.06,2.67-.6,3.32-2.28-1.42-.82-1.42-0.82a29.37,29.37,0,0,1-4,1c-0.78,0,.6-2.6,1.16-3.2s-2.41-.26-3.1.26-3.29.57-4.15-.34h0Zm1.85-10s1.74,1.47,2.86,1.16a2.86,2.86,0,0,0,1.81-2.46c0-.82-1-0.34-1.64-0.26s-3,.78-3,1.55h0Zm-3.51-9.81s1.87,0.73,2.21,1.72a3.22,3.22,0,0,0,1.94,2.13c0.73,0.09,2.64-1.35,3.33-1s2-.52,2-2.07,0.23-4.24,0-5.06-1-.49-1.09.3-3.1,3-4.71,3.19-3.46-.78-3.63.83h0Z" transform="translate(-26.87 -124.81)"/><path class="b" d="M516.47,147a9.5,9.5,0,0,0,2.9,4.31c2.11,1.59,7.11,4.2,8,7.3s-5,10.62-7.11,11.62,4.51,2.51,6.21,3,0,6-1.39,8.52-2.11,2.8-3.32,8S518.48,205,518,206.9s-0.5,6.71-.6,9-3.81,5.5-6.81,3.1-2.9-8.61-2.9-8.61,2.9-9.22,3.4-10-1.11-1.8-2.21-.3-5.6,6.81-8.1,6.91-3.51-1.7-2.72-5,1.41-5.4,5.62-8.82,11.22-12.92,11.31-13.71-5.2,2.2-7.7,3.4-5.42,1.7-6.12-.2-2.3-5.32-.69-8,4.8-9.41,6.71-11.82,6-10,6.71-11.41-0.8-5.42,2.6-4.41h0Z" transform="translate(-26.87 -124.81)"/><path class="b" d="M535,162.63s5.3,0.3,5.3,1.81-7.51,14.12-10,16-4.21,2.21-3.61,6,0.6,5.3,4.51,3.89,9.51-4.4,10.32-4.09,1.59,10.6,1.29,15.42-0.59,13.43-1.19,13.62-3-1-1.21,2.31,5.11,2.2,6.51.79,4.11-5.3,4.71-13.22,0.5-16.12-.6-17.93-6.11-2.4-4.7-4.4,9.21-3.51,11.91-3.4,5.22-2.72,5.22-4-5.72-3.4-8.32-3.4-3.71,2.1-5.2,3.3-15.23,6.81-16.54,6.91-0.1-2.51,3.61-5.42,7.41-8.81,10.82-9.71,6.11-4.11,5.7-6.61-7-3.91-9.61-3.61-10.42,3.61-8.91,5.7h0Z" transform="translate(-26.87 -124.81)"/><path class="c" d="M200.2,225v14.47a1.34,1.34,0,0,1-.4,1,2.68,2.68,0,0,1-1.67.32v1.25H210a11,11,0,0,0,5.8-1.38c1.82-1.13,2.76-2.46,2.79-4,0-1.93-1.09-3.42-3.29-4.44a10.46,10.46,0,0,0-2.11-.75,15,15,0,0,0,1.62-.75,3.93,3.93,0,0,0,2.7-3.69,3.79,3.79,0,0,0-2.15-3.25,10.85,10.85,0,0,0-5.67-1.38H198.13v1.25c1.08,0,1.7.13,1.84,0.37a2.28,2.28,0,0,1,.23.93h0Zm4.18,7.26h4.68a6.14,6.14,0,0,1,3.23,1,3.8,3.8,0,0,1,2,3.45,4.16,4.16,0,0,1-1.39,3.25,4.35,4.35,0,0,1-3,.85h-4a1.9,1.9,0,0,1-1.21-.32,1.25,1.25,0,0,1-.4-1v-7.21Zm0-7.26a1.2,1.2,0,0,1,.49-1,1.91,1.91,0,0,1,1.18-.34h3.59a4,4,0,0,1,2.47.88,3,3,0,0,1,1.13,2.5A3.54,3.54,0,0,1,211.9,230a4.75,4.75,0,0,1-2.83,1h-4.68v-6Zm40.44,14.67-7.1-17.23h-4.18l-6.08,17.2a1.85,1.85,0,0,1-.85.91,2.86,2.86,0,0,1-1.31.24v1.25H231v-1.25a2.15,2.15,0,0,1-1.35-.32,1.15,1.15,0,0,1-.1-0.83l1.67-4.83h7.43l2,4.86a0.78,0.78,0,0,1-.14.85,1,1,0,0,1-.85.27v1.25h7v-1.25a2.22,2.22,0,0,1-1.35-.37,3.25,3.25,0,0,1-.5-0.75h0Zm-10.2-14.51,3.46,8.43h-6.48Zm37.57,16.88V224.73a1,1,0,0,1,.32-0.78,2.75,2.75,0,0,1,1.44-.24v-1.25h-5.62v1.25a2.85,2.85,0,0,1,1.49.27,0.89,0.89,0,0,1,.3.75V236.8l-10.7-14.34h-5.93v1.25a2.94,2.94,0,0,1,1.39.24,1,1,0,0,1,.36.78V239.8a0.86,0.86,0,0,1-.36.79,3.29,3.29,0,0,1-1.39.22v1.25h5.62v-1.25a3,3,0,0,1-1.48-.22,1,1,0,0,1-.32-0.79V225.24l12.77,16.82h2.11Zm26.06-2.6-7.87-8.88,7.2-6a4.36,4.36,0,0,1,1.13-.57,3.26,3.26,0,0,1,1.42-.27h0.59v-1.25h-6.65v1.25a2.23,2.23,0,0,1,1.31.06,0.49,0.49,0,0,1,.13.79L287,231.69l-0.1.06v0l0,0V224.7a0.93,0.93,0,0,1,.27-0.69,3.15,3.15,0,0,1,1.71-.3v-1.25h-8.19v1.25a3,3,0,0,1,1.62.27,0.84,0.84,0,0,1,.4.72v15.07a0.78,0.78,0,0,1-.32.63,2.5,2.5,0,0,1-1.71.4v1.25h8.19v-1.25a2.5,2.5,0,0,1-1.67-.34,1,1,0,0,1-.32-0.69v-6.15l1-.85,6.25,6.68a2.86,2.86,0,0,0,.45.63,0.37,0.37,0,0,1-.09.53,1.81,1.81,0,0,1-.95.19h-0.89v1.25h9.17v-1.25h-0.68a3.79,3.79,0,0,1-1.48-.34,3.48,3.48,0,0,1-1.35-1h0Zm28.83-7.3a9.3,9.3,0,0,0,2.7,7.08,10.85,10.85,0,0,0,7.56,3.13,10.27,10.27,0,0,0,7.46-3,10.1,10.1,0,0,0,2.7-7.18,9.18,9.18,0,0,0-2.56-6.24,9.86,9.86,0,0,0-7.56-3.46,10.12,10.12,0,0,0-7.7,3.32,9.57,9.57,0,0,0-2.6,6.38h0Zm4.18,0a10.68,10.68,0,0,1,1.58-5.82,5.46,5.46,0,0,1,4.54-2.63c1.55,0,3,.89,4.27,2.69a9.93,9.93,0,0,1,1.67,5.76c0,2.9-.6,5.09-1.8,6.61a5.31,5.31,0,0,1-4.18,2.36,5.7,5.7,0,0,1-4.32-2.41c-1.16-1.47-1.75-3.63-1.75-6.55h0Zm25.79-6.91V239.4a1.25,1.25,0,0,1-.45,1,1.6,1.6,0,0,1-.86.37h-0.89v1.25h8.49v-1.25a2.63,2.63,0,0,1-1.71-.4,1.23,1.23,0,0,1-.4-1v-6.88h3.25a2.66,2.66,0,0,1,1.7.42c0.4,0.29.59,1.15,0.59,2.59h2.13v-7.1h-2.13a3.58,3.58,0,0,1-.53,2.38,2.63,2.63,0,0,1-1.75.49h-3.25v-6a1.54,1.54,0,0,1,.45-1.13,1.8,1.8,0,0,1,1.31-.4h6.12a3.77,3.77,0,0,1,2.07.75,5.85,5.85,0,0,1,1.85,2.93h2.1L374,222.46H354.86v1.25h0.72a1.39,1.39,0,0,1,1.16.4,1.83,1.83,0,0,1,.32,1.13h0ZM419.21,240V224.65a0.82,0.82,0,0,1,.29-0.66,1.2,1.2,0,0,1,.85-0.27h0.8v-1.25H413v1.25h0.72a1.42,1.42,0,0,1,1,.27,0.76,0.76,0,0,1,.32.66v6.51h-7.77v-6.51a1.17,1.17,0,0,1,.22-0.66,1.24,1.24,0,0,1,.91-0.27h0.86v-1.25H401v1.25h0.76a1.39,1.39,0,0,1,1,.27,0.92,0.92,0,0,1,.27.66V240a0.71,0.71,0,0,1-.32.6,2.05,2.05,0,0,1-1,.22H401v1.25h8.19v-1.25h-0.78a1.69,1.69,0,0,1-1-.22,1.07,1.07,0,0,1-.22-0.6v-7.61H415V240a0.75,0.75,0,0,1-.34.6,2,2,0,0,1-.95.22H413v1.25h8.13v-1.25h-0.68a1.72,1.72,0,0,1-.95-0.24,0.63,0.63,0,0,1-.32-0.57h0Zm14.55-5.24v-9.86a1.21,1.21,0,0,1,.32-0.86,1.56,1.56,0,0,1,.93-0.32h0.68v-1.25h-7.46v1.25h0.4a0.79,0.79,0,0,1,.68.32,1.32,1.32,0,0,1,.27.86v9.86a6.93,6.93,0,0,0,3,6.12,12.18,12.18,0,0,0,6.48,1.51,8.41,8.41,0,0,0,5.72-2,7.17,7.17,0,0,0,2.3-5.66v-9.86a1.13,1.13,0,0,1,.36-0.86,1.22,1.22,0,0,1,.89-0.32H449v-1.25h-6.06v1.25h0.68a1.48,1.48,0,0,1,.95.34,0.94,0.94,0,0,1,.39.83v9.86a6.36,6.36,0,0,1-1.74,4.71,5.73,5.73,0,0,1-4.2,1.67,5.19,5.19,0,0,1-3.69-1.44c-1-.92-1.54-2.57-1.57-4.94h0Zm39.32,7.31,3.29-4.84h-2.11a11.53,11.53,0,0,1-2.89,2.77,5.64,5.64,0,0,1-3,.82h-6.71l14.21-18.35h-16l-2.38,4.47h2.11a8.36,8.36,0,0,1,2.74-2.57,5.85,5.85,0,0,1,2.7-.65h5.62l-14.15,18.35h16.54Zm29-2.07V224.65a0.81,0.81,0,0,1,.27-0.66,1.2,1.2,0,0,1,.85-0.27H504v-1.25h-8.13v1.25h0.72a1.49,1.49,0,0,1,1,.27,0.79,0.79,0,0,1,.3.66v6.51h-7.77v-6.51a1.19,1.19,0,0,1,.23-0.66,1.2,1.2,0,0,1,.89-0.27h0.86v-1.25h-8.19v1.25h0.76a1.34,1.34,0,0,1,1,.27,0.87,0.87,0,0,1,.27.66V240a0.68,0.68,0,0,1-.32.6,2,2,0,0,1-1,.22h-0.68v1.25h8.19v-1.25h-0.76a1.69,1.69,0,0,1-1-.22,1,1,0,0,1-.23-0.6v-7.61h7.77V240a0.75,0.75,0,0,1-.34.6,2,2,0,0,1-.95.22h-0.72v1.25H504v-1.25h-0.68a1.7,1.7,0,0,1-.93-0.24,0.6,0.6,0,0,1-.32-0.57h0Zm9.19-7.83a9.3,9.3,0,0,0,2.7,7.08,10.85,10.85,0,0,0,7.56,3.13,10.27,10.27,0,0,0,7.46-3,10.1,10.1,0,0,0,2.7-7.18,9.13,9.13,0,0,0-2.57-6.24,9.81,9.81,0,0,0-7.54-3.46,10.12,10.12,0,0,0-7.7,3.32,9.57,9.57,0,0,0-2.6,6.38h0Zm4.18,0a10.79,10.79,0,0,1,1.57-5.82,5.5,5.5,0,0,1,4.55-2.63c1.55,0,3,.89,4.27,2.69a9.93,9.93,0,0,1,1.67,5.76c0,2.9-.6,5.09-1.8,6.61a5.31,5.31,0,0,1-4.18,2.36,5.7,5.7,0,0,1-4.32-2.41c-1.18-1.47-1.75-3.63-1.75-6.55h0Zm28.8,2.59v-9.86a1.26,1.26,0,0,1,.3-0.86,1.63,1.63,0,0,1,.95-0.32h0.68v-1.25h-7.46v1.25h0.4a0.83,0.83,0,0,1,.68.32,1.4,1.4,0,0,1,.26.86v9.86a6.91,6.91,0,0,0,3,6.12,12.18,12.18,0,0,0,6.48,1.51,8.44,8.44,0,0,0,5.72-2,7.16,7.16,0,0,0,2.28-5.66v-9.86a1.13,1.13,0,0,1,.36-0.86,1.28,1.28,0,0,1,.91-0.32h0.72v-1.25h-6.06v1.25h0.68a1.42,1.42,0,0,1,.93.34,0.92,0.92,0,0,1,.4.83v9.86a6.36,6.36,0,0,1-1.75,4.71,5.67,5.67,0,0,1-4.18,1.67,5.19,5.19,0,0,1-3.69-1.44c-1-.92-1.54-2.57-1.57-4.94h0Z" transform="translate(-26.87 -124.81)"/></svg>