<svg xmlns="http://www.w3.org/2000/svg" viewBox="0 0 535.88 130.96"><defs><style>.a{fill:#a98349;}.b{fill:#003e75;}</style></defs><title>Hengfeng Bank</title><polygon class="a" points="101.41 73.28 167.73 73.31 175.52 65.52 167.73 57.73 85.84 57.68 101.41 73.28 101.41 73.28"/><polygon class="a" points="125.65 15.61 110.06 0 94.46 15.59 125.65 15.61 125.65 15.61"/><polygon class="a" points="144.85 96.15 105.48 96.14 90.35 111.28 90.8 111.72 129.25 111.73 144.85 96.15 144.85 96.15"/><polygon class="a" points="90.82 19.24 75.24 34.82 144.87 34.85 129.29 19.25 90.82 19.24 90.82 19.24"/><polygon class="a" points="105.06 76.93 114.87 86.75 109.11 92.51 148.48 92.51 164.09 76.95 105.06 76.93 105.06 76.93"/><polygon class="a" points="94.44 115.35 110.02 130.96 125.63 115.37 94.44 115.35 94.44 115.35"/><polygon class="a" points="71.59 38.47 69.09 40.94 82.2 54.05 164.09 54.06 148.51 38.48 71.59 38.47 71.59 38.47"/><polygon class="b" points="60.66 44.22 85.19 19.68 65.51 0.01 0 65.44 65.49 130.96 106.42 90.05 60.66 44.22 60.66 44.22"/><path class="b" d="M262.45,225c-3,.27-3.23.5-3.23,3.77v14.81c0,3.21.29,3.43,3.22,3.73v1.35H250.72v-1.36c3.09-.28,3.33-0.52,3.33-3.77v-7.15H243.57v7.15c0,3.26.3,3.49,3.15,3.77v1.36H235.25v-1.36c2.82-.28,3.17-0.5,3.17-3.77V228.74c0-3.26-.35-3.48-3.29-3.77v-1.34h11.54V225c-2.8.28-3.1,0.51-3.1,3.76v5.67H254v-5.66c0-3.27-.28-3.5-3.12-3.77v-1.35h11.52V225h0Z" transform="translate(-27.03 -124.3)"/><path class="b" d="M285.68,242.25a65,65,0,0,1-1.35,6.38H264.74v-1.35c3.25-.26,3.65-0.49,3.65-3.74V228.77c0-3.36-.39-3.56-3.12-3.79v-1.34h18.11c0,0.69.24,3.38,0.39,5.77l-1.39.19a8.15,8.15,0,0,0-1.6-3.31c-0.62-.68-1.68-1-3.84-1h-1.83c-1.41,0-1.58.07-1.58,1.36v8.14h2.58c3.25,0,3.73-.17,4.27-2.87h1.37v7.77h-1.38c-0.53-2.79-1-3-4.26-3h-2.58v6.69c0,1.78.17,2.75,0.92,3.13a9.86,9.86,0,0,0,3.45.38c2,0,3.36-.26,4.28-1.19a15.26,15.26,0,0,0,2.14-3.79l1.34,0.26h0Z" transform="translate(-27.03 -124.3)"/><path class="b" d="M313.11,225c-2,.14-2.87.64-3.07,2.4a54.24,54.24,0,0,0-.34,6l0,15.26-2.1,0-15.71-18.76h-0.11v8.65a54.1,54.1,0,0,0,.31,6.23c0.19,1.69.84,2.42,3.67,2.53v1.34h-9.41V247.3c2.16-.16,3-0.77,3.2-2.42a43,43,0,0,0,.39-6.34v-8c0-2.5-.09-3.23-0.81-4.11s-1.58-1.23-3.17-1.4v-1.33H293l14.69,16.88h0.12l0-6.76c0-3.39-.25-5.2-0.32-6.32-0.2-1.67-1-2.3-3.79-2.48v-1.33h9.35V225h0Z" transform="translate(-27.03 -124.3)"/><path class="b" d="M339.61,238c-1.92.38-2.15,0.52-2.15,3.1v3a18.46,18.46,0,0,0,.23,3.61,36.91,36.91,0,0,1-8.77,1.42c-8.93,0-14.65-5.08-14.65-12.77,0-8.73,7.1-13.35,15.23-13.35a33.88,33.88,0,0,1,7.5,1.07c0.1,1.34.32,3.33,0.62,6.37l-1.43.26c-1-4.25-3.83-6.1-7.46-6.1-4.6,0-8.62,4.13-8.62,11.07,0,5.81,2.85,11.85,9.16,11.85a4.39,4.39,0,0,0,2.14-.47,2.15,2.15,0,0,0,.9-2.11v-3.65c0-2.7-.21-3-4.25-3.35v-1.31l11.55,0V238h0Z" transform="translate(-27.03 -124.3)"/><path class="b" d="M359.8,229.79a8.13,8.13,0,0,0-1.55-3.31c-0.79-.84-1.84-1.14-4-1.14h-1.93c-1.35,0-1.49.09-1.49,1.37v8.47H354c3.45,0,3.8-.33,4.29-2.78h1.34v7.65h-1.37c-0.43-2.61-.81-2.93-4.27-2.93h-3.1v6.09c0,3.6.29,3.83,3.64,4.09v1.35h-12V247.3c2.83-.26,3.23-0.49,3.23-4.09V229c0-3.46-.39-3.73-3.21-3.95v-1.38h18.22c0.06,0.66.23,3.61,0.43,5.82l-1.34.28h0Z" transform="translate(-27.03 -124.3)"/><path class="b" d="M383.48,242.28c-0.27,1.75-1.06,5.24-1.35,6.4l-19.61,0v-1.34c3.26-.26,3.64-0.49,3.65-3.76V228.8c0-3.35-.38-3.55-3.09-3.78v-1.33h18.1c0,0.7.23,3.37,0.38,5.77l-1.39.19a7.9,7.9,0,0,0-1.58-3.31c-0.67-.69-1.68-1-3.84-1h-1.85c-1.42,0-1.56.09-1.56,1.36v8.14h2.56c3.24,0,3.73-.16,4.28-2.87h1.38v7.75h-1.38c-0.55-2.77-1-2.94-4.28-2.94h-2.56v6.69c0,1.79.14,2.76,0.9,3.14a10.06,10.06,0,0,0,3.47.4c2,0,3.36-.27,4.25-1.21a14.53,14.53,0,0,0,2.17-3.78l1.35,0.25h0Z" transform="translate(-27.03 -124.3)"/><path class="b" d="M410.92,225c-2.08.13-2.89,0.63-3.09,2.38a53.76,53.76,0,0,0-.34,6.38v14.87h-2.13l-15.72-18.75h-0.11v8.64a51.82,51.82,0,0,0,.29,6.22c0.21,1.7.86,2.42,3.71,2.56v1.33h-9.43v-1.35c2.15-.15,3.05-0.75,3.18-2.41a44.24,44.24,0,0,0,.42-6.34v-8c0-2.49-.1-3.22-0.82-4.11s-1.58-1.24-3.19-1.4v-1.33h7.13l14.66,16.89h0.16V233.8c0-3.38-.23-5.19-0.29-6.29-0.2-1.67-1-2.32-3.84-2.47v-1.34h9.41V225h0Z" transform="translate(-27.03 -124.3)"/><path class="b" d="M437.36,238.07c-1.9.4-2.14,0.54-2.14,3.1v3.05a21.2,21.2,0,0,0,.24,3.62,37.85,37.85,0,0,1-8.76,1.41c-8.94,0-14.67-5.08-14.67-12.78,0-8.75,7.11-13.36,15.24-13.36a33.49,33.49,0,0,1,7.49,1.08c0.13,1.33.32,3.34,0.63,6.37l-1.45.27c-0.92-4.26-3.82-6.11-7.42-6.11-4.61,0-8.61,4.13-8.61,11.07,0,5.83,2.83,11.85,9.13,11.85a4.17,4.17,0,0,0,2.14-.46,2.12,2.12,0,0,0,.89-2.11v-3.67c0-2.7-.2-3-4.22-3.34v-1.3h11.52v1.3h0Z" transform="translate(-27.03 -124.3)"/><path class="a" d="M461.14,243.48c0,2.86.77,3.65,2.82,3.6s4.53-1.63,4.53-5.37c0-3.57-2.19-5.42-6.58-5.42h-0.77v7.19h0Zm0.89-8.73c3.67,0,5.35-1.47,5.35-4.66,0-3.47-2.09-4.77-4.12-4.77a2.73,2.73,0,0,0-1.77.48,2.43,2.43,0,0,0-.34,1.62v7.33H462Zm4.79,0.53c4.46,0.54,7.42,2.34,7.42,6a6.43,6.43,0,0,1-3.62,5.78,17.37,17.37,0,0,1-8.1,1.64h-9.75v-1.35c2.94-.26,3.3-0.53,3.3-3.8V228.86c0-3.27-.34-3.53-3-3.82v-1.32h11.21c3,0,4.88.37,6.36,1.32a5.15,5.15,0,0,1,2.25,4.4c0,3.66-3.23,5.16-6,5.68v0.16h0Z" transform="translate(-27.03 -124.3)"/><path class="a" d="M485.78,230.18h-0.12c-1.08,2.8-2,5.57-3,8.3h6l-2.84-8.3h0ZM489,248.7v-1.34c2.28-.37,2.45-0.82,1.85-2.48-0.4-1.17-.94-2.77-1.55-4.35H482c-0.41,1.2-.9,2.56-1.38,4.11-0.54,1.84-.48,2.35,2.37,2.72v1.34h-8.63l0-1.34c2.52-.3,3-0.72,4.29-3.95l7.86-19.78,2.08,0c2.46,6.72,4.73,13,7.23,19.57,1.31,3.37,1.8,3.89,4.2,4.2v1.35l-11,0h0Z" transform="translate(-27.03 -124.3)"/><path class="a" d="M527.82,225.07c-2.08.13-2.85,0.62-3.07,2.39a51.38,51.38,0,0,0-.35,6.4v14.86h-2.16L506.59,230h-0.13v8.64a56.12,56.12,0,0,0,.3,6.23c0.19,1.68.85,2.42,3.7,2.53v1.35H501v-1.35c2.16-.16,3-0.77,3.19-2.43a45,45,0,0,0,.37-6.34v-8c0-2.51,0-3.22-.77-4.11s-1.59-1.23-3.21-1.39v-1.33h7.11l14.7,16.88h0.15v-6.75a60.55,60.55,0,0,0-.32-6.32c-0.18-1.67-1-2.32-3.78-2.47v-1.34h9.36v1.32h0Z" transform="translate(-27.03 -124.3)"/><path class="a" d="M546.79,248.74c-1.64-2.27-4.83-6.79-7.56-10.74-0.8-1.19-1.32-1.43-1.87-1.34v6.91c0,3.27.31,3.54,3.31,3.81v1.35h-11.5v-1.35c2.76-.26,3.13-0.54,3.13-3.8V228.89c0-3.27-.35-3.54-3.21-3.82v-1.32h11.29v1.32c-2.72.28-3,.55-3,3.82v6.53a7.17,7.17,0,0,0,2.89-2,51.54,51.54,0,0,0,5.41-6.18c0.9-1.23.84-1.77-1-2l-0.71-.14v-1.32h10v1.34a9,9,0,0,0-6.09,2.71c-2.25,2.06-3.87,3.9-5.6,5.71,2.47,3.64,5.3,7.52,8.06,11,1.58,2,2.61,2.61,4.15,2.84v1.35h-7.74Z" transform="translate(-27.03 -124.3)"/><polygon class="b" points="532.28 16.8 522.74 10.93 519.16 13.72 488.33 13.72 488.33 19.83 530.18 19.83 532.28 16.8 532.28 16.8"/><path class="b" d="M553.35,154.57l-3.57,2.79H513.33v6.12h24.07v30.46c0,3-1.59,4.44-4.75,4.4l-12.7-.36v1.68A25.13,25.13,0,0,1,525,201a7.43,7.43,0,0,1,3.27,2.1,8.69,8.69,0,0,1,1.84,3.11,19.89,19.89,0,0,1,.83,3.9,48,48,0,0,0,9.28-1.31,14.44,14.44,0,0,0,5-2.34,6.73,6.73,0,0,0,2.76-3.1,12.45,12.45,0,0,0,.73-4.74l0-35.11h12l2.11-3-9.56-5.89h0Z" transform="translate(-27.03 -124.3)"/><path class="b" d="M489.93,156.5a78.87,78.87,0,0,0,6.49-5.07,67.26,67.26,0,0,0,5.68-5.57,79.49,79.49,0,0,0,5.11-6.47l3.48-3-13-5.05a46.65,46.65,0,0,1-2.26,6.61c-1,2.38-2.17,4.84-3.58,7.41s-2.94,4.83-4.61,7.48-3.17,4.24-5,6.76l1.2,1a68,68,0,0,0,6.47-4.19h0Z" transform="translate(-27.03 -124.3)"/><path class="b" d="M497.77,155.75q-2.12,4.12-4.93,8.73a101.76,101.76,0,0,1-6.32,8.89,80.43,80.43,0,0,1-6.19,7.3l1.43,1.23c2.06-1.23,3.07-1.9,4.95-3.15s4.4-3,6.27-4.31v35.63h1.24l4.21-.21c0.85-.11,1.57-0.2,2.23-0.31a3.51,3.51,0,0,0,2.1-1,3.69,3.69,0,0,0,.63-2.32V172.49l1.86-2.41-5.47-1.34c3.51-3.22,6.49-7.36,9.7-11.29l3.21-2.82-12-5.7a50.17,50.17,0,0,1-3,6.82h0Z" transform="translate(-27.03 -124.3)"/><polygon class="b" points="279.32 16.49 269.77 10.6 266.18 13.39 227 13.39 227 19.51 277.22 19.51 279.32 16.49 279.32 16.49"/><polygon class="b" points="267.5 75.4 223.68 75.4 223.68 81.51 278.54 81.51 280.63 78.49 271.09 72.6 267.5 75.4 267.5 75.4"/><path class="b" d="M289.15,166.75H267.58V156.07h21.57v10.68h0Zm0,17.71H267.58V172.85h21.57v11.61h0ZM302,151.84l-9.17-5.3-2.64,3.39H267.44v-1.71l-10.09-.93v47.43c1,0,1.64-.15,3.14-0.33s3-.38,4.42-0.66a4,4,0,0,0,2-.8,2.39,2.39,0,0,0,.61-1.88v-0.41h21.55v4.18c1.52-.07,3-0.18,4.39-0.35s2.75-.37,4.12-0.67a2.73,2.73,0,0,0,1.6-.83,2.52,2.52,0,0,0,.38-1.71l0-35.12,0,1.54V155.2l2.4-3.36h0Z" transform="translate(-27.03 -124.3)"/><path class="b" d="M229.81,145.93s-3.53,21-5.69,23.71l8.76,3.74s3.72-14-.64-27.25l-2.43-.2h0Z" transform="translate(-27.03 -124.3)"/><path class="b" d="M247.7,146.12l-2,1.13v-10.7l1.8-2.27-12.11-2.94v78.75c1.18,0,3.17,0,4.58-.15a21.18,21.18,0,0,0,3.62-.48,2.45,2.45,0,0,0,1.65-.87,3.24,3.24,0,0,0,.48-1.92V152.88L249.26,167l7-4.66c-1.7-8.25-8.55-16.17-8.55-16.17h0Z" transform="translate(-27.03 -124.3)"/><path class="b" d="M376.19,182.42H353.81c0-1.18,0-1.91,0-3V168.87h25.57l-0.05,0,0.08,0,2.08-3-9.29-5.71-3.55,2.76-0.21-.12H353.78v-12.9h27.74l2.07-3L374.18,141l-3.48,2.67H353.78v-6.89l1.75-2.13L342,131.35v12.36H315v0h-0.06v6.12H342v12.9h-25v6.12h25v13.56H311.46v6.11H342v21.54A45.38,45.38,0,0,0,352,209c1.53-.35,2.22-1.17,2.1-2.44q-0.08-3.77-.14-8.37c0-2.8-.06-6-0.12-9.67h32.82l-0.13-.06h0.16l2-2.95-9.33-5.76-3.19,2.62h0Z" transform="translate(-27.03 -124.3)"/><path class="b" d="M456.38,181.85a28,28,0,0,1-4.58-11.26h6.6v1.5c1.5-.06,2.93-0.17,4.32-0.35,0.68-.07,1.32-0.21,2-0.31-0.68,1.14-1.47,2.29-2.37,3.51-1.33,1.76-2.82,3.55-4.46,5.36-0.49.53-1,1-1.47,1.54h0ZM441,194.34V170.59H445a49.38,49.38,0,0,0,6.62,20.69L441,194.34h0Zm0-37.75h17.35v7.73H441v-7.73h0ZM441,143h17.35v7.38H441V143h0Zm28.27,50.31-1.73-1a37.83,37.83,0,0,1-7.55-6,50.39,50.39,0,0,0,5.45-3.27,60.88,60.88,0,0,0,5.4-4.23l3.32-1.68-7.26-6.05a2.51,2.51,0,0,0,1.48-.8,2.45,2.45,0,0,0,.39-1.7V143l3-4.27-10.36-5.91-3,3.92H441.21l0-1.57-10.6-1,0,57.45a7,7,0,0,1-.83,3.53,5.5,5.5,0,0,1-2.86,2.19l6.7,12.93,2.16-2.71,13.19-10.73c1.21-1.1,2.49-2.3,3.86-3.6a56.26,56.26,0,0,0,15.25,16,34.62,34.62,0,0,1,4.56-7.46,16.92,16.92,0,0,1,5.08-4.14v-1.66a21.54,21.54,0,0,1-8.37-2.55h0Z" transform="translate(-27.03 -124.3)"/><path class="b" d="M428.8,190.35l-0.74-1.16-10.72,4.14V178.88H428l1.86-3.05-7.51-5.13-2.86,2.15h-2.1V162h8.57l1.71-3-7.45-5.07-2.51,2H405c0.37-.51.69-1,1-1.47,0.21-.3.39-0.59,0.58-0.88,1.94-3.09,2.95-5.15,2.95-5.15h18l0,0h0.25l1.57-2.89-7.45-5.08-2.43,1.87h-7.36c0.73-2,1.43-4.08,2-5.51l1.85-2.43-12.38-3a58.79,58.79,0,0,1-1.1,8.19q-0.86,4.47-2.22,9.3c-0.93,3.25-2,6.52-3.22,9.91a50.76,50.76,0,0,1-3.69,8.15L394.6,168a66.71,66.71,0,0,0,7.63-8.32V162h4.89V172.9h-7.4v6h7.4v15.29a5,5,0,0,1-.66,2.75c-0.42.66-3.2,1.28-4.23,1.84l6.87,10.8,1.65-2.76,9.55-8.46c1.56-1.44,2.81-2.63,4.32-4a42.89,42.89,0,0,0,4.17-4h0Z" transform="translate(-27.03 -124.3)"/></svg>