<svg xmlns="http://www.w3.org/2000/svg" viewBox="0 0 536.97 170.23"><defs><style>.a{fill:#48b3c7;}.a,.b,.c{fill-rule:evenodd;}.b{fill:#f0c81e;}.c,.d{fill:#221814;}</style></defs><title>TZB</title><path class="a" d="M66,181V163a8.93,8.93,0,0,0-2.83-6.6L50.57,144.25a2.23,2.23,0,0,1,0-2.93l12.57-12.15a9.17,9.17,0,0,0,2.83-6.7v-18c-21.79,0-39.49,17.18-39.49,38.34S44.18,181,66,181h0ZM80,184L67.54,196.1a2.37,2.37,0,0,1-3,0L51.93,184a9.58,9.58,0,0,0-6.81-2.83H26.47c0,21.16,17.7,38.34,39.49,38.34s39.49-17.18,39.49-38.34H86.92A9.65,9.65,0,0,0,80,184h0Zm39.6-44a9.65,9.65,0,0,0,6.91,2.83h18.54c0-21.16-17.6-38.34-39.49-38.34s-39.49,17.18-39.49,38.34H84.72a10,10,0,0,0,6.81-2.72L104.1,127.8a2.37,2.37,0,0,1,3,0Zm-14,2.93v18a9.34,9.34,0,0,0,2.83,6.6L121,179.66a2,2,0,0,1,0,2.93l-12.57,12.15a9.79,9.79,0,0,0-2.83,6.7v18c21.89,0,39.49-17.18,39.49-38.34s-17.6-38.24-39.49-38.24h0Z" transform="translate(-26.47 -104.44)"/><path class="b" d="M90.48,172.53a6.08,6.08,0,0,0,6.18-6v-9.22a6.08,6.08,0,0,0-6.18-6H81a6.15,6.15,0,0,0-6.18,6v9.22a6.15,6.15,0,0,0,6.18,6h9.43Z" transform="translate(-26.47 -104.44)"/><path class="c" d="M182,236.43c2.41,0.63,3.77,1.15,3.88,1.47a0.76,0.76,0,0,1-.52.52,12.46,12.46,0,0,0-2.1,2H188a32.43,32.43,0,0,0,5-.21,0.38,0.38,0,0,1,.31-0.1v3.14H193a36.09,36.09,0,0,0-4.82-.31h-0.52c0.73,1.89,1.15,3,1.36,3.67l-3.25.21a13,13,0,0,0-1.36-3.88h-2.72a1.65,1.65,0,0,1-.52.63,21.77,21.77,0,0,1-2.83,3.35c-0.31.31-.63,0.73-1.15,1.26l-3.35-1.68A22.42,22.42,0,0,0,182,236.43h0Zm-4.19,15.4c2.51,0.1,4,.31,4.19.73a1.77,1.77,0,0,1-.21.52,8.15,8.15,0,0,0-.52,2.93v10.37c0.1,3.67.1,5.66,0.31,5.87v0.31h-3.88a34.84,34.84,0,0,0,.31-6V255.81a25.89,25.89,0,0,0-.21-4h0Zm6.18-4.61a39.49,39.49,0,0,1,3,5l-3.14,1.26a23.08,23.08,0,0,0-2.93-5.13Zm15.92,10.37V263a15.94,15.94,0,0,0,.31,4.4h-0.1a23.14,23.14,0,0,0-4.09-.31h-6.6a16,16,0,0,0-3.88.31,16.75,16.75,0,0,0,.31-3.77V257.8a18.54,18.54,0,0,0-.31-4.19,19.19,19.19,0,0,0,4.19.31h6.39a26.59,26.59,0,0,0,4.09-.21,21.49,21.49,0,0,0-.31,3.88h0Zm8.69-9.32a17.45,17.45,0,0,0-.31,4.09V268.8c0,1.57-.42,2.62-1.26,3s-2.83.84-6.08,1.15a9.44,9.44,0,0,0-1.36-4.19c1.89,0.52,3.25.63,4,.31s1.15-.84,1.15-1.89V251H193.87a43.83,43.83,0,0,0-5.34.21,4.54,4.54,0,0,0-.52.1V248h0.52a23.57,23.57,0,0,0,5.34.31h10.06a36.84,36.84,0,0,0,4.29-.21c0.21-.1.31,0,0.42,0.21h0Zm-19.69,8.07v3.14h7.86v-3.14h-7.86Zm0.1,5.24v3.25h7.75v-3.25h-7.75Zm8.8-25.35c2.51,0.52,3.88.94,4,1.26a1,1,0,0,1-.31.52,7.47,7.47,0,0,0-2.1,2.3h6.08a36.13,36.13,0,0,0,5.34-.21,0.46,0.46,0,0,0,.31-0.1v3.25a0.81,0.81,0,0,1-.31-0.1,38.23,38.23,0,0,0-5.45-.21H204q0.47,1.1.94,2.51c0.21,0.52.42,0.94,0.52,1.26l-3.35.42a14.37,14.37,0,0,0-1.36-4.19h-2.62a44.85,44.85,0,0,1-3.35,4.5l-3.25-.94c2.62-2,4.71-5.45,6.29-10.27h0Z" transform="translate(-26.47 -104.44)"/><path class="c" d="M242.48,236.54c3,0.42,4.5.94,4.5,1.47a0.9,0.9,0,0,1-.63.63c-0.73.21-2.1,1.68-4.09,4.61h3.67a23.24,23.24,0,0,0,4.29-.31,4.65,4.65,0,0,0-.21,1.36,19.46,19.46,0,0,0-.1,2.72v8.38a13.58,13.58,0,0,0,.31,3.56c-0.73,0-2.3-.1-4.71-0.1h-7.33v3.46h8.07c4.82-.1,7.44-0.21,8-0.42h0.42v3.67h-0.42c-0.73-.31-3.25-0.42-7.65-0.52h-8.38v2.72a25.19,25.19,0,0,0,.21,4.19v0.42h-3.77a2.13,2.13,0,0,0,.1-0.52c0.21-.21.31-1.57,0.31-4V265h-8.59c-4.4.1-6.81,0.21-7.23,0.42a2.38,2.38,0,0,0-.42.1V262h0.31a67.35,67.35,0,0,0,7.23.31H235v-3.46h-7.75a15.25,15.25,0,0,0-4,.31,24.5,24.5,0,0,0,.31-4.71v-7.33a26,26,0,0,0-.21-4.19,25.33,25.33,0,0,0,4.4.31h3.56a22.6,22.6,0,0,0-4-5.13l2.93-1.36a18.08,18.08,0,0,1,4.29,4.82l-3,1.68h7.54a30.69,30.69,0,0,0,3.35-6.7h0ZM235,249.84v-4.19h-8.28v4.19H235Zm-8.28,2.3v4.09H235v-4.09h-8.28Zm11.42-6.49v4.19h8.49v-4.19h-8.49Zm0,6.49v4.09h8.49v-4.09h-8.49Z" transform="translate(-26.47 -104.44)"/><path class="c" d="M374.47,244.81a7.86,7.86,0,0,1,1.26.1c1.68,0.1,2.62.21,2.62,0.21v0.52c-0.31.52-.73,4.19-1.47,10.79a19.2,19.2,0,0,0-3.88-.31,34.76,34.76,0,0,0,1.47-11.31h0Zm4.92-8.17c2.93,0,4.5.1,4.61,0.42a0.81,0.81,0,0,1-.1.31,7.6,7.6,0,0,0-.84,4.19v25.66a27,27,0,0,0,.31,5.45h-4a18.05,18.05,0,0,0,.31-5.45V241.88a28,28,0,0,0-.31-5.24h0Zm15.4-.31c3,0,4.61.21,4.71,0.42a4.93,4.93,0,0,1-.21.52,2.5,2.5,0,0,0-.63,1.47c0,1-.1,2.62-0.1,4.5h4.82a33.72,33.72,0,0,0,4.5-.31,112.61,112.61,0,0,0-.94,11.84,20.08,20.08,0,0,0,4.09-.31V258a22.22,22.22,0,0,0-4.4-.31h-6.18c1.57,5.87,5.13,9.64,10.79,11.21a10.79,10.79,0,0,0-3.56,3.67,21.27,21.27,0,0,1-10.06-15.19,21.85,21.85,0,0,1-10.37,15.29,7.76,7.76,0,0,0-3.88-2.72c5.66-1.57,9.22-5.66,10.89-12.26h-2.41a38.56,38.56,0,0,0-5.34.31v-3.56a38.56,38.56,0,0,0,5.34.31h2.83c0.21-2.51.42-5.34,0.52-8.59H394a25.58,25.58,0,0,0-4.92.31v-3.25a31.39,31.39,0,0,0,4.92.31h1.26a34.05,34.05,0,0,0-.42-7.23h0Zm-8.38,7.86a34.07,34.07,0,0,1,3.46,6.49l-3.56,1.57a19.48,19.48,0,0,0-2.93-6.81Zm17.49,2h-5.45v0.73q-0.31,4.71-.63,7.86h5.66c0.1-1.78.21-3.67,0.31-5.55,0-1.26.1-2.2,0.1-3h0Z" transform="translate(-26.47 -104.44)"/><path class="c" d="M425.9,236.43c2.93,0,4.5.21,4.61,0.52a1.13,1.13,0,0,1-.31.73,5,5,0,0,0-.73,2.2c-0.21,1.36-.31,3-0.42,5a41,41,0,0,0,4.4-.1v2.93c-0.84-.1-2.3-0.1-4.4-0.1v6.81a1,1,0,0,0,.52-0.31,31.61,31.61,0,0,0,3.25-1.57,10.22,10.22,0,0,0,.21,3.56,18,18,0,0,0-4,1.36v11.63c-0.63,2-2.72,3.14-6.39,3.56a9.77,9.77,0,0,0-1.57-4.09,7.75,7.75,0,0,0,3.46.21c1-.31,1.57-0.73,1.57-1.36v-9c-2.62,1.15-4.61,2.1-5.76,2.72a13.28,13.28,0,0,0-.73-3.77,40.9,40.9,0,0,0,6.49-1.89v-7.75h-1.47a24.45,24.45,0,0,0-4.29.1v-2.93c0.63,0,2.1.1,4.29,0.1h1.57c-0.1-3.88-.1-6.7-0.31-8.59h0Zm16.76,0a19,19,0,0,1,4.19.42c0.1,0.1,0,.1-0.1.31a10.21,10.21,0,0,0-.52,1.15c-0.1.94-.21,1.57-0.21,2.1h6.29c2.1,0,3.67,0,4.71-.1v2.83a8,8,0,0,0-1.78-.1,22,22,0,0,0-2.93-.1H446v2.93h5.24c0.73,0,1.26-.1,1.68-0.1a4.32,4.32,0,0,0,1.26-.1,19.4,19.4,0,0,0-.1,2.62v2.62a23.47,23.47,0,0,0,3.77-.21v3a29.89,29.89,0,0,0-3.77-.1v2.51a17.1,17.1,0,0,0,.1,2.62c-0.31,0-.73-0.1-1.15-0.1h-7v3.25h4.71a30.44,30.44,0,0,0,4.19-.31v2.93c-0.84-.1-2.2-0.1-4.19-0.1H446v4.19a27,27,0,0,0,5.45.21,44.2,44.2,0,0,0,6-.42,7.93,7.93,0,0,0-2,3.88c-6.29.1-10.79-.42-13.41-1.47a11,11,0,0,1-5.34-4.82,33.94,33.94,0,0,1-4,6.49,6.63,6.63,0,0,0-3.25-1.47c2.93-2.51,5-6.08,6.39-10.69a16.21,16.21,0,0,1,3.77,1.26,1.47,1.47,0,0,1-.42.42,4.18,4.18,0,0,1-.42.31,2.14,2.14,0,0,0-.52.94l-0.1.1a8.7,8.7,0,0,0,4.82,4.82v-9.53h-6.7c-0.73,0-1.36.1-1.78,0.1v-2.93a31.32,31.32,0,0,0,4.71.31H443v-2.51h-4.71a26.84,26.84,0,0,0-4.5.21v-2.93a8,8,0,0,0,1.68.1H443v-2.62H436.9c-0.84,0-1.47.1-2,.1v-2.83a10.18,10.18,0,0,0,1.89.1,5.54,5.54,0,0,1,1.26.1H443v-2.93h-4.4a27.67,27.67,0,0,0-4.71.31v-2.93c0.42,0,1.15.1,1.89,0.1H443a13.14,13.14,0,0,0-.31-4h0ZM451.15,251v-2.62H446V251h5.13ZM446,253.61v2.51h5v-2.51h-5Z" transform="translate(-26.47 -104.44)"/><path class="c" d="M273.69,242.93a1,1,0,0,1,.42.1,56.29,56.29,0,0,0,6.6.31h21.37a58.59,58.59,0,0,0,7.33-.42h0.52v3.77a1.83,1.83,0,0,1-.52-0.1c-0.73,0-3.14-.1-7-0.1H289.93c-0.1,1.89-.21,3.67-0.31,5.24h9.74l5.13-.31a36.41,36.41,0,0,0-.52,3.77c-0.84,8.28-1.47,13-2,14.14-0.63,1.89-3.25,2.83-7.86,3a8.33,8.33,0,0,0-1.89-4.61,24.66,24.66,0,0,0,4.5.42,1.76,1.76,0,0,0,1.68-1q0.94-1.89,1.89-12.26h-11c-0.94,7.44-4.92,13.41-12,17.91a10.41,10.41,0,0,0-3.88-2.62c8.9-2.93,13.2-10.79,12.88-23.67h-5.45c-3.25,0-5.45.1-6.39,0.21a3.72,3.72,0,0,0-.73.1v-3.88Zm18.75-6.6a43.17,43.17,0,0,1,2.1,5.34l-3.88,1.15a20.3,20.3,0,0,0-2.1-5.34Z" transform="translate(-26.47 -104.44)"/><path class="c" d="M322,236.54q4.56,1.1,4.4,1.57a1.49,1.49,0,0,1-.21.42A7.71,7.71,0,0,0,325,240.2c-0.42.84-.94,2-1.57,3.56-0.31.73-.52,1.26-0.63,1.47v20.32a59,59,0,0,0,.21,6.6,0.46,0.46,0,0,0,.1.31h-4v-0.63c0.1-.63.21-2.72,0.31-6.18V252.25a59,59,0,0,1-3.25,5.55l-2.51-2.72c3.88-4.61,6.6-10.79,8.28-18.54h0Zm4.5,2.62a1.14,1.14,0,0,1,.52.1q1.1,0.16,5.34.31h11.84c3.77-.1,5.76-0.21,6.18-0.42a0.46,0.46,0,0,0,.31-0.1v3.67h-0.42a28.35,28.35,0,0,0-6.18-.42h-4.61v3.14h4.92a20.33,20.33,0,0,0,4.29-.31,22.86,22.86,0,0,0-.21,4.09v6.91a28.1,28.1,0,0,0,.21,3.56,23.12,23.12,0,0,0-3.88-.21h-5.45a17.12,17.12,0,0,1-2.41,6.08,43.18,43.18,0,0,0,14.25,2.93,10.53,10.53,0,0,0-2.51,4.09c-5.87-1.26-10.37-2.83-13.72-4.82a38,38,0,0,1-8.59,4.82,21.55,21.55,0,0,0-3.14-3,18,18,0,0,0,9-3.46q-2.2-1.73-4.4-3.77l3.14-1.68a19.47,19.47,0,0,0,3.35,3.25,12.5,12.5,0,0,0,1.89-4.4h-4.71a19,19,0,0,0-4.29.31,18.27,18.27,0,0,0,.31-4v-6.49a19.19,19.19,0,0,0-.31-4.19,19.75,19.75,0,0,0,4.61.42h4.71V242.3h-4.19a43.84,43.84,0,0,0-5.34.21,4.54,4.54,0,0,0-.52.1v-3.46Zm4.09,8.69v3.46h6v-3.46h-6Zm0,5.45V257h6V253.3h-6Zm8.9-5.45v3.46h6v-3.46h-6Zm0,5.55V257h6V253.4h-6Z" transform="translate(-26.47 -104.44)"/><path class="a" d="M63.87,234.44H26.47v4.4H40.2v33.73a2.13,2.13,0,0,0,2.2,2.1h5.55a2.13,2.13,0,0,0,2.2-2.1V238.84H63.87v-4.4Z" transform="translate(-26.47 -104.44)"/><path class="a" d="M99.91,240.94a3.74,3.74,0,0,0,.84-2.41,4.14,4.14,0,0,0-4.29-4.09H68.16v4.4H90.06L65.23,269.33a3.22,3.22,0,0,0-.63,2,3.4,3.4,0,0,0,3.46,3.35h32.47v-4.4H76Z" transform="translate(-26.47 -104.44)"/><path class="a" d="M135.84,253.51c3.77-1.78,5.45-5.45,5.45-9.32s-3.14-9.74-12.36-9.74H108.18a3.24,3.24,0,0,0-3.35,2.93v33.94a3.38,3.38,0,0,0,3.35,3.35h22.1c9.22,0,12.47-6.6,12.47-11,0-4.92-2.2-8.38-6.91-10.16h0ZM117.4,238h7c3.88,0,7.33,2.62,7.33,6.49,0,4.92-3.77,7.23-7.54,7.23h-9.32V240.52A2.62,2.62,0,0,1,117.4,238h0Zm15.82,25.77c0,4.4-4,7.33-7.86,7.33h-8a2.64,2.64,0,0,1-2.51-2.62V256.23h10.37c3.77,0,8,2.51,8,7.54h0Z" transform="translate(-26.47 -104.44)"/><path class="c" d="M295.27,121.1H284.59a2.77,2.77,0,0,0-2.72,2.72v24.93h-4.29a2.8,2.8,0,0,0-2.83,2.72v10.79a2.71,2.71,0,0,0,2.83,2.62h4.29v12.36h0c0,15.5-3.14,20.53-12.78,20.53v6.7h8.28c10.16,0,20.64-3,20.64-26.92h0V123.82a2.7,2.7,0,0,0-2.72-2.72h0Zm28.91,3H313.61a2.7,2.7,0,0,0-2.72,2.72v21.89h-4.61a2.7,2.7,0,0,0-2.72,2.72v10.79a2.62,2.62,0,0,0,2.72,2.62h4.61v33.94a2.68,2.68,0,0,0,2.72,2.62h10.58a2.68,2.68,0,0,0,2.72-2.62v-72a2.7,2.7,0,0,0-2.72-2.72h0Zm29.12-3H342.73a2.77,2.77,0,0,0-2.72,2.72v24.93h-4.61a2.8,2.8,0,0,0-2.83,2.72v10.79a2.71,2.71,0,0,0,2.83,2.62H340v37a2.68,2.68,0,0,0,2.72,2.62h10.89a2.43,2.43,0,0,0,2.41-2.62v-78a2.77,2.77,0,0,0-2.72-2.72h0Z" transform="translate(-26.47 -104.44)"/><path class="c" d="M259.13,156.61a2.08,2.08,0,0,0,2.1-2,2.2,2.2,0,0,0-.42-1.15l-16.76-22a6.8,6.8,0,0,0-5.34-2.62H222.57a1.39,1.39,0,0,0-1.36,1.36,1,1,0,0,0,.31.73L236,150H194l21.89-28.49a1,1,0,0,0,.31-0.73,1.39,1.39,0,0,0-1.36-1.36H198.69a6.65,6.65,0,0,0-5.34,2.62l-24.09,31.43a1.58,1.58,0,0,0-.42,1.15,2.06,2.06,0,0,0,2,2h88.31Z" transform="translate(-26.47 -104.44)"/><path class="c" d="M236.82,162.69H185.39a7.16,7.16,0,0,0-7.33,7v26.92a7.16,7.16,0,0,0,7.33,7h51.43a20.48,20.48,0,0,0,0-41h0ZM225.3,196.63h-24a4.43,4.43,0,0,1-4.4-4.4V174.1a4.5,4.5,0,0,1,4.4-4.4h24a13.46,13.46,0,0,1,0,26.92h0Z" transform="translate(-26.47 -104.44)"/><rect class="d" x="481.77" y="20.22" width="53.22" height="8.28"/><path class="c" d="M506.88,141a1,1,0,0,0,.31-0.73,1.39,1.39,0,0,0-1.36-1.36H493.05l12.78-17.28a1.13,1.13,0,0,0,.31-0.73,1.39,1.39,0,0,0-1.36-1.36h-9.22a6.79,6.79,0,0,0-5.45,2.72l-15,20.11a1.51,1.51,0,0,0-.21.73,1.3,1.3,0,0,0,1.36,1.26H489l-17.39,23.36a1.13,1.13,0,0,0-.31.73,1.39,1.39,0,0,0,1.36,1.36h11.94v32.05a2.68,2.68,0,0,0,2.72,2.62h9.32a2.68,2.68,0,0,0,2.72-2.62V166.14a2.68,2.68,0,0,0-2.72-2.62h-6.49Z" transform="translate(-26.47 -104.44)"/><path class="c" d="M507.4,147v8.38H535v32.16a11,11,0,0,1-11.1,10.79h-7.54v6.18h19.9a15,15,0,0,0,15.29-14.77V155.35h11.94V147h-56Z" transform="translate(-26.47 -104.44)"/><path class="c" d="M438.89,147.29v-8a3,3,0,0,0-3-2.93h-8.28a3,3,0,0,0-3,2.93v8a3,3,0,0,0,3,2.93h8.28a3,3,0,0,0,3-2.93h0Z" transform="translate(-26.47 -104.44)"/><path class="c" d="M461.62,203.23a1.19,1.19,0,0,0-.31-0.84l-18.65-22.63H457v-6.7H422.86a1.3,1.3,0,0,0-1.36,1.26,1.39,1.39,0,0,0,.31.84l20.64,26.71a6.65,6.65,0,0,0,5.34,2.62h12.47a1.3,1.3,0,0,0,1.36-1.26h0Z" transform="translate(-26.47 -104.44)"/><path class="c" d="M459.53,143.31c0-16-9.22-21.89-22.21-21.89H410.61a5.7,5.7,0,0,0-5.76,5.55v4.5H393.43l6.81-9.85a1.94,1.94,0,0,0,.21-0.73,1.39,1.39,0,0,0-1.36-1.36H388.82a6.88,6.88,0,0,0-5.55,2.93l-13.93,20.11a1,1,0,0,0-.31.73,1.46,1.46,0,0,0,1.36,1.36h10.27a7.08,7.08,0,0,0,5.66-2.93h0l2.41-3.46h16.13v60.65a5.7,5.7,0,0,0,5.76,5.55h23.78V198.3H421.92a2.8,2.8,0,0,1-2.83-2.72V165.2h18.23c13,0,22.21-5.87,22.21-21.89h0Zm-85.69,11.84H380v12.47h-6.18v6.81H380v24.51a5.73,5.73,0,0,0,5.87,5.55h14.46V198.3h-3a3,3,0,0,1-2.93-2.72V174.42h6.29v-6.81h-6.29V155.14h6.29v-6.81H373.84v6.81Zm72.28-11.84c0,8-4.61,15.71-11.94,15.71H419.09v-28.6a2.82,2.82,0,0,1,2.83-2.83h12.26c7.33,0,11.94,7.75,11.94,15.71h0Z" transform="translate(-26.47 -104.44)"/></svg>