<svg xmlns="http://www.w3.org/2000/svg" viewBox="0 0 536.97 69.08"><defs><style>.a,.c{fill:#ba1b21;}.a,.d{fill-rule:evenodd;}.b,.d{fill:#221814;}</style></defs><title>ICBC</title><path class="a" d="M200.71,178.39v-5.31H183.48V189h10.58v5.27H183.48v15.94h17.24v-5.31H188.79V199.6h10.58V183.66H188.79v-5.27h11.92Zm-33.27,13.31h0A34.54,34.54,0,1,1,202,226.21a34.54,34.54,0,0,1-34.52-34.52h0Zm5.36,0h0A29.18,29.18,0,1,1,202,220.86a29.19,29.19,0,0,1-29.16-29.16h0ZM203.39,205h0v5.27h17.24v-15.9H210V189h10.63V173.07H203.39v5.31h11.92v5.31H204.69v15.94h10.63V205H203.39Z" transform="translate(-26.47 -157.13)"/><path class="b" d="M98.15,210.19c4.45,0,7.82-1.08,10-3.2a9.62,9.62,0,0,0,2.72-7c0-4.32-1.81-7.34-5.4-8.94l-0.17,0,0.17-.09c1.6-.82,3.76-2.59,3.76-7.69a9.61,9.61,0,0,0-3-7.17,13.24,13.24,0,0,0-9-3H77.71v37.16H98.15ZM84.8,187.63h0V179.9H96.55c2.07,0,5.57,0,5.57,4.06a3.19,3.19,0,0,1-1.94,3.15,8.47,8.47,0,0,1-3.59.6H84.8v-0.09Zm0,6.91h0v-0.09H97.67a7.6,7.6,0,0,1,4.19,1.08,4,4,0,0,1,1.9,3.63,4.16,4.16,0,0,1-1,2.94c-1.25,1.25-3.46,1.25-5.05,1.25h-13v-0.09Z" transform="translate(-26.47 -157.13)"/><rect class="b" y="15.9" width="7.43" height="37.16"/><path class="b" d="M39.91,191.31a20,20,0,0,0,1.86,9.07,15.91,15.91,0,0,0,4.67,5.53c3.28,2.64,7.95,4,13.87,4H70.41v-7H60.86c-5.36,0-9.2-1.34-11.49-3.93a11.06,11.06,0,0,1-2.51-7.39c0-3.33.91-5.92,2.77-7.78,2.33-2.33,6.09-3.54,11.23-3.54h9.55v-6.91H60.65a30.57,30.57,0,0,0-8.47,1,15.44,15.44,0,0,0-6,3,17.93,17.93,0,0,0-6.26,14h0Z" transform="translate(-26.47 -157.13)"/><path class="b" d="M115.34,191.31a22.08,22.08,0,0,0,1.86,9.42,15.94,15.94,0,0,0,4.62,5.83c3.11,2.51,7.52,3.63,13.87,3.63h10.71v-7H136.25c-5.31,0-9.16-1.38-11.49-4.1a11.4,11.4,0,0,1-2.46-7.52q-0.06-5.12,2.85-8c2.33-2.33,6-3.54,11.1-3.54h10.15v-7H136a30.13,30.13,0,0,0-8.42,1,15.15,15.15,0,0,0-6,3,18.33,18.33,0,0,0-6.26,14.21h0Z" transform="translate(-26.47 -157.13)"/><rect class="c" x="233.42" y="61.91" width="303.55" height="1.64"/><rect class="b" x="514.98" y="13.13" width="20.74" height="6.31"/><polygon class="b" points="364.2 18.84 378.11 18.84 378.11 12.18 342.08 12.18 342.08 18.79 356.29 18.79 356.29 43.59 341.04 43.59 341.04 50.38 379.41 50.38 379.41 43.59 364.2 43.59 364.2 18.84"/><path class="d" d="M317,209.23h5.92v-1.81h25.53v1.81h6v-41.3H317v41.3Zm6-35.56h25.23v28.08H323.06V173.68Zm21.56,21.17h0l2.51-2.07a39.51,39.51,0,0,0-3.76-4.15l1.68,0v-4.8h-6.61v-3.2H346v-4.62H325.26v4.54h7.6v3.2h-6.61v4.88h6.61v6.26h-8.21v4.58h21.73V194.8c-1.17,0-.35,0-1.77,0h0Zm-2.85.09h-3.2v-6.26h3.24l-2.55,2.55s1.73,1.9,3.07,3.72h-0.56Z" transform="translate(-26.47 -157.13)"/><path class="d" d="M281.67,190.35H273V180.29h8.68v10.07Zm7-10.07h8.9v10.07h-8.9V180.29Zm-0.09-12.62h0c0-.48.52-0.43,0.52-0.91a0.6,0.6,0,0,0-.52-0.56l-6.91-.17v7.82H266.29V199h6.65v-2.29h8.73v13.44h6.91V196.79h8.77V199h6.83V173.85h-15.6v-6.18Z" transform="translate(-26.47 -157.13)"/><path class="d" d="M441.44,168.06c0-.48.48-0.52,0.48-0.91a0.79,0.79,0,0,0-.48-0.6s-3.54-.13-7-0.13v3.89h-16v5.62h8.25a8.56,8.56,0,0,0,.82,1.25c0.09,0.13,1.12,2.25,1.38,2.85h-8.73v29.29h6V192.51a8.14,8.14,0,0,1,2.07,3.07,2.46,2.46,0,0,0,1.51-1.08v10.89h4.8v-1h7.09v1h4.49a9,9,0,0,1,.91,4.28c0.35,0,1,0,1.3,0,4.62-.09,7.47-1.9,7.47-5.14V180h-8.21l1.86-4.15h8.21v-5.57H441.44v-2.25Zm-9.25,17.67h0c-1.38,1.81-6,4.8-6,4.8v0.09l0-4.84c5.62,0,6.09-.09,6,0h0Zm9.29,14h-6.83V196.1h6.83v3.59h0Zm8.42-14h0v4.67a63.57,63.57,0,0,0-6.39-4.67h6.39Zm-7.56,5.62H434.4a10.85,10.85,0,0,0,2.07-1.94c0.78-.09,1.12-0.52.69-1.12,0,0-.52-0.43-2.51-2.55h7.73a18.93,18.93,0,0,1-2.85,3.15,13.63,13.63,0,0,1,2.81,2.46h0ZM442.78,176h0l-1.94,4h-5.31l-1.77-4h9Zm7.13,25.75h0a1.5,1.5,0,0,1-1,1c-0.82,0-1.94,0-2.55,0v-8.3l1.38,1.25c1.25-1.68,2.2-3.07,2.2-3.07v9.16Z" transform="translate(-26.47 -157.13)"/><path class="d" d="M494.06,173.29h8.42v3.24h-8.42v-3.24ZM494,200h0V189.36h1.34a42.17,42.17,0,0,0,2.81,8.86S495.83,199.3,494,200h0Zm0-19h8.42v3.11h-8.42v-3.11Zm8.3,12.31h0a24.49,24.49,0,0,1-1.12-4l6.61-.09,0.09-21H488.4v34.48c-1,.43-2.85,1.34-2.85,1.34a19.16,19.16,0,0,1,2.16,5.23,0.48,0.48,0,0,0,.35.26c0.13,0,0,.26.91-0.56,2.25-1.08,8-4.45,9.33-5.18,1.81-1.08.22-.13,0.69-0.6a14.11,14.11,0,0,1-.35-4.36,35.94,35.94,0,0,0,8.42,10.5,34.49,34.49,0,0,1,4.36-5.18c-5.62-2.59-6.74-6.26-6.74-6.26,1.43-1,3.54-2.55,4.23-3.07a9.72,9.72,0,0,1,.91-0.73c0.13,0,.3-0.26.17-0.39-0.73-1-3-3.8-3-3.93Zm-16.72,3.28h0a16.72,16.72,0,0,1-3.37,1.86V193.9h5.23v-5.31h-5.23v-3.33h4.28v-5.49H475.87l2.12-3h9.38l0.09-5.57h-6.39a4.39,4.39,0,0,1,1.25-1.73,0.76,0.76,0,0,0,.22-1.25c-2.64-.82-4.15-1.6-5.88-2.25a44.39,44.39,0,0,1-8.25,14,12.21,12.21,0,0,1,2.64,5.1c1.6-1.6,2.2-2.29,2.2-2.29v2.38l3.28,0v3.24h-5.05v5.4h5.14v7.52c-2.07,1.12-5.05,2.38-5.05,2.38,1.56,3.24,2.12,4.8,2.38,5.36,0.65,0.65,1.3-.3,1.81-0.6,4.88-3,9.63-5.53,11.15-6.52l0.13,0.09a40.19,40.19,0,0,1-1.38-5.44h0Z" transform="translate(-26.47 -157.13)"/><path class="b" d="M525.25,182.19a69.12,69.12,0,0,0,6.87-6c0.56-.48,3.07-3.28,3.07-3.28a3.22,3.22,0,0,1,1.81-.82,0.9,0.9,0,0,0,.69-0.78c0.17-.39-0.26-0.78-2.07-2.64-0.65-.73-2.72-2.59-2.72-2.59-2.94,4.45-7.82,8.6-10.46,10.58,1.6,1.6,2.81,5.53,2.81,5.53h0Z" transform="translate(-26.47 -157.13)"/><path class="b" d="M540.46,181.76a3,3,0,0,1,.82-0.65,1.22,1.22,0,0,0,.78-0.91c0-.22-0.35-0.6-2.46-2.33a21.8,21.8,0,0,1-2-2.25,57.63,57.63,0,0,1-14.43,14.21c1.64,1.47,2.81,5.83,2.81,5.83h0l3.2-2.55,0.13,0v16.2h6.22V187.94c1.68-1.77,4.36-5.23,4.36-5.23V188h11.49v14.47a1.27,1.27,0,0,1-1.17,1.17h-3.76a9,9,0,0,1,2.07,6.57h0.69c3.89-.17,8.47-0.35,8.73-5.7V188h5.49v-6.22h-23Z" transform="translate(-26.47 -157.13)"/></svg>